<svg width="149" height="38" viewBox="0 0 149 38" fill="none" xmlns="http://www.w3.org/2000/svg">
<path d="M20.1556 13.942C20.1556 20.4178 15.6749 24.8757 8.68602 24.8757H0.5V3.0083H8.69742C15.6749 3.0083 20.1556 7.43195 20.1556 13.942ZM8.35539 20.2696C12.38 20.2696 14.74 17.9666 14.74 13.942C14.74 9.91739 12.3686 7.55736 8.35539 7.55736H5.82434V20.2696H8.35539Z" fill="#0E82FD"/>
<path d="M33.0462 25.1044C26.844 25.1044 21.8047 20.4642 21.8047 13.8857C21.8047 7.30724 26.8554 2.70117 33.0462 2.70117C39.2826 2.70117 44.2307 7.30724 44.2307 13.8857C44.2307 20.4528 39.237 25.1044 33.0462 25.1044ZM33.0462 20.2361C36.535 20.2361 38.8152 17.7165 38.8152 13.8857C38.8152 9.98651 36.5464 7.53526 33.0462 7.53526C29.4891 7.53526 27.2544 9.99791 27.2544 13.8857C27.243 17.7165 29.4891 20.2361 33.0462 20.2361Z" fill="#0E82FD"/>
<path d="M57.2794 2.75928C62.4784 2.75928 66.4118 5.68937 67.6545 10.4208H61.7943C60.8936 8.55106 59.2404 7.61617 57.211 7.61617C53.9389 7.61617 51.6929 10.0446 51.6929 13.9096C51.6929 17.7746 53.9389 20.203 57.211 20.203C59.2404 20.203 60.8822 19.2681 61.7943 17.3983H67.6545C66.4118 22.1298 62.4784 25.0257 57.2794 25.0257C50.8264 25.0257 46.2773 20.4425 46.2773 13.8982C46.2887 7.37674 50.8378 2.75928 57.2794 2.75928Z" fill="#0E82FD"/>
<path d="M80.1232 2.75928C85.3221 2.75928 89.2555 5.68937 90.4982 10.4208H84.6381C83.7374 8.55106 82.0842 7.61617 80.0548 7.61617C76.7827 7.61617 74.5366 10.0446 74.5366 13.9096C74.5366 17.7746 76.7827 20.203 80.0548 20.203C82.0842 20.203 83.726 19.2681 84.6381 17.3983H90.4982C89.2555 22.1298 85.3221 25.0257 80.1232 25.0257C73.6702 25.0257 69.1211 20.4425 69.1211 13.8982C69.1325 7.37674 73.6815 2.75928 80.1232 2.75928Z" fill="#0E82FD"/>
<path d="M146.775 7.28373H138.703V11.7074H145.84V15.8232H138.703V20.6231H146.775V24.8871H133.379V3.0083H146.775V7.28373Z" fill="#0E82FD"/>
<path d="M125.604 24.8768H131.784L125.627 16.212C128.991 15.2201 130.484 12.632 130.484 9.88434C130.484 6.08776 127.805 2.99805 122.446 2.99805H113.508V24.8654H118.832V17.5573H120.634L125.604 24.8768ZM118.832 7.43309H122.138C124.134 7.43309 125.069 8.4934 125.069 10.1124C125.069 11.8225 124.134 12.8486 122.138 12.8486H118.832V7.43309Z" fill="#0E82FD"/>
<path d="M143.273 35.2186C144.45 35.2186 145.405 34.2641 145.405 33.0866C145.405 31.9091 144.45 30.9546 143.273 30.9546C142.095 30.9546 141.141 31.9091 141.141 33.0866C141.141 34.2641 142.095 35.2186 143.273 35.2186Z" fill="#0E82FD"/>
<path d="M143.255 27.9328C141.658 27.9328 140.245 28.6739 139.321 29.8368L132.72 29.7342V31.6838H107.957C107.615 31.6838 107.272 31.5698 107.272 31.5698V31.5584C104.479 30.6121 103.624 28.7195 103.362 27.6934C104.821 27.2259 106.098 25.9376 106.132 24.102C108.675 22.7795 110.431 20.1002 110.431 16.0528V10.0444H110.419L109.519 9.18932L109.313 4.11581L108.082 2.78188C108.093 2.69067 108.105 2.58806 108.105 2.49685C108.105 1.11731 106.976 0 105.585 0C104.194 0 103.065 1.11731 103.065 2.49685C103.065 3.87639 104.194 4.9937 105.585 4.9937C105.688 4.9937 105.79 4.9823 105.882 4.9709L106.292 5.74618V9.20072L105.585 10.0444H105.551V16.0984C105.551 18.6865 104.32 20.18 102.005 20.18C99.6907 20.18 98.5164 18.6865 98.5164 16.0984V10.0444H98.4936L97.7981 9.20072V5.74618L98.1972 4.9709C98.2998 4.9823 98.391 4.9937 98.4936 4.9937C99.8731 4.9937 100.99 3.87639 100.99 2.49685C100.99 1.11731 99.8731 0 98.4936 0C97.1141 0 95.9967 1.11731 95.9967 2.49685C95.9967 2.59946 96.0082 2.69067 96.0196 2.78188L94.7996 4.11581L94.5944 9.18932L93.7051 10.0444H93.6367V16.0642C93.6367 20.3624 95.4723 23.1215 98.22 24.3528C98.4138 26.1542 99.6109 27.3285 101.013 27.739C101.504 31.7864 105.391 33.8386 106.725 34.0894C106.725 34.0894 107.01 34.1806 107.444 34.2148H132.754V36.1986H139.435C140.359 37.2931 141.738 38 143.289 38C146.071 38 148.317 35.754 148.317 32.9721C148.282 30.1902 146.036 27.9328 143.255 27.9328ZM102.131 26.6559C100.808 26.6559 99.8275 25.9376 99.3715 24.7747C100.17 24.9913 101.013 25.1053 101.903 25.1053C102.974 25.1053 104 24.9457 104.947 24.6265H104.935C104.491 25.8578 103.499 26.6559 102.131 26.6559ZM143.255 36.5977C141.248 36.5977 139.618 34.9673 139.618 32.9607C139.618 30.9541 141.248 29.3237 143.255 29.3237C145.261 29.3237 146.891 30.9541 146.891 32.9607C146.891 34.9673 145.261 36.5977 143.255 36.5977Z" fill="#0E82FD"/>
</svg>
