<svg width="148" height="38" viewBox="0 0 148 38" fill="none" xmlns="http://www.w3.org/2000/svg">
<path d="M19.6556 13.942C19.6556 20.4178 15.1749 24.8757 8.18602 24.8757H0V3.0083H8.19742C15.1749 3.0083 19.6556 7.43195 19.6556 13.942ZM7.85539 20.2696C11.88 20.2696 14.24 17.9666 14.24 13.942C14.24 9.91739 11.8686 7.55736 7.85539 7.55736H5.32434V20.2696H7.85539Z" fill="url(#paint0_linear_4016_71975)"/>
<path d="M32.5462 25.1044C26.344 25.1044 21.3047 20.4642 21.3047 13.8857C21.3047 7.30724 26.3554 2.70117 32.5462 2.70117C38.7826 2.70117 43.7307 7.30724 43.7307 13.8857C43.7307 20.4528 38.737 25.1044 32.5462 25.1044ZM32.5462 20.2361C36.035 20.2361 38.3152 17.7165 38.3152 13.8857C38.3152 9.98651 36.0464 7.53526 32.5462 7.53526C28.9891 7.53526 26.7544 9.99791 26.7544 13.8857C26.743 17.7165 28.9891 20.2361 32.5462 20.2361Z" fill="url(#paint1_linear_4016_71975)"/>
<path d="M56.7794 2.75928C61.9784 2.75928 65.9118 5.68937 67.1545 10.4208H61.2943C60.3936 8.55106 58.7404 7.61617 56.711 7.61617C53.4389 7.61617 51.1929 10.0446 51.1929 13.9096C51.1929 17.7746 53.4389 20.203 56.711 20.203C58.7404 20.203 60.3822 19.2681 61.2943 17.3983H67.1545C65.9118 22.1298 61.9784 25.0257 56.7794 25.0257C50.3264 25.0257 45.7773 20.4425 45.7773 13.8982C45.7887 7.37674 50.3378 2.75928 56.7794 2.75928Z" fill="url(#paint2_linear_4016_71975)"/>
<path d="M79.6232 2.75928C84.8221 2.75928 88.7555 5.68937 89.9982 10.4208H84.1381C83.2374 8.55106 81.5842 7.61617 79.5548 7.61617C76.2827 7.61617 74.0366 10.0446 74.0366 13.9096C74.0366 17.7746 76.2827 20.203 79.5548 20.203C81.5842 20.203 83.226 19.2681 84.1381 17.3983H89.9982C88.7555 22.1298 84.8221 25.0257 79.6232 25.0257C73.1702 25.0257 68.6211 20.4425 68.6211 13.8982C68.6325 7.37674 73.1815 2.75928 79.6232 2.75928Z" fill="url(#paint3_linear_4016_71975)"/>
<path d="M146.275 7.28373H138.203V11.7074H145.34V15.8232H138.203V20.6231H146.275V24.8871H132.879V3.0083H146.275V7.28373Z" fill="url(#paint4_linear_4016_71975)"/>
<path d="M125.104 24.8768H131.284L125.127 16.212C128.491 15.2201 129.984 12.632 129.984 9.88434C129.984 6.08776 127.305 2.99805 121.946 2.99805H113.008V24.8654H118.332V17.5573H120.134L125.104 24.8768ZM118.332 7.43309H121.638C123.634 7.43309 124.569 8.4934 124.569 10.1124C124.569 11.8225 123.634 12.8486 121.638 12.8486H118.332V7.43309Z" fill="url(#paint5_linear_4016_71975)"/>
<path d="M142.773 35.2186C143.95 35.2186 144.905 34.2641 144.905 33.0866C144.905 31.9091 143.95 30.9546 142.773 30.9546C141.595 30.9546 140.641 31.9091 140.641 33.0866C140.641 34.2641 141.595 35.2186 142.773 35.2186Z" fill="url(#paint6_linear_4016_71975)"/>
<path d="M142.755 27.9328C141.158 27.9328 139.745 28.6739 138.821 29.8368L132.22 29.7342V31.6838H107.457C107.115 31.6838 106.772 31.5698 106.772 31.5698V31.5584C103.979 30.6121 103.124 28.7195 102.862 27.6934C104.321 27.2259 105.598 25.9376 105.632 24.102C108.175 22.7795 109.931 20.1002 109.931 16.0528V10.0444H109.919L109.019 9.18932L108.813 4.11581L107.582 2.78188C107.593 2.69067 107.605 2.58806 107.605 2.49685C107.605 1.11731 106.476 0 105.085 0C103.694 0 102.565 1.11731 102.565 2.49685C102.565 3.87639 103.694 4.9937 105.085 4.9937C105.188 4.9937 105.29 4.9823 105.382 4.9709L105.792 5.74618V9.20072L105.085 10.0444H105.051V16.0984C105.051 18.6865 103.82 20.18 101.505 20.18C99.1907 20.18 98.0164 18.6865 98.0164 16.0984V10.0444H97.9936L97.2981 9.20072V5.74618L97.6972 4.9709C97.7998 4.9823 97.891 4.9937 97.9936 4.9937C99.3731 4.9937 100.49 3.87639 100.49 2.49685C100.49 1.11731 99.3731 0 97.9936 0C96.6141 0 95.4967 1.11731 95.4967 2.49685C95.4967 2.59946 95.5082 2.69067 95.5196 2.78188L94.2996 4.11581L94.0944 9.18932L93.2051 10.0444H93.1367V16.0642C93.1367 20.3624 94.9723 23.1215 97.72 24.3528C97.9138 26.1542 99.1109 27.3285 100.513 27.739C101.004 31.7864 104.891 33.8386 106.225 34.0894C106.225 34.0894 106.51 34.1806 106.944 34.2148H132.254V36.1986H138.935C139.859 37.2931 141.238 38 142.789 38C145.571 38 147.817 35.754 147.817 32.9721C147.782 30.1902 145.536 27.9328 142.755 27.9328ZM101.631 26.6559C100.308 26.6559 99.3275 25.9376 98.8715 24.7747C99.6696 24.9913 100.513 25.1053 101.403 25.1053C102.474 25.1053 103.5 24.9457 104.447 24.6265H104.435C103.991 25.8578 102.999 26.6559 101.631 26.6559ZM142.755 36.5977C140.748 36.5977 139.118 34.9673 139.118 32.9607C139.118 30.9541 140.748 29.3237 142.755 29.3237C144.761 29.3237 146.391 30.9541 146.391 32.9607C146.391 34.9673 144.761 36.5977 142.755 36.5977Z" fill="url(#paint7_linear_4016_71975)"/>
<defs>
<linearGradient id="paint0_linear_4016_71975" x1="0" y1="19" x2="147.817" y2="19" gradientUnits="userSpaceOnUse">
<stop stop-color="#0284C7"/>
<stop offset="0.565503" stop-color="#0284C7"/>
<stop offset="1" stop-color="#F0AA00"/>
</linearGradient>
<linearGradient id="paint1_linear_4016_71975" x1="0" y1="19" x2="147.817" y2="19" gradientUnits="userSpaceOnUse">
<stop stop-color="#0284C7"/>
<stop offset="0.565503" stop-color="#0284C7"/>
<stop offset="1" stop-color="#F0AA00"/>
</linearGradient>
<linearGradient id="paint2_linear_4016_71975" x1="0" y1="19" x2="147.817" y2="19" gradientUnits="userSpaceOnUse">
<stop stop-color="#0284C7"/>
<stop offset="0.565503" stop-color="#0284C7"/>
<stop offset="1" stop-color="#F0AA00"/>
</linearGradient>
<linearGradient id="paint3_linear_4016_71975" x1="0" y1="19" x2="147.817" y2="19" gradientUnits="userSpaceOnUse">
<stop stop-color="#0284C7"/>
<stop offset="0.565503" stop-color="#0284C7"/>
<stop offset="1" stop-color="#F0AA00"/>
</linearGradient>
<linearGradient id="paint4_linear_4016_71975" x1="0" y1="19" x2="147.817" y2="19" gradientUnits="userSpaceOnUse">
<stop stop-color="#0284C7"/>
<stop offset="0.565503" stop-color="#0284C7"/>
<stop offset="1" stop-color="#F0AA00"/>
</linearGradient>
<linearGradient id="paint5_linear_4016_71975" x1="0" y1="19" x2="147.817" y2="19" gradientUnits="userSpaceOnUse">
<stop stop-color="#0284C7"/>
<stop offset="0.565503" stop-color="#0284C7"/>
<stop offset="1" stop-color="#F0AA00"/>
</linearGradient>
<linearGradient id="paint6_linear_4016_71975" x1="0" y1="19" x2="147.817" y2="19" gradientUnits="userSpaceOnUse">
<stop stop-color="#0284C7"/>
<stop offset="0.565503" stop-color="#0284C7"/>
<stop offset="1" stop-color="#F0AA00"/>
</linearGradient>
<linearGradient id="paint7_linear_4016_71975" x1="0" y1="19" x2="147.817" y2="19" gradientUnits="userSpaceOnUse">
<stop stop-color="#0284C7"/>
<stop offset="0.565503" stop-color="#0284C7"/>
<stop offset="1" stop-color="#F0AA00"/>
</linearGradient>
</defs>
</svg>
