<svg width="364" height="234" viewBox="0 0 364 234" fill="none" xmlns="http://www.w3.org/2000/svg">
<g filter="url(#filter0_dddddd_3857_28161)">
<rect x="80" y="2" width="204" height="52" rx="10" fill="white"/>
<rect x="91" y="13" width="30" height="30" rx="6" fill="#0E82FD"/>
<path d="M112.666 23L103.5 32.1667L99.333 28" stroke="white" stroke-width="2" stroke-linecap="round" stroke-linejoin="round"/>
<path d="M135.278 34V22.3636H139.426C140.328 22.3636 141.076 22.5189 141.67 22.8295C142.269 23.1402 142.716 23.5701 143.011 24.1193C143.307 24.6648 143.455 25.2955 143.455 26.0114C143.455 26.7235 143.305 27.3504 143.006 27.892C142.71 28.4299 142.263 28.8485 141.665 29.1477C141.07 29.447 140.322 29.5966 139.42 29.5966H136.278V28.0852H139.261C139.83 28.0852 140.292 28.0038 140.648 27.8409C141.008 27.678 141.271 27.4413 141.438 27.1307C141.604 26.8201 141.688 26.447 141.688 26.0114C141.688 25.572 141.602 25.1913 141.432 24.8693C141.265 24.5473 141.002 24.3011 140.642 24.1307C140.286 23.9564 139.818 23.8693 139.239 23.8693H137.034V34H135.278ZM141.023 28.75L143.898 34H141.898L139.08 28.75H141.023ZM149.187 34.1761C148.327 34.1761 147.586 33.9924 146.965 33.625C146.348 33.2538 145.87 32.733 145.533 32.0625C145.2 31.3883 145.033 30.5985 145.033 29.6932C145.033 28.7992 145.2 28.0114 145.533 27.3295C145.87 26.6477 146.34 26.1155 146.942 25.733C147.548 25.3504 148.257 25.1591 149.067 25.1591C149.56 25.1591 150.037 25.2405 150.499 25.4034C150.961 25.5663 151.376 25.822 151.743 26.1705C152.111 26.5189 152.401 26.9716 152.613 27.5284C152.825 28.0814 152.931 28.7538 152.931 29.5455V30.1477H145.993V28.875H151.266C151.266 28.428 151.175 28.0322 150.993 27.6875C150.812 27.339 150.556 27.0644 150.226 26.8636C149.901 26.6629 149.518 26.5625 149.079 26.5625C148.601 26.5625 148.185 26.6799 147.829 26.9148C147.476 27.1458 147.204 27.4489 147.01 27.8239C146.821 28.1951 146.726 28.5985 146.726 29.0341V30.0284C146.726 30.6117 146.829 31.108 147.033 31.517C147.241 31.9261 147.531 32.2386 147.902 32.4545C148.274 32.6667 148.707 32.7727 149.204 32.7727C149.526 32.7727 149.819 32.7273 150.084 32.6364C150.349 32.5417 150.579 32.4015 150.772 32.2159C150.965 32.0303 151.113 31.8011 151.215 31.5284L152.823 31.8182C152.694 32.2917 152.463 32.7064 152.13 33.0625C151.8 33.4148 151.385 33.6894 150.885 33.8864C150.389 34.0795 149.823 34.1761 149.187 34.1761ZM158.555 37.4545C157.862 37.4545 157.265 37.3636 156.765 37.1818C156.269 37 155.864 36.7595 155.549 36.4602C155.235 36.161 155 35.8333 154.845 35.4773L156.305 34.875C156.407 35.0417 156.544 35.2178 156.714 35.4034C156.888 35.5928 157.123 35.7538 157.419 35.8864C157.718 36.0189 158.102 36.0852 158.572 36.0852C159.216 36.0852 159.748 35.928 160.169 35.6136C160.589 35.303 160.799 34.8068 160.799 34.125V32.4091H160.691C160.589 32.5947 160.441 32.8011 160.248 33.0284C160.059 33.2557 159.797 33.4527 159.464 33.6193C159.131 33.786 158.697 33.8693 158.163 33.8693C157.473 33.8693 156.852 33.7083 156.299 33.3864C155.75 33.0606 155.314 32.5814 154.992 31.9489C154.674 31.3125 154.515 30.5303 154.515 29.6023C154.515 28.6742 154.672 27.8788 154.987 27.2159C155.305 26.553 155.74 26.0455 156.294 25.6932C156.847 25.3371 157.473 25.1591 158.174 25.1591C158.716 25.1591 159.153 25.25 159.487 25.4318C159.82 25.6098 160.08 25.8182 160.265 26.0568C160.455 26.2955 160.6 26.5057 160.703 26.6875H160.828V25.2727H162.492V34.1932C162.492 34.9432 162.318 35.5587 161.97 36.0398C161.621 36.5208 161.15 36.8769 160.555 37.108C159.964 37.339 159.297 37.4545 158.555 37.4545ZM158.538 32.4602C159.026 32.4602 159.439 32.3466 159.776 32.1193C160.117 31.8883 160.375 31.5587 160.549 31.1307C160.727 30.6989 160.816 30.1818 160.816 29.5795C160.816 28.9924 160.729 28.4754 160.555 28.0284C160.381 27.5814 160.125 27.233 159.788 26.983C159.451 26.7292 159.034 26.6023 158.538 26.6023C158.026 26.6023 157.6 26.7348 157.259 27C156.919 27.2614 156.661 27.6174 156.487 28.0682C156.316 28.5189 156.231 29.0227 156.231 29.5795C156.231 30.1515 156.318 30.6534 156.492 31.0852C156.667 31.517 156.924 31.8542 157.265 32.0966C157.61 32.339 158.034 32.4602 158.538 32.4602ZM170.379 30.3807V25.2727H172.084V34H170.413V32.4886H170.322C170.122 32.9545 169.8 33.3428 169.356 33.6534C168.917 33.9602 168.37 34.1136 167.714 34.1136C167.154 34.1136 166.658 33.9905 166.226 33.7443C165.798 33.4943 165.461 33.125 165.214 32.6364C164.972 32.1477 164.851 31.5436 164.851 30.8239V25.2727H166.55V30.6193C166.55 31.214 166.714 31.6875 167.044 32.0398C167.374 32.392 167.802 32.5682 168.328 32.5682C168.646 32.5682 168.963 32.4886 169.277 32.3295C169.595 32.1705 169.858 31.9299 170.067 31.608C170.279 31.286 170.383 30.8769 170.379 30.3807ZM176.145 22.3636V34H174.446V22.3636H176.145ZM181.051 34.1932C180.498 34.1932 179.998 34.0909 179.551 33.8864C179.104 33.678 178.749 33.3769 178.488 32.983C178.23 32.589 178.102 32.1061 178.102 31.5341C178.102 31.0417 178.196 30.6364 178.386 30.3182C178.575 30 178.831 29.7481 179.153 29.5625C179.475 29.3769 179.835 29.2367 180.232 29.142C180.63 29.0473 181.035 28.9754 181.448 28.9261C181.971 28.8655 182.395 28.8163 182.721 28.7784C183.047 28.7367 183.284 28.6705 183.431 28.5795C183.579 28.4886 183.653 28.3409 183.653 28.1364V28.0966C183.653 27.6004 183.513 27.2159 183.232 26.9432C182.956 26.6705 182.543 26.5341 181.994 26.5341C181.422 26.5341 180.971 26.661 180.641 26.9148C180.316 27.1648 180.09 27.4432 179.965 27.75L178.369 27.3864C178.558 26.8561 178.835 26.428 179.198 26.1023C179.566 25.7727 179.988 25.5341 180.465 25.3864C180.943 25.2348 181.445 25.1591 181.971 25.1591C182.32 25.1591 182.689 25.2008 183.079 25.2841C183.473 25.3636 183.84 25.5114 184.181 25.7273C184.526 25.9432 184.808 26.2519 185.028 26.6534C185.248 27.0511 185.357 27.5682 185.357 28.2045V34H183.698V32.8068H183.63C183.52 33.0265 183.355 33.2424 183.136 33.4545C182.916 33.6667 182.634 33.8428 182.289 33.983C181.945 34.1231 181.532 34.1932 181.051 34.1932ZM181.42 32.8295C181.89 32.8295 182.291 32.7367 182.624 32.5511C182.962 32.3655 183.217 32.1231 183.391 31.8239C183.57 31.5208 183.659 31.197 183.659 30.8523V29.7273C183.598 29.7879 183.48 29.8447 183.306 29.8977C183.136 29.947 182.941 29.9905 182.721 30.0284C182.501 30.0625 182.287 30.0947 182.079 30.125C181.871 30.1515 181.696 30.1742 181.556 30.1932C181.227 30.2348 180.926 30.3049 180.653 30.4034C180.384 30.5019 180.168 30.6439 180.005 30.8295C179.846 31.0114 179.766 31.2538 179.766 31.5568C179.766 31.9773 179.922 32.2955 180.232 32.5114C180.543 32.7235 180.939 32.8295 181.42 32.8295ZM187.7 34V25.2727H189.342V26.6591H189.433C189.592 26.1894 189.873 25.8201 190.274 25.5511C190.679 25.2784 191.138 25.142 191.649 25.142C191.755 25.142 191.88 25.1458 192.024 25.1534C192.172 25.161 192.287 25.1705 192.371 25.1818V26.8068C192.302 26.7879 192.181 26.767 192.007 26.7443C191.833 26.7178 191.659 26.7045 191.484 26.7045C191.083 26.7045 190.725 26.7898 190.41 26.9602C190.1 27.1269 189.854 27.3598 189.672 27.6591C189.49 27.9545 189.399 28.2917 189.399 28.6705V34H187.7ZM208.036 26.1477H206.264C206.195 25.7689 206.069 25.4356 205.883 25.1477C205.697 24.8598 205.47 24.6155 205.201 24.4148C204.932 24.214 204.631 24.0625 204.298 23.9602C203.968 23.858 203.618 23.8068 203.247 23.8068C202.576 23.8068 201.976 23.9754 201.445 24.3125C200.919 24.6496 200.502 25.1439 200.195 25.7955C199.892 26.447 199.741 27.2424 199.741 28.1818C199.741 29.1288 199.892 29.928 200.195 30.5795C200.502 31.2311 200.921 31.7235 201.451 32.0568C201.981 32.3902 202.578 32.5568 203.241 32.5568C203.608 32.5568 203.957 32.5076 204.286 32.4091C204.62 32.3068 204.921 32.1572 205.19 31.9602C205.459 31.7633 205.686 31.5227 205.872 31.2386C206.061 30.9508 206.192 30.6212 206.264 30.25L208.036 30.2557C207.942 30.8277 207.758 31.3542 207.485 31.8352C207.216 32.3125 206.87 32.7254 206.445 33.0739C206.025 33.4186 205.544 33.6856 205.002 33.875C204.461 34.0644 203.87 34.1591 203.229 34.1591C202.222 34.1591 201.324 33.9205 200.536 33.4432C199.748 32.9621 199.127 32.2746 198.673 31.3807C198.222 30.4867 197.997 29.4205 197.997 28.1818C197.997 26.9394 198.224 25.8731 198.678 24.983C199.133 24.089 199.754 23.4034 200.542 22.9261C201.33 22.4451 202.226 22.2045 203.229 22.2045C203.847 22.2045 204.423 22.2936 204.957 22.4716C205.495 22.6458 205.978 22.9034 206.406 23.2443C206.834 23.5814 207.188 23.9943 207.468 24.483C207.748 24.9678 207.938 25.5227 208.036 26.1477ZM211.78 28.8182V34H210.081V22.3636H211.757V26.6932H211.865C212.069 26.2235 212.382 25.8504 212.802 25.5739C213.223 25.2973 213.772 25.1591 214.45 25.1591C215.049 25.1591 215.571 25.2822 216.018 25.5284C216.469 25.7746 216.818 26.142 217.064 26.6307C217.314 27.1155 217.439 27.7216 217.439 28.4489V34H215.74V28.6534C215.74 28.0133 215.575 27.517 215.246 27.1648C214.916 26.8087 214.458 26.6307 213.871 26.6307C213.469 26.6307 213.109 26.7159 212.791 26.8864C212.477 27.0568 212.229 27.3068 212.047 27.6364C211.869 27.9621 211.78 28.3561 211.78 28.8182ZM223.547 34.1761C222.687 34.1761 221.947 33.9924 221.326 33.625C220.708 33.2538 220.231 32.733 219.894 32.0625C219.56 31.3883 219.394 30.5985 219.394 29.6932C219.394 28.7992 219.56 28.0114 219.894 27.3295C220.231 26.6477 220.701 26.1155 221.303 25.733C221.909 25.3504 222.617 25.1591 223.428 25.1591C223.92 25.1591 224.398 25.2405 224.86 25.4034C225.322 25.5663 225.737 25.822 226.104 26.1705C226.471 26.5189 226.761 26.9716 226.973 27.5284C227.185 28.0814 227.291 28.7538 227.291 29.5455V30.1477H220.354V28.875H225.627C225.627 28.428 225.536 28.0322 225.354 27.6875C225.172 27.339 224.916 27.0644 224.587 26.8636C224.261 26.6629 223.879 26.5625 223.439 26.5625C222.962 26.5625 222.545 26.6799 222.189 26.9148C221.837 27.1458 221.564 27.4489 221.371 27.8239C221.182 28.1951 221.087 28.5985 221.087 29.0341V30.0284C221.087 30.6117 221.189 31.108 221.394 31.517C221.602 31.9261 221.892 32.2386 222.263 32.4545C222.634 32.6667 223.068 32.7727 223.564 32.7727C223.886 32.7727 224.18 32.7273 224.445 32.6364C224.71 32.5417 224.939 32.4015 225.132 32.2159C225.326 32.0303 225.473 31.8011 225.576 31.5284L227.184 31.8182C227.055 32.2917 226.824 32.7064 226.49 33.0625C226.161 33.4148 225.746 33.6894 225.246 33.8864C224.75 34.0795 224.184 34.1761 223.547 34.1761ZM232.933 34.1761C232.088 34.1761 231.361 33.9848 230.751 33.6023C230.145 33.2159 229.679 32.6837 229.353 32.0057C229.027 31.3277 228.864 30.5511 228.864 29.6761C228.864 28.7898 229.031 28.0076 229.364 27.3295C229.698 26.6477 230.167 26.1155 230.773 25.733C231.38 25.3504 232.094 25.1591 232.916 25.1591C233.578 25.1591 234.169 25.2822 234.688 25.5284C235.207 25.7708 235.626 26.1117 235.944 26.5511C236.266 26.9905 236.457 27.5038 236.518 28.0909H234.864C234.773 27.6818 234.565 27.3295 234.239 27.0341C233.917 26.7386 233.486 26.5909 232.944 26.5909C232.47 26.5909 232.056 26.7159 231.7 26.9659C231.347 27.2121 231.073 27.5644 230.876 28.0227C230.679 28.4773 230.58 29.0152 230.58 29.6364C230.58 30.2727 230.677 30.822 230.87 31.2841C231.063 31.7462 231.336 32.1042 231.688 32.358C232.044 32.6117 232.463 32.7386 232.944 32.7386C233.266 32.7386 233.558 32.6799 233.819 32.5625C234.084 32.4413 234.306 32.2689 234.484 32.0455C234.666 31.822 234.792 31.553 234.864 31.2386H236.518C236.457 31.803 236.273 32.3068 235.967 32.75C235.66 33.1932 235.249 33.5417 234.734 33.7955C234.222 34.0492 233.622 34.1761 232.933 34.1761ZM239.977 31.0398L239.966 28.9659H240.261L243.738 25.2727H245.772L241.807 29.4773H241.54L239.977 31.0398ZM238.415 34V22.3636H240.113V34H238.415ZM243.926 34L240.801 29.8523L241.971 28.6648L246.011 34H243.926ZM251.949 28.3466V29.8182H246.79V28.3466H251.949ZM259.822 30.3807V25.2727H261.526V34H259.856V32.4886H259.765C259.564 32.9545 259.242 33.3428 258.799 33.6534C258.36 33.9602 257.812 34.1136 257.157 34.1136C256.596 34.1136 256.1 33.9905 255.668 33.7443C255.24 33.4943 254.903 33.125 254.657 32.6364C254.415 32.1477 254.293 31.5436 254.293 30.8239V25.2727H255.992V30.6193C255.992 31.214 256.157 31.6875 256.486 32.0398C256.816 32.392 257.244 32.5682 257.771 32.5682C258.089 32.5682 258.405 32.4886 258.719 32.3295C259.038 32.1705 259.301 31.9299 259.509 31.608C259.721 31.286 259.825 30.8769 259.822 30.3807ZM263.889 37.2727V25.2727H265.548V26.6875H265.69C265.789 26.5057 265.931 26.2955 266.116 26.0568C266.302 25.8182 266.559 25.6098 266.889 25.4318C267.218 25.25 267.654 25.1591 268.196 25.1591C268.9 25.1591 269.529 25.3371 270.082 25.6932C270.635 26.0492 271.069 26.5625 271.383 27.233C271.701 27.9034 271.861 28.7102 271.861 29.6534C271.861 30.5966 271.703 31.4053 271.389 32.0795C271.075 32.75 270.643 33.267 270.093 33.6307C269.544 33.9905 268.917 34.1705 268.213 34.1705C267.682 34.1705 267.249 34.0814 266.912 33.9034C266.578 33.7254 266.317 33.517 266.128 33.2784C265.938 33.0398 265.792 32.8277 265.69 32.642H265.588V37.2727H263.889ZM265.554 29.6364C265.554 30.25 265.643 30.7879 265.821 31.25C265.999 31.7121 266.256 32.0739 266.593 32.3352C266.931 32.5928 267.343 32.7216 267.832 32.7216C268.34 32.7216 268.764 32.5871 269.105 32.3182C269.446 32.0455 269.703 31.6761 269.878 31.2102C270.056 30.7443 270.145 30.2197 270.145 29.6364C270.145 29.0606 270.057 28.5436 269.883 28.0852C269.713 27.6269 269.455 27.2652 269.111 27C268.77 26.7348 268.343 26.6023 267.832 26.6023C267.34 26.6023 266.923 26.7292 266.582 26.983C266.245 27.2367 265.989 27.5909 265.815 28.0455C265.641 28.5 265.554 29.0303 265.554 29.6364Z" fill="#1F2937"/>
</g>
<defs>
<filter id="filter0_dddddd_3857_28161" x="0" y="0.703704" width="364" height="233.296" filterUnits="userSpaceOnUse" color-interpolation-filters="sRGB">
<feFlood flood-opacity="0" result="BackgroundImageFix"/>
<feColorMatrix in="SourceAlpha" type="matrix" values="0 0 0 0 0 0 0 0 0 0 0 0 0 0 0 0 0 0 127 0" result="hardAlpha"/>
<feOffset dy="1.85185"/>
<feGaussianBlur stdDeviation="1.57407"/>
<feColorMatrix type="matrix" values="0 0 0 0 0 0 0 0 0 0 0 0 0 0 0 0 0 0 0.01 0"/>
<feBlend mode="normal" in2="BackgroundImageFix" result="effect1_dropShadow_3857_28161"/>
<feColorMatrix in="SourceAlpha" type="matrix" values="0 0 0 0 0 0 0 0 0 0 0 0 0 0 0 0 0 0 127 0" result="hardAlpha"/>
<feOffset dy="8.14815"/>
<feGaussianBlur stdDeviation="3.25926"/>
<feColorMatrix type="matrix" values="0 0 0 0 0 0 0 0 0 0 0 0 0 0 0 0 0 0 0.0117778 0"/>
<feBlend mode="normal" in2="effect1_dropShadow_3857_28161" result="effect2_dropShadow_3857_28161"/>
<feColorMatrix in="SourceAlpha" type="matrix" values="0 0 0 0 0 0 0 0 0 0 0 0 0 0 0 0 0 0 127 0" result="hardAlpha"/>
<feOffset dy="20"/>
<feGaussianBlur stdDeviation="6.5"/>
<feColorMatrix type="matrix" values="0 0 0 0 0 0 0 0 0 0 0 0 0 0 0 0 0 0 0.015 0"/>
<feBlend mode="normal" in2="effect2_dropShadow_3857_28161" result="effect3_dropShadow_3857_28161"/>
<feColorMatrix in="SourceAlpha" type="matrix" values="0 0 0 0 0 0 0 0 0 0 0 0 0 0 0 0 0 0 127 0" result="hardAlpha"/>
<feOffset dy="38.5185"/>
<feGaussianBlur stdDeviation="12.7407"/>
<feColorMatrix type="matrix" values="0 0 0 0 0 0 0 0 0 0 0 0 0 0 0 0 0 0 0.0182222 0"/>
<feBlend mode="normal" in2="effect3_dropShadow_3857_28161" result="effect4_dropShadow_3857_28161"/>
<feColorMatrix in="SourceAlpha" type="matrix" values="0 0 0 0 0 0 0 0 0 0 0 0 0 0 0 0 0 0 127 0" result="hardAlpha"/>
<feOffset dy="64.8148"/>
<feGaussianBlur stdDeviation="23.4259"/>
<feColorMatrix type="matrix" values="0 0 0 0 0 0 0 0 0 0 0 0 0 0 0 0 0 0 0.0227778 0"/>
<feBlend mode="normal" in2="effect4_dropShadow_3857_28161" result="effect5_dropShadow_3857_28161"/>
<feColorMatrix in="SourceAlpha" type="matrix" values="0 0 0 0 0 0 0 0 0 0 0 0 0 0 0 0 0 0 127 0" result="hardAlpha"/>
<feOffset dy="100"/>
<feGaussianBlur stdDeviation="40"/>
<feColorMatrix type="matrix" values="0 0 0 0 0 0 0 0 0 0 0 0 0 0 0 0 0 0 0.03 0"/>
<feBlend mode="normal" in2="effect5_dropShadow_3857_28161" result="effect6_dropShadow_3857_28161"/>
<feBlend mode="normal" in="SourceGraphic" in2="effect6_dropShadow_3857_28161" result="shape"/>
</filter>
</defs>
</svg>
