<svg width="50" height="50" viewBox="0 0 50 50" fill="none" xmlns="http://www.w3.org/2000/svg">
<path d="M10.8924 0.137226C7.93345 0.635273 5.67759 1.69973 3.78306 3.50637C1.98618 5.21535 0.921728 7.15871 0.286962 9.91262C0.00375877 11.1821 -0.0743662 14.2486 0.140478 15.9087C0.511571 18.7114 1.41001 21.5239 2.69907 23.8872C2.93345 24.3267 3.54868 25.3814 4.05649 26.231C6.56626 30.3911 7.38657 32.6861 7.86509 36.8169C8.48032 42.0806 9.61313 46.4849 10.8045 48.2232C11.244 48.8482 11.8006 49.3462 12.4549 49.688C13.1581 50.0493 14.4374 50.1177 15.0331 49.815C17.0252 48.7896 18.4999 44.854 19.7401 37.2075C19.9452 35.8892 20.1893 34.5708 20.2772 34.2779C20.6092 33.106 21.3026 32.2368 22.0741 32.0318C22.2987 31.9732 22.494 31.9341 22.5038 31.9536C22.5135 31.9732 22.6698 32.3247 22.8553 32.7446C23.0311 33.1646 23.578 34.1802 24.0565 34.9907C25.7948 37.9302 26.2245 39.1509 26.5663 42.1392C26.7127 43.3501 27.1913 45.8013 27.4549 46.7193C27.9432 48.3696 28.7538 49.522 29.662 49.8638C30.2674 50.0982 31.3026 50.02 31.7323 49.7173C32.7967 48.9556 33.6952 46.4263 34.4178 42.1587C34.6034 41.0747 34.828 40.0005 34.9159 39.7661C35.3456 38.6919 36.3221 38.7114 36.7811 39.7954C36.8592 39.981 37.0936 41.1528 37.3084 42.3931C37.7284 44.8247 37.8456 45.3423 38.3045 46.7778C38.8124 48.3599 39.5057 49.522 40.1405 49.854C40.5116 50.0493 41.6053 50.0396 42.0741 49.8443C42.787 49.5513 43.5292 48.6236 43.9393 47.5103C44.3885 46.2993 44.9842 43.4966 45.1698 41.6509C45.4139 39.3169 45.9217 37.9204 47.4745 35.2446C48.4608 33.5552 48.9588 32.52 49.3006 31.4458C49.8866 29.6099 49.9549 29.1216 49.9549 27.0513C49.9452 25.2642 49.9256 25.0982 49.6815 24.2876C49.076 22.3443 48.1385 21.0552 46.4881 19.9517C46.078 19.6782 44.9549 19.1509 44.4667 19.0044C44.2713 18.9361 44.2616 18.9263 44.3983 18.4282C44.8182 16.8462 44.9647 15.4986 44.9647 13.3794C44.9647 11.0845 44.867 10.313 44.3397 8.59426C42.9139 3.96535 39.1834 0.90871 33.9881 0.12746C32.6209 -0.0776138 30.0428 0.000511169 28.7049 0.28371C26.537 0.75246 24.6229 1.61184 22.7088 2.97902C22.5233 3.11574 22.4452 3.08644 21.742 2.5884C20.0917 1.44582 18.2557 0.684101 16.0584 0.234882C15.0038 0.0200386 11.9374 -0.0287857 10.8924 0.137226ZM15.6874 1.99269C17.4354 2.33449 19.0956 2.98879 20.4139 3.8384C20.7655 4.06301 21.576 4.70754 22.2206 5.25441C25.8631 8.39894 29.076 10.0591 31.4784 10.0591C31.9178 10.0591 32.0545 10.02 32.2694 9.80519C32.7381 9.33644 32.5233 8.47707 31.9081 8.35988C31.7909 8.33059 31.4491 8.29152 31.1463 8.26223C29.4764 8.09621 27.0936 6.89504 24.7694 5.04934L23.91 4.35598L24.2323 4.0923C24.7694 3.65285 26.537 2.77394 27.5428 2.46144C29.4276 1.86574 31.3319 1.6509 33.1581 1.84621C38.8319 2.45168 42.494 5.98684 43.1678 11.5239C43.3827 13.3013 43.2167 15.7134 42.7479 17.6763L42.5331 18.5747L41.3124 18.604C39.4764 18.6529 37.8358 19.1314 36.3807 20.0689L35.8241 20.4204L35.5213 20.1861C34.1444 19.1314 31.5174 18.4478 29.4471 18.5943C25.6776 18.8579 22.8944 21.0259 21.9569 24.4439C21.6737 25.4497 21.6053 27.94 21.8202 29.1802C21.9081 29.6685 21.9764 30.1177 21.9764 30.1665C21.9764 30.2153 21.742 30.3325 21.4588 30.4107C20.7459 30.6157 19.9452 31.2212 19.4471 31.9243C18.7928 32.8618 18.5194 33.7798 18.0604 36.4946C17.3866 40.5864 16.8299 43.0474 16.117 45.0689C15.7166 46.1821 15.0916 47.4028 14.662 47.8716C14.3885 48.1841 14.2713 48.2427 13.9491 48.2427C12.5721 48.2427 11.5858 46.6021 10.6971 42.8228C10.2088 40.7622 9.88657 38.8872 9.57407 36.2407C9.07602 31.9829 8.19712 29.6196 5.42368 25.0493C3.56821 21.9829 2.63071 19.6782 2.05454 16.7486C1.75181 15.2446 1.67368 12.3247 1.89829 11.0161C2.13267 9.63918 2.49399 8.47707 2.99204 7.52004C4.6522 4.28762 7.69907 2.32473 11.8202 1.81691C12.5038 1.73879 14.9159 1.84621 15.6874 1.99269ZM32.1815 20.6157C33.3045 20.9087 34.4764 21.5532 35.453 22.4126C37.367 24.1118 39.2811 25.1568 40.912 25.3911C41.7225 25.5083 42.1229 25.3618 42.2792 24.8736C42.494 24.229 42.1327 23.77 41.3221 23.6724C41.0194 23.6431 40.4432 23.4868 40.0428 23.3306C39.3006 23.0376 37.367 21.8169 37.367 21.6314C37.367 21.4654 38.7733 20.8111 39.6034 20.5962C40.6288 20.3228 42.4256 20.2935 43.412 20.5376C44.5545 20.8208 45.6385 21.4263 46.4295 22.2075C47.201 22.9693 47.6209 23.6821 47.9725 24.8052C48.1678 25.4595 48.1971 25.7232 48.1874 27.1978C48.1874 28.731 48.1581 28.9458 47.8846 30.0005C47.5038 31.4263 47.0838 32.354 45.9706 34.2779C44.2127 37.2954 43.7342 38.7017 43.3631 41.895C43.1874 43.3501 42.7381 45.4986 42.367 46.563C42.0155 47.5786 41.5467 48.2427 41.1561 48.2427C40.5018 48.2427 39.5838 45.4302 38.9198 41.3775C38.7733 40.5278 38.578 39.6001 38.4803 39.3071C37.5233 36.5142 34.242 36.4458 33.2167 39.1997C33.119 39.4732 32.8944 40.4986 32.7284 41.4751C32.1815 44.7466 31.6346 46.7388 31.0096 47.8032C30.6971 48.3403 30.4334 48.3794 30.0038 47.94C29.3202 47.2368 28.6952 44.9126 28.2264 41.3091C27.8846 38.6626 27.4061 37.2368 26.1073 34.981C24.4471 32.1196 24.1737 31.5142 23.744 29.7857C23.3631 28.272 23.3143 26.2896 23.6268 25.0884C24.1639 22.9888 25.5897 21.4361 27.5917 20.7525C28.9881 20.2739 30.7069 20.2251 32.1815 20.6157Z" fill="#002578"/>
<path d="M10.4532 4.27734C9.66217 4.66797 9.91607 5.85938 10.7852 5.85938C11.2637 5.85938 11.42 5.78125 11.586 5.44922C11.9962 4.6582 11.2344 3.87695 10.4532 4.27734Z" fill="#002578"/>
<path d="M7.34744 5.82133C6.68338 6.15336 5.50174 7.2764 4.93533 8.10648C3.46072 10.3135 3.07986 13.0674 3.81229 16.2608C3.949 16.8467 4.05643 17.0909 4.25174 17.2569C4.74002 17.6768 5.5115 17.4522 5.61893 16.8565C5.65799 16.6905 5.58963 16.1143 5.48221 15.5772C5.18924 14.1319 5.14041 13.3213 5.27713 12.2471C5.40408 11.2315 5.69705 10.2842 6.12674 9.5225C6.449 8.93656 7.42557 7.89164 8.00174 7.50101C8.79275 6.9639 8.949 6.63187 8.64627 6.0557C8.55838 5.88969 8.48025 5.76273 8.47049 5.76273C8.46072 5.76273 8.30447 5.72367 8.13846 5.67484C7.88455 5.59672 7.73807 5.62601 7.34744 5.82133Z" fill="#002578"/>
<path d="M29.4273 21.8751C28.773 22.4805 29.3296 23.5352 30.2183 23.3692C30.8238 23.252 31.0777 22.3731 30.6187 21.9239C30.316 21.6114 29.73 21.5919 29.4273 21.8751Z" fill="#002578"/>
<path d="M27.1329 23.1352C26.3418 23.6332 25.5997 24.7368 25.2383 25.9282C24.8184 27.3344 25.1504 30.1664 25.8047 30.7133C26.1563 31.0063 26.5469 31.0258 26.8887 30.7622C27.2403 30.4789 27.2891 30.1274 27.0645 29.2875C26.5176 27.2368 26.8106 25.8696 28.0801 24.6489C28.7637 24.0043 28.8418 23.77 28.5684 23.2524C28.3145 22.7543 27.7969 22.7153 27.1329 23.1352Z" fill="#002578"/>
</svg>
