<svg width="41" height="40" viewBox="0 0 41 40" fill="none" xmlns="http://www.w3.org/2000/svg">
<path d="M24.113 0.146526C23.2847 0.413761 22.5877 0.948235 22.1941 1.61227L22.0383 1.87141L16.5031 1.84712L10.9678 1.81472L10.5824 2.00908C10.115 2.22773 9.73779 2.64072 9.50818 3.1428C9.34418 3.50722 9.34417 3.71777 9.30317 12.6823L9.26217 21.8493L8.99156 21.6388C8.10592 20.9747 6.73647 21.0962 6.01484 21.8979C5.52282 22.4567 5.33421 23.226 5.53102 23.8819C5.62942 24.1896 5.62942 24.3111 5.52282 24.6836C5.42441 25.0318 5.30961 25.2019 4.87499 25.6149C3.51373 26.8944 2.54609 28.7488 2.34929 30.4332C2.32468 30.7086 2.26728 30.9272 2.23448 30.9272C2.07047 30.9272 1.38165 31.6479 1.19304 32.0124C0.906026 32.5711 0.848624 33.3404 1.04543 33.964C1.30784 34.7657 2.15248 35.5107 2.99711 35.6646C3.26772 35.7132 3.34973 35.7941 3.68594 36.3043C4.12876 36.9846 5.28501 38.1426 5.94103 38.5637C8.63895 40.3048 11.8863 40.4748 14.699 39.0091L15.478 38.6042L17.3231 38.6528C18.3399 38.677 23.6702 38.7094 29.1726 38.7175L39.177 38.7337L39.5952 38.5232C40.079 38.2721 40.4071 37.9239 40.6285 37.4219C40.7843 37.0736 40.7925 36.612 40.8745 21.6711C40.9647 3.572 40.9647 3.55581 40.7187 3.11041C40.4891 2.68122 40.079 2.3087 39.628 2.10625C39.2918 1.95239 39.095 1.9362 37.1269 1.9362C35.9543 1.9362 33.4778 1.9119 31.6163 1.87951L28.2378 1.83092L27.9753 1.42602C27.2291 0.284195 25.4988 -0.290768 24.113 0.146526ZM25.8679 1.33694C26.3763 1.507 26.8765 1.94429 27.1389 2.45447C27.3357 2.82698 27.3603 2.98084 27.4013 4.02549C27.4423 5.05394 27.4669 5.19971 27.6063 5.30499C27.7375 5.39406 28.2296 5.41836 30.173 5.41836H32.5757V6.73024V8.03403L29.3202 7.98544C27.5243 7.95305 24.1622 7.92875 21.8579 7.92875H17.6511V6.67355V5.41836H20.062C23.1043 5.41836 22.8665 5.53983 22.9157 3.985C22.9485 2.68122 23.0797 2.3087 23.6948 1.78233C24.318 1.23976 25.1052 1.0778 25.8679 1.33694ZM19.8078 3.06992H21.6693V3.63679V4.20365H19.2256C16.2653 4.20365 16.4785 4.12267 16.4375 5.33738L16.4047 6.13908L15.1254 6.16338C13.92 6.18767 13.8216 6.20387 13.5591 6.38203C13.4115 6.4873 13.2147 6.72215 13.1327 6.9084C12.9851 7.22422 12.9769 7.57244 12.9769 13.6784C12.9769 17.2172 12.9523 20.4159 12.9277 20.7804C12.8785 21.3715 12.8539 21.4444 12.6735 21.5254C12.5669 21.574 12.2963 21.7764 12.0831 21.9789C11.7223 22.3109 11.6649 22.3352 11.4681 22.2623C11.3451 22.2218 11.0744 22.1813 10.8694 22.1813H10.4922L10.5332 12.9495C10.566 3.87163 10.5742 3.70967 10.73 3.49102C10.8202 3.36955 11.0252 3.20759 11.1811 3.12661C11.4435 2.98084 11.6567 2.98084 14.699 3.02134C16.4785 3.04563 18.7746 3.06992 19.8078 3.06992ZM39.2344 3.29667C39.3574 3.36955 39.5132 3.53151 39.587 3.66918C39.7182 3.90402 39.7182 5.10254 39.6444 20.3917C39.5706 36.4582 39.5624 36.8631 39.4066 37.0736C39.0294 37.5838 39.792 37.5514 27.7621 37.5109L16.8475 37.4623L17.3313 36.8631C17.6019 36.5311 17.8725 36.1505 17.9381 36.029C18.0365 35.8427 18.1431 35.7779 18.5122 35.7051C19.0616 35.5917 19.652 35.2111 19.9882 34.7576L20.2342 34.4256L26.0155 34.3932C31.1653 34.3689 31.8213 34.3527 32.0427 34.2393C32.3789 34.0612 36.6841 30.1498 36.9301 29.8016L37.1269 29.5182L37.1843 22.5538C37.2253 18.7154 37.2417 13.6622 37.2253 11.3137C37.2089 7.15134 37.2089 7.04607 37.0367 6.82742C36.6431 6.30104 36.5365 6.26865 35.1096 6.24436L33.8058 6.22006V5.38596C33.8058 4.16316 34.0026 4.25224 31.0587 4.21984L28.656 4.19555L28.6232 3.62059L28.5986 3.04563L33.8058 3.11041C38.3242 3.159 39.0458 3.1833 39.2344 3.29667ZM16.4375 8.09881C16.4785 9.24874 15.8962 9.14346 22.0301 9.14346C24.8838 9.14346 28.6068 9.16776 30.296 9.20015L33.3794 9.24874L33.5926 9.03819C33.7894 8.84383 33.8058 8.77095 33.8058 8.13121V7.43477L34.8964 7.45907L35.9789 7.48336L36.0035 9.02199C36.0199 9.86419 36.0035 14.6501 35.9789 19.6466L35.9215 28.7407H34.47C33.1334 28.7407 32.994 28.7569 32.6167 28.9351C32.3871 29.0323 32.0837 29.2428 31.9361 29.3886C31.4359 29.8826 31.3949 30.0202 31.3375 31.656C31.3129 32.482 31.2801 33.1623 31.2719 33.1704C31.2719 33.1866 28.8528 33.1947 25.9089 33.1947H20.554L20.4556 32.7169C20.3326 32.1419 19.9554 31.5589 19.488 31.2106C19.1682 30.9758 19.1518 30.9434 19.0616 30.3037C18.791 28.5302 17.8889 26.8458 16.5031 25.5582C16.1505 25.2262 15.929 24.9509 15.929 24.8537C15.929 24.7565 15.888 24.6107 15.8388 24.5217C15.7814 24.4083 15.7814 24.2787 15.8552 24.0601C15.9782 23.6876 15.9782 22.9506 15.847 22.6267C15.6092 22.0032 15.1336 21.5497 14.4776 21.331L14.1906 21.2339L14.1988 14.3667C14.207 10.5849 14.2316 7.46717 14.2562 7.42667C14.2808 7.39428 14.7728 7.36189 15.355 7.36189H16.4047L16.4375 8.09881ZM8.39294 22.8049L8.80295 23.1936L8.67175 23.5499C8.51594 23.9953 8.51594 24.5702 8.67175 25.0237L8.79475 25.372L8.49954 25.6716C8.33553 25.8416 8.08952 26.0198 7.96652 26.0765C7.5155 26.2546 7.02348 26.036 6.75287 25.5258C6.62166 25.2748 6.63806 25.0966 6.82667 24.7484C7.03168 24.3759 7.03168 24.2382 6.81847 23.7685C6.67906 23.4446 6.66266 23.3474 6.74467 23.1126C6.87587 22.7077 7.26129 22.4243 7.66311 22.4243C7.94192 22.4243 8.04852 22.4809 8.39294 22.8049ZM14.2644 22.5862C14.4038 22.6672 14.5678 22.8211 14.617 22.9182C14.7564 23.1693 14.74 23.6066 14.5842 23.8414C14.4202 24.0844 14.4202 24.5055 14.576 24.7727C14.6416 24.8861 14.6908 25.1128 14.699 25.291C14.699 25.7283 14.2726 26.1494 13.8216 26.1494C13.4853 26.1494 13.2639 26.036 12.8375 25.6392L12.5833 25.4043L12.7391 25.0642C12.9277 24.6512 12.9359 23.9953 12.7637 23.558C12.6243 23.226 12.6243 23.226 12.8621 22.9749C13.3869 22.4243 13.8052 22.3028 14.2644 22.5862ZM11.3369 23.6228C11.9437 24.222 11.5583 25.1938 10.7136 25.1938C10.156 25.1938 9.74599 24.7241 9.81159 24.1653C9.9018 23.4446 10.8202 23.1207 11.3369 23.6228ZM10.0002 26.3194C10.2954 26.4328 11.1565 26.4247 11.4517 26.3113C11.6813 26.2303 11.7223 26.2465 12.1077 26.6272C12.6571 27.1616 13.1163 27.3641 13.8052 27.3641C14.4284 27.3641 15.0516 27.1049 15.396 26.7081C15.6256 26.4328 15.6666 26.4409 16.0849 26.9025C17.1099 28.0119 17.7167 29.3805 17.8971 30.9434C17.9463 31.3483 18.0037 31.7127 18.0283 31.7532C18.0529 31.7856 18.2087 31.8909 18.3809 31.98C19.3158 32.4496 19.5536 33.389 18.9058 34.0855C18.6024 34.4256 18.2415 34.5713 17.7167 34.5713C17.3805 34.5713 17.2411 34.7171 16.7819 35.5026C16.4703 36.029 15.5272 37.0089 14.904 37.4461C12.0503 39.4464 8.13052 39.1467 5.68682 36.7497C5.1538 36.2314 4.58798 35.4783 4.31737 34.9681C4.10416 34.547 4.01395 34.4904 3.52193 34.4904C2.83311 34.4904 2.16068 33.8506 2.15248 33.2109C2.15248 32.6683 2.50509 32.1581 3.02171 31.9314C3.39073 31.7775 3.43173 31.6884 3.53833 30.8705C3.73514 29.3157 4.28457 28.1172 5.35881 26.8701L5.75243 26.4166L6.12964 26.7648C6.76927 27.3722 7.81891 27.526 8.60614 27.1373C8.78655 27.0402 9.11457 26.8053 9.33597 26.6029C9.55738 26.4004 9.74599 26.2384 9.75419 26.2303C9.76239 26.2303 9.869 26.2708 10.0002 26.3194ZM33.8468 31.154L32.6167 32.3444L32.5921 31.4941C32.5675 30.5466 32.6331 30.3442 33.0268 30.1012C33.2236 29.9878 33.445 29.9554 34.1748 29.9554H35.0768L33.8468 31.154Z" fill="#002578"/>
<path d="M16.5861 13.0455C16.3647 13.2884 16.3729 13.6366 16.6271 13.8796C16.8239 14.082 16.8239 14.082 18.5788 14.082C20.145 14.082 20.3582 14.0658 20.5222 13.9363C20.7764 13.7338 20.7846 13.2236 20.5304 13.0212C20.3582 12.8835 20.1778 12.8673 18.5459 12.8673C16.8075 12.8673 16.7501 12.8754 16.5861 13.0455Z" fill="#002578"/>
<path d="M21.5966 13.0206C21.3916 13.2231 21.367 13.6442 21.5392 13.8871C21.654 14.0329 21.8262 14.041 26.197 14.0815C31.0926 14.122 31.2156 14.1139 31.314 13.7252C31.3878 13.4255 31.2894 13.1259 31.0762 13.0206C30.945 12.9477 29.6658 12.9072 26.3364 12.883L21.777 12.8425L21.5966 13.0206Z" fill="#002578"/>
<path d="M32.1407 13.0943C31.9193 13.3373 31.9603 13.7989 32.2309 14.0013C32.4195 14.1552 32.5343 14.1714 32.969 14.1471C33.5348 14.1147 33.6906 14.0094 33.7726 13.6369C33.8054 13.4588 33.7726 13.3292 33.6414 13.1672C33.4774 12.9648 33.42 12.9486 32.8706 12.9486C32.3949 12.9486 32.2473 12.981 32.1407 13.0943Z" fill="#002578"/>
<path d="M16.5861 17.2422C16.3401 17.4851 16.3647 17.9143 16.6353 18.1249C16.8485 18.2949 16.9223 18.2949 21.4735 18.2949C25.9919 18.2949 26.0985 18.2949 26.2625 18.133C26.5085 17.89 26.4839 17.4608 26.2133 17.2503C26.0001 17.0802 25.9263 17.0802 21.3751 17.0802C16.8567 17.0802 16.7501 17.0802 16.5861 17.2422Z" fill="#002578"/>
<path d="M27.2035 17.1531C26.8017 17.3232 26.6869 17.8333 26.9657 18.1411C27.0969 18.2787 27.2363 18.2949 28.5648 18.2949C29.9753 18.2949 30.0245 18.2868 30.1475 18.1168C30.3197 17.8738 30.3115 17.5418 30.1393 17.3313C30.0081 17.1774 29.8769 17.1612 28.6796 17.1207C27.958 17.0964 27.2937 17.1126 27.2035 17.1531Z" fill="#002578"/>
<path d="M31.1326 17.223C30.78 17.4498 30.8128 18.0652 31.1818 18.2515C31.4688 18.3972 33.1171 18.4215 33.4287 18.2839C33.6501 18.1786 33.8305 17.798 33.7485 17.5793C33.6091 17.1825 33.5107 17.1582 32.3381 17.1582C31.723 17.1582 31.1818 17.1906 31.1326 17.223Z" fill="#002578"/>
<path d="M16.6428 21.631C16.4706 21.7687 16.3558 22.0764 16.405 22.3194C16.487 22.7405 16.3804 22.7324 22.4323 22.7648L28.0823 22.7891L28.2381 22.5947C28.4349 22.3599 28.4349 21.9793 28.2463 21.793C28.1069 21.6553 27.8527 21.6391 25.2368 21.5906C20.4806 21.5015 16.7986 21.5177 16.6428 21.631Z" fill="#002578"/>
<path d="M29.14 21.824C28.9104 22.1074 28.9268 22.3827 29.1728 22.6257L29.3696 22.8281H31.3705C33.2647 22.8281 33.3713 22.82 33.5436 22.6662C33.7814 22.4475 33.7814 21.994 33.56 21.7754C33.4041 21.6215 33.2893 21.6134 31.3541 21.6134H29.304L29.14 21.824Z" fill="#002578"/>
<path d="M18.1835 25.8586C17.9211 26.1177 17.9129 26.4659 18.1671 26.7007C18.3475 26.8708 18.4295 26.8789 19.9712 26.8789C21.48 26.8789 21.5948 26.8708 21.7506 26.7169C21.972 26.4983 21.9638 26.061 21.7424 25.8586C21.5866 25.7209 21.4062 25.7047 19.9794 25.6804L18.3885 25.6561L18.1835 25.8586Z" fill="#002578"/>
<path d="M22.7267 25.8266C22.4233 26.0048 22.4807 26.7012 22.8005 26.847C22.8825 26.8794 25.277 26.928 28.1308 26.9442L33.3298 26.9766L33.5266 26.7903C33.8054 26.5393 33.7972 26.1344 33.5102 25.9157C33.297 25.7457 33.2314 25.7457 28.0733 25.7457C24.908 25.7457 22.8087 25.7781 22.7267 25.8266Z" fill="#002578"/>
<path d="M5.507 30.5066C5.02318 30.9358 5.11338 31.8104 5.67921 32.1019C6.13022 32.3368 6.74525 32.1991 7.02406 31.8023C7.09786 31.697 7.15527 31.4541 7.15527 31.2273C7.15527 30.8872 7.11426 30.79 6.87646 30.5552C6.63045 30.3123 6.54844 30.2799 6.17943 30.2799C5.84321 30.2799 5.72021 30.3204 5.507 30.5066ZM6.31883 31.2354C6.33523 31.2921 6.29423 31.3326 6.22043 31.3326C6.14662 31.3326 6.08922 31.2759 6.08922 31.203C6.08922 31.0654 6.26963 31.0897 6.31883 31.2354Z" fill="#002578"/>
<path d="M14.8211 30.3938C14.4767 30.5396 14.2881 30.8554 14.2881 31.2684C14.2881 32.0053 14.9605 32.475 15.6165 32.1997C15.9938 32.0377 16.1824 31.8029 16.2316 31.4061C16.3464 30.6124 15.5837 30.0618 14.8211 30.3938ZM15.3541 31.2927C15.3541 31.3575 15.3213 31.4142 15.2803 31.4142C15.1737 31.4142 15.0999 31.2846 15.1655 31.2198C15.2557 31.1307 15.3541 31.1712 15.3541 31.2927Z" fill="#002578"/>
<path d="M7.44258 33.8588C7.22117 34.0289 7.22117 34.0532 7.26217 34.6443C7.40978 36.5636 9.25485 37.9888 11.1901 37.6649C12.7154 37.4058 13.7978 36.3368 14.0603 34.8144C14.1505 34.288 14.1505 34.2313 13.9946 34.0289C13.8634 33.8588 13.7404 33.794 13.4862 33.7778C13.0844 33.7454 12.945 33.9155 12.8548 34.531C12.6416 36.0534 11.0343 36.9442 9.71407 36.2801C9.01704 35.9319 8.46762 35.114 8.46762 34.4257C8.46762 33.7859 7.9182 33.4863 7.44258 33.8588Z" fill="#002578"/>
</svg>
