<svg width="41" height="40" viewBox="0 0 41 40" fill="none" xmlns="http://www.w3.org/2000/svg">
<g clip-path="url(#clip0_8_185828)">
<path d="M20.3242 0.398438C19.7539 0.492188 19.168 0.789062 18.707 1.21094L18.3242 1.54688L17.8789 1.24219C17.3477 0.890625 17.0352 0.789062 16.332 0.726562C15.7148 0.671875 15.1445 0.796875 14.543 1.09375C14.1055 1.3125 13.4414 1.94531 13.2852 2.29688L13.1992 2.48438L12.7539 2.27344C12.3633 2.09375 12.2227 2.07031 11.457 2.07031C10.6523 2.07031 10.5664 2.08594 10.0664 2.32031C9.36328 2.65625 8.78516 3.25 8.48047 3.9375L8.25391 4.46094L7.90234 4.39844C7.13672 4.26562 6.23047 4.42969 5.63672 4.8125C5.29297 5.03125 4.69922 5.65625 4.48047 6.02344C4.28516 6.35156 4.07422 7.10938 4.07422 7.5C4.07422 7.77344 4.06641 7.78125 3.66016 7.86719C3.04297 8 2.53516 8.26562 2.12109 8.67969C1.17578 9.625 0.886719 11.1641 1.44922 12.2969L1.64453 12.6875L1.33984 12.9453C1.16797 13.1016 0.925781 13.4297 0.777344 13.7344C0.527344 14.2344 0.519531 14.2969 0.519531 15.1562C0.519531 16.0312 0.527344 16.0781 0.785156 16.5938C1.14453 17.2969 1.71484 17.8203 2.34766 18.0156L2.82422 18.1641V18.5312C2.82422 19.4766 3.54297 20.4688 4.60547 20.9922C5.16797 21.2734 5.23828 21.2891 5.94141 21.2891C6.58984 21.2891 6.75391 21.2578 7.12891 21.0859L7.57422 20.875L7.80859 21.2109C8.12891 21.6641 8.73828 22.1406 9.28516 22.3516C9.63672 22.4922 9.89453 22.5312 10.4414 22.5312C11.2695 22.5312 11.832 22.3594 12.4023 21.9219L12.7695 21.6406L13.1836 22.0391C13.6602 22.4766 14.2695 22.7891 14.8555 22.8828C15.0742 22.9141 15.2695 22.9609 15.2852 22.9844C15.3086 23.0078 15.293 23.125 15.2461 23.2422C14.8633 24.25 15.0977 25.6094 15.8086 26.5C16.1133 26.8906 16.8242 27.3594 17.3086 27.5C17.5039 27.5547 17.668 27.6406 17.668 27.6875C17.668 27.7344 17.707 28.0156 17.7539 28.3203C18.0352 30.2812 19.1133 32.1875 20.6289 33.3906C21.3008 33.9219 21.9727 34.3125 23.457 35.0234C25.2383 35.875 25.5586 36.2188 25.7539 37.5C25.9102 38.5469 26.2695 39.0938 27.0352 39.4688C27.3477 39.625 27.5195 39.6484 28.293 39.6484C29.0664 39.6484 29.2461 39.625 29.5977 39.4609C30.1289 39.2266 30.5742 38.7344 30.7539 38.2031C31.1367 37.0547 30.5742 34.7422 29.5742 33.3359C29.4258 33.1328 29.3086 32.9531 29.3086 32.9375C29.3086 32.9219 29.7383 32.8906 30.2695 32.8672C31.7852 32.8047 33.0664 32.3828 34.3008 31.5547C36.2148 30.2812 37.4336 28.4062 37.8633 26.1016C37.9258 25.7422 37.9805 25.2188 37.9805 24.9297C37.9805 24.4688 37.957 24.3828 37.7852 24.2188C37.5039 23.9531 37.082 23.9609 36.8477 24.2344C36.7148 24.3906 36.668 24.5703 36.6289 25.125C36.4023 28.2344 34.1602 30.8047 31.0977 31.4453C30.4727 31.5781 29.332 31.5938 28.6523 31.4844C27.8242 31.3516 27.0977 31.0703 25.4805 30.2656C24.082 29.5625 23.8398 29.4141 23.5664 29.0859C23.2539 28.7109 22.9023 28.1016 22.9023 27.9297C22.9023 27.875 23.0586 27.8125 23.2539 27.7891C23.7852 27.7109 24.418 27.3828 24.918 26.9141L25.3711 26.5L25.793 26.7656C26.3555 27.1172 26.8711 27.2656 27.543 27.2656C28.6523 27.2656 29.6211 26.7812 30.1836 25.9453C30.3164 25.75 30.4336 25.5703 30.4492 25.5625C30.457 25.5469 30.6914 25.6172 30.9648 25.7266C31.6602 26 32.1367 26.0469 32.8086 25.9062C33.5352 25.7578 34.0586 25.4688 34.5352 24.9609C34.957 24.5156 35.207 24.0859 35.2852 23.6562L35.3398 23.375L36.0195 23.3438C36.5898 23.3281 36.7773 23.2812 37.207 23.0703C38.5352 22.4141 39.3086 20.7422 38.8867 19.4453C38.7773 19.1094 38.7695 19.0234 38.8555 18.9766C39.9805 18.3438 40.5273 17.2891 40.4648 15.9141C40.4336 15.2969 40.3945 15.125 40.1836 14.7109C40.043 14.4453 39.832 14.1016 39.6992 13.9609L39.4648 13.6875L39.7305 13.2422C40.0039 12.7891 40.168 12.2344 40.168 11.7578C40.168 11.0312 39.8008 10.0859 39.2852 9.48438C38.9805 9.13281 38.2539 8.71094 37.8164 8.63281L37.5273 8.57812L37.4961 7.90625C37.457 7.0625 37.2227 6.50781 36.6523 5.90625C35.9336 5.14844 34.7617 4.71875 33.8945 4.90625L33.5273 4.98438L33.4414 4.65625C32.9648 2.89062 30.8086 1.85156 29.1211 2.57031C28.7617 2.72656 28.7383 2.73438 28.6367 2.60156C28.582 2.52344 28.5273 2.42969 28.5273 2.39844C28.5273 2.35938 28.332 2.125 28.0977 1.875C27.0039 0.734375 25.2305 0.546875 23.9336 1.42969L23.5898 1.65625L23.2305 1.3125C23.0273 1.11719 22.7617 0.890625 22.6289 0.804688C22.0898 0.445312 21.0898 0.265625 20.3242 0.398438ZM21.8789 1.94531C22.043 2.03125 22.3008 2.25781 22.4414 2.4375C23.2383 3.48438 23.418 3.51562 24.3477 2.82031C25.0742 2.26562 25.5039 2.13281 26.0898 2.25781C26.8398 2.41406 27.1914 2.73438 27.6602 3.65625C27.8555 4.04688 27.9727 4.17969 28.1836 4.26562C28.4492 4.375 28.4805 4.375 29.1602 4.05469C29.5508 3.88281 30.0039 3.71875 30.168 3.69531C30.8711 3.60156 31.8242 4.19531 32.0898 4.89844L32.2305 5.25781L32.0352 5.38281C31.9336 5.44531 31.668 5.67969 31.4492 5.89844C30.8867 6.46094 30.6992 6.99219 30.707 7.96875C30.7148 8.89844 30.5977 9.17188 30.0664 9.4375C29.5508 9.70312 29.1445 9.625 28.707 9.1875C28.4414 8.91406 28.3711 8.78125 28.2852 8.35938C28.1133 7.48438 27.5977 7.17188 27.1133 7.64844C26.8477 7.91406 26.832 8.09375 27.0117 8.82812C27.2148 9.71094 27.6523 10.2734 28.4492 10.6797C28.8242 10.8672 28.9648 10.8906 29.543 10.8906C30.3477 10.8906 30.8477 10.7031 31.3242 10.2109C31.8789 9.64062 31.9961 9.3125 32.043 8.24219C32.0898 7.20312 32.1758 6.96094 32.6133 6.66406C32.9492 6.4375 34.207 6.17188 34.5977 6.25C35.2305 6.36719 35.7617 6.78906 36.043 7.40625C36.1758 7.71094 36.1914 7.84375 36.1445 8.55469C36.0898 9.33594 36.0898 9.36719 36.2695 9.54688C36.4023 9.67969 36.6602 9.77344 37.1602 9.88281C37.8086 10.0156 37.8867 10.0547 38.2148 10.3828C38.6133 10.7891 38.7617 11.1641 38.7617 11.8125C38.7617 12.2734 38.6445 12.5078 38.0898 13.1562C37.6602 13.6562 37.7227 13.875 38.4961 14.7031C38.8008 15.0312 39.0195 15.3359 39.0664 15.5234C39.3398 16.5078 38.9258 17.4062 37.9727 17.8906C37.7461 18.0078 37.5117 18.0469 37.0039 18.0469C36.2227 18.0469 35.9258 17.9453 35.582 17.5547C35.3398 17.2734 35.3008 17.1562 35.2148 16.3828C35.1211 15.5547 34.5508 14.7812 33.7695 14.3984C33.3867 14.2109 33.2383 14.1797 32.6289 14.1797C31.7461 14.1797 31.293 14.3438 30.7461 14.8594C30.2617 15.3125 30.0195 15.8281 29.9258 16.6016C29.8477 17.1953 29.7148 17.4375 29.3086 17.7109C28.9805 17.9375 28.5742 17.9375 28.1836 17.7109C27.6914 17.4297 27.5742 17.2109 27.5117 16.4375C27.4648 15.8281 27.4336 15.7344 27.2461 15.5703C26.9727 15.3359 26.6445 15.3438 26.3633 15.5781C26.1523 15.7578 26.1445 15.7969 26.1523 16.4297C26.168 17.1953 26.2617 17.5469 26.6289 18.0938C27.4414 19.3281 29.2617 19.5938 30.3789 18.6328C30.8398 18.2422 31.0898 17.7656 31.1914 17.0938C31.3086 16.3125 31.4727 15.9531 31.8086 15.7344C32.3633 15.3672 32.957 15.3906 33.4258 15.8047C33.7461 16.0859 33.918 16.4375 33.918 16.8203C33.918 17.5234 34.3867 18.4219 34.9883 18.8594C35.4727 19.2188 36.0195 19.375 36.7852 19.375C37.3789 19.375 37.4102 19.3828 37.5039 19.5781C37.6992 20.0156 37.6992 20.4297 37.4961 20.8672C37.2695 21.3516 36.9805 21.6719 36.5508 21.8906C36.2773 22.0234 36.1523 22.0391 35.3711 21.9844L34.4883 21.9297L34.332 22.1328C34.2461 22.25 34.1289 22.5547 34.082 22.8281C33.9414 23.5312 33.7383 23.9219 33.3398 24.2031C32.5664 24.7578 32.0352 24.7734 31.0586 24.2656C30.6836 24.0703 30.293 23.9062 30.207 23.9062C29.9414 23.9062 29.6602 24.1719 29.3633 24.7109C29.0352 25.2891 28.7617 25.5625 28.293 25.7734C27.8086 25.9922 27.2617 25.9844 26.7695 25.7422C26.1133 25.4297 25.9727 25.2578 25.9336 24.7656C25.8711 23.9609 25.2852 23.1328 24.5117 22.7422C24.3086 22.6484 23.8945 22.5312 23.5898 22.4922C22.7461 22.3906 22.3242 22.0703 22.2305 21.4688C22.1914 21.2578 22.2305 21.0859 22.3555 20.8281C22.6055 20.2969 22.8711 20.1406 23.6602 20.0703C24.457 20 24.6992 19.8359 24.6992 19.3828C24.6914 18.8203 24.3398 18.6328 23.4336 18.7109C22.6758 18.7812 22.043 19.0703 21.5977 19.5469C21.1836 20 21.0664 20.2422 20.9492 20.8359C20.832 21.4141 20.8867 21.8516 21.1367 22.3906C21.5117 23.2031 22.1367 23.625 23.207 23.7969C24.1133 23.9453 24.5117 24.2578 24.5977 24.8906C24.6367 25.1797 24.6055 25.2266 24.1602 25.7109C23.6055 26.3203 23.2305 26.5 22.5664 26.4922C21.7148 26.4844 21.1055 25.9844 20.793 25.0391C20.707 24.7734 20.5664 24.4922 20.4805 24.4141C20.4023 24.3438 20.0742 24.2344 19.7539 24.1797C19.0352 24.0547 18.6445 23.8594 18.2383 23.4219C17.9648 23.1172 17.5898 22.3594 17.5898 22.0859C17.5898 21.8984 17.2695 21.4766 17.0664 21.3984C16.918 21.3438 16.7148 21.3516 16.332 21.4453C15.1367 21.7109 14.4648 21.5234 13.8086 20.7344C13.293 20.1172 13.1445 20 12.8477 20C12.6758 20 12.4883 20.0938 12.1992 20.3281C11.3945 20.9922 11.2461 21.0859 10.832 21.1719C10.5195 21.2344 10.3242 21.2344 10.0742 21.1719C9.40234 20.9844 9.07422 20.7188 8.66797 20.0156C8.17578 19.1562 7.98047 19.1172 6.91797 19.6562C6.26172 19.9922 6.18359 20.0156 5.81641 19.9609C5.28516 19.8906 4.66797 19.5234 4.41016 19.125C4.21484 18.8438 4.19141 18.7109 4.16797 18.0781C4.12891 17.1562 4.04297 17.0469 3.19141 16.8438C2.29297 16.6328 1.90234 16.1875 1.82422 15.2734C1.76953 14.5781 1.96484 14.1875 2.61328 13.6797C2.89453 13.4609 3.14453 13.2266 3.16797 13.1562C3.27734 12.8828 3.19141 12.5859 2.86328 12.0312C2.57422 11.5391 2.51172 11.3828 2.51172 11.0469C2.51172 10.0312 3.32422 9.14844 4.26953 9.14062C4.76172 9.13281 5.19141 9.00781 5.34766 8.82031C5.45703 8.67969 5.48047 8.51562 5.47266 7.89844C5.44922 6.8125 5.72266 6.28906 6.51953 5.88281C6.86328 5.71094 6.98828 5.6875 7.43359 5.72656C8.49609 5.80469 8.87891 6.10156 8.87891 6.82812C8.87891 7.15625 8.83203 7.30469 8.64453 7.57031C8.08203 8.36719 7.91797 8.69531 7.83984 9.14062C7.68359 10.0078 7.93359 10.8203 8.55859 11.4688C9.09766 12.0391 9.71484 12.2891 10.5352 12.2734C11.1367 12.2656 11.6445 12.0781 12.168 11.6719C12.418 11.4844 12.7305 11.2969 12.8789 11.2578C13.4336 11.1016 14.0508 11.4766 14.2305 12.0859C14.3789 12.5859 14.2773 12.9062 13.8008 13.4453C13.4414 13.8438 13.3711 13.9766 13.3711 14.2188C13.3711 14.6094 13.6523 14.875 14.0586 14.8672C14.3086 14.8594 14.4102 14.7891 14.8086 14.3672C15.4492 13.6875 15.5977 13.3359 15.5977 12.4609C15.5977 11.8594 15.5664 11.6953 15.3945 11.3281C14.957 10.4062 14.1445 9.89062 13.1367 9.89062C12.4648 9.89844 12.0117 10.0625 11.4727 10.4922C11.0195 10.8672 10.8555 10.9375 10.4805 10.9375C9.78516 10.9375 9.15234 10.3047 9.15234 9.61719C9.15234 9.24219 9.26953 8.98438 9.65234 8.53125C10.3867 7.64844 10.4414 6.24219 9.77734 5.32031C9.55078 5.01562 9.54297 4.97656 9.62891 4.6875C9.84766 3.96094 10.6836 3.35938 11.4727 3.35938C11.8086 3.35938 12.0039 3.42188 12.5586 3.71094C13.582 4.25 13.7305 4.21094 14.2852 3.26562C14.6914 2.58594 15.0742 2.25781 15.6758 2.10156C16.2852 1.9375 17.0273 2.17969 17.5273 2.71094C17.7305 2.92969 17.7305 2.94531 17.7617 4.21875C17.7852 5.44531 17.793 5.53125 18.0039 5.94531C18.4102 6.78125 19.3555 7.42188 20.1914 7.42188C21.3711 7.42969 22.0664 8.67969 21.3789 9.57812C21.1055 9.92969 20.8711 10.0391 20.1445 10.1484C19.4258 10.25 19.0195 10.4375 18.6055 10.8672C17.3711 12.1406 17.8242 14.2656 19.4805 15C19.8789 15.1719 20.7305 15.2812 21.1367 15.2031C21.707 15.0938 21.9336 14.4922 21.5352 14.1016C21.3867 13.9453 21.2695 13.9062 20.9336 13.9062C20.3633 13.9062 19.9805 13.7812 19.6602 13.5078C19.1758 13.0781 19.1055 12.3594 19.5039 11.8906C19.7383 11.6094 19.9727 11.5156 20.6602 11.4141C21.6367 11.2734 22.3477 10.7656 22.7305 9.9375C22.9102 9.55469 22.9414 9.39062 22.9414 8.75C22.9414 8.14062 22.9102 7.94531 22.7617 7.64844C22.332 6.76562 21.5664 6.24219 20.5039 6.10156C19.8008 6.00781 19.4492 5.80469 19.2383 5.35938C19.0977 5.07031 19.0742 4.88281 19.0742 3.92969V2.82812L19.4336 2.42969C19.6367 2.20312 19.9023 1.96875 20.0273 1.90625C20.5664 1.625 21.2773 1.64062 21.8789 1.94531ZM16.8867 23.9062C17.3711 24.6641 18.3633 25.3359 19.1602 25.4375C19.3789 25.4688 19.543 25.5312 19.543 25.5859C19.543 25.6328 19.6523 25.8906 19.7773 26.1484C20.043 26.6875 20.6211 27.2578 21.1289 27.5078C21.4492 27.6641 21.4727 27.7031 21.5586 28.125C21.707 28.8438 22.0898 29.5078 22.6992 30.125C23.2148 30.6406 23.3789 30.7422 25.0508 31.5859C27.0352 32.5938 27.6289 33.0078 28.2383 33.8281C28.9258 34.7422 29.3164 35.6562 29.4727 36.7188C29.6289 37.8125 29.418 38.2266 28.6445 38.3203C28.0508 38.3984 27.6289 38.3047 27.3711 38.0469C27.1836 37.8672 27.1367 37.7266 27.0586 37.1484C26.9336 36.2266 26.6289 35.5859 26.043 35.0078C25.6523 34.625 25.3398 34.4375 23.9102 33.7344C22.1836 32.875 21.7539 32.6016 21.043 31.9219C20.0039 30.9297 19.2383 29.4062 19.043 27.9297C19.0039 27.6328 19.0117 27.6016 19.2305 27.5234C19.5039 27.4219 19.6523 27.1016 19.582 26.7422C19.5117 26.3672 19.1914 26.2188 18.5977 26.2891C17.4883 26.4219 16.5352 25.6719 16.4336 24.5938C16.4102 24.3125 16.4336 24.0156 16.4961 23.8203C16.5508 23.6562 16.6055 23.5156 16.6211 23.5156C16.6289 23.5156 16.7461 23.6953 16.8867 23.9062Z" fill="#002578"/>
</g>
<defs>
<clipPath id="clip0_8_185828">
<rect width="40" height="40" fill="white" transform="translate(0.480469)"/>
</clipPath>
</defs>
</svg>
