<svg width="29" height="40" viewBox="0 0 29 40" fill="none" xmlns="http://www.w3.org/2000/svg">
<path d="M7.18167 0.408333L7.1834 0.408012C7.54428 0.339443 8.23294 0.301952 8.9399 0.301952C9.6477 0.301952 10.327 0.339554 10.6707 0.407574L10.6725 0.407921C12.0882 0.679321 13.3557 1.62813 14.0409 2.94691L14.0412 2.94744C14.2641 3.37451 14.4034 3.71761 14.4936 4.10094C14.5845 4.48748 14.6286 4.92741 14.6479 5.55222L14.6479 5.55421C14.6598 5.87127 14.6797 6.18339 14.7027 6.43373C14.7142 6.55867 14.7267 6.67067 14.7398 6.76136C14.7514 6.84171 14.7671 6.93387 14.7918 6.99987L14.7929 7.00266C14.8455 7.13883 14.9491 7.2788 15.056 7.40131C15.1682 7.52996 15.3056 7.66351 15.4503 7.78798C15.7288 8.02755 16.0757 8.26897 16.3534 8.35903C16.5753 8.43419 16.8029 8.47605 17.0194 8.43038C17.2526 8.3812 17.4298 8.24022 17.5572 8.03761C17.6779 7.84565 17.757 7.59474 17.8144 7.29993C17.8726 7.00146 17.9127 6.63474 17.9423 6.19601L17.9424 6.1953C18.0356 4.76546 18.1739 4.09735 18.4739 3.49744L18.4754 3.49427C18.8291 2.76553 19.3592 2.3323 19.977 2.17445C20.6005 2.01519 21.3562 2.12569 22.1708 2.57174C22.7384 2.88341 23.4798 3.4533 24.1954 4.10805C24.9098 4.76172 25.5791 5.48222 26.0081 6.08421C28.0317 8.92489 28.6172 11.8497 27.8139 14.9196C27.5127 16.055 27.4459 16.2717 26.3208 19.4828L26.3204 19.484C26.0659 20.2202 25.821 20.9548 25.6318 21.5451C25.4455 22.126 25.3061 22.5885 25.2707 22.7654L25.2702 22.7682C24.8707 24.8694 24.9227 28.2536 25.4222 34.2398L25.4222 34.2402C25.6022 36.3644 25.6933 37.4801 25.7223 38.1095C25.7511 38.7372 25.7146 38.8337 25.6692 38.9472L25.6688 38.9481C25.5574 39.2291 25.2793 39.3952 24.9626 39.4072C24.6458 39.4193 24.3521 39.2747 24.216 39.0026L24.2132 38.997L24.2132 38.997C24.19 38.9529 24.162 38.8757 24.1399 38.7829C24.118 38.6909 24.1071 38.606 24.1071 38.5508C24.1071 38.3627 23.9881 36.7427 23.8404 34.9713C23.8404 34.9712 23.8404 34.9712 23.8404 34.9712L23.5415 34.9961C23.1743 30.5742 23.0962 29.207 23.0962 26.707C23.0962 24.543 23.2055 22.9805 23.4399 21.9805L7.18167 0.408333ZM7.18167 0.408333C5.86652 0.6502 4.74092 1.14695 3.76683 1.91874L3.76671 1.91883C2.37279 3.02204 1.28758 4.95917 0.930836 7.02374L0.930822 7.02382C0.832256 7.59331 0.841234 8.36359 0.942488 9.14402C1.04366 9.9238 1.23342 10.6864 1.47975 11.2416L1.48031 11.2429C2.33595 13.1955 4.24466 14.3585 7.11062 14.5719L7.11062 14.5719L7.11378 14.5722C7.47444 14.6029 8.4374 14.6573 9.2659 14.6964L7.18167 0.408333ZM3.58053 1.68359C4.59615 0.878906 5.76803 0.363281 7.1274 0.113281L3.58053 1.68359ZM3.58053 1.68359C2.11959 2.83984 1.0024 4.84766 0.635216 6.97266L3.58053 1.68359ZM24.7775 18.924C24.2536 20.4097 23.7919 21.8121 23.7315 22.0512L9.25241 14.9961C10.9087 15.0664 11.2602 15.1602 11.7602 15.6445L11.967 15.4272C11.9673 15.4275 11.9676 15.4278 11.9679 15.4281C12.3386 15.7812 12.5779 16.1866 12.7543 16.854C12.9267 17.5058 13.0436 18.4242 13.1684 19.813L13.1684 19.8132C13.2466 20.6895 13.3022 21.2018 13.3905 21.6489C13.478 22.0921 13.5991 22.478 13.8168 23.1001L13.8169 23.1005C14.731 25.7233 15.4348 30.9886 15.7552 37.3639L15.7552 37.3643C15.7864 38.0044 15.8154 38.4649 15.8469 38.7862C15.8626 38.947 15.8785 39.068 15.8946 39.1568C15.9026 39.201 15.9102 39.2344 15.917 39.2591C15.9204 39.2713 15.9233 39.2804 15.9256 39.2869C15.928 39.2936 15.9293 39.2964 15.9293 39.2963C16.041 39.5299 16.295 39.6961 16.6821 39.6961C16.8446 39.6961 16.9116 39.6854 16.9574 39.6689C16.9995 39.6538 17.0485 39.6248 17.1537 39.5305L17.1537 39.5305L17.1575 39.5272C17.2967 39.4066 17.3681 39.2991 17.4093 39.1484C17.4553 38.9805 17.4682 38.7424 17.4451 38.3496L17.4451 38.3496L17.4449 38.3454C17.4376 38.1821 17.4222 37.8916 17.4038 37.5455C17.3823 37.1423 17.3568 36.6637 17.3356 36.2225C16.9998 30.109 16.2199 24.8592 15.2832 22.2868C15.1289 21.8673 15.036 21.5826 14.9679 21.2057C14.9014 20.8372 14.8594 20.3847 14.7972 19.6309C14.6572 18.0045 14.5805 17.4657 14.3743 16.5721C13.936 14.7079 12.834 13.5668 11.1903 13.2193L11.189 13.219C10.9289 13.1628 9.94067 13.0774 8.98891 13.0302C5.94225 12.9054 4.80852 12.6511 3.80419 11.6985C2.97192 10.9173 2.60398 9.91849 2.52322 8.45097C2.4573 7.36925 2.65886 6.46729 3.17701 5.38242C3.77633 4.1271 4.39139 3.4066 5.46524 2.76228L5.46553 2.76211C6.56311 2.10523 8.30333 1.78588 9.76973 1.9479L9.77183 1.94815C10.3927 2.02119 10.9069 2.1596 11.3421 2.40065C11.7811 2.64382 12.1222 2.98171 12.4105 3.42677L12.4109 3.42747C12.6446 3.79053 12.803 4.13071 12.902 4.55597C12.9993 4.97381 13.0367 5.46262 13.0446 6.11748L13.0446 6.11895C13.0486 6.67703 13.0533 6.92439 13.0851 7.10789C13.1142 7.27545 13.1655 7.38958 13.3049 7.68824C13.7784 8.67802 14.7709 9.56749 15.8124 9.93166L15.8124 9.93169C16.0399 10.0113 16.1804 10.05 16.3295 10.0685C16.4821 10.0875 16.6569 10.087 16.9556 10.0715L16.957 10.0714C17.3491 10.0529 17.6412 9.99459 17.8882 9.88984C18.1328 9.78604 18.3505 9.62925 18.5833 9.38943C19.2199 8.72449 19.509 7.90599 19.6013 6.19091L19.6014 6.18953C19.6715 4.98966 19.7189 4.6718 19.9772 4.17247C20.029 4.0694 20.0988 3.96463 20.2018 3.88573C20.3122 3.80119 20.4396 3.76239 20.5747 3.76153C20.8126 3.76 21.0824 3.87872 21.3778 4.03598L21.3783 4.03628C21.6835 4.1996 22.1402 4.53619 22.5826 4.90015C23.0287 5.26709 23.484 5.68149 23.7864 6.0125L23.7864 6.01253C25.9757 8.40958 26.9219 11.2307 26.3664 13.8857L26.3663 13.8861C26.1506 14.9084 25.8858 15.7474 24.7778 18.923L24.7775 18.924Z" fill="white" stroke="#002578" stroke-width="0.6"/>
</svg>
