<svg width="41" height="38" viewBox="0 0 41 38" fill="none" xmlns="http://www.w3.org/2000/svg">
<path d="M9.207 0.416016C7.8945 0.564453 6.53512 1.24414 5.35544 2.33789C2.75387 4.74414 1.03512 8.87695 0.581998 13.791C0.449186 15.2598 0.527311 18.3535 0.738248 19.7441C1.72262 26.1738 4.92575 30.877 8.84762 31.627C9.53512 31.752 10.832 31.7676 11.7617 31.6582C14.1914 31.3613 15.8164 30.2051 16.6757 28.1738C17.3242 26.6348 17.1992 25.5566 15.9961 22.2441C14.9336 19.3145 14.582 18.0566 14.4726 16.8223L14.4414 16.4082L14.7617 16.4551C15.8398 16.6348 16.9961 17.2676 17.9414 18.2129C18.7226 18.9941 19.1445 19.6738 19.5117 20.7207L19.7695 21.4629L19.8086 29.3301L19.8476 37.2051L20.0586 37.4082C20.3476 37.6973 20.832 37.6973 21.1211 37.4082L21.332 37.2051L21.3711 29.3301C21.4101 21.5957 21.4179 21.4551 21.582 20.9551C21.6679 20.6738 21.8164 20.2832 21.9023 20.0801C22.4726 18.791 23.7617 17.4863 25.0586 16.9004C25.5273 16.6895 26.5195 16.3848 26.5664 16.4395C26.582 16.4551 26.5429 16.7988 26.4882 17.2051C26.3554 18.2207 26.0742 19.2832 25.5664 20.7207C25.332 21.3848 24.9414 22.4863 24.6992 23.166C23.9101 25.4004 23.7773 26.5879 24.207 27.8145C24.7617 29.416 25.8867 30.6113 27.3867 31.2129C28.332 31.5879 29.082 31.6973 30.707 31.6973C32.1289 31.6973 32.2148 31.6816 32.8164 31.4785C34.1914 30.9941 35.3554 30.2051 36.3554 29.0645C38.332 26.8223 39.6992 23.5801 40.2851 19.7441C40.4961 18.3535 40.5742 15.2598 40.4414 13.791C39.7617 6.43164 36.1758 0.908203 31.7461 0.416016C29.7773 0.197266 27.7851 0.923828 26.2461 2.43945C24.9804 3.68945 24.2773 5.2207 24.1367 7.0332C24.0507 8.18164 24.3007 9.1582 25.2773 11.4707C25.5742 12.1895 25.8242 12.8066 25.8242 12.8457C25.8242 12.9629 25.1836 12.4785 24.8086 12.0801C23.8007 11.002 23.0507 9.3457 22.8554 7.77539C22.7226 6.72852 22.6523 6.51758 22.3867 6.38477C22.0586 6.21289 21.8086 6.23633 21.5351 6.4707C21.3086 6.6582 21.2929 6.70508 21.2929 7.24414C21.2929 8.99414 22.207 11.3691 23.4336 12.791C24.2226 13.7051 24.832 14.1426 25.7695 14.4785C26.1211 14.6035 26.4179 14.7051 26.4257 14.7051C26.4414 14.7051 26.4492 14.752 26.4492 14.8145C26.4492 14.8848 26.3242 14.9473 26.1211 14.9785C25.6757 15.0488 24.6367 15.416 24.1289 15.666C22.8242 16.3301 21.5742 17.5332 20.8554 18.8223C20.7304 19.0488 20.6132 19.2363 20.5898 19.2363C20.5664 19.2363 20.4492 19.0488 20.3242 18.8223C19.2382 16.8848 17.2617 15.4316 15.1132 14.9941C14.4336 14.8535 14.4023 14.6895 15.0195 14.5098C15.6367 14.3301 16.1132 14.0723 16.6601 13.6348C18.3945 12.2285 19.7461 9.63477 19.8632 7.47852C19.9023 6.75977 19.8867 6.68164 19.7382 6.52539C19.2929 6.05664 18.5429 6.2832 18.4492 6.9082C18.2773 8.11914 18.1992 8.49414 18.0117 9.04102C17.6367 10.1426 17.0898 11.0645 16.332 11.877C15.9414 12.2988 15.1992 12.9082 15.1992 12.8066C15.1992 12.7832 15.4492 12.1895 15.7461 11.4707C16.7226 9.1582 16.9726 8.18164 16.8867 7.0332C16.7461 5.2207 16.0429 3.68945 14.7773 2.43945C13.2304 0.923828 11.207 0.189453 9.207 0.416016ZM11.0586 2.01758C12.1523 2.27539 13.4179 3.08008 14.1132 3.9707C14.832 4.89258 15.1914 5.7207 15.3554 6.86914C15.4336 7.41602 15.4336 7.60352 15.3164 8.1582C15.1992 8.72852 14.7851 9.90039 14.3554 10.8613L14.207 11.1895L14.0586 10.8613C13.7773 10.2363 13.1601 9.36914 12.582 8.80664C11.6211 7.86914 10.4023 7.24414 9.16794 7.04883C8.10544 6.87695 7.62106 7.08789 7.62106 7.71289C7.62106 8.2207 7.87106 8.42383 8.582 8.49414C9.33981 8.56445 10.0664 8.82227 10.7304 9.26758C12.4414 10.4004 13.5039 12.6191 13.1523 14.3145L13.0429 14.8223L10.8867 14.8457L8.73044 14.8613L8.52731 15.0723C8.25387 15.3379 8.24606 15.7832 8.51169 16.0879L8.69919 16.3066L10.8242 16.3301L12.9492 16.3535L12.8945 16.8379C12.6367 19.1035 11.3398 21.0176 9.6445 21.666C9.44137 21.7441 8.98825 21.8457 8.62887 21.8848C8.07419 21.9551 7.94137 22.002 7.80075 22.166C7.54294 22.4551 7.55856 22.9316 7.82419 23.1973C8.01169 23.3848 8.05075 23.3926 8.73825 23.3613C9.55075 23.3223 10.3242 23.0879 11.0351 22.6582C11.7226 22.252 12.6132 21.3691 13.0898 20.6191C13.3242 20.2441 13.5429 19.9473 13.5664 19.9395C13.5976 19.9395 13.6601 20.1035 13.7148 20.3066C13.7695 20.5176 14.1054 21.4707 14.457 22.4395C15.5039 25.3223 15.707 26.2207 15.4726 27.0176C15.0351 28.5332 13.9726 29.5879 12.4882 29.9785C11.7148 30.1895 10.2851 30.291 9.49606 30.1895C7.28512 29.916 5.32419 28.1816 3.91794 25.252C3.33981 24.0488 3.05856 23.252 2.69919 21.8535C2.16794 19.7988 2.03512 18.6035 2.03512 16.0332C2.04294 14.3066 2.07419 13.5957 2.17575 12.8691C2.707 9.33008 3.77731 6.49414 5.32419 4.54883C7.0195 2.4082 9.00387 1.5332 11.0586 2.01758ZM32.1679 2.01758C35.4414 2.86133 37.9648 6.9707 38.8476 12.8691C38.9492 13.5957 38.9804 14.3066 38.9882 16.0332C38.9882 18.6035 38.8554 19.7988 38.3242 21.8535C37.9648 23.252 37.6836 24.0488 37.1054 25.252C35.6992 28.1816 33.7383 29.916 31.5273 30.1895C30.7382 30.291 29.3086 30.1895 28.5351 29.9785C27.0507 29.5879 25.9882 28.5332 25.5507 27.0176C25.3164 26.2207 25.5195 25.3223 26.5664 22.4395C26.9179 21.4707 27.2539 20.5176 27.3086 20.3066C27.3632 20.1035 27.4336 19.9395 27.4648 19.9395C27.5039 19.9395 27.6132 20.0879 27.7226 20.2676C28.7773 22.0488 30.957 23.377 32.8242 23.377C33.3554 23.377 33.4023 23.3613 33.5898 23.1348C34.0742 22.5645 33.6445 21.8926 32.7929 21.8926C32.6445 21.8926 32.3086 21.8379 32.0429 21.7676C30.0117 21.2441 28.332 19.1426 28.1211 16.8535L28.0664 16.2676H30.3711C32.6601 16.2676 32.6757 16.2676 32.832 16.0879C32.9179 15.9941 33.0195 15.8379 33.0507 15.7363C33.1211 15.4941 32.957 15.0332 32.7539 14.916C32.6289 14.8535 31.9101 14.8145 30.2851 14.7832L27.9882 14.7441L27.8398 14.1582C27.6445 13.377 27.6523 13.1816 27.9257 12.3691C28.2304 11.4629 28.7773 10.5801 29.457 9.89258C30.2929 9.04102 31.1992 8.5957 32.2929 8.48633C32.9961 8.42383 33.2461 8.2207 33.2461 7.71289C33.2461 7.05664 32.707 6.85352 31.5273 7.08008C29.8007 7.40039 28.2461 8.58789 27.1523 10.4082L26.7617 11.0566L26.5586 10.5957C26.1445 9.66602 25.8242 8.75195 25.6992 8.13477C25.4336 6.82227 25.8867 5.2832 26.9101 3.9707C27.5898 3.0957 28.8632 2.27539 29.9336 2.01758C30.5586 1.86914 31.5976 1.86914 32.1679 2.01758Z" fill="#002578"/>
</svg>
