<svg width="40" height="40" viewBox="0 0 40 40" fill="none" xmlns="http://www.w3.org/2000/svg">
<path d="M20.2188 0.71072C20 0.83572 19.9219 1.29666 19.9141 2.46072C19.9141 3.06228 19.8984 3.51541 19.8828 3.47635C19.8672 3.42947 19.7422 2.97635 19.6016 2.46853C19.4609 1.95291 19.2812 1.46853 19.2031 1.39041C19 1.18728 18.6562 1.21072 17.3984 1.52322C15.8047 1.92166 15.7812 1.92947 15.6641 2.21853C15.5703 2.43728 15.5938 2.6326 15.8672 3.98416C16.0859 5.04666 16.1719 5.66385 16.1562 6.01541L16.1328 6.52322L15.5469 4.96072C15.2266 4.10916 14.9062 3.34353 14.8281 3.26541C14.5547 2.99197 14.2188 3.08572 12.7344 3.82791C11.5234 4.42947 11.3203 4.56228 11.2734 4.74197C11.1875 5.06228 11.2109 5.12478 11.9141 7.03103C12.2734 7.99978 12.6172 8.99978 12.6875 9.2576C12.8594 9.93728 13.0469 11.1482 13.0469 11.6092C13.0469 11.9842 13.0234 12.031 12.7578 12.2342C10.0781 14.2342 8.14062 17.5388 7.61719 20.9763C7.46094 22.0076 7.46094 24.0467 7.61719 25.1092C8.07812 28.2185 9.67188 31.156 12.0547 33.2654C12.7578 33.8982 18.8672 38.0232 19.7422 38.4607C20.4141 38.8045 21.5859 39.1717 22.3594 39.2967C23.3281 39.4529 25.1797 39.3592 26.0859 39.1092C29.3906 38.1873 31.8828 35.4295 32.4219 32.1013C32.5625 31.242 32.4844 26.9138 32.3125 25.6638C32 23.4529 31.6406 22.0388 31.0938 20.906C30.8047 20.2967 30.0234 19.1013 29.7344 18.8357L29.5391 18.656L29.9531 17.8201C30.5078 16.7263 30.625 16.3045 30.625 15.4373C30.625 14.1717 30.2812 13.3279 29.4141 12.4607C29.1094 12.156 28.7188 11.8435 28.5312 11.7498L28.2031 11.5857L28.9609 11.406C29.8281 11.1951 30 11.0623 30 10.6404C30 10.3513 29.4453 7.4451 29.3359 7.16385C29.1797 6.77322 28.5 6.78885 26.8359 7.22635C26.7109 7.2576 26.6172 7.17947 26.4062 6.86697C26.0312 6.30447 25.3516 5.6326 24.6797 5.15603C23.7891 4.53103 23.7969 4.56228 23.75 2.55447C23.7109 0.976345 23.6953 0.83572 23.5625 0.734158C23.4375 0.64822 23.0781 0.624783 21.8828 0.624783C21.0078 0.624783 20.2969 0.663845 20.2188 0.71072ZM22.5 3.21853C22.5 4.46853 22.5156 4.60135 22.6875 4.96072C22.9375 5.5076 23.2188 5.81228 23.8672 6.24978C24.1719 6.46072 24.6484 6.86697 24.9141 7.16385C25.3906 7.67947 25.3984 7.6951 25.2188 7.76541C25.1172 7.79666 24.5859 8.05447 24.0234 8.3201C21.4375 9.5701 19.3438 11.3982 17.7109 13.8513C17.4297 14.2654 17.1797 14.5857 17.1562 14.5467C17.0234 14.3357 16.9375 13.2967 16.9766 12.3513C17.0078 11.5076 17.0547 11.1482 17.2188 10.5935C17.6797 9.05447 18.1953 8.21853 19.5625 6.79666C20.9844 5.32791 21.25 4.71072 21.25 2.89822V1.87478H21.875H22.5V3.21853ZM18.6641 4.08572L19.0391 5.46072L18.5547 5.91385C18.2891 6.16385 17.9375 6.53103 17.7656 6.72635L17.4609 7.08572L17.4844 6.21853C17.5078 5.49197 17.4688 5.15603 17.2656 4.18728C17.1406 3.54666 17.0391 3.01541 17.0547 2.99978C17.0859 2.96853 18.2422 2.67947 18.2656 2.6951C18.2734 2.70291 18.4531 3.32791 18.6641 4.08572ZM14.3281 5.53103C14.8516 6.98416 15.2422 7.72635 15.8438 8.35916L16.375 8.93728L16.1641 9.49197C15.8047 10.406 15.625 11.4842 15.625 12.6795C15.625 13.8982 15.7578 14.7888 16.0938 15.7342C16.2656 16.2263 16.3125 16.4451 16.2578 16.5467C16.2188 16.6248 15.9219 16.7888 15.6094 16.9138C14.8516 17.2029 14.3672 17.4529 13.7188 17.867C13.4219 18.0545 13.2031 18.1638 13.2266 18.1013C13.4531 17.5154 14.0234 15.6013 14.1562 14.9685C14.3047 14.281 14.3281 13.9373 14.3359 12.3435C14.3359 10.7107 14.3125 10.4138 14.1562 9.66385C13.9766 8.82791 13.5625 7.53885 13.0156 6.10916C12.8594 5.70291 12.7344 5.35916 12.7344 5.34353C12.7344 5.31228 13.9141 4.6951 13.9844 4.6951C14.0078 4.68728 14.1562 5.0701 14.3281 5.53103ZM28.4062 9.17947C28.5 9.65603 28.5625 10.0623 28.5391 10.0935C28.5234 10.1326 28.4531 10.156 28.3984 10.156C28.1719 10.156 26.4297 10.7732 25.7812 11.0779C25.4141 11.2498 24.8516 11.4998 24.5234 11.6326C23.1641 12.1951 21.6562 13.8123 20.7578 15.6717L20.4531 16.2888H19.1719C18.4688 16.2888 17.8906 16.281 17.8906 16.2654C17.8906 16.2029 18.3281 15.3982 18.6094 14.9373C20.2656 12.2263 23.0781 9.9451 26.0938 8.86697C26.8516 8.60135 27.9766 8.28885 28.125 8.30447C28.2031 8.3201 28.2891 8.57791 28.4062 9.17947ZM27.6875 12.8357C28.2344 13.0857 28.7812 13.6404 29.0469 14.2029C29.2344 14.5935 29.2578 14.7498 29.2578 15.4295V16.2107L28.7969 17.1638C28.3672 18.0545 28.3203 18.1248 28.1172 18.1248C27.7344 18.1248 26.7969 18.3513 26.1953 18.5935C25.6016 18.8357 24.6562 19.3982 24.4609 19.6326C24.4062 19.7029 24.3281 19.7654 24.3047 19.7654C24.2734 19.7654 24.0781 19.4295 23.875 19.0076C23.4609 18.1795 22.7578 17.3904 22.0859 16.9998L21.7188 16.781L21.8438 16.4998C22.5 14.9217 24.1016 13.1795 25.2656 12.7654C26.0625 12.4763 26.9609 12.5076 27.6875 12.8357ZM12.8203 14.7342C12.7344 15.1638 12.3281 16.4998 11.9219 17.7029C11.1875 19.8982 11.1875 19.8982 10.7266 20.4529C10.1484 21.1404 9.64062 21.8904 9.17188 22.7498L8.82031 23.3982L8.85938 22.3045C8.95312 19.9295 9.82031 17.5545 11.3125 15.5857C11.7734 14.9842 12.9219 13.7967 12.9531 13.8904C12.9609 13.9295 12.9062 14.3123 12.8203 14.7342ZM20.4609 17.7263C21.0781 17.9217 21.625 18.2732 22.1016 18.7967C22.7031 19.4607 22.9453 20.0388 23.0859 21.1951C23.1484 21.6795 23.3359 21.8748 23.75 21.8748C24.0078 21.8748 24.125 21.8201 24.4141 21.5545C24.6094 21.3748 24.7656 21.2732 24.7656 21.3279C24.7656 21.8357 24.0781 24.2029 23.6406 25.1795L23.4609 25.5857L22.9219 25.6795C22.6016 25.7342 22.125 25.906 21.7344 26.0935C21.2109 26.3592 20.9609 26.5467 20.4062 27.117C19.7422 27.7967 19.3516 28.0467 18.9453 28.0467C18.75 28.0467 18.75 28.0545 18.75 28.7185V29.3982L19.2031 29.3513C19.9453 29.2888 20.4844 28.9763 21.2891 28.1638C21.6797 27.7654 22.1484 27.367 22.3281 27.2732L22.6641 27.1013L22.4531 27.4373C21.75 28.5623 20.1797 30.3748 19.3438 31.0154C19.1484 31.1638 18.9922 31.3279 18.9844 31.3748C18.9844 31.4685 19.6953 32.4138 19.7734 32.4217C19.8047 32.4217 20.1484 32.117 20.5391 31.7498C20.9297 31.3748 21.2734 31.0935 21.2969 31.1092C21.4219 31.242 21.7344 32.8123 21.7734 33.531L21.8203 34.3748H22.4688H23.125V33.8045C23.125 32.8826 22.8672 31.5779 22.4141 30.2185C22.3203 29.9295 22.3281 29.9138 22.6719 29.4763C23.1641 28.8435 23.7734 27.8982 24.2344 27.0467L24.625 26.3201L24.7812 26.5623C24.8594 26.7029 24.9844 26.9529 25.0547 27.117C25.1719 27.4138 25.1719 27.4295 24.9297 27.8045C24.5312 28.4295 24.375 28.9685 24.375 29.7498C24.375 30.5467 24.5312 31.0857 24.9531 31.781C25.2578 32.281 25.5469 33.0857 25.5469 33.4217C25.5469 33.5467 25.5703 33.8123 25.5938 34.0154L25.6484 34.3748H26.2578H26.875V33.7263C26.875 32.8513 26.7266 32.3201 26.1719 31.2107C25.7656 30.3982 25.7031 30.2185 25.7031 29.8435L25.7109 29.4138L25.9609 29.8826C26.2109 30.3513 27.5391 31.7967 27.7188 31.7967C27.7656 31.7967 27.9688 31.5623 28.1562 31.281L28.5 30.7654L27.8984 30.1638C27.5 29.7654 27.2188 29.406 27.0547 29.0623C26.8203 28.6013 26.7344 28.3201 26.4766 27.1482C26.3516 26.5779 25.9766 25.8357 25.5703 25.3357L25.2188 24.906L25.4609 24.156C25.5938 23.7342 25.7266 23.281 25.75 23.1404C25.7812 23.0076 25.8281 22.8904 25.8594 22.8904C26.0312 22.8904 26.9297 23.5935 27.2031 23.9373C27.5391 24.3592 28.0469 25.3357 28.0469 25.5623C28.0469 25.6326 28.0781 25.7107 28.1172 25.7342C28.1875 25.781 29.2969 25.5779 29.3672 25.4998C29.4453 25.4295 29.2109 24.7185 28.9062 24.0935C28.7188 23.7029 28.4141 23.2654 28.1094 22.9295C27.625 22.3982 26.6406 21.6795 26.2656 21.5857C26.0938 21.5467 26.0859 21.5154 26.125 21.2185C26.1484 21.0467 26.1875 20.6951 26.2188 20.4529L26.2656 20.0076L26.75 19.8201C27.2734 19.6092 27.9297 19.4529 28.2812 19.4529C28.4609 19.4529 28.5781 19.5467 28.9062 19.9607C29.7969 21.0779 30.3281 22.2888 30.6641 23.9295C30.9531 25.3904 31.0938 26.5935 31.1797 28.4685C31.3203 31.6951 31.0469 33.0935 29.9609 34.7342C28.875 36.3592 27.1484 37.5388 25.2812 37.9217C24.9219 37.9998 24.2969 38.0545 23.7891 38.0545C22.4922 38.0545 21.4766 37.8123 20.3359 37.2342C19.6328 36.8826 14.1562 33.242 13.3438 32.5857C11.6328 31.2107 10.2266 29.1951 9.46875 27.031L9.23438 26.3592L9.48438 25.5467C9.625 25.0935 9.85156 24.4685 9.99219 24.1482C10.2812 23.492 10.9922 22.2654 11.0781 22.2654C11.1094 22.2732 11.3281 22.5779 11.5625 22.9529C12.1641 23.8982 12.6016 24.4217 13.7109 25.5076C14.5 26.281 14.6875 26.5154 14.7969 26.8279C15 27.4373 14.9609 27.9842 14.6484 28.906C14.5 29.3513 14.375 29.742 14.375 29.7732C14.375 29.8592 15.5703 30.242 15.6328 30.1717C15.6641 30.1404 15.8203 29.7029 15.9766 29.1951C16.25 28.3357 16.2656 28.2185 16.2344 27.4685C16.2109 26.7263 16.1875 26.617 15.9141 26.0701C15.6641 25.5623 15.4609 25.3201 14.5156 24.3826C13.9062 23.781 13.4219 23.2654 13.4453 23.2498C13.5234 23.1638 14.9688 23.5154 15.6719 23.7888C16.0703 23.9451 16.7031 24.2576 17.0703 24.492C17.4453 24.7263 17.7578 24.9217 17.7656 24.9217C17.7734 24.9217 17.9531 24.6873 18.1641 24.3982L18.5469 23.8826L18.2891 23.6717C17.8984 23.3435 16.4453 22.617 15.6641 22.3513C14.7969 22.0623 13.7578 21.8748 13.0078 21.8748H12.4375L12.2188 21.4373L11.9922 20.9998L12.6172 20.4217C14.625 18.5623 16.8203 17.6013 19.1172 17.5857C19.7656 17.5779 20.1094 17.617 20.4609 17.7263Z" fill="#002578"/>
</svg>
