<svg width="17" height="16" viewBox="0 0 17 16" fill="none" xmlns="http://www.w3.org/2000/svg">
<g clip-path="url(#clip0_3261_57378)">
<path fill-rule="evenodd" clip-rule="evenodd" d="M15.263 0.0748824C15.3354 0.119677 15.3952 0.182228 15.4367 0.256606C15.4782 0.330983 15.5 0.414722 15.5 0.499882V15.4999C15.5 15.6325 15.4473 15.7597 15.3536 15.8534C15.2598 15.9472 15.1326 15.9999 15 15.9999H12C11.8674 15.9999 11.7402 15.9472 11.6464 15.8534C11.5527 15.7597 11.5 15.6325 11.5 15.4999V13.9999H10.5V15.4999C10.5 15.6325 10.4473 15.7597 10.3536 15.8534C10.2598 15.9472 10.1326 15.9999 10 15.9999H1C0.867392 15.9999 0.740215 15.9472 0.646447 15.8534C0.552678 15.7597 0.5 15.6325 0.5 15.4999V9.99988C0.50008 9.89499 0.533148 9.79277 0.594525 9.7077C0.655902 9.62264 0.742478 9.55903 0.842 9.52588L6.5 7.63988V4.49988C6.5 4.4071 6.52582 4.31616 6.57456 4.23721C6.62331 4.15827 6.69305 4.09445 6.776 4.05288L14.776 0.0528824C14.8523 0.0146883 14.9371 -0.00334141 15.0224 0.00050948C15.1076 0.00436037 15.1904 0.0299637 15.263 0.0748824ZM6.5 8.69388L1.5 10.3599V14.9999H6.5V8.69388ZM7.5 14.9999H9.5V13.4999C9.5 13.3673 9.55268 13.2401 9.64645 13.1463C9.74021 13.0526 9.86739 12.9999 10 12.9999H12C12.1326 12.9999 12.2598 13.0526 12.3536 13.1463C12.4473 13.2401 12.5 13.3673 12.5 13.4999V14.9999H14.5V1.30888L7.5 4.80888V14.9999Z" fill="#9333EA"/>
<path d="M2.5 11H3.5V12H2.5V11ZM4.5 11H5.5V12H4.5V11ZM2.5 13H3.5V14H2.5V13ZM4.5 13H5.5V14H4.5V13ZM8.5 9H9.5V10H8.5V9ZM10.5 9H11.5V10H10.5V9ZM8.5 11H9.5V12H8.5V11ZM10.5 11H11.5V12H10.5V11ZM12.5 9H13.5V10H12.5V9ZM12.5 11H13.5V12H12.5V11ZM8.5 7H9.5V8H8.5V7ZM10.5 7H11.5V8H10.5V7ZM12.5 7H13.5V8H12.5V7ZM8.5 5H9.5V6H8.5V5ZM10.5 5H11.5V6H10.5V5ZM12.5 5H13.5V6H12.5V5ZM12.5 3H13.5V4H12.5V3Z" fill="#9333EA"/>
</g>
<defs>
<clipPath id="clip0_3261_57378">
<rect width="16" height="16" fill="white" transform="translate(0.5)"/>
</clipPath>
</defs>
</svg>
