<svg width="70" height="71" viewBox="0 0 70 71" fill="none" xmlns="http://www.w3.org/2000/svg">
<path d="M18.0194 0.331802C17.7242 0.632526 17.7102 0.769218 17.7102 3.09301V5.52615L16.656 6.49667C15.7705 7.3305 14.5477 8.98449 8.34909 17.7875C4.34321 23.4603 0.927676 28.3813 0.744952 28.723C0.154613 29.8302 0 30.6914 0 32.9878C0 35.4346 0.126501 36.2275 0.759008 37.4714C1.61641 39.221 2.05213 39.5218 10.7526 44.4427C23.0654 51.4141 23.0092 51.3868 23.8385 51.5508C24.3304 51.6465 26.0733 51.6875 28.772 51.6601C33.3964 51.6191 33.3964 51.6191 34.4084 50.676C35.3501 49.8285 35.4907 49.3774 35.4907 47.2449C35.4907 45.6183 35.4485 45.2492 35.2095 44.7845C34.6051 43.5952 33.5088 42.9391 31.8081 42.7204C31.302 42.6657 31.0631 42.57 31.0631 42.4333C31.0631 42.1326 30.5571 41.2578 30.1917 40.9297C30.0089 40.7657 29.6294 40.5333 29.3483 40.4103C28.6034 40.1096 26.6215 40.1506 25.3003 40.4786C24.485 40.6837 24.218 40.711 24.0353 40.5743C23.9228 40.4786 22.953 39.6175 21.8988 38.6333L19.9591 36.8699V32.0583V27.2467L22.7843 24.0481C24.3445 22.2984 25.8906 20.4941 26.2139 20.043C27.9849 17.6372 29.2359 13.9465 29.2359 11.1442C29.2359 9.914 28.9969 9.58594 28.1255 9.58594C27.3102 9.58594 26.9869 10.037 26.9869 11.1579C26.9869 13.4407 25.9609 16.4616 24.4569 18.6077C24.1618 19.0178 21.6036 21.9704 18.7644 25.169C15.9251 28.3676 13.4794 31.1561 13.3389 31.3885C12.9453 31.99 12.9734 33.1929 13.3951 33.767C13.9011 34.4778 23.22 42.9391 23.5855 43.0348C23.7822 43.0758 24.5272 42.9528 25.3003 42.7477C26.7761 42.365 28.3504 42.2693 28.6455 42.5564C28.7439 42.6521 28.8142 42.9801 28.8142 43.2945C28.8142 44.2514 29.1796 44.5248 30.782 44.7845C33.1433 45.1672 33.312 45.3312 33.312 47.2996C33.312 48.4752 33.2839 48.5572 32.9044 48.981L32.4968 49.432H28.2941H24.1055L14.2103 43.8276C7.74469 40.1642 4.11832 38.0181 3.69665 37.6354C3.35931 37.321 2.90953 36.7059 2.69869 36.2685C2.33325 35.5167 2.31919 35.4073 2.31919 33.0972C2.31919 30.9511 2.3473 30.6367 2.61436 30.0763C2.99386 29.2698 17.162 9.16219 17.8929 8.39671C18.9611 7.26215 20.451 6.57869 22.3345 6.37365C23.3465 6.26429 23.7541 5.97723 23.7541 5.36211C23.7541 4.39159 23.2762 4.13187 21.7582 4.26857C21.196 4.32325 20.5635 4.40526 20.3527 4.45994L19.9591 4.55563V2.58724C19.9591 0.700874 19.945 0.605186 19.6358 0.31813C19.186 -0.0919495 18.413 -0.0782814 18.0194 0.331802ZM17.7102 32.2907V34.7512L16.5155 33.685C15.8548 33.1109 15.3348 32.5778 15.3488 32.5231C15.391 32.4137 17.6118 29.8302 17.6821 29.8165C17.6961 29.8165 17.7102 30.9238 17.7102 32.2907Z" fill="#E5E7EB"/>
<path d="M36.053 0.210194C35.4767 0.606606 35.533 3.8189 36.1374 5.59591C36.5169 6.70313 37.4164 7.87869 38.3863 8.53482C38.808 8.8082 41.5348 10.0795 44.4443 11.3507C47.3538 12.622 49.9401 13.7702 50.1931 13.8932C51.0926 14.3306 51.8095 15.0278 52.2874 15.9026C52.7512 16.7227 52.7793 16.8321 52.8215 18.4041C52.8637 19.8257 52.8215 20.0991 52.5966 20.4545C52.2874 20.9329 50.0103 22.9833 49.7855 22.9833C49.7011 22.9833 48.8999 22.3682 48.0004 21.6164C46.637 20.4818 46.2856 20.2494 45.892 20.2494C45.3017 20.2494 44.866 20.6048 44.7535 21.179C44.6411 21.6984 44.7395 21.7941 48.2393 24.8013C51.0645 27.2345 53.9881 30.146 54.9298 31.4856C55.8435 32.7979 56.9258 34.8893 57.4177 36.2972C57.8394 37.5275 58.3173 39.5369 58.3313 40.111C58.3313 41.0405 59.5542 41.4916 60.257 40.8081C60.5943 40.48 60.6083 40.398 60.524 39.6189C60.2851 37.3634 59.1747 34.1101 57.8956 31.9367C56.7009 29.9137 55.984 29.0388 53.6929 26.7697L51.5143 24.61L52.1468 24.0495C54.9439 21.589 55.0142 21.466 55.0704 18.8415C55.1126 17.2422 55.0704 16.8048 54.8315 16.0393C54.3676 14.5357 53.3837 13.2371 52.1046 12.4169C51.697 12.1572 48.8297 10.8313 45.7093 9.478C42.603 8.12474 39.8059 6.81248 39.4967 6.5801C39.1453 6.32039 38.7658 5.81462 38.4847 5.24051C38.0489 4.37934 38.0208 4.22898 37.9506 2.46563C37.8943 0.879993 37.8381 0.551929 37.6132 0.305882C37.304 -0.0358543 36.4606 -0.0905304 36.053 0.210194Z" fill="#E5E7EB"/>
<path d="M68.3779 29.6822C68.2233 29.7368 66.9301 30.9398 65.4964 32.3341C62.9663 34.8084 62.896 34.8904 62.896 35.4372C62.896 36.107 63.3177 36.5171 63.9924 36.5171C64.3719 36.5171 64.7936 36.1753 67.2113 33.8105C69.6992 31.4046 69.9944 31.0628 69.9944 30.6664C69.9944 29.8462 69.1791 29.3541 68.3779 29.6822Z" fill="#E5E7EB"/>
<path d="M40.6603 37.4018C39.2828 37.8119 38.3973 38.5364 37.6945 39.8487C37.3712 40.4638 37.3149 40.7099 37.3149 41.8445C37.3149 43.9086 37.4696 44.1547 41.2085 47.8182C42.9234 49.4996 44.568 51.0306 44.8491 51.222C45.1443 51.4134 45.6222 51.6048 45.9314 51.6458C47.07 51.7961 47.3511 51.5911 50.9073 48.16C54.9977 44.2094 55.1663 43.9633 55.1663 41.9128C55.1663 40.7646 55.1101 40.4502 54.8431 39.917C54.0418 38.3313 52.5519 37.3471 50.7808 37.2378C49.9515 37.1831 49.6282 37.2378 48.321 37.6615C47.4916 37.9349 46.578 38.1536 46.2969 38.1536C46.0157 38.1536 45.088 37.9349 44.2587 37.6752C42.6141 37.1557 41.6724 37.0874 40.6603 37.4018ZM44.076 39.9307C45.0318 40.2315 46.0017 40.4775 46.2406 40.4775C46.4796 40.4775 47.4495 40.2315 48.4053 39.9307C49.3471 39.63 50.3029 39.3839 50.5137 39.3839C50.9635 39.3839 51.821 39.712 52.2005 40.0401C52.5941 40.3818 52.9876 41.2977 52.9876 41.8992C52.9876 42.8697 52.5519 43.4439 49.3752 46.5196L46.3109 49.4996L43.1202 46.4512C39.8169 43.3208 39.4937 42.9107 39.4937 41.9128C39.4937 40.6415 40.7025 39.4113 41.9394 39.3839C42.1643 39.3839 43.1342 39.63 44.076 39.9307Z" fill="#E5E7EB"/>
<path d="M63.7832 42.2568C63.4318 42.6123 63.3756 42.749 63.4458 43.1182C63.6005 43.9111 63.9238 44.0342 65.7792 44.0342C67.6346 44.0342 67.9579 43.9111 68.1125 43.1182C68.1828 42.749 68.1266 42.6123 67.7752 42.2568C67.3535 41.8467 67.3394 41.8467 65.7792 41.8467C64.2189 41.8467 64.2049 41.8467 63.7832 42.2568Z" fill="#E5E7EB"/>
<path d="M58.7789 44.2245C58.5961 44.4706 58.4837 44.8944 58.4274 45.7009C58.1744 48.8313 56.7829 52.2077 54.7025 54.723C53.1423 56.6231 51.3712 58.0174 49.0519 59.2067C46.8311 60.3413 45.7768 61.4212 45.1021 63.253C44.8351 63.9638 44.7929 64.3602 44.7789 66.7388C44.7648 69.1993 44.7929 69.4591 45.0319 69.7188C45.2287 69.9238 45.4676 70.0059 45.9034 70.0059C46.8451 70.0059 46.9154 69.8282 46.9716 66.9301L47.0138 64.4559L47.4776 63.5537C48.0118 62.4874 48.574 61.968 49.8813 61.3392C52.4254 60.0816 55.1664 57.867 56.8532 55.6799C59.0319 52.8502 60.4375 49.1867 60.6764 45.7419C60.7467 44.58 60.7327 44.4569 60.4515 44.1835C60.0158 43.7598 59.1443 43.7871 58.7789 44.2245Z" fill="#E5E7EB"/>
<path d="M63.5905 49.2281C63.4218 49.2964 63.1829 49.4878 63.0564 49.6655C62.5644 50.3353 62.6769 50.4994 65.6006 53.3564C68.1869 55.8716 68.4118 56.063 68.8757 56.063C69.5363 56.063 70.0002 55.6119 70.0002 54.9694C70.0002 54.5456 69.7471 54.2586 67.3014 51.88C64.5885 49.2691 64.209 48.9957 63.5905 49.2281Z" fill="#E5E7EB"/>
<path d="M12.4107 49.528C11.8203 50.1431 11.5954 51.8792 11.6095 55.8571C11.6236 59.794 11.7782 60.9286 12.6778 63.6489C13.1557 65.1389 15.3063 69.3903 15.7701 69.773C16.1918 70.1148 17.0774 70.0874 17.3444 69.7047C17.738 69.1579 17.5975 68.6658 16.3886 66.3282C14.2802 62.2683 13.8444 60.4912 13.8444 55.7888C13.8444 53.3145 13.9007 52.4533 14.1115 51.3734C14.3786 50.0474 14.3786 50.0338 14.0975 49.6647C13.7039 49.1452 12.8324 49.0769 12.4107 49.528Z" fill="#E5E7EB"/>
</svg>
