<svg width="70" height="70" viewBox="0 0 70 70" fill="none" xmlns="http://www.w3.org/2000/svg">
<g clip-path="url(#clip0_3791_107076)">
<path d="M37.5328 1.08351C34.4435 1.47484 30.9458 2.86474 28.3191 4.72694C27.0943 5.59056 21.9907 10.4755 20.8202 11.8923C19.8404 13.0798 19.0646 14.5372 18.6019 16.035C18.2753 17.1011 18.2344 17.4789 18.2344 19.1387C18.2344 20.7985 18.2753 21.1763 18.6019 22.2424C18.806 22.9036 19.2143 23.9021 19.5137 24.4284L20.0581 25.4135H18.3841C17.4587 25.4135 16.4924 25.481 16.2338 25.5484C14.8728 25.9263 13.5391 27.1542 13.0628 28.4902C12.8314 29.1109 12.7906 29.1514 12.0421 29.3808C10.4633 29.8531 9.17043 30.9866 8.43551 32.5384C8.02722 33.402 8 33.5235 8 35.0618C8 36.6002 8.02722 36.7216 8.43551 37.5987C9.22486 39.2315 11.0077 40.6349 12.6409 40.8778C12.9947 40.9318 13.1989 41.0262 13.158 41.1207C13.0083 41.5255 12.8858 44.9665 12.9811 46.4914C13.2669 51.4033 15.1314 56.2477 18.2344 60.2554C18.806 60.9976 18.8741 61.0381 19.4185 61.0381C20.1262 61.0381 20.5072 60.6872 20.5072 60.053C20.5072 59.7426 20.2623 59.2973 19.609 58.4067C16.3155 53.9267 14.8048 48.7854 15.1587 43.2663C15.4172 39.2585 16.8054 35.1968 19.0374 31.9312C20.1534 30.3119 20.3439 30.0825 21.7049 28.7061L22.78 27.5995L24.4676 27.5591C26.4274 27.4916 26.7132 27.3567 26.7132 26.466C26.7132 25.5484 26.441 25.4135 24.5493 25.4135H22.9161L22.4534 24.8332C21.6913 23.9156 21.1741 22.9845 20.7794 21.8375C20.4528 20.8929 20.3983 20.5556 20.412 19.1387C20.412 17.7623 20.4664 17.3575 20.7522 16.4669C21.4191 14.4832 21.9771 13.7545 25.4067 10.3675C27.1351 8.65374 28.9316 6.99396 29.4079 6.6566C32.3476 4.53802 35.4233 3.418 39.0163 3.14812C41.2891 2.97269 47.6992 2.97269 49.6454 3.14812C52.9253 3.4315 55.4295 4.55151 57.7703 6.76456C59.4987 8.39735 60.7644 10.4755 61.4177 12.7425C61.6218 13.4577 61.7443 14.3483 61.8124 15.8731C61.9076 17.8028 61.9349 18.0322 62.2071 18.2886C62.5881 18.6664 63.3366 18.6799 63.7449 18.3291C64.0307 18.0727 64.0307 17.9917 63.9627 15.7652C63.9082 13.8355 63.8402 13.2687 63.5408 12.1892C62.8331 9.69279 61.6082 7.54722 59.7981 5.68502C57.5253 3.31005 54.7218 1.78521 51.5779 1.19147C50.7069 1.02954 49.3188 0.989052 44.2152 1.00255C40.7719 1.01604 37.7642 1.05652 37.5328 1.08351ZM18.806 28.5441C16.8462 30.8516 15.0226 34.1712 14.0971 37.1129C13.6208 38.6513 13.5527 38.7727 13.2397 38.7727C12.3823 38.7592 11.1438 37.9091 10.5586 36.924C10.0551 36.0739 9.95978 34.4951 10.3409 33.6314C10.9397 32.309 12.1237 31.4319 13.5935 31.27C14.5462 31.1485 14.8048 30.9191 14.9273 30.0555C15.0634 29.1514 15.5805 28.3282 16.2746 27.9234C16.7918 27.613 16.9959 27.5726 18.248 27.5726H19.6362L18.806 28.5441Z" fill="#E5E7EB"/>
<path d="M48.5443 12.743C48.2993 13.0129 48.2857 13.3367 48.2449 18.1137L48.2041 23.1875L47.0881 24.294L45.9721 25.414H44.3934C42.5289 25.414 42.175 25.5759 42.175 26.3991C42.175 27.0198 42.5153 27.3976 43.2094 27.5056L43.7537 27.6L41.7803 29.5837C39.249 32.1341 39.0312 32.5119 39.0312 34.4551C39.0312 35.6561 39.0856 35.9664 39.3442 36.4927L39.6572 37.0999L39.317 37.7072C37.9016 40.2171 38.6637 43.5906 41.0182 45.3179C43.1141 46.8427 46.1218 46.8562 48.1769 45.3314C49.2792 44.5082 60.4255 33.3755 61.2012 32.3095L61.8409 31.4324L61.8001 39.7313C61.7456 49.0558 61.7592 48.8534 60.616 52.2674C58.0166 59.9725 51.3751 65.7885 43.2774 67.4618C36.3637 68.8922 29.2323 67.1649 23.7204 62.7254C22.6861 61.8887 22.2233 61.7268 21.747 62.0372C20.7943 62.6579 20.9713 63.3326 22.3322 64.4256C25.5577 67.003 29.2595 68.7168 33.5874 69.6344C35.2477 69.9852 35.5744 69.9987 38.759 69.9987C41.794 70.0122 42.3111 69.9717 43.5768 69.7018C48.626 68.6088 52.6408 66.4767 56.2337 63.0087C60.058 59.2978 62.4942 54.8852 63.6238 49.6225L63.9368 48.1517L63.9776 34.6305C64.0184 21.1903 64.0184 21.1094 63.7326 20.826C63.3788 20.4751 62.603 20.4616 62.2492 20.8125C61.9089 21.1498 61.8545 21.5412 61.7865 23.9971C61.732 25.7513 61.6776 26.1697 61.3509 27.1682C60.5072 29.7456 59.677 30.9331 56.4651 34.1582L54.1515 36.4927L50.0958 32.4714L46.0401 28.4502L47.8366 26.6689L49.6195 24.8877L50.0005 25.0901C50.7899 25.4815 51.6337 25.2251 51.8106 24.5234C51.9603 23.9566 51.6745 23.4708 51.0077 23.147L50.3952 22.8501V17.9247C50.3952 13.1748 50.3816 12.9859 50.123 12.7295C49.742 12.3516 48.8982 12.3651 48.5443 12.743ZM49.81 40.7704C46.6526 43.9145 46.0674 44.3058 44.6111 44.3058C43.0869 44.3058 41.6715 43.3612 41.0454 41.9174C40.7596 41.2426 40.7596 39.8123 41.0454 39.1376C41.1679 38.8542 41.6306 38.2469 42.0661 37.7881C43.291 36.5197 43.4407 36.0474 42.8419 35.4671C42.488 35.1028 41.6442 34.9949 41.4673 35.2782C41.3176 35.5346 41.1407 35.1163 41.1407 34.4821C41.1407 33.551 41.4673 33.0112 43.0052 31.4594L44.4614 29.9885L48.5171 34.0098L52.5728 38.031L49.81 40.7704Z" fill="#E5E7EB"/>
<path d="M29.1206 41.0663C27.0656 41.5791 25.4188 43.5088 25.2419 45.5869L25.1738 46.4235L24.3028 46.5045C20.356 46.8688 18.301 51.4433 20.6282 54.6684C21.4584 55.8154 23.2004 56.7195 24.6022 56.7195H25.2147V57.3268C25.2147 58.7167 26.1265 60.4439 27.2833 61.2671C30.5769 63.6016 35.0816 61.564 35.5171 57.5292L35.5988 56.76L36.497 56.6656C37.7219 56.5576 38.8787 55.9774 39.7633 55.0328C40.6888 54.0072 41.0562 53.0626 41.0562 51.5918C41.0562 49.986 40.6888 49.0953 39.5864 48.0023C38.661 47.0847 37.7219 46.6529 36.3745 46.5045L35.5988 46.4235L35.5171 45.6543C35.3674 44.3184 34.9319 43.3873 34.0065 42.4697C33.394 41.8625 32.9585 41.5656 32.3597 41.3497C31.4479 40.9988 29.91 40.8774 29.1206 41.0663ZM31.2573 43.2524C31.5976 43.3603 32.0603 43.6707 32.4414 44.0485C32.9449 44.5343 33.1082 44.8177 33.2443 45.4114C33.4076 46.0996 33.394 46.4235 33.1627 47.7054C33.0946 48.1238 33.1355 48.2587 33.4485 48.5556C33.7479 48.8659 33.884 48.9064 34.3059 48.8255C36.2929 48.4881 37.0822 48.6365 38.0213 49.5676C39.1917 50.7281 39.2326 52.2935 38.1166 53.5349C37.2456 54.52 36.3473 54.7224 34.3059 54.3581C33.884 54.2771 33.7479 54.3176 33.4485 54.628C33.1355 54.9248 33.0946 55.0598 33.1763 55.4781C33.5029 57.3133 33.3668 58.1229 32.5911 59.0271C31.4206 60.39 29.5153 60.4439 28.2496 59.1485C27.5963 58.4738 27.3514 57.7316 27.4466 56.7061C27.6236 54.9788 27.61 54.8169 27.2561 54.5335C26.9975 54.3311 26.807 54.2906 26.4395 54.3581C24.5614 54.6954 23.6087 54.5335 22.7649 53.7104C21.472 52.4554 21.5129 50.6202 22.8738 49.4057C23.7312 48.6365 24.6022 48.5016 26.4395 48.8255C26.807 48.8929 26.9975 48.8525 27.2561 48.65C27.61 48.3667 27.6236 48.2047 27.4466 46.4775C27.3514 45.4114 27.5963 44.6963 28.3313 43.9811C29.1751 43.1714 30.1413 42.9285 31.2573 43.2524Z" fill="#E5E7EB"/>
</g>
<defs>
<clipPath id="clip0_3791_107076">
<rect width="70" height="70" fill="white"/>
</clipPath>
</defs>
</svg>
