<svg width="32" height="32" viewBox="0 0 32 32" fill="none" xmlns="http://www.w3.org/2000/svg">
<path d="M8.45 0.14366C8.31875 0.28116 8.3125 0.34366 8.3125 1.40616V2.51866L7.84375 2.96241C7.45 3.34366 6.90625 4.09991 4.15 8.12491C2.36875 10.7187 0.85 12.9687 0.76875 13.1249C0.50625 13.6312 0.4375 14.0249 0.4375 15.0749C0.4375 16.1937 0.49375 16.5562 0.775 17.1249C1.15625 17.9249 1.35 18.0624 5.21875 20.3124C10.6938 23.4999 10.6687 23.4874 11.0375 23.5624C11.2563 23.6062 12.0312 23.6249 13.2312 23.6124C15.2875 23.5937 15.2875 23.5937 15.7375 23.1624C16.1562 22.7749 16.2188 22.5687 16.2188 21.5937C16.2188 20.8499 16.2 20.6812 16.0938 20.4687C15.825 19.9249 15.3375 19.6249 14.5813 19.5249C14.3562 19.4999 14.25 19.4562 14.25 19.3937C14.25 19.2562 14.025 18.8562 13.8625 18.7062C13.7812 18.6312 13.6125 18.5249 13.4875 18.4687C13.1562 18.3312 12.275 18.3499 11.6875 18.4999C11.325 18.5937 11.2063 18.6062 11.125 18.5437C11.075 18.4999 10.6438 18.1062 10.175 17.6562L9.3125 16.8499V14.6499V12.4499L10.5688 10.9874C11.2625 10.1874 11.95 9.36241 12.0938 9.15616C12.8813 8.05616 13.4375 6.36866 13.4375 5.08741C13.4375 4.52491 13.3313 4.37491 12.9438 4.37491C12.5813 4.37491 12.4375 4.58116 12.4375 5.09366C12.4375 6.13741 11.9812 7.51866 11.3125 8.49991C11.1813 8.68741 10.0437 10.0374 8.78125 11.4999C7.51875 12.9624 6.43125 14.2374 6.36875 14.3437C6.19375 14.6187 6.20625 15.1687 6.39375 15.4312C6.61875 15.7562 10.7625 19.6249 10.925 19.6687C11.0125 19.6874 11.3438 19.6312 11.6875 19.5374C12.3438 19.3624 13.0437 19.3187 13.175 19.4499C13.2188 19.4937 13.25 19.6437 13.25 19.7874C13.25 20.2249 13.4125 20.3499 14.125 20.4687C15.175 20.6437 15.25 20.7187 15.25 21.6187C15.25 22.1562 15.2375 22.1937 15.0688 22.3874L14.8875 22.5937H13.0188H11.1562L6.75625 20.0312C3.88125 18.3562 2.26875 17.3749 2.08125 17.1999C1.93125 17.0562 1.73125 16.7749 1.6375 16.5749C1.475 16.2312 1.46875 16.1812 1.46875 15.1249C1.46875 14.1437 1.48125 13.9999 1.6 13.7437C1.76875 13.3749 8.06875 4.18116 8.39375 3.83116C8.86875 3.31241 9.53125 2.99991 10.3688 2.90616C10.8188 2.85616 11 2.72491 11 2.44366C11 1.99991 10.7875 1.88116 10.1125 1.94366C9.8625 1.96866 9.58125 2.00616 9.4875 2.03116L9.3125 2.07491V1.17491C9.3125 0.31241 9.30625 0.26866 9.16875 0.137409C8.96875 -0.0500908 8.625 -0.0438404 8.45 0.14366ZM8.3125 14.7562V15.8812L7.78125 15.3937C7.4875 15.1312 7.25625 14.8874 7.2625 14.8624C7.28125 14.8124 8.26875 13.6312 8.3 13.6249C8.30625 13.6249 8.3125 14.1312 8.3125 14.7562Z" fill="white"/>
<path d="M16.4689 0.0875874C16.2126 0.268837 16.2376 1.73759 16.5064 2.55009C16.6751 3.05634 17.0751 3.59384 17.5064 3.89384C17.6939 4.01884 18.9064 4.60009 20.2001 5.18134C21.4939 5.76259 22.6439 6.28759 22.7564 6.34384C23.1564 6.54384 23.4751 6.86259 23.6876 7.26259C23.8939 7.63759 23.9064 7.68759 23.9251 8.40634C23.9439 9.05634 23.9251 9.18134 23.8251 9.34384C23.6876 9.56259 22.6751 10.5001 22.5751 10.5001C22.5376 10.5001 22.1814 10.2188 21.7814 9.87509C21.1751 9.35634 21.0189 9.25009 20.8439 9.25009C20.5814 9.25009 20.3876 9.41259 20.3376 9.67509C20.2876 9.91259 20.3314 9.95634 21.8876 11.3313C23.1439 12.4438 24.4439 13.7751 24.8626 14.3876C25.2689 14.9876 25.7501 15.9438 25.9689 16.5876C26.1564 17.1501 26.3689 18.0688 26.3751 18.3313C26.3751 18.7563 26.9189 18.9626 27.2314 18.6501C27.3814 18.5001 27.3876 18.4626 27.3501 18.1063C27.2439 17.0751 26.7501 15.5876 26.1814 14.5938C25.6501 13.6688 25.3314 13.2688 24.3126 12.2313L23.3439 11.2438L23.6251 10.9876C24.8689 9.86259 24.9001 9.80634 24.9251 8.60634C24.9439 7.87509 24.9251 7.67509 24.8189 7.32509C24.6126 6.63759 24.1751 6.04384 23.6064 5.66884C23.4251 5.55009 22.1501 4.94384 20.7626 4.32509C19.3814 3.70634 18.1376 3.10634 18.0001 3.00009C17.8439 2.88134 17.6751 2.65009 17.5501 2.38759C17.3564 1.99384 17.3439 1.92509 17.3126 1.11884C17.2876 0.393837 17.2626 0.243837 17.1626 0.131336C17.0251 -0.0249138 16.6501 -0.0499134 16.4689 0.0875874Z" fill="white"/>
<path d="M30.8438 13.5625C30.775 13.5875 30.2 14.1375 29.5625 14.775C28.4375 15.9062 28.4062 15.9437 28.4062 16.1937C28.4062 16.5 28.5938 16.6875 28.8938 16.6875C29.0625 16.6875 29.25 16.5312 30.325 15.45C31.4313 14.35 31.5625 14.1937 31.5625 14.0125C31.5625 13.6375 31.2 13.4125 30.8438 13.5625Z" fill="white"/>
<path d="M18.5188 17.0938C17.9062 17.2813 17.5125 17.6126 17.2 18.2126C17.0563 18.4938 17.0312 18.6063 17.0312 19.1251C17.0312 20.0688 17.1 20.1813 18.7625 21.8563C19.525 22.6251 20.2563 23.3251 20.3813 23.4126C20.5125 23.5001 20.725 23.5876 20.8625 23.6063C21.3688 23.6751 21.4938 23.5813 23.075 22.0126C24.8938 20.2063 24.9688 20.0938 24.9688 19.1563C24.9688 18.6313 24.9437 18.4876 24.825 18.2438C24.4688 17.5188 23.8063 17.0688 23.0188 17.0188C22.65 16.9938 22.5062 17.0188 21.925 17.2126C21.5563 17.3376 21.15 17.4376 21.025 17.4376C20.9 17.4376 20.4875 17.3376 20.1188 17.2188C19.3875 16.9813 18.9688 16.9501 18.5188 17.0938ZM20.0375 18.2501C20.4625 18.3876 20.8937 18.5001 21 18.5001C21.1063 18.5001 21.5375 18.3876 21.9625 18.2501C22.3812 18.1126 22.8063 18.0001 22.9 18.0001C23.1 18.0001 23.4813 18.1501 23.65 18.3001C23.825 18.4563 24 18.8751 24 19.1501C24 19.5938 23.8063 19.8563 22.3938 21.2626L21.0312 22.6251L19.6125 21.2313C18.1438 19.8001 18 19.6126 18 19.1563C18 18.5751 18.5375 18.0126 19.0875 18.0001C19.1875 18.0001 19.6188 18.1126 20.0375 18.2501Z" fill="white"/>
<path d="M28.7999 19.3125C28.6437 19.475 28.6187 19.5375 28.6499 19.7062C28.7187 20.0687 28.8624 20.125 29.6874 20.125C30.5124 20.125 30.6562 20.0687 30.7249 19.7062C30.7562 19.5375 30.7312 19.475 30.5749 19.3125C30.3874 19.125 30.3812 19.125 29.6874 19.125C28.9937 19.125 28.9874 19.125 28.7999 19.3125Z" fill="white"/>
<path d="M26.575 20.2125C26.4937 20.325 26.4437 20.5188 26.4187 20.8875C26.3062 22.3187 25.6875 23.8625 24.7625 25.0125C24.0687 25.8812 23.2812 26.5187 22.25 27.0625C21.2625 27.5812 20.7937 28.075 20.4937 28.9125C20.375 29.2375 20.3562 29.4188 20.35 30.5063C20.3437 31.6312 20.3562 31.75 20.4625 31.8687C20.55 31.9625 20.6562 32 20.85 32C21.2687 32 21.3 31.9187 21.325 30.5938L21.3437 29.4625L21.55 29.05C21.7875 28.5625 22.0375 28.325 22.6187 28.0375C23.75 27.4625 24.9687 26.45 25.7187 25.45C26.6875 24.1562 27.3125 22.4812 27.4187 20.9062C27.45 20.375 27.4437 20.3187 27.3187 20.1937C27.125 20 26.7375 20.0125 26.575 20.2125Z" fill="white"/>
<path d="M28.7126 22.5C28.6376 22.5312 28.5313 22.6187 28.4751 22.7C28.2563 23.0062 28.3063 23.0812 29.6063 24.3875C30.7563 25.5375 30.8563 25.625 31.0626 25.625C31.3563 25.625 31.5626 25.4188 31.5626 25.125C31.5626 24.9312 31.4501 24.8 30.3626 23.7125C29.1563 22.5187 28.9876 22.3937 28.7126 22.5Z" fill="white"/>
<path d="M5.95613 22.6375C5.69363 22.9188 5.59363 23.7125 5.59988 25.5313C5.60613 27.3313 5.67488 27.85 6.07488 29.0938C6.28738 29.775 7.24363 31.7188 7.44988 31.8938C7.63738 32.05 8.03113 32.0375 8.14988 31.8625C8.32488 31.6125 8.26238 31.3875 7.72488 30.3188C6.78738 28.4625 6.59363 27.65 6.59363 25.5C6.59363 24.3688 6.61863 23.975 6.71238 23.4813C6.83113 22.875 6.83113 22.8688 6.70613 22.7C6.53113 22.4625 6.14363 22.4313 5.95613 22.6375Z" fill="white"/>
</svg>
