<svg width="40" height="40" viewBox="0 0 40 40" fill="none" xmlns="http://www.w3.org/2000/svg">
<path d="M34.9981 20.7127C33.8322 18.2873 31.8647 16.4499 29.46 15.4209C31.5732 12.2606 31.2089 7.99777 28.4398 5.2784C26.9095 3.80846 24.942 3 22.9017 3H22.8288C20.7156 3 18.7481 3.88196 17.2178 5.35189L5.26711 17.6993C3.8097 19.2428 2.93526 21.2272 3.00813 23.3586C3.00813 25.49 3.88257 27.4744 5.33998 29.0178C6.87025 30.5612 8.91061 31.2962 10.8781 31.2962C12.627 31.2962 14.303 30.7082 15.7604 29.6058C15.8333 29.6793 15.8333 29.8263 15.9061 29.8998C17.655 33.6481 21.3714 36 25.4521 36C27.0553 36 28.5127 35.6325 29.9701 34.9711C35.2167 32.3987 37.4757 26.078 34.9981 20.7127ZM31.4275 20.7127L18.0923 27.0334C17.7279 25.637 17.8008 24.0935 18.3109 22.6971C18.9667 20.7862 20.3512 19.2428 22.173 18.3608C23.1932 17.8463 24.2862 17.6258 25.3793 17.6258C27.784 17.6993 30.043 18.8753 31.4275 20.7127ZM19.4039 7.4833C20.3512 6.52784 21.5172 6.01336 22.8288 6.01336C24.1405 6.01336 25.3793 6.52784 26.3266 7.4098C28.2212 9.32071 28.2941 12.4076 26.3995 14.392L26.1808 14.6125C25.9622 14.6125 25.6707 14.6125 25.4521 14.6125C23.849 14.6125 22.3916 14.98 20.9342 15.6414C20.2055 16.0089 19.4768 16.4499 18.8938 16.9644L14.5216 12.6281L19.4039 7.4833ZM14.3759 26.7394C12.4813 28.6503 9.42071 28.7238 7.45321 26.8129C6.5059 25.8575 5.99581 24.6815 5.99581 23.3586C5.99581 22.0356 6.5059 20.7862 7.38034 19.8307L12.3355 14.7595L16.7806 19.1693C16.2705 19.9042 15.8333 20.7862 15.4689 21.6682C14.9588 23.1381 14.7402 24.608 14.886 26.1514L14.3759 26.7394ZM28.6584 32.1782C27.6382 32.6927 26.5452 32.9131 25.4521 32.9131C23.0474 32.9131 20.8613 31.7372 19.4039 29.8998L32.7392 23.5791C33.5407 26.9599 31.9376 30.5612 28.6584 32.1782Z" fill="white"/>
</svg>
