<svg width="45" height="45" viewBox="0 0 45 45" fill="none" xmlns="http://www.w3.org/2000/svg">
<path fill-rule="evenodd" clip-rule="evenodd" d="M20.6132 33.0516C19.8004 32.7962 18.8748 32.6063 18.0366 32.2246C13.7636 30.2782 11.4728 26.9285 11.3197 22.2358C11.2172 19.0954 11.2968 15.9489 11.3007 12.805C11.3021 11.7605 11.9434 11.1175 12.9827 11.1134C14.4892 11.1074 15.9956 11.1065 17.5021 11.1138C18.4579 11.1184 19.1591 11.7944 19.1567 12.6872C19.1542 13.5797 18.4539 14.2457 17.4946 14.254C16.5287 14.2624 15.5626 14.2588 14.5965 14.2621C14.5663 14.2623 14.536 14.2785 14.465 14.2991C14.458 14.4433 14.4439 14.601 14.4438 14.7587C14.4425 17.182 14.4377 19.6054 14.4439 22.0288C14.4554 26.559 18.019 30.0549 22.5333 29.9715C26.5535 29.8972 30.0145 26.5706 30.1384 22.5487C30.2216 19.8493 30.1581 17.1457 30.1587 14.444C30.1587 14.3981 30.1396 14.3524 30.1177 14.2549C29.0941 14.2549 28.0675 14.2681 27.0415 14.2514C25.8886 14.2324 25.1315 13.125 25.5649 12.0942C25.8224 11.4817 26.3051 11.1264 26.9732 11.119C28.5777 11.1011 30.1827 11.0987 31.7871 11.1194C32.6209 11.1302 33.2941 11.794 33.297 12.6287C33.3086 16.0015 33.399 19.3786 33.2671 22.7466C33.0698 27.784 29.2476 32.0351 24.303 32.9104C23.9448 32.9738 23.8544 33.1031 23.8676 33.4459C23.9398 35.3133 24.5403 36.9865 25.7903 38.3721C26.4722 39.1279 27.4393 39.4564 28.4394 39.5C30.9634 39.6102 33.1522 38.7092 35.0564 37.1004C37.2917 35.2119 38.7453 32.7819 39.7229 30.063C41.399 25.4013 41.8375 20.6548 40.0995 15.9349C37.4906 8.84969 32.3757 4.66102 24.9187 3.44406C21.1296 2.82569 17.4947 3.50079 14.0272 5.13541C13.689 5.29472 13.2715 5.39324 12.9048 5.36127C12.222 5.30166 11.7085 4.73111 11.6056 4.07278C11.4994 3.39336 11.836 2.73805 12.4875 2.41288C14.4165 1.44982 16.44 0.74957 18.5701 0.419948C25.0552 -0.583592 30.9423 0.860667 36.0737 4.97689C40.6967 8.68527 43.4376 13.5336 44.1145 19.4342C44.8175 25.5605 43.4683 31.2499 39.9608 36.3532C38.0542 39.1273 35.5287 41.1549 32.2316 42.0821C30.397 42.598 28.5211 42.7954 26.6539 42.318C23.8743 41.6073 22.2143 39.7048 21.4376 37.0261C21.0624 35.7305 20.882 34.3784 20.6132 33.0516Z" fill="#BFE0FE"/>
<path fill-rule="evenodd" clip-rule="evenodd" d="M14.4604 37.8601C14.4502 41.1753 11.8348 43.9476 8.56085 44.1135C5.1669 44.2856 2.27419 41.8152 1.94181 38.4587C1.77412 36.7655 2.22204 35.245 3.28611 33.9252C3.51538 33.6408 3.45773 33.466 3.30576 33.204C0.90696 29.0677 -0.0756185 24.6097 0.419732 19.86C0.941023 14.8603 2.96972 10.5297 6.43285 6.87885C7.10428 6.17127 8.04153 6.11611 8.70759 6.73461C9.38543 7.36412 9.38727 8.31512 8.69134 9.04904C6.55783 11.2982 5.02016 13.8954 4.18563 16.8831C2.76561 21.9672 3.35921 26.8239 5.90868 31.4463C6.08069 31.7581 6.22245 31.872 6.62334 31.771C10.6648 30.7525 14.4732 33.7245 14.4604 37.8601ZM11.2977 37.8444C11.3054 36.1096 9.89179 34.692 8.15315 34.6909C6.43783 34.6896 5.02619 36.0859 5.01191 37.798C4.99737 39.539 6.40075 40.9695 8.13101 40.9773C9.8703 40.9853 11.2899 39.5808 11.2977 37.8444Z" fill="#BFE0FE"/>
<path fill-rule="evenodd" clip-rule="evenodd" d="M11.2976 37.8448C11.2899 39.5811 9.87022 40.9858 8.13093 40.9778C6.40067 40.97 4.99742 39.5394 5.01183 37.7984C5.02611 36.0864 6.43775 34.6901 8.15307 34.6914C9.89171 34.6926 11.3052 36.1101 11.2976 37.8448Z" fill="white"/>
</svg>
