<svg width="172" height="50" viewBox="0 0 172 50" fill="none" xmlns="http://www.w3.org/2000/svg">
<path d="M165.63 50H6.37037C2.86826 50 0 47.1859 0 43.75V6.25C0 2.81406 2.86826 0 6.37037 0H165.63C169.132 0 172 2.81406 172 6.25V43.75C172 47.1859 169.132 50 165.63 50Z" fill="white" fill-opacity="0.24"/>
<path d="M165.63 1.00156C168.579 1.00156 170.979 3.35625 170.979 6.25V43.75C170.979 46.6438 168.579 48.9984 165.63 48.9984H6.37037C3.42089 48.9984 1.02085 46.6438 1.02085 43.75V6.25C1.02085 3.35625 3.42089 1.00156 6.37037 1.00156H165.63ZM165.63 0H6.37037C2.86826 0 0 2.81406 0 6.25V43.75C0 47.1859 2.86826 50 6.37037 50H165.63C169.132 50 172 47.1859 172 43.75V6.25C172 2.81406 169.132 0 165.63 0Z" fill="white"/>
<path d="M13.295 9.42422C12.9207 9.80859 12.7041 10.407 12.7041 11.182V38.8258C12.7041 39.6008 12.9207 40.1992 13.295 40.5836L13.3873 40.668L29.1763 25.1836V24.818L13.3873 9.33359L13.295 9.42422Z" fill="url(#paint0_linear_3857_29921)"/>
<path d="M34.4329 30.3477L29.1758 25.1836V24.818L34.4393 19.6539L34.5571 19.7211L40.7906 23.2008C42.5695 24.1883 42.5695 25.8133 40.7906 26.807L34.5571 30.2805L34.4329 30.3477Z" fill="url(#paint1_linear_3857_29921)"/>
<path d="M34.5576 30.2796L29.1763 24.9999L13.2949 40.5827C13.8858 41.1921 14.8493 41.2655 15.945 40.6562L34.5576 30.2796Z" fill="url(#paint2_linear_3857_29921)"/>
<path d="M34.5576 19.7203L15.945 9.34376C14.8493 8.74063 13.8858 8.81407 13.2949 9.42344L29.1763 25L34.5576 19.7203Z" fill="url(#paint3_linear_3857_29921)"/>
<path d="M60.4138 12.8035C60.4138 13.8473 60.0953 14.6832 59.4678 15.3066C58.7463 16.0457 57.8067 16.4176 56.6553 16.4176C55.5548 16.4176 54.6151 16.0394 53.8443 15.2941C53.0719 14.5379 52.6865 13.6098 52.6865 12.4988C52.6865 11.3879 53.0719 10.4598 53.8443 9.70977C54.6151 8.9582 55.5548 8.58008 56.6553 8.58008C57.2031 8.58008 57.7255 8.69102 58.224 8.89727C58.7209 9.10508 59.1254 9.38633 59.4184 9.7332L58.7527 10.3926C58.2415 9.80039 57.5455 9.5082 56.6553 9.5082C55.8526 9.5082 55.1566 9.7832 54.5658 10.3379C53.9813 10.8941 53.6883 11.6145 53.6883 12.4988C53.6883 13.3832 53.9813 14.1098 54.5658 14.666C55.1566 15.2144 55.8526 15.4957 56.6553 15.4957C57.5073 15.4957 58.224 15.2144 58.7893 14.6598C59.162 14.2926 59.3738 13.7863 59.4296 13.1395H56.6553V12.2363H60.3564C60.401 12.4316 60.4138 12.6207 60.4138 12.8035Z" fill="white" stroke="white" stroke-width="0.16" stroke-miterlimit="10"/>
<path d="M66.286 9.67226H62.8094V12.0473H65.9436V12.9504H62.8094V15.3254H66.286V16.2457H61.8252V8.75195H66.286V9.67226Z" fill="white" stroke="white" stroke-width="0.16" stroke-miterlimit="10"/>
<path d="M70.4292 16.2457H69.445V9.67226H67.3125V8.75195H72.5633V9.67226H70.4292V16.2457Z" fill="white" stroke="white" stroke-width="0.16" stroke-miterlimit="10"/>
<path d="M76.3633 16.2457V8.75195H77.3459V16.2457H76.3633Z" fill="white" stroke="white" stroke-width="0.16" stroke-miterlimit="10"/>
<path d="M81.7017 16.2457H80.7254V9.67226H78.585V8.75195H83.8421V9.67226H81.7017V16.2457Z" fill="white" stroke="white" stroke-width="0.16" stroke-miterlimit="10"/>
<path d="M93.7837 15.2816C93.0304 16.0395 92.0971 16.4176 90.9839 16.4176C89.8643 16.4176 88.931 16.0395 88.1777 15.2816C87.426 14.5254 87.0518 13.5973 87.0518 12.4988C87.0518 11.4004 87.426 10.4723 88.1777 9.71602C88.931 8.9582 89.8643 8.58008 90.9839 8.58008C92.0907 8.58008 93.024 8.9582 93.7773 9.72227C94.5354 10.4848 94.9096 11.4066 94.9096 12.4988C94.9096 13.5973 94.5354 14.5254 93.7837 15.2816ZM88.9055 14.6535C89.4725 15.2145 90.1621 15.4957 90.9839 15.4957C91.7993 15.4957 92.4952 15.2145 93.0558 14.6535C93.6212 14.0926 93.9079 13.3723 93.9079 12.4988C93.9079 11.6254 93.6212 10.9051 93.0558 10.3441C92.4952 9.7832 91.7993 9.50195 90.9839 9.50195C90.1621 9.50195 89.4725 9.7832 88.9055 10.3441C88.3402 10.9051 88.0535 11.6254 88.0535 12.4988C88.0535 13.3723 88.3402 14.0926 88.9055 14.6535Z" fill="white" stroke="white" stroke-width="0.16" stroke-miterlimit="10"/>
<path d="M96.29 16.2457V8.75195H97.4845L101.198 14.5801H101.241L101.198 13.1395V8.75195H102.181V16.2457H101.155L97.2663 10.1301H97.2233L97.2663 11.577V16.2457H96.29Z" fill="white" stroke="white" stroke-width="0.16" stroke-miterlimit="10"/>
<path d="M86.8091 27.1914C83.8166 27.1914 81.372 29.4258 81.372 32.5086C81.372 35.5664 83.8166 37.8242 86.8091 37.8242C89.808 37.8242 92.2526 35.5664 92.2526 32.5086C92.2526 29.4258 89.808 27.1914 86.8091 27.1914ZM86.8091 35.7305C85.1672 35.7305 83.7545 34.4008 83.7545 32.5086C83.7545 30.5914 85.1672 29.2852 86.8091 29.2852C88.4511 29.2852 89.8701 30.5914 89.8701 32.5086C89.8701 34.4008 88.4511 35.7305 86.8091 35.7305ZM74.9459 27.1914C71.947 27.1914 69.5088 29.4258 69.5088 32.5086C69.5088 35.5664 71.947 37.8242 74.9459 37.8242C77.9432 37.8242 80.383 35.5664 80.383 32.5086C80.383 29.4258 77.9432 27.1914 74.9459 27.1914ZM74.9459 35.7305C73.3023 35.7305 71.8849 34.4008 71.8849 32.5086C71.8849 30.5914 73.3023 29.2852 74.9459 29.2852C76.5879 29.2852 78.0005 30.5914 78.0005 32.5086C78.0005 34.4008 76.5879 35.7305 74.9459 35.7305ZM60.8292 28.8211V31.0805H66.3284C66.1675 32.343 65.7375 33.2711 65.0782 33.918C64.2755 34.6992 63.0253 35.5664 60.8292 35.5664C57.4449 35.5664 54.7948 32.8867 54.7948 29.5664C54.7948 26.2461 57.4449 23.5664 60.8292 23.5664C62.659 23.5664 63.9905 24.268 64.9731 25.1773L66.5959 23.5852C65.2215 22.2977 63.3932 21.3086 60.8292 21.3086C56.1883 21.3086 52.2881 25.0133 52.2881 29.5664C52.2881 34.1195 56.1883 37.8242 60.8292 37.8242C63.3375 37.8242 65.2215 37.018 66.7026 35.5055C68.2204 34.0164 68.6934 31.9227 68.6934 30.232C68.6934 29.707 68.6488 29.2242 68.5692 28.8211H60.8292ZM118.554 30.5727C118.107 29.3836 116.726 27.1914 113.913 27.1914C111.126 27.1914 108.806 29.3461 108.806 32.5086C108.806 35.4867 111.103 37.8242 114.181 37.8242C116.67 37.8242 118.107 36.3352 118.698 35.468L116.85 34.2602C116.234 35.1445 115.395 35.7305 114.181 35.7305C112.975 35.7305 112.111 35.1883 111.556 34.1195L118.804 31.1773L118.554 30.5727ZM111.165 32.343C111.103 30.293 112.787 29.243 113.995 29.243C114.941 29.243 115.743 29.707 116.011 30.3711L111.165 32.343ZM105.274 37.5008H107.656V21.8758H105.274V37.5008ZM101.372 28.3758H101.292C100.757 27.7539 99.7362 27.1914 98.443 27.1914C95.7292 27.1914 93.248 29.5289 93.248 32.5258C93.248 35.5055 95.7292 37.8242 98.443 37.8242C99.7362 37.8242 100.757 37.257 101.292 36.6164H101.372V37.3789C101.372 39.4117 100.265 40.5039 98.4796 40.5039C97.024 40.5039 96.121 39.4727 95.7483 38.6055L93.6764 39.4539C94.2736 40.8633 95.855 42.5977 98.4796 42.5977C101.273 42.5977 103.63 40.9852 103.63 37.0617V27.5148H101.372V28.3758ZM98.6469 35.7305C97.0049 35.7305 95.6305 34.382 95.6305 32.5258C95.6305 30.6523 97.0049 29.2852 98.6469 29.2852C100.265 29.2852 101.541 30.6523 101.541 32.5258C101.541 34.382 100.265 35.7305 98.6469 35.7305ZM129.709 21.8758H124.01V37.5008H126.387V31.5805H129.709C132.348 31.5805 134.936 29.707 134.936 26.7273C134.936 23.7492 132.341 21.8758 129.709 21.8758ZM129.771 29.407H126.387V24.0492H129.771C131.545 24.0492 132.558 25.4945 132.558 26.7273C132.558 27.9367 131.545 29.407 129.771 29.407ZM144.459 27.1617C142.743 27.1617 140.957 27.9055 140.223 29.5539L142.332 30.4211C142.786 29.5539 143.62 29.2727 144.502 29.2727C145.735 29.2727 146.985 29.9992 147.004 31.282V31.4461C146.574 31.2023 145.654 30.8414 144.521 30.8414C142.25 30.8414 139.936 32.068 139.936 34.357C139.936 36.4508 141.797 37.7992 143.888 37.7992C145.487 37.7992 146.369 37.0914 146.923 36.268H147.004V37.4758H149.299V31.482C149.299 28.7117 147.191 27.1617 144.459 27.1617ZM144.173 35.7242C143.396 35.7242 142.313 35.3461 142.313 34.4008C142.313 33.1914 143.663 32.7273 144.832 32.7273C145.878 32.7273 146.369 32.9539 147.004 33.2523C146.818 34.6992 145.549 35.7242 144.173 35.7242ZM157.66 27.5039L154.929 34.2773H154.848L152.024 27.5039H149.462L153.704 36.9695L151.284 42.2367H153.766L160.304 27.5039H157.66ZM136.242 37.5008H138.624V21.8758H136.242V37.5008Z" fill="white"/>
<defs>
<linearGradient id="paint0_linear_3857_29921" x1="27.7744" y1="39.1137" x2="6.80023" y2="17.7355" gradientUnits="userSpaceOnUse">
<stop stop-color="#00A0FF"/>
<stop offset="0.0066" stop-color="#00A1FF"/>
<stop offset="0.2601" stop-color="#00BEFF"/>
<stop offset="0.5122" stop-color="#00D2FF"/>
<stop offset="0.7604" stop-color="#00DFFF"/>
<stop offset="1" stop-color="#00E3FF"/>
</linearGradient>
<linearGradient id="paint1_linear_3857_29921" x1="43.107" y1="24.999" x2="12.2784" y2="24.999" gradientUnits="userSpaceOnUse">
<stop stop-color="#FFE000"/>
<stop offset="0.4087" stop-color="#FFBD00"/>
<stop offset="0.7754" stop-color="#FFA500"/>
<stop offset="1" stop-color="#FF9C00"/>
</linearGradient>
<linearGradient id="paint2_linear_3857_29921" x1="31.6314" y1="22.1298" x2="3.1887" y2="-6.8607" gradientUnits="userSpaceOnUse">
<stop stop-color="#FF3A44"/>
<stop offset="1" stop-color="#C31162"/>
</linearGradient>
<linearGradient id="paint3_linear_3857_29921" x1="9.29726" y1="49.7798" x2="21.9982" y2="36.8343" gradientUnits="userSpaceOnUse">
<stop stop-color="#32A071"/>
<stop offset="0.0685" stop-color="#2DA771"/>
<stop offset="0.4762" stop-color="#15CF74"/>
<stop offset="0.8009" stop-color="#06E775"/>
<stop offset="1" stop-color="#00F076"/>
</linearGradient>
</defs>
</svg>
