<svg width="173" height="99" viewBox="0 0 173 99" fill="none" xmlns="http://www.w3.org/2000/svg">
<path fill-rule="evenodd" clip-rule="evenodd" d="M133.96 -8.75838C133.262 -7.37174 132.481 -6.07402 131.816 -4.94599C125.182 6.72471 102.669 9.11537 100.747 -7.12988C100.538 -8.67512 100.473 -12.3255 100.991 -15.6396L105.19 -14.7631C100.982 3.93145 122.536 4.37455 129.477 -9.69413L133.96 -8.75838Z" fill="#BBE0F4"/>
<path fill-rule="evenodd" clip-rule="evenodd" d="M145.295 -6.3922C143.941 -1.86328 141.612 2.49274 139.188 5.54179C129.409 18.967 109.532 20.1304 95.3519 13.626C84.692 6.89614 82.1026 -7.568 82.6873 -19.3266L82.6846 -19.46L86.933 -18.5733C86.7844 -17.2252 86.5355 -15.8367 86.7526 -14.8209C87.0742 -6.37712 89.1827 3.4408 96.0062 9.02266C112.604 18.2381 135.864 12.3155 141.067 -7.27482L145.295 -6.3922Z" fill="#BBE0F4"/>
<path fill-rule="evenodd" clip-rule="evenodd" d="M157.559 -3.83557C155.863 8.10982 149.242 18.7824 140.537 26.9663C127.156 39.3435 100.918 36.7686 86.1454 27.9647C69.1504 16.5925 61.1024 -3.67946 63.8091 -23.4025L68.0772 -22.5117C67.6377 -19.6716 67.3176 -16.8167 67.2994 -13.9398C67.2959 -2.02925 72.8961 9.12013 80.6321 17.9162C92.0081 30.7104 111.478 33.211 127.465 29.54C137.24 27.1976 143.416 18.261 148.488 10.2075C150.976 5.62922 152.733 0.540769 153.534 -4.66549L157.557 -3.82577L157.559 -3.83557Z" fill="#BBE0F4"/>
<path fill-rule="evenodd" clip-rule="evenodd" d="M172.763 -0.662183C169.081 17.1719 159.508 35.5332 144.21 44.5171C123.785 54.8624 97.4608 52.6064 79.0887 38.9242C58.538 25.2061 48.8121 -1.26948 50.9257 -25.3455C50.9454 -25.5866 50.9671 -25.8375 50.9868 -26.0785L55.059 -25.2286C54.6806 -21.0171 54.5999 -16.7639 54.9255 -12.5484C57.1183 6.65469 66.093 26.1087 83.008 36.4937C105.112 52.0684 142.039 51.0515 157.178 26.3842C162.094 19.2276 165.281 11.0563 167.602 2.72482C167.969 1.30992 168.316 -0.109065 168.644 -1.53214L172.765 -0.671982L172.763 -0.662183Z" fill="#BBE0F4"/>
<path fill-rule="evenodd" clip-rule="evenodd" d="M187.177 2.35102C184.552 20.947 172.762 39.0604 159.958 51.6601C137.093 75.1644 99.2186 71.1311 73.2554 55.0063C50.2033 41.3791 37.5161 22.3863 37.0941 -4.7626C36.9334 -7.12526 36.8003 -19.1154 37.5997 -28.8678L41.7894 -27.9933C41.5737 -25.8829 41.3991 -23.7741 41.2617 -21.6473C38.8953 12.2544 46.6563 35.4187 77.3998 52.6228C101.818 66.995 136.855 70.1907 157.711 48.0346C170.518 35.4251 180.031 19.3088 183.092 1.50884L187.174 2.36081L187.177 2.35102Z" fill="#BBE0F4"/>
<path fill-rule="evenodd" clip-rule="evenodd" d="M23.7423 -31.7632C23.5385 -26.6265 23.6015 -21.4953 24.3787 -16.4092C29.4099 17.0444 45.0114 52.224 76.6941 67.816C101.998 80.2481 126.483 80.8432 151.971 68.6536C174.819 59.5701 190.748 39.3379 199.6 16.9441C200.981 13.2685 202.48 9.55668 203.618 5.76926L207.671 6.61511C203.678 22.1264 193.426 39.7741 184.967 49.8076C168.258 68.784 142.922 79.902 117.913 81.8639C68.3351 81.6806 33.88 46.5296 23.4864 -0.240474C21.4597 -8.5907 19.6754 -17.0742 19.6378 -25.7039C19.5787 -28.0148 19.5803 -30.3232 19.6329 -32.6311L23.7443 -31.773L23.7423 -31.7632Z" fill="#BBE0F4"/>
</svg>
