<svg width="46" height="45" viewBox="0 0 46 45" fill="none" xmlns="http://www.w3.org/2000/svg">
<path d="M27.3233 2.28491C27.086 2.52222 27.1035 2.91772 27.4024 4.10425L27.6572 5.08862L27.2705 5.48413C26.7871 5.9939 26.4092 6.78491 25.7412 8.73608C25.0557 10.7312 24.9414 10.9949 24.6074 11.3289C24.3965 11.5486 24.335 11.6804 24.335 11.9617C24.335 12.3572 24.5371 12.5945 25.1787 12.9724L25.5479 13.1833L24.9326 13.781C24.2647 14.4226 23.9307 14.8621 23.5791 15.5652C23.2539 16.2068 22.2256 19.3181 22.2256 19.6521C22.2256 19.8806 22.1817 19.9509 21.9883 20.0212C21.7598 20.0916 21.6631 20.0212 20.3711 18.782L19.0088 17.4724L19.1846 17.1033C19.3252 16.822 19.3779 16.4968 19.4219 15.6443C19.457 15.0203 19.5449 14.3347 19.624 14.0623C19.7295 13.7283 19.7647 13.3767 19.7383 12.9021C19.6592 11.3376 18.6221 10.2214 16.9434 9.90503C16.46 9.81714 16.3545 9.75562 15.9678 9.35132C14.6231 7.92749 12.1973 8.11206 11.169 9.72925C10.4307 10.8894 10.4746 12.3396 11.2744 13.3855C11.4326 13.5964 11.5029 13.7898 11.5029 14.0535C11.5029 14.2556 11.5733 14.572 11.6699 14.7654L11.8281 15.0994L10.9844 15.6531C8.91017 17.0154 7.07326 19.2917 6.13283 21.7C5.40334 23.5544 5.38576 23.7302 4.99904 31.0251C4.80568 34.6287 4.64748 37.8982 4.64748 38.3025C4.64748 39.3923 4.62111 39.3748 6.58107 39.3748H8.1631V40.9568C8.1631 42.4246 8.17189 42.5476 8.33889 42.7146C8.57619 42.9519 9.15627 42.9519 9.39357 42.7146C9.56056 42.5476 9.56935 42.4246 9.56935 40.9568V39.3748H10.624H11.6787V40.9568C11.6787 42.4246 11.6875 42.5476 11.8545 42.7146C12.0918 42.9519 12.6719 42.9519 12.9092 42.7146C13.0762 42.5476 13.085 42.4246 13.085 40.9568V39.3748H14.1397H15.1944V40.9568C15.1944 42.4246 15.2031 42.5476 15.3701 42.7146C15.6074 42.9519 16.1875 42.9519 16.4248 42.7146C16.5918 42.5476 16.6006 42.4246 16.6006 40.9568V39.3748H17.4795C18.8506 39.3748 18.71 40.0955 18.71 33.0906V27.158L19.0528 26.9382C19.5625 26.5955 19.9492 26.0154 20.2393 25.1101C20.2832 24.9607 20.3272 24.9695 20.7051 25.198C21.0303 25.3826 21.2412 25.4441 21.6807 25.4529C22.1729 25.4617 22.2696 25.4968 22.5156 25.7253C22.6738 25.8748 23.2627 26.3406 23.834 26.7625C24.3965 27.1843 24.8623 27.5359 24.8623 27.5447C24.8623 27.5447 24.5811 29.6453 24.2471 32.2117C23.9131 34.7693 23.6319 37.0369 23.6319 37.2478C23.6319 37.5027 23.6846 37.6697 23.8076 37.7927C23.9658 37.9509 24.0977 37.9685 25.2139 37.9685H26.4444V40.2537C26.4444 42.4246 26.4531 42.5476 26.6201 42.7146C26.7344 42.8289 26.9102 42.8904 27.1475 42.8904C27.3848 42.8904 27.5606 42.8289 27.6748 42.7146C27.8418 42.5476 27.8506 42.4246 27.8506 40.2537V37.9685H29.2569H30.6631V40.2537C30.6631 42.4246 30.6719 42.5476 30.8389 42.7146C31.0762 42.9519 31.6563 42.9519 31.8936 42.7146C32.0606 42.5476 32.0694 42.4246 32.0694 40.2537V37.9685H33.4756H34.8819V40.2537C34.8819 42.4246 34.8906 42.5476 35.0576 42.7146C35.1719 42.8289 35.3477 42.8904 35.585 42.8904C35.8223 42.8904 35.9981 42.8289 36.1123 42.7146C36.2793 42.5476 36.2881 42.4246 36.2881 40.2537V37.9685H37.5186C38.6348 37.9685 38.7666 37.9509 38.9248 37.7927C39.0479 37.6697 39.1006 37.5027 39.1006 37.2478C39.1006 36.9314 38.3008 31.2449 38.1777 30.7087C38.1426 30.533 38.1602 30.5242 38.5469 30.5945C39.0127 30.6824 39.7422 30.5857 40.1289 30.3748C40.4805 30.1902 40.9199 29.7156 41.0694 29.3376C41.1485 29.1531 41.21 28.7839 41.21 28.5027C41.21 27.7732 39.8389 18.0173 39.6279 17.2439C39.2061 15.7146 38.1777 14.2556 36.8242 13.2888L36.2617 12.8845L36.4727 12.7527C36.8594 12.5066 37.6768 11.6453 37.7383 11.4255C37.8262 11.074 37.6416 10.7312 37.2988 10.5818C36.9473 10.4412 36.7803 10.1423 36.0596 8.41089C35.2949 6.56519 34.6709 5.60718 33.9766 5.23804L33.6778 5.07104L33.9238 4.09546C34.2227 2.91772 34.2403 2.52222 34.0029 2.28491C33.836 2.11792 33.7129 2.10913 30.6631 2.10913C27.6133 2.10913 27.4903 2.11792 27.3233 2.28491ZM32.5088 3.5769C32.5 3.75269 32.1572 4.95679 32.0957 5.00952C31.8408 5.24683 30.3643 5.34351 29.626 5.16772L29.1865 5.07104L29.002 4.34155C28.8965 3.93726 28.8174 3.58569 28.8174 3.55933C28.8174 3.53296 29.6524 3.51538 30.6631 3.51538C31.6826 3.51538 32.5088 3.54175 32.5088 3.5769ZM29.1865 6.59155C30.0742 6.80249 30.9444 6.81128 31.8672 6.62671C32.2451 6.54761 32.6582 6.46851 32.7813 6.44214C33.3174 6.34546 33.9766 7.29468 34.8379 9.40405C35.0576 9.95776 35.3653 10.6257 35.5147 10.8894C35.7695 11.3552 35.7783 11.3728 35.6201 11.4958C35.3301 11.7156 34.7324 11.9529 34.3281 12.0056L33.9238 12.0671L34.0557 11.6365C34.2315 11.0916 34.1787 9.34253 33.9766 8.85913C33.8623 8.58667 33.7744 8.51636 33.458 8.43726C33.2471 8.38452 33.0098 8.31421 32.9131 8.28784C32.8252 8.26147 32.4385 8.03296 32.0606 7.76929C30.8125 6.92554 30.4961 6.93433 29.4326 7.87476C28.7119 8.50757 28.3252 8.74487 27.8242 8.83276C27.6309 8.87671 27.4199 8.99097 27.3145 9.13159L27.1299 9.36011L27.1914 9.14038C27.4463 8.27026 28.2813 6.41577 28.4219 6.41577C28.4395 6.41577 28.7822 6.49487 29.1865 6.59155ZM32.2803 9.67651L32.6846 9.85229V10.45C32.6846 11.6453 31.9727 12.4802 30.8916 12.5505C29.7666 12.6208 28.9668 11.8738 28.791 10.5466L28.7295 10.1511L29.1778 9.9314C29.4238 9.81714 29.8897 9.50073 30.2149 9.22827L30.7949 8.73608L31.3399 9.11401C31.6387 9.32495 32.0606 9.57983 32.2803 9.67651ZM27.543 11.8035C27.71 12.2166 27.7188 12.1902 27.4463 12.2517C27.2969 12.2957 27.0508 12.2341 26.6992 12.0759C26.418 11.9441 26.1807 11.8298 26.1807 11.821C26.1807 11.8123 26.2949 11.5486 26.4356 11.241C26.5762 10.9333 26.7783 10.3884 26.8926 10.0369L27.1035 9.38647L27.2529 10.4324C27.3408 11.0037 27.4727 11.6189 27.543 11.8035ZM14.5967 10.1599C14.7725 10.2742 15.0274 10.5378 15.1504 10.7576C15.4141 11.2146 15.4756 11.241 16.3106 11.3376C17.5235 11.4695 18.1475 11.988 18.2442 12.946C18.2705 13.2097 18.2617 13.447 18.2178 13.4646C18.0508 13.5701 17.1455 13.2537 16.6885 12.9285C16.4248 12.7439 16.1172 12.5681 16.0205 12.533C15.669 12.4275 15.3701 12.656 15.0889 13.2537C14.9307 13.5964 14.5967 14.0535 14.2715 14.405L13.7178 14.9851L13.4805 14.7654C13.085 14.3962 12.9707 14.0974 13.041 13.5701C13.0938 13.113 13.085 13.0955 12.7422 12.7175C12.1182 12.0496 11.9863 11.4958 12.2852 10.8542C12.7158 9.92261 13.7529 9.6062 14.5967 10.1599ZM33.3262 13.9919C33.0274 14.7478 32.4385 15.6091 31.8496 16.1628L31.3662 16.6199L31.1113 16.4441C30.6104 16.0837 29.8721 15.1873 29.5557 14.5457C29.3799 14.1853 29.2481 13.8689 29.2656 13.8425C29.292 13.825 29.5205 13.8689 29.7754 13.9392C30.083 14.0359 30.4785 14.071 30.9531 14.0447C31.5508 14.0271 31.7617 13.9744 32.2012 13.7458C32.544 13.5701 32.8692 13.4646 33.1416 13.4558L33.5547 13.447L33.3262 13.9919ZM27.877 14.4753C28.334 15.7849 29.1162 16.8396 30.3203 17.7537C31.4014 18.5623 31.5332 18.5359 32.9395 17.1912C33.6778 16.4792 34.3018 15.5828 34.6621 14.7126C34.8028 14.3787 34.9434 14.071 34.9785 14.0271C35.0576 13.9392 35.8135 14.3875 36.3936 14.8708C36.6221 15.0642 36.9824 15.4509 37.2022 15.741C37.9492 16.7341 38.2744 17.657 38.5117 19.4851L38.6348 20.3904H37.6504H36.6572L36.5078 19.3533C36.332 18.1052 36.2354 17.78 36.0244 17.6658C35.7783 17.5339 35.2949 17.5603 35.0752 17.7185C34.8203 17.8943 34.8203 18.281 35.0664 19.8894C35.1631 20.5574 35.2246 21.2078 35.1983 21.322C35.084 21.7703 34.4072 21.99 33.7481 21.7966C33.3613 21.6912 32.8867 21.8757 32.8164 22.1746C32.7022 22.6316 32.7988 22.9656 33.1153 23.1501C33.5283 23.3875 34.5567 23.449 35.1104 23.2556C35.3389 23.1765 35.5322 23.1238 35.541 23.1414C35.5498 23.1501 35.9805 26.0417 36.499 29.575C37.0264 33.0994 37.4658 36.1228 37.4922 36.281L37.5449 36.5623H31.375C26.6026 36.5623 25.2139 36.5359 25.2139 36.4568C25.2139 36.2986 26.1719 29.0037 26.2334 28.7224C26.2774 28.5115 26.3037 28.4939 26.4444 28.5642C26.5322 28.6169 26.9014 28.6521 27.2529 28.6521C27.7803 28.6521 27.9912 28.6082 28.3604 28.4236C29.4766 27.8699 29.9336 26.5339 29.3887 25.4265C29.1953 25.0486 28.958 24.8201 27.9561 24.0378C26.8135 23.1414 26.3037 22.658 27.0244 23.1501C27.5342 23.4929 28.1846 23.6072 28.9053 23.4841C29.6611 23.3523 29.916 23.238 30.0391 22.9656C30.1709 22.6843 30.1621 22.5437 30.0039 22.2361C29.8281 21.9021 29.5645 21.8406 28.8613 21.9812C28.3604 22.0779 28.2549 22.0779 27.9824 21.946C27.8154 21.8669 27.6133 21.7 27.5342 21.5681C27.3848 21.3396 27.3848 21.3132 27.7979 20.0652C28.1758 18.9314 28.211 18.7732 28.1143 18.5359C27.9824 18.2283 27.7891 18.1052 27.4111 18.1052C26.9365 18.1052 26.8311 18.2283 26.5322 19.116C26.3828 19.573 26.2246 19.9509 26.1983 19.9509C26.1279 19.9509 23.957 19.239 23.9043 19.1951C23.8428 19.1423 24.7217 16.6287 24.9854 16.1277C25.3369 15.4509 26.3389 14.449 27.0156 14.0798C27.3057 13.9304 27.5694 13.7986 27.5957 13.7986C27.6221 13.7986 27.7539 14.0974 27.877 14.4753ZM17.4971 14.906C17.875 14.9587 17.9102 14.9851 17.9541 15.2488C18.0596 15.8025 17.8487 16.5847 17.4883 16.9978C17.2334 17.2878 16.7149 17.49 16.2403 17.49C15.6338 17.49 15.1065 17.1824 14.7901 16.6462L14.5528 16.2419L15.0801 15.7761C15.3701 15.5212 15.7393 15.1082 15.8975 14.8708L16.1963 14.4402L16.6445 14.6423C16.8819 14.7566 17.2686 14.8796 17.4971 14.906ZM13.1289 16.5408C13.3311 17.4812 14.1748 18.4656 15.0625 18.7996C15.6602 19.0193 16.7324 19.0457 17.2598 18.8435C17.8047 18.6326 17.8574 18.6501 17.9278 18.9841C18.086 19.696 17.5938 20.5574 16.8467 20.865C16.3809 21.0671 15.9942 21.0408 15.4756 20.7771C14.9834 20.531 14.6494 20.0916 14.5352 19.5291C14.4209 18.9841 13.9024 18.738 13.4102 18.9929C13.1377 19.1423 13.085 19.239 13.085 19.6609C13.085 20.6189 13.8145 21.6648 14.8252 22.1658C15.3613 22.4294 15.4756 22.4558 16.249 22.4558C16.961 22.4558 17.1543 22.4207 17.5762 22.2273C17.8487 22.0955 18.2354 21.8406 18.4375 21.6648C18.6397 21.4802 18.8242 21.3572 18.8506 21.3835C18.9561 21.489 18.9912 23.7039 18.8945 24.2136C18.7627 24.9255 18.4639 25.488 18.1035 25.7253C17.7344 25.9714 16.8555 26.0154 16.6709 25.7869C16.3369 25.3826 16.2315 25.3123 15.9502 25.3123C15.5195 25.3123 15.3613 25.3914 15.2383 25.6902C14.9043 26.4812 15.8535 27.4216 16.9873 27.4216H17.3037V32.6951V37.9685H11.7227C8.65529 37.9685 6.14162 37.9333 6.14162 37.8982C6.14162 37.6082 6.75685 25.7517 6.8008 25.2419C6.98537 23.0095 8.17189 20.4167 9.83303 18.6062C10.624 17.7449 12.6016 16.2683 12.9707 16.2595C13.0235 16.2595 13.1026 16.3914 13.1289 16.5408ZM24.7305 21.0583C25.1172 21.1902 25.46 21.3132 25.4951 21.3484C25.5303 21.3835 25.4336 21.8494 25.2842 22.4031C25.0293 23.3083 25.0117 23.4138 25.1348 23.6248C25.2051 23.7566 25.8906 24.3542 26.6641 24.9607C27.9209 25.9451 28.0703 26.0945 28.0967 26.3582C28.1494 26.8591 27.5518 27.2986 27.0332 27.1492C26.6641 27.0437 23.4736 24.6267 23.3154 24.3367C23.2539 24.2048 23.1924 24.0291 23.1924 23.9587C23.1924 23.7302 23.9131 20.8298 23.9658 20.8298C24.001 20.8298 24.3438 20.9353 24.7305 21.0583ZM21.083 21.5769C21.2061 21.7263 21.6631 21.7527 21.9883 21.6296L22.208 21.5417L22.0762 22.0427C21.9971 22.3152 21.874 22.8689 21.7949 23.2644L21.6455 23.9851L21.0742 23.6335L20.4942 23.282L20.4326 22.2976C20.4063 21.7527 20.3535 21.2166 20.3184 21.0935C20.2656 20.8826 20.2656 20.8826 20.6172 21.155C20.8106 21.3132 21.0215 21.4978 21.083 21.5769ZM38.8369 21.823C38.8369 21.8406 39.0391 23.2732 39.2764 25.0134C39.5225 26.7449 39.707 28.3269 39.6983 28.5203C39.6719 28.8279 39.6279 28.8894 39.3467 29.03C38.9336 29.2322 38.459 29.1267 38.0986 28.7488C37.8701 28.5115 37.8438 28.3796 37.3779 25.3035C37.1231 23.5457 36.9033 22.0339 36.9033 21.946C36.9033 21.8142 37.0088 21.7966 37.8701 21.7966C38.4063 21.7966 38.8369 21.8142 38.8369 21.823Z" fill="#B83F00"/>
<path d="M9.04199 19.8629C8.875 20.0299 8.86621 20.153 8.86621 22.4997C8.86621 24.8463 8.875 24.9694 9.04199 25.1364C9.13867 25.2331 9.29688 25.3122 9.39355 25.3122C9.56055 25.3122 9.56934 25.3737 9.56934 26.8678V28.4235L10.4482 29.7594C10.9404 30.4889 11.459 31.2096 11.6172 31.359C12.4521 32.1676 13.876 32.2379 14.9131 31.5348C15.3877 31.2096 15.6338 30.735 15.6338 30.1461C15.6338 29.5836 15.6162 29.5573 14.6143 28.2038L13.7881 27.0963V26.1999C13.7881 25.3737 13.7969 25.3122 13.9639 25.3122C14.0605 25.3122 14.2188 25.2331 14.3154 25.1364C14.4736 24.9782 14.4912 24.8463 14.4912 23.9059C14.4912 22.6754 14.4033 22.4997 13.7881 22.4997C13.2607 22.4997 13.085 22.7194 13.085 23.3786V23.9059H11.6787H10.2725V21.9723C10.2725 20.153 10.2637 20.0299 10.0967 19.8629C9.98242 19.7487 9.80664 19.6872 9.56934 19.6872C9.33203 19.6872 9.15625 19.7487 9.04199 19.8629ZM12.3818 26.5251V27.7467L13.2607 28.9157C13.7441 29.5573 14.1396 30.1198 14.1396 30.1549C14.1396 30.4626 13.1641 30.612 12.7861 30.3659C12.6719 30.2868 12.2148 29.6803 11.7754 29.0211L10.9756 27.8083V26.5602V25.3122H11.6787H12.3818V26.5251Z" fill="#DF530A"/>
</svg>
