<svg width="46" height="45" viewBox="0 0 46 45" fill="none" xmlns="http://www.w3.org/2000/svg">
<g clip-path="url(#clip0_3857_30820)">
<path d="M1.56641 0.271729C0.959961 0.570557 0.652344 0.895752 0.353516 1.53735L0.142578 1.97681V9.58813V17.1995L0.371094 17.4368C0.705078 17.762 1.33789 17.762 1.66309 17.4368L1.90039 17.2083L1.91797 9.80786C1.94434 1.51099 1.90039 2.03833 2.57715 1.85376C2.80566 1.79224 6.28613 1.75708 13.0801 1.75708H23.249L23.2754 4.6311C23.3018 6.78442 23.3369 7.59302 23.4336 7.82153C23.7236 8.5686 24.2949 9.13989 25.0068 9.38599C25.209 9.4563 26.2109 9.49146 28.1533 9.49146H30.9922L30.9746 15.2659L30.9482 21.0315L27.5381 22.095C23.9082 23.2288 23.6973 23.3254 23.6973 23.8264V24.0813H14.8291H5.96973L5.73242 24.3098C5.40723 24.6438 5.40723 25.2766 5.73242 25.6106L5.96973 25.8391H14.8291H23.6973V27.4211V29.0032H14.8291H5.96973L5.73242 29.2317C5.40723 29.5657 5.40723 30.1985 5.73242 30.5325L5.96973 30.761H14.8291H23.6973V32.1584C23.6973 33.6614 23.8203 34.6018 24.1895 35.8938C24.4619 36.8606 25.0332 38.1614 25.5693 39.0227L25.9736 39.6819L14.4512 39.7083C6.66406 39.717 2.82324 39.6995 2.59473 39.6379C1.90039 39.4534 1.94434 39.9807 1.91797 31.675L1.90039 24.2747L1.66309 24.0461C1.33789 23.7209 0.705078 23.7209 0.371094 24.0461L0.142578 24.2834V31.9036V39.5237L0.415039 40.0598C0.713867 40.6663 1.03906 40.9739 1.68066 41.2727L2.12012 41.4836H14.8027H27.4941L28.0303 41.9758C29.4189 43.2327 31.5107 44.3489 33.3477 44.8235C34.2354 45.0432 34.6045 45.0432 35.4922 44.8235C39.8076 43.7161 43.4287 40.1829 44.6592 35.8762C45.125 34.2415 45.1426 33.9338 45.1426 28.5637V23.5803L44.9316 23.3694C44.7734 23.2024 43.5605 22.7981 39.7285 21.594C36.9775 20.7415 34.5869 20.0383 34.4199 20.0383C34.2529 20.0383 33.8574 20.1174 33.5586 20.2141C33.251 20.3108 32.9609 20.3899 32.917 20.3899C32.873 20.3899 32.8379 17.9026 32.8379 14.2991V8.21704L28.7246 4.10376L24.6201 -0.000732422H13.3613H2.10254L1.56641 0.271729ZM29.2607 7.71606C29.0234 7.73364 28.127 7.73364 27.2568 7.71606C25.5254 7.6897 25.3584 7.64575 25.1914 7.17114C25.1387 7.03052 25.1035 6.0813 25.1035 5.01782V3.11938L27.3887 5.40454L29.6738 7.6897L29.2607 7.71606ZM39.0342 23.3342L43.3408 24.679L43.332 28.968C43.332 33.6877 43.2969 34.0657 42.7783 35.6565C41.6357 39.1633 38.6475 42.0286 35.1406 42.9866C34.3584 43.2063 34.0244 43.1624 32.7061 42.6614C29.6035 41.4749 27.0986 38.8381 26.0615 35.6565C25.543 34.0657 25.5078 33.6877 25.5078 28.968L25.499 24.679L29.9375 23.2903C32.3809 22.5256 34.4551 21.9192 34.5518 21.9456C34.6484 21.9631 36.6699 22.5872 39.0342 23.3342Z" fill="#006405"/>
<path d="M34.2002 23.7112C34.1035 23.7288 32.583 24.1946 30.8164 24.7483C28.1973 25.5657 27.5732 25.7942 27.415 25.97L27.2129 26.1985V29.7405C27.2129 32.5442 27.2393 33.4407 27.3447 33.9856C27.9688 37.2639 30.2803 40.0061 33.3564 41.1311C34.2529 41.4563 34.5869 41.4563 35.4834 41.1311C38.542 40.0149 40.8711 37.2551 41.4863 34.012C41.6006 33.4319 41.627 32.5881 41.627 29.7405V26.1985L41.4336 25.97C41.2666 25.7854 40.6514 25.5657 38.0234 24.7483C34.543 23.6672 34.4639 23.6497 34.2002 23.7112ZM37.1621 26.427L39.8955 27.2795L39.8428 30.2327C39.79 33.3616 39.7461 33.7571 39.3066 34.9172C38.7881 36.3059 37.6719 37.7122 36.415 38.5735C35.8262 38.9778 34.71 39.4875 34.4199 39.4875C34.2881 39.4875 33.875 39.3469 33.5059 39.1711C31.6777 38.301 30.2891 36.8333 29.5508 34.9612C29.1025 33.8186 29.0498 33.3879 28.9971 30.2327L28.9443 27.2795L31.6162 26.4358C33.084 25.97 34.3145 25.592 34.3584 25.5833C34.3936 25.5745 35.6504 25.9612 37.1621 26.427Z" fill="#006405"/>
<path d="M36.8809 29.6709C36.8105 29.7061 36.0459 30.418 35.1934 31.2705L33.6377 32.8174L32.8115 32.0088C32.0293 31.2441 31.959 31.2002 31.6162 31.2002C31.0713 31.2002 30.7285 31.5605 30.7285 32.1318V32.5537L31.959 33.7842L33.1807 35.0234H33.6289H34.0684L36.0898 33.002L38.1113 30.9717V30.5674C38.1113 30.0225 37.8564 29.7061 37.3643 29.6621C37.1709 29.6357 36.9512 29.6445 36.8809 29.6709Z" fill="#04AA0D"/>
<path d="M14.1699 8.8418L13.9414 9.0791V10.5996V12.1289H12.4121H10.8916L10.6543 12.3574L10.4258 12.5947V15.1172V17.6396L10.6543 17.877L10.8916 18.1055H12.4121H13.9414V19.6348V21.1553L14.1699 21.3926L14.4072 21.6211H16.9297H19.4521L19.6719 21.4014C19.9531 21.1201 20.0059 20.8037 20.0059 19.3096V18.1055H21.4912C23.6006 18.1055 23.5215 18.2197 23.5215 15.1172C23.5215 12.9199 23.4863 12.6475 23.1875 12.3486C22.9766 12.1289 22.9502 12.1289 21.4912 12.1289H20.0059V10.916C20.0059 9.43066 19.9531 9.11426 19.6719 8.83301L19.4521 8.61328H16.9297H14.4072L14.1699 8.8418ZM18.1602 11.9004V13.4209L18.3887 13.6582L18.626 13.8867H20.1465H21.6758V15.1172V16.3477H20.1465H18.626L18.3887 16.5762L18.1602 16.8135V18.334V19.8633H16.9736H15.7871V18.6504C15.7871 17.165 15.7344 16.8486 15.4531 16.5674C15.2422 16.3477 15.2158 16.3477 13.7568 16.3477H12.2715V15.1172V13.8867H13.7568C15.2158 13.8867 15.2422 13.8867 15.4531 13.667C15.7344 13.3857 15.7871 13.0693 15.7871 11.5752V10.3711H16.9736H18.1602V11.9004Z" fill="#006405"/>
<path d="M0.371094 20.0918C0.186523 20.2764 0.142578 20.4082 0.142578 20.7422C0.142578 21.3223 0.441406 21.6211 1.02148 21.6211C1.60156 21.6211 1.90039 21.3223 1.90039 20.7422C1.90039 20.1621 1.60156 19.8633 1.02148 19.8633C0.6875 19.8633 0.555664 19.9072 0.371094 20.0918Z" fill="#006405"/>
<path d="M5.73218 34.1543C5.40698 34.4883 5.40698 35.1211 5.73218 35.4551L5.96948 35.6836H11.656H17.3425L17.5798 35.4551C17.905 35.1211 17.905 34.4883 17.5798 34.1543L17.3425 33.9258H11.656H5.96948L5.73218 34.1543Z" fill="#006405"/>
</g>
<defs>
<clipPath id="clip0_3857_30820">
<rect width="45" height="45" fill="white" transform="translate(0.142578)"/>
</clipPath>
</defs>
</svg>
