<svg width="41" height="47" viewBox="0 0 41 47" fill="none" xmlns="http://www.w3.org/2000/svg">
<path d="M4.98236 1.10036C2.79454 1.38621 1.0355 2.95836 0.474803 5.12418C0.221941 6.06967 0.221941 40.9647 0.474803 41.9102C0.958541 43.7682 2.44274 45.2964 4.23476 45.7911C4.93838 45.989 5.55405 46 15.0419 46H25.1014L25.893 45.7471C27.9709 45.0985 29.3781 43.3834 29.664 41.1736C29.7189 40.7449 29.7739 36.3912 29.7739 31.4989C29.7739 23.6161 29.7959 22.6267 29.9388 22.6817C30.8293 23.0225 33.6658 23.0335 34.8861 22.7036C35.2489 22.6047 36.0075 22.2969 36.5792 22.022C37.4258 21.6042 37.7776 21.3404 38.5142 20.6148C39.7895 19.3285 40.3282 18.1411 40.3282 16.536C40.3282 14.722 39.5256 13.1498 37.9535 11.8965C36.4253 10.6652 34.5673 10.0605 32.3575 10.0825C31.6319 10.0935 30.7634 10.1595 30.4226 10.2474L29.8069 10.4013L29.7409 7.97164C29.6969 5.88277 29.653 5.44301 29.4551 4.80536C28.8064 2.77146 27.0804 1.37522 24.8926 1.08937C23.9361 0.968437 5.90586 0.968437 4.98236 1.10036ZM25.926 2.80444C26.8385 3.23321 27.5201 3.91484 27.9489 4.82734L28.2897 5.54195L28.3227 8.23549L28.3557 10.929L27.773 11.2479C26.9484 11.6986 25.4862 13.2048 25.1124 13.9634C24.2989 15.6455 24.2989 17.4705 25.1014 19.0536L25.3763 19.5813L25.0355 20.8786C24.4638 23.0225 24.6287 23.1764 26.7835 22.5937C27.5861 22.3738 28.2677 22.1979 28.2897 22.1979C28.3227 22.1979 28.3337 26.5406 28.3227 31.8397L28.2897 41.4924L27.9379 42.2071C27.5861 42.9217 27.0804 43.6143 26.9814 43.5153C26.9484 43.4934 26.8275 42.9547 26.6956 42.328C25.981 38.8099 23.8921 36.0064 20.5719 34.0935C19.3955 33.4008 18.7029 32.5433 18.2192 31.1361L18.0213 30.5644L18.3951 30.3335C19.1757 29.8498 20.2861 28.5085 20.8358 27.3761C21.2975 26.4306 21.4184 26.2657 21.8252 26.0458C22.6828 25.5951 23.1665 24.5067 22.9466 23.5172C22.8257 22.9895 22.4849 22.3628 22.232 22.2199C22.1001 22.1429 22.1111 21.978 22.3199 21.0985C22.6718 19.5593 22.6718 17.3935 22.3199 16.2611C21.4734 13.5676 19.3735 11.9515 16.1743 11.5227C14.4592 11.2918 13.019 11.6766 12.0955 12.6221C11.7327 12.9849 11.6118 13.0509 11.0181 13.1059C8.53343 13.3587 7.01625 15.2167 7.01625 17.9762C7.01625 19.2845 7.13719 19.8012 7.74186 21.0765L8.23659 22.088L7.91776 22.5057C7.10421 23.5392 7.17017 24.7815 8.08267 25.683C8.33554 25.9359 8.69834 26.1888 8.88524 26.2327C9.18208 26.3097 9.28102 26.4306 9.5119 26.9803C9.91868 27.9368 10.6663 29.0142 11.4139 29.7068L12.0625 30.3115L11.8976 30.9052C11.4908 32.2685 10.6333 33.4228 9.58886 34.0165C7.01625 35.4677 5.40013 37.1388 4.24576 39.5355C3.70705 40.6569 3.16834 42.4709 3.16834 43.1525C3.16834 43.3614 3.12437 43.5263 3.0694 43.5263C2.86051 43.5263 2.17888 42.5918 1.93701 41.9982L1.68415 41.3825V23.5172V5.6519L1.93701 5.02523C2.38777 3.92583 3.46518 2.93637 4.63055 2.56257C5.00435 2.45263 7.04924 2.43064 15.1518 2.44164L25.2114 2.46363L25.926 2.80444ZM34.0396 11.5997C37.2938 12.2703 39.5036 14.9419 38.844 17.4045C38.5911 18.372 38.1733 19.0536 37.3928 19.7792C35.4908 21.5603 32.3795 22.11 29.7189 21.1315C28.6305 20.7357 28.3667 20.7137 27.4432 20.9776C26.9924 21.1095 26.5746 21.2085 26.4977 21.2085C26.4207 21.2085 26.4537 20.9556 26.5966 20.4389C26.7066 20.0211 26.8055 19.5813 26.8055 19.4824C26.8055 19.3724 26.6296 18.9327 26.4207 18.5149C25.926 17.5364 25.7721 16.7449 25.926 15.9313C26.3877 13.3917 29.1253 11.4677 32.3355 11.4348C32.8083 11.4238 33.5778 11.5007 34.0396 11.5997ZM16.9549 13.0729C19.0877 13.6116 20.5389 14.9638 21.0336 16.8658C21.1986 17.5035 21.2645 19.4824 21.1326 19.8232C21.0886 19.9441 20.9457 19.8342 20.6159 19.4274C19.7473 18.372 18.8238 18.0752 15.7785 17.8663C13.4588 17.7014 12.6452 17.5035 11.7437 16.8988C11.117 16.47 10.6883 16.459 10.3694 16.8548C10.0176 17.2946 9.37997 18.6249 9.1491 19.3944C9.03916 19.7572 8.91822 20.0981 8.88524 20.142C8.70933 20.3509 8.39051 18.9327 8.39051 17.9652C8.4015 17.1187 8.44548 16.8768 8.70933 16.3051C9.28102 15.0518 10.2045 14.4581 11.6008 14.4801L12.3923 14.4911L12.7551 14.0294C12.953 13.7765 13.2059 13.4906 13.3268 13.4027C14.0634 12.831 15.4927 12.6991 16.9549 13.0729ZM11.7547 18.5149C12.7441 18.9657 13.5797 19.1196 15.5366 19.2295C17.4826 19.3395 18.461 19.5264 19.0657 19.9002C19.5385 20.186 20.0222 20.9776 20.33 21.967C20.5499 22.6487 20.6598 22.8356 21.0007 23.0664C21.4184 23.3633 21.6383 23.7041 21.6383 24.0669C21.6383 24.3198 21.1216 24.9464 20.9237 24.9464C20.5609 24.9464 20.2091 25.2213 20.0882 25.5951C19.5714 27.2112 18.2631 28.8823 17.0428 29.476C16.3722 29.8058 16.2183 29.8388 15.2618 29.8388C14.3383 29.8388 14.1404 29.8058 13.5907 29.5309C12.3374 28.9153 11.2819 27.6839 10.6883 26.1338C10.3035 25.1113 10.2815 25.0893 9.74277 25.0014C9.1381 24.8915 8.7753 24.5177 8.7753 24.0119C8.7753 23.5832 9.02816 23.2753 9.62184 22.9455C9.94067 22.7806 9.97365 22.7146 10.0396 22.011C10.1386 20.9996 10.4684 19.6913 10.8202 18.8997C10.9851 18.5369 11.128 18.2401 11.139 18.2401C11.15 18.2401 11.4359 18.361 11.7547 18.5149ZM14.3823 31.224C14.9759 31.345 16.2293 31.301 16.614 31.1581C16.735 31.1031 16.8009 31.1361 16.8009 31.246C16.8009 31.334 16.9439 31.7517 17.1308 32.1915L17.4496 32.9831L16.8779 32.8951C16.1523 32.7852 13.8326 32.7852 13.1289 32.8841C12.6562 32.9611 12.6122 32.9501 12.6892 32.7742C12.7332 32.6752 12.8981 32.2245 13.052 31.7847C13.2938 31.0921 13.3708 30.9931 13.5577 31.0481C13.6786 31.0811 14.0524 31.1581 14.3823 31.224ZM17.1308 34.3573C17.5266 34.4453 18.0213 34.6322 18.2302 34.7751C18.7139 35.0939 19.1866 35.7646 19.3845 36.4022L19.5275 36.8969L19.0107 37.2707C18.3621 37.7545 18.0103 38.4251 18.0103 39.2057C18.0103 40.6459 19.0107 41.6574 20.429 41.6574C21.8472 41.6574 22.8477 40.6459 22.8477 39.2167C22.8477 38.2162 22.155 37.2268 21.2535 36.9299C20.9787 36.842 20.9017 36.732 20.8028 36.3253C20.7368 36.0504 20.7038 35.8305 20.7368 35.8305C20.7588 35.8305 21.0556 36.0504 21.4074 36.3143C22.1331 36.875 23.2325 38.0183 23.7272 38.7439C24.6177 40.0412 25.3433 42.0421 25.5412 43.7682L25.6072 44.3949L25.1894 44.5048C24.7166 44.6367 5.29019 44.6587 4.81745 44.5268C4.58657 44.4608 4.5426 44.3729 4.50961 43.9771C4.48763 43.7132 4.55359 43.0976 4.65254 42.6028C5.11429 40.3161 6.3786 38.1832 8.17063 36.6771C9.30301 35.7316 9.325 35.7206 9.1491 36.4022C9.06114 36.71 8.98419 36.9739 8.97319 36.9849C8.9512 36.9959 8.67635 37.1498 8.34653 37.3257C7.15918 37.9634 6.90631 38.623 6.90631 41.1296C6.90631 43.2955 6.90631 43.3065 8.2146 43.3065C9.21506 43.3065 9.43494 43.1745 9.43494 42.6028C9.43494 42.1411 9.25904 41.9872 8.75331 41.9872H8.33554V40.6569C8.33554 39.1947 8.43448 38.8759 8.99518 38.5351C9.59985 38.1832 10.2925 38.3701 10.7212 39.0078C10.9521 39.3486 10.9741 39.5135 10.9741 40.6789V41.9872H10.5563C10.0506 41.9872 9.8747 42.1411 9.8747 42.6028C9.8747 43.1745 10.0946 43.3065 11.084 43.3065C12.3264 43.3065 12.2934 43.3724 12.2934 40.9867C12.2934 38.7989 12.2274 38.4801 11.6008 37.8314C11.4029 37.6225 11.0621 37.3697 10.8422 37.2487C10.6113 37.1278 10.4244 36.9849 10.4244 36.9299C10.4244 36.875 10.5343 36.5451 10.6553 36.2043C10.9741 35.3468 11.6557 34.6871 12.4253 34.4563C13.7666 34.0715 15.6466 34.0275 17.1308 34.3573ZM20.9347 38.3482C21.4184 38.645 21.6053 39.2167 21.3635 39.6784C21.2645 39.8653 21.0227 40.0962 20.8138 40.1951C20.451 40.3711 20.407 40.3711 20.0442 40.1951C19.5055 39.9423 19.2416 39.3816 19.4395 38.9088C19.5824 38.557 20.1211 38.1393 20.429 38.1393C20.5169 38.1393 20.7478 38.2382 20.9347 38.3482Z" fill="#4D0C33" stroke="#4D0C33" stroke-width="0.5"/>
<path d="M12.501 5.26722C12.2261 5.43213 12.1492 5.90487 12.3471 6.21271L12.512 6.47656H14.9747C17.2064 6.47656 17.4373 6.45457 17.6022 6.27867C17.8331 6.02581 17.8441 5.71797 17.6132 5.39915C17.4483 5.15728 17.4043 5.15728 15.0626 5.15728C13.7543 5.15728 12.5999 5.21225 12.501 5.26722Z" fill="#4D0C33" stroke="#4D0C33" stroke-width="0.5"/>
<path d="M29.3213 15.7106C29.0465 15.8755 28.9695 16.3482 29.1674 16.6561C29.3103 16.8759 29.4313 16.9199 29.86 16.9199C30.1569 16.9199 30.4427 16.865 30.5197 16.788C30.7066 16.6011 30.6846 15.9744 30.4757 15.7765C30.2888 15.5786 29.5962 15.5457 29.3213 15.7106Z" fill="#A40966" stroke="#A40966" stroke-width="0.5"/>
<path d="M31.9727 15.8217C31.7089 16.0856 31.6979 16.3495 31.9288 16.6793C32.1596 17.0091 33.1161 17.0311 33.292 16.7123C33.4569 16.3824 33.4239 15.9867 33.2041 15.7888C32.9182 15.5249 32.2476 15.5469 31.9727 15.8217Z" fill="#A40966" stroke="#A40966" stroke-width="0.5"/>
<path d="M34.6885 15.7974C34.4576 16.0502 34.4466 16.523 34.6775 16.7429C34.9194 16.9957 35.7329 16.9737 35.9638 16.7209C36.2057 16.457 36.1947 16.0063 35.9528 15.7864C35.667 15.5335 34.9194 15.5445 34.6885 15.7974Z" fill="#A40966" stroke="#A40966" stroke-width="0.5"/>
</svg>
