<svg width="40" height="40" viewBox="0 0 40 40" fill="none" xmlns="http://www.w3.org/2000/svg">
<path d="M18.4375 0.117188C15.8672 0.632812 13.6406 2.5 12.6797 4.9375L12.4766 5.46875H7.85156H3.22656L3.01562 5.67188L2.8125 5.88281V7.8125V9.74219L3.01562 9.95312C3.20312 10.1328 3.28125 10.1562 3.79688 10.1562H4.375V11.8672V13.5781L4.61719 13.7812C4.94531 14.0547 5.36719 14.0547 5.69531 13.7812L5.9375 13.5781V11.8672V10.1562H9.20312H12.4688L12.7578 10.8516C13.5469 12.7109 15.0469 14.2188 16.875 15.0078C17.8828 15.4375 18.4297 15.5547 19.6328 15.6016C20.8438 15.6484 21.5781 15.5625 22.4922 15.2578C24.6797 14.5234 26.5078 12.7891 27.3125 10.6875L27.5156 10.1562H30.75H33.9844V21.1719V32.1875H31.2891H28.5938V25.2188V18.2578L28.3984 17.9219C28.2812 17.7188 28.0625 17.5 27.8594 17.3828L27.5234 17.1875H20H12.4766L12.1406 17.3828C11.9375 17.5 11.7188 17.7188 11.6016 17.9219L11.4062 18.2578V25.2188V32.1875H8.67188H5.9375V26.0312C5.9375 19.2266 5.96875 19.6328 5.42969 19.4531C5.22656 19.3828 5.08594 19.3828 4.88281 19.4531C4.34375 19.6328 4.375 19.2266 4.375 26.0312V32.1875H3.79688C3.28125 32.1875 3.20312 32.2109 3.01562 32.3906L2.8125 32.6016V33.9531V35.3125H2.625C2.52344 35.3125 2.35156 35.4062 2.23438 35.5156L2.03125 35.7266V37.6562V39.5859L2.23438 39.7969L2.44531 40H20H37.5547L37.7656 39.7969L37.9688 39.5859V37.6562V35.7266L37.7656 35.5156C37.6484 35.4062 37.4766 35.3125 37.375 35.3125H37.1875V33.9531V32.6016L36.9844 32.3906C36.7969 32.2109 36.7188 32.1875 36.2031 32.1875H35.625V21.1719V10.1562H36.2031C36.7188 10.1562 36.7969 10.1328 36.9844 9.95312L37.1875 9.74219V7.8125V5.88281L36.9844 5.67188L36.7734 5.46875H32.1484H27.5156L27.3125 4.9375C26.375 2.48438 24.125 0.617188 21.5 0.109375C20.7891 -0.0234375 19.125 -0.0234375 18.4375 0.117188ZM21.4766 1.80469C22.6797 2.07812 23.9531 2.875 24.7812 3.875C25.2656 4.45312 25.8906 5.72656 26.0469 6.46094C26.2109 7.1875 26.2031 8.44531 26.0469 9.16406C25.7734 10.3906 24.9219 11.7812 23.9609 12.5781C23.3516 13.0781 22.0938 13.6953 21.3281 13.8672C20.5781 14.0312 19.4219 14.0312 18.6719 13.8672C18.3516 13.7969 17.7344 13.5703 17.3047 13.3594C15.9609 12.7031 15.1094 11.8516 14.4531 10.5078C13.9922 9.55469 13.8281 8.85156 13.8281 7.8125C13.8281 6.77344 13.9922 6.07031 14.4531 5.11719C15.1094 3.77344 15.9609 2.92188 17.3047 2.26562C18.6953 1.58594 19.9375 1.45312 21.4766 1.80469ZM12.1875 7.8125V8.59375H8.28125H4.375V7.8125V7.03125H8.28125H12.1875V7.8125ZM35.625 7.8125V8.59375H31.7188H27.8125V7.8125V7.03125H31.7188H35.625V7.8125ZM19.2188 25.4688V32.1875H16.0938H12.9688V25.4688V18.75H16.0938H19.2188V25.4688ZM27.0312 25.4688V32.1875H23.9062H20.7812V25.4688V18.75H23.9062H27.0312V25.4688ZM35.625 34.5312V35.3125H20H4.375V34.5312V33.75H20H35.625V34.5312ZM36.4062 37.6562V38.4375H20H3.59375V37.6562V36.875H20H36.4062V37.6562Z" fill="#AE2828"/>
<path d="M18.3828 3.32812C18.1953 3.4375 17.9609 3.67188 17.8516 3.85938C17.6875 4.14062 17.6562 4.28906 17.6562 4.82812V5.46875H17.0156C16.4766 5.46875 16.3281 5.5 16.0469 5.66406C15.8438 5.78125 15.625 6 15.5078 6.20312C15.3203 6.52344 15.3125 6.58594 15.3125 7.8125C15.3125 9.03906 15.3203 9.10156 15.5078 9.42188C15.625 9.625 15.8438 9.84375 16.0469 9.96094C16.3281 10.125 16.4766 10.1562 17.0156 10.1562H17.6562V10.7969C17.6562 11.3359 17.6875 11.4844 17.8516 11.7656C17.9688 11.9688 18.1875 12.1875 18.3906 12.3047C18.7109 12.4922 18.7734 12.5 20 12.5C21.2266 12.5 21.2891 12.4922 21.6094 12.3047C21.8125 12.1875 22.0312 11.9688 22.1484 11.7656C22.3125 11.4844 22.3438 11.3359 22.3438 10.7969V10.1562H22.9844C23.5234 10.1562 23.6719 10.125 23.9531 9.96094C24.1562 9.84375 24.375 9.625 24.4922 9.42188C24.6797 9.10156 24.6875 9.03906 24.6875 7.8125C24.6875 6.58594 24.6797 6.52344 24.4922 6.20312C24.375 6 24.1562 5.78125 23.9531 5.66406C23.6719 5.5 23.5234 5.46875 22.9844 5.46875H22.3438V4.82812C22.3438 4.28906 22.3125 4.14062 22.1484 3.85938C22.0312 3.65625 21.8125 3.4375 21.6094 3.32031C21.2891 3.13281 21.2266 3.125 19.9922 3.125C18.7578 3.125 18.6953 3.13281 18.3828 3.32812ZM20.7812 5.65625C20.7812 6.59375 20.7891 6.625 20.9844 6.82812C21.1875 7.02344 21.2188 7.03125 22.1562 7.03125H23.125V7.8125V8.59375H22.1562C21.2188 8.59375 21.1875 8.60156 20.9844 8.79688C20.7891 9 20.7812 9.03125 20.7812 9.96875V10.9375H20H19.2188V9.96875C19.2188 9.03125 19.2109 9 19.0156 8.79688C18.8125 8.60156 18.7812 8.59375 17.8438 8.59375H16.875V7.8125V7.03125H17.8438C18.7812 7.03125 18.8125 7.02344 19.0156 6.82812C19.2109 6.625 19.2188 6.59375 19.2188 5.65625V4.6875H20H20.7812V5.65625Z" fill="#C04949"/>
<path d="M16.2969 24.1094C16.0938 24.3125 16.0938 24.3281 16.0938 25.4688C16.0938 26.6094 16.0938 26.625 16.2969 26.8281C16.4609 26.9922 16.5781 27.0312 16.875 27.0312C17.1719 27.0312 17.2891 26.9922 17.4531 26.8281C17.6562 26.625 17.6562 26.6094 17.6562 25.4688C17.6562 24.3281 17.6562 24.3125 17.4531 24.1094C17.2891 23.9453 17.1719 23.9062 16.875 23.9062C16.5781 23.9062 16.4609 23.9453 16.2969 24.1094Z" fill="#AE2828"/>
<path d="M22.5469 24.1094C22.3438 24.3125 22.3438 24.3281 22.3438 25.4688C22.3438 26.6094 22.3438 26.625 22.5469 26.8281C22.7109 26.9922 22.8281 27.0312 23.125 27.0312C23.4219 27.0312 23.5391 26.9922 23.7031 26.8281C23.9062 26.625 23.9062 26.6094 23.9062 25.4688C23.9062 24.3281 23.9062 24.3125 23.7031 24.1094C23.5391 23.9453 23.4219 23.9062 23.125 23.9062C22.8281 23.9062 22.7109 23.9453 22.5469 24.1094Z" fill="#AE2828"/>
<path d="M4.78906 15.9768C4.48438 16.1097 4.375 16.305 4.375 16.719C4.375 17.4143 5.15625 17.7503 5.69531 17.2972C5.89844 17.1253 5.9375 17.0393 5.9375 16.7425C5.9375 16.2972 5.82812 16.1097 5.50781 15.969C5.17969 15.8362 5.10938 15.8362 4.78906 15.9768Z" fill="#AE2828"/>
</svg>
