<svg width="135" height="31" viewBox="0 0 135 31" fill="none" xmlns="http://www.w3.org/2000/svg">
<path d="M21.2333 0.5H9.73935L0.486328 9.753V21.247L9.73935 30.5H21.2333L30.4863 21.247V9.753L21.2333 0.5ZM11.3297 21.3916L5.402 15.4638L11.3297 9.53614C13.5707 7.29518 17.2574 7.29518 19.4984 9.53614L25.4261 15.4638L19.4984 21.3916C17.2574 23.6325 13.643 23.6325 11.3297 21.3916Z" fill="#444CE7"/>
<path d="M43.6723 22.4816C45.5133 22.4816 47.0269 21.5407 47.4974 20.1293V22.3179H50.2178V16.7952C50.2178 15.5475 49.236 14.4838 47.9064 14.4838H44.0201V16.7952H46.7814C47.1292 16.7952 47.3542 17.0202 47.3542 17.3679C47.3542 18.6975 45.5951 19.9861 43.8155 19.9861C41.4428 19.9861 39.561 18.1248 39.561 15.1588C39.561 12.1929 41.4428 10.4748 43.8769 10.4748C45.7178 10.4748 46.986 11.477 47.211 13.0111H50.2587C50.0746 9.94293 47.4973 7.83612 43.8974 7.83612C40.1133 7.83612 36.636 10.2702 36.636 15.1588C36.636 20.0475 40.011 22.4816 43.6723 22.4816Z" fill="#374151"/>
<path d="M51.3856 22.3179H54.2288V7.5293H51.3856V22.3179Z" fill="#374151"/>
<path d="M60.3618 22.4816C63.5323 22.4816 65.8027 20.2316 65.8027 17.1634C65.8027 14.0952 63.5323 11.8452 60.3618 11.8452C57.1914 11.8452 54.9209 14.0952 54.9209 17.1634C54.9209 20.2316 57.1914 22.4816 60.3618 22.4816ZM60.3618 20.027C58.8277 20.027 57.7845 18.8611 57.7845 17.1634C57.7845 15.4452 58.8277 14.2793 60.3618 14.2793C61.8959 14.2793 62.9391 15.4452 62.9391 17.1634C62.9391 18.8611 61.8959 20.027 60.3618 20.027Z" fill="#374151"/>
<path d="M72.1647 22.4816C75.2125 22.4816 77.0329 20.3748 77.0329 17.1634C77.0329 13.952 75.2125 11.8452 72.2056 11.8452C70.917 11.8452 69.9147 12.3361 69.342 13.0929V7.5293H66.4988V22.3179H69.342V21.1929C69.9147 21.9907 70.9784 22.4816 72.1647 22.4816ZM71.7147 20.027C70.1806 20.027 69.1784 18.8816 69.1784 17.1634C69.1784 15.4248 70.1806 14.2793 71.7147 14.2793C73.2079 14.2793 74.2306 15.4248 74.2306 17.1634C74.2306 18.8816 73.2079 20.027 71.7147 20.027Z" fill="#374151"/>
<path d="M81.7923 11.8452C78.9695 11.8452 77.2923 13.502 77.1695 15.5679H79.7059C79.7468 14.7088 80.3809 13.9316 81.6286 13.9316C82.7945 13.9316 83.4695 14.5248 83.4695 15.3838C83.4695 15.8134 83.2036 16.1407 82.6923 16.1407H80.9536C78.7036 16.1407 77.19 17.3679 77.19 19.3929C77.19 21.152 78.5605 22.4816 80.565 22.4816C81.9764 22.4816 83.1218 21.8475 83.4695 20.8861V22.3179H86.2923V15.6907C86.2923 13.3588 84.39 11.8452 81.7923 11.8452ZM81.2809 20.4157C80.4832 20.4157 79.9105 19.9452 79.9105 19.2702C79.9105 18.4725 80.5241 17.9407 81.3832 17.9407H83.4695V18.0838C83.4695 19.3929 82.6718 20.4157 81.2809 20.4157Z" fill="#374151"/>
<path d="M87.3848 22.3179H90.228V7.5293H87.3848V22.3179Z" fill="#374151"/>
<path d="M91.7383 22.3179H97.5883C100.616 22.3179 102.702 20.7634 102.702 18.0429C102.702 16.1611 101.597 15.0157 100.288 14.5043C101.127 14.0543 101.966 13.0316 101.966 11.6816C101.966 9.28839 100.022 7.99975 97.4247 7.99975H91.7383V22.3179ZM94.7656 13.4611V10.4338H97.1383C98.5088 10.4338 99.1224 10.9861 99.1224 11.9475C99.1224 12.9088 98.5088 13.4611 97.1997 13.4611H94.7656ZM94.7656 19.6588V16.0588H97.3224C99.0201 16.0588 99.7769 16.7134 99.7769 17.8793C99.7769 19.0452 99.0201 19.6588 97.3224 19.6588H94.7656Z" fill="#374151"/>
<path d="M107.648 11.8452C104.825 11.8452 103.148 13.502 103.025 15.5679H105.562C105.603 14.7088 106.237 13.9316 107.484 13.9316C108.65 13.9316 109.325 14.5248 109.325 15.3838C109.325 15.8134 109.059 16.1407 108.548 16.1407H106.809C104.559 16.1407 103.046 17.3679 103.046 19.3929C103.046 21.152 104.416 22.4816 106.421 22.4816C107.832 22.4816 108.978 21.8475 109.325 20.8861V22.3179H112.148V15.6907C112.148 13.3588 110.246 11.8452 107.648 11.8452ZM107.137 20.4157C106.339 20.4157 105.766 19.9452 105.766 19.2702C105.766 18.4725 106.38 17.9407 107.239 17.9407H109.325V18.0838C109.325 19.3929 108.528 20.4157 107.137 20.4157Z" fill="#374151"/>
<path d="M113.077 22.3179H115.941V16.6725C115.941 15.3429 116.82 14.3816 118.068 14.3816C119.254 14.3816 120.052 15.2816 120.052 16.5293V22.3179H122.916V15.8952C122.916 13.5225 121.402 11.8452 119.07 11.8452C117.659 11.8452 116.513 12.4384 115.941 13.4407V12.0088H113.077V22.3179Z" fill="#374151"/>
<path d="M131.077 22.3179H134.514L130.075 16.0588L134.186 12.0088H130.586L127.007 15.527V7.5293H124.143V22.3179H127.007V19.0861L128.152 17.9611L131.077 22.3179Z" fill="#374151"/>
</svg>
