<svg width="115" height="31" viewBox="0 0 115 31" fill="none" xmlns="http://www.w3.org/2000/svg">
<path fill-rule="evenodd" clip-rule="evenodd" d="M14.0316 1.48769C13.6873 1.41687 13.3321 1.41687 12.9878 1.48769C12.5898 1.56955 12.234 1.76882 11.9511 1.92724L11.874 1.97031L2.28804 7.29587C2.26154 7.31059 2.23423 7.32564 2.20624 7.34105C1.90684 7.50596 1.53037 7.71332 1.24127 8.02704C0.991317 8.29827 0.802162 8.61974 0.68645 8.96996C0.552612 9.37503 0.554178 9.80482 0.555423 10.1466C0.55554 10.1786 0.555653 10.2098 0.555653 10.2401V20.755C0.555653 20.7854 0.55554 20.8165 0.555423 20.8485C0.554178 21.1903 0.552612 21.6201 0.68645 22.0252C0.802163 22.3754 0.991319 22.6969 1.24127 22.9681C1.53037 23.2818 1.90684 23.4892 2.20625 23.6541C2.23423 23.6695 2.26154 23.6845 2.28804 23.6992L11.874 29.0248L11.9512 29.0679C12.234 29.2263 12.5898 29.4256 12.9878 29.5074C13.3321 29.5783 13.6873 29.5783 14.0316 29.5074C14.4297 29.4256 14.7855 29.2263 15.0683 29.0679L15.1454 29.0248L24.7314 23.6992C24.7431 23.6927 24.755 23.6862 24.767 23.6795C24.7822 23.6712 24.7976 23.6627 24.8132 23.6541C25.1126 23.4892 25.4891 23.2818 25.7782 22.9681C26.0281 22.6969 26.2173 22.3754 26.333 22.0252C26.4668 21.6201 26.4653 21.1903 26.464 20.8485C26.4639 20.8165 26.4638 20.7854 26.4638 20.755V10.2401C26.4638 10.2098 26.4639 10.1786 26.464 10.1466C26.4653 9.80482 26.4668 9.37503 26.333 8.96995C26.2173 8.61974 26.0281 8.29827 25.7782 8.02703C25.4891 7.71331 25.1126 7.50595 24.8132 7.34104L24.8121 7.34046C24.7845 7.32525 24.7576 7.3104 24.7314 7.29587L15.1454 1.97031L15.0683 1.92724C14.7855 1.76882 14.4297 1.56955 14.0316 1.48769ZM13.1323 4.23509C13.3286 4.12603 13.4288 4.07092 13.5035 4.03487L13.5097 4.0319L13.5159 4.03486C13.5907 4.07092 13.6909 4.12602 13.8872 4.23509L22.5009 9.02049L13.5097 14.0156L4.51848 9.02052L13.1323 4.23509ZM3.14647 11.2221L12.2143 16.2597L12.2143 26.2501L3.54625 21.4345C3.33904 21.3194 3.23325 21.26 3.15903 21.2127L3.15277 21.2087L3.1523 21.2012C3.14701 21.1134 3.14647 20.9921 3.14647 20.755V11.2221Z" fill="#374151"/>
<path d="M38.4758 17.9114H42.5995V20.3414H35.3279V7.4182H38.4758V17.9114Z" fill="#374151"/>
<path d="M45.5001 9.00138C44.9478 9.00138 44.4937 8.84184 44.1378 8.52275C43.7941 8.19139 43.6223 7.78639 43.6223 7.30775C43.6223 6.81684 43.7941 6.41184 44.1378 6.09275C44.4937 5.76139 44.9478 5.5957 45.5001 5.5957C46.0401 5.5957 46.4819 5.76139 46.8255 6.09275C47.1814 6.41184 47.3594 6.81684 47.3594 7.30775C47.3594 7.78639 47.1814 8.19139 46.8255 8.52275C46.4819 8.84184 46.0401 9.00138 45.5001 9.00138ZM47.0648 10.0691V20.3414H43.9169V10.0691H47.0648Z" fill="#374151"/>
<path d="M53.0648 9.92184C53.7888 9.92184 54.4209 10.0691 54.9609 10.3637C55.5132 10.6582 55.9366 11.0448 56.2311 11.5234V10.0691H59.3791V20.323C59.3791 21.268 59.1888 22.1209 58.8084 22.8818C58.4402 23.655 57.8695 24.2687 57.0963 24.7227C56.3354 25.1768 55.3843 25.4039 54.2429 25.4039C52.7211 25.4039 51.4877 25.0418 50.5427 24.3177C49.5977 23.6059 49.0577 22.6364 48.9227 21.4091H52.0338C52.132 21.8018 52.3652 22.1087 52.7334 22.3296C53.1016 22.5627 53.5557 22.6793 54.0957 22.6793C54.7461 22.6793 55.2616 22.4891 55.642 22.1087C56.0348 21.7405 56.2311 21.1452 56.2311 20.323V18.8687C55.9243 19.3473 55.5009 19.74 54.9609 20.0468C54.4209 20.3414 53.7888 20.4887 53.0648 20.4887C52.2179 20.4887 51.4509 20.2739 50.7636 19.8443C50.0763 19.4025 49.5302 18.7828 49.1252 17.985C48.7325 17.175 48.5361 16.2423 48.5361 15.1868C48.5361 14.1314 48.7325 13.2048 49.1252 12.4071C49.5302 11.6093 50.0763 10.9957 50.7636 10.5662C51.4509 10.1366 52.2179 9.92184 53.0648 9.92184ZM56.2311 15.2052C56.2311 14.4198 56.0102 13.8 55.5684 13.3459C55.1388 12.8918 54.6111 12.6648 53.9852 12.6648C53.3593 12.6648 52.8254 12.8918 52.3836 13.3459C51.9541 13.7878 51.7393 14.4014 51.7393 15.1868C51.7393 15.9723 51.9541 16.5982 52.3836 17.0646C52.8254 17.5187 53.3593 17.7457 53.9852 17.7457C54.6111 17.7457 55.1388 17.5187 55.5684 17.0646C56.0102 16.6105 56.2311 15.9907 56.2311 15.2052Z" fill="#374151"/>
<path d="M67.7867 9.95866C68.9649 9.95866 69.9099 10.3514 70.6217 11.1368C71.3335 11.91 71.6894 12.9777 71.6894 14.34V20.3414H68.5599V14.7634C68.5599 14.0762 68.3819 13.5423 68.026 13.1618C67.6701 12.7814 67.1915 12.5912 66.5901 12.5912C65.9887 12.5912 65.5101 12.7814 65.1542 13.1618C64.7983 13.5423 64.6203 14.0762 64.6203 14.7634V20.3414H61.4724V6.71866H64.6203V11.4498C64.9394 10.9957 65.3751 10.6337 65.9274 10.3637C66.4797 10.0937 67.0994 9.95866 67.7867 9.95866Z" fill="#374151"/>
<path d="M79.4181 17.6721V20.3414H77.8165C76.6751 20.3414 75.7854 20.0652 75.1472 19.513C74.509 18.9484 74.1899 18.0341 74.1899 16.77V12.6832H72.9381V10.0691H74.1899V7.56548H77.3379V10.0691H79.3997V12.6832H77.3379V16.8068C77.3379 17.1137 77.4115 17.3346 77.5588 17.4696C77.706 17.6046 77.9515 17.6721 78.2951 17.6721H79.4181Z" fill="#374151"/>
<path d="M84.1354 11.5234C84.43 11.0448 84.8534 10.6582 85.4056 10.3637C85.9579 10.0691 86.59 9.92184 87.3018 9.92184C88.1486 9.92184 88.9156 10.1366 89.6029 10.5662C90.2902 10.9957 90.8302 11.6093 91.2229 12.4071C91.6279 13.2048 91.8304 14.1314 91.8304 15.1868C91.8304 16.2423 91.6279 17.175 91.2229 17.985C90.8302 18.7828 90.2902 19.4025 89.6029 19.8443C88.9156 20.2739 88.1486 20.4887 87.3018 20.4887C86.5777 20.4887 85.9456 20.3475 85.4056 20.0652C84.8656 19.7707 84.4422 19.3841 84.1354 18.9055V20.3414H80.9875V6.71866H84.1354V11.5234ZM88.6272 15.1868C88.6272 14.4014 88.4063 13.7878 87.9645 13.3459C87.535 12.8918 87.0011 12.6648 86.3629 12.6648C85.737 12.6648 85.2031 12.8918 84.7613 13.3459C84.3318 13.8 84.117 14.4198 84.117 15.2052C84.117 15.9907 84.3318 16.6105 84.7613 17.0646C85.2031 17.5187 85.737 17.7457 86.3629 17.7457C86.9888 17.7457 87.5227 17.5187 87.9645 17.0646C88.4063 16.5982 88.6272 15.9723 88.6272 15.1868Z" fill="#374151"/>
<path d="M97.9737 20.4887C96.9674 20.4887 96.0592 20.2739 95.2492 19.8443C94.4515 19.4148 93.8194 18.8012 93.353 18.0034C92.899 17.2057 92.6719 16.273 92.6719 15.2052C92.6719 14.1498 92.9051 13.2232 93.3715 12.4255C93.8378 11.6155 94.476 10.9957 95.286 10.5662C96.096 10.1366 97.0042 9.92184 98.0105 9.92184C99.0169 9.92184 99.9251 10.1366 100.735 10.5662C101.545 10.9957 102.183 11.6155 102.65 12.4255C103.116 13.2232 103.349 14.1498 103.349 15.2052C103.349 16.2607 103.11 17.1934 102.631 18.0034C102.165 18.8012 101.521 19.4148 100.698 19.8443C99.8883 20.2739 98.9801 20.4887 97.9737 20.4887ZM97.9737 17.7641C98.5751 17.7641 99.0844 17.5432 99.5017 17.1014C99.9312 16.6596 100.146 16.0275 100.146 15.2052C100.146 14.383 99.9374 13.7509 99.5201 13.3091C99.1151 12.8673 98.6119 12.6464 98.0105 12.6464C97.3969 12.6464 96.8876 12.8673 96.4826 13.3091C96.0776 13.7387 95.8751 14.3707 95.8751 15.2052C95.8751 16.0275 96.0715 16.6596 96.4642 17.1014C96.8692 17.5432 97.3724 17.7641 97.9737 17.7641Z" fill="#374151"/>
<path d="M110.91 20.3414L108.94 17.488L107.284 20.3414H103.878L107.265 15.0948L103.786 10.0691H107.32L109.29 12.9041L110.947 10.0691H114.353L110.91 15.2421L114.445 20.3414H110.91Z" fill="#374151"/>
</svg>
