<svg width="19" height="18" viewBox="0 0 19 18" fill="none" xmlns="http://www.w3.org/2000/svg">
<path d="M5.56449 8.19995L8.81609 1C9.46287 1 10.0832 1.25285 10.5405 1.70294C10.9979 2.15302 11.2548 2.76347 11.2548 3.39998V6.59996H15.8558C16.0915 6.59734 16.3249 6.64517 16.5399 6.74014C16.7549 6.83511 16.9464 6.97495 17.101 7.14997C17.2557 7.325 17.3698 7.53102 17.4355 7.75376C17.5012 7.9765 17.517 8.21064 17.4816 8.43995L16.3598 15.6399C16.301 16.0214 16.1041 16.3692 15.8053 16.6191C15.5066 16.869 15.1261 17.0043 14.734 16.9999H5.56449M5.56449 8.19995V16.9999M5.56449 8.19995H3.1258C2.69461 8.19995 2.28108 8.36852 1.97618 8.66858C1.67129 8.96864 1.5 9.3756 1.5 9.79994V15.3999C1.5 15.8243 1.67129 16.2312 1.97618 16.5313C2.28108 16.8313 2.69461 16.9999 3.1258 16.9999H5.56449" stroke="#004FFF" stroke-width="1.5" stroke-linecap="round" stroke-linejoin="round"/>
</svg>
