<svg width="32" height="32" viewBox="0 0 32 32" fill="none" xmlns="http://www.w3.org/2000/svg">
<path d="M26.7374 4.1566C25.9124 4.36285 25.2562 5.20035 25.0187 6.35035C24.8124 7.37535 25.1874 8.41285 25.9062 8.80035C26.0187 8.86285 26.2437 8.90035 26.4687 8.90035C27.3187 8.9066 28.0562 8.23785 28.4499 7.0941C28.6312 6.5691 28.6312 5.6691 28.4499 5.18785C28.1312 4.36285 27.4749 3.9691 26.7374 4.1566Z" fill="white"/>
<path d="M20.7437 4.24899C20.2749 4.49899 19.9687 5.01774 19.8624 5.74899C19.6062 7.50524 21.0437 9.28649 22.3624 8.84899C23.5249 8.46149 23.8312 6.51774 22.9499 5.14899C22.6687 4.71774 22.3312 4.40524 21.9749 4.24274C21.6312 4.08649 21.0437 4.09274 20.7437 4.24899Z" fill="white"/>
<path d="M17.2499 8.1943C16.6749 8.42555 16.3499 9.18805 16.4936 9.97555C16.8061 11.6756 18.5874 12.7756 19.5249 11.8381C20.2124 11.1506 19.9874 9.67555 19.0624 8.7568C18.5374 8.23805 17.7499 7.9943 17.2499 8.1943Z" fill="white"/>
<path d="M30.1749 8.21847C29.0999 8.61222 28.2874 10.0872 28.5562 11.1685C28.8624 12.3935 30.1999 12.5372 31.1937 11.4497C31.7687 10.8247 32.0374 10.0372 31.9374 9.30597C31.8562 8.74972 31.5749 8.34347 31.1687 8.19347C30.9312 8.09972 30.4562 8.11222 30.1749 8.21847Z" fill="white"/>
<path d="M23.825 10.005C22.5375 10.2175 20.8375 11.5488 19.9688 13.03C19.3375 14.0988 19.0938 14.9863 19.1375 16.1175C19.1875 17.555 19.5813 17.855 20.9375 17.4738C21.2313 17.3925 21.825 17.23 22.2625 17.105C23.7625 16.68 24.675 16.68 26.175 17.105C26.6125 17.23 27.2063 17.3925 27.5 17.4738C27.7938 17.555 28.1813 17.6238 28.3688 17.6238C28.6688 17.6238 28.725 17.605 28.9375 17.3863C29.25 17.08 29.3375 16.655 29.2938 15.7175C29.2563 14.8863 29.1375 14.405 28.7813 13.6425C28.4188 12.8675 27.9875 12.255 27.3563 11.63C26.125 10.4113 24.875 9.83629 23.825 10.005Z" fill="white"/>
<path d="M4.45038 14.45C4.17538 14.5437 3.76288 14.95 3.61913 15.2812C3.55663 15.425 3.46913 15.7562 3.43163 16.0062C3.20038 17.4937 4.30038 19.1875 5.49413 19.1875C6.33163 19.1875 6.90663 18.5188 7.03163 17.4062C7.15038 16.3375 6.45038 14.9437 5.59413 14.5312C5.30038 14.3937 4.74413 14.35 4.45038 14.45Z" fill="white"/>
<path d="M10.1567 14.45C9.60669 14.65 9.00669 15.3062 8.75044 15.9875C8.57544 16.4437 8.49419 17.1812 8.56919 17.625C8.59419 17.8125 8.71294 18.15 8.82544 18.375C9.00044 18.7125 9.08794 18.8125 9.37544 18.9813C9.64419 19.1438 9.78169 19.1875 10.0504 19.1875C11.4754 19.1875 12.6067 17.0187 12.0067 15.4312C11.6817 14.5875 10.9129 14.1813 10.1567 14.45Z" fill="white"/>
<path d="M0.918727 18.4369C0.462477 18.5807 0.124977 19.0369 0.0374766 19.6244C-0.0937734 20.5494 0.612477 21.8119 1.51873 22.2744C1.83123 22.4307 1.92498 22.4494 2.29998 22.4244C2.80623 22.3994 3.04373 22.2557 3.28748 21.8369C3.84998 20.8744 3.16873 19.1119 2.01873 18.5807C1.65623 18.4119 1.18123 18.3494 0.918727 18.4369Z" fill="white"/>
<path d="M13.8456 18.4625C13.4331 18.5938 13.2331 18.7188 12.8956 19.075C11.6269 20.425 11.8894 22.4375 13.3331 22.4375C14.1456 22.4375 14.9519 21.7812 15.3644 20.7812C15.5644 20.3062 15.5831 19.5438 15.4144 19.1562C15.1331 18.5125 14.5331 18.2438 13.8456 18.4625Z" fill="white"/>
<path d="M6.99963 20.3684C5.58713 20.8246 4.05588 22.2121 3.29963 23.7184C2.84963 24.6121 2.65588 25.4809 2.69963 26.4496C2.72463 26.9559 2.76213 27.1684 2.86838 27.3871C3.15588 27.9809 3.55588 28.0309 4.94338 27.6246C6.70588 27.1121 6.76213 27.0996 7.78088 27.0996C8.78713 27.0996 9.03088 27.1434 10.8434 27.6871C11.5684 27.9059 12.1621 27.9371 12.4121 27.7684C12.4996 27.7121 12.6309 27.5559 12.7059 27.4121C12.8246 27.1809 12.8434 27.0559 12.8434 26.2496C12.8434 25.1684 12.7559 24.7684 12.3184 23.8434C11.5496 22.2309 9.97463 20.7871 8.50588 20.3496C8.06213 20.2184 7.43088 20.2246 6.99963 20.3684Z" fill="white"/>
</svg>
