<svg width="174" height="50" viewBox="0 0 174 50" fill="none" xmlns="http://www.w3.org/2000/svg">
<path d="M172.116 44.2337C172.116 46.8982 169.912 49.0566 167.187 49.0566H5.89694C3.17297 49.0566 0.961914 46.8982 0.961914 44.2337V5.77256C0.961914 3.10926 3.17297 0.943359 5.89694 0.943359H167.186C169.912 0.943359 172.114 3.10926 172.114 5.77256L172.116 44.2337Z" fill="white" fill-opacity="0.24"/>
<path d="M166.667 1.00156C169.635 1.00156 172.05 3.35625 172.05 6.25V43.75C172.05 46.6438 169.635 48.9984 166.667 48.9984H6.41026C3.44231 48.9984 1.02724 46.6438 1.02724 43.75V6.25C1.02724 3.35625 3.44231 1.00156 6.41026 1.00156H166.667ZM166.667 3.8147e-06H6.41026C2.88622 3.8147e-06 0 2.81407 0 6.25V43.75C0 47.1859 2.88622 50 6.41026 50H166.667C170.191 50 173.077 47.1859 173.077 43.75V6.25C173.077 2.81407 170.191 3.8147e-06 166.667 3.8147e-06Z" fill="white"/>
<path d="M38.6252 24.7302C38.588 20.7015 42.0085 18.7415 42.1649 18.6502C40.2277 15.8965 37.2252 15.5202 36.17 15.4902C33.6483 15.2315 31.2021 16.9615 29.9175 16.9615C28.6072 16.9615 26.629 15.5152 24.497 15.5577C21.7534 15.599 19.1867 17.1477 17.779 19.5527C14.8739 24.4565 17.0406 31.6627 19.8239 35.6265C21.2162 37.5677 22.8431 39.7352 24.9726 39.659C27.0559 39.5752 27.8342 38.364 30.3483 38.364C32.8393 38.364 33.57 39.659 35.7418 39.6102C37.9777 39.5752 39.3854 37.6602 40.729 35.7015C42.338 33.4765 42.9842 31.2852 43.0098 31.1727C42.9572 31.1552 38.6675 29.559 38.6252 24.7302Z" fill="white"/>
<path d="M34.5226 12.8827C35.6431 11.5165 36.4098 9.65773 36.197 7.77148C34.5752 7.84148 32.547 8.86523 31.379 10.2015C30.3457 11.379 29.4226 13.309 29.6611 15.124C31.4829 15.2565 33.3534 14.2277 34.5226 12.8827Z" fill="white"/>
<path d="M62.8849 12.5123C62.8849 13.9836 62.4323 15.0911 61.5285 15.8348C60.6913 16.5211 59.5015 16.8648 57.9605 16.8648C57.1964 16.8648 56.5426 16.8323 55.9951 16.7673V8.72859C56.7092 8.61609 57.4785 8.55859 58.3092 8.55859C59.7772 8.55859 60.8836 8.86984 61.6297 9.49234C62.4656 10.1961 62.8849 11.2023 62.8849 12.5123ZM61.4682 12.5486C61.4682 11.5948 61.2092 10.8636 60.6913 10.3536C60.1733 9.84484 59.4169 9.58984 58.4208 9.58984C57.9977 9.58984 57.6374 9.61734 57.3387 9.67484V15.7861C57.5041 15.8111 57.8067 15.8223 58.2464 15.8223C59.2746 15.8223 60.0682 15.5436 60.6272 14.9861C61.1861 14.4286 61.4682 13.6161 61.4682 12.5486Z" fill="white"/>
<path d="M70.3968 13.7968C70.3968 14.703 70.1314 15.4455 69.6006 16.028C69.0442 16.6268 68.307 16.9255 67.3865 16.9255C66.4993 16.9255 65.7929 16.6393 65.266 16.0643C64.7404 15.4905 64.4775 14.7668 64.4775 13.8943C64.4775 12.9818 64.748 12.233 65.2916 11.6518C65.8352 11.0705 66.566 10.7793 67.4865 10.7793C68.3737 10.7793 69.0865 11.0655 69.6263 11.6393C70.1391 12.1968 70.3968 12.9168 70.3968 13.7968ZM69.0032 13.8393C69.0032 13.2955 68.8827 12.8293 68.6429 12.4405C68.3609 11.9705 67.9596 11.7355 67.4378 11.7355C66.8981 11.7355 66.4878 11.9705 66.2057 12.4405C65.9647 12.8293 65.8455 13.303 65.8455 13.863C65.8455 14.4068 65.966 14.873 66.2057 15.2618C66.4968 15.7318 66.9019 15.9668 67.425 15.9668C67.9378 15.9668 68.3404 15.728 68.6301 15.2493C68.8788 14.853 69.0032 14.383 69.0032 13.8393Z" fill="white"/>
<path d="M80.4683 10.8984L78.5773 16.7909H77.3465L76.5632 14.2322C76.3645 13.5934 76.2029 12.9584 76.0773 12.3284H76.0529C75.9363 12.9759 75.7747 13.6097 75.567 14.2322L74.735 16.7909H73.4901L71.7119 10.8984H73.0927L73.776 13.6997C73.9414 14.3622 74.0773 14.9934 74.1863 15.5909H74.2106C74.3106 15.0984 74.476 14.4709 74.7093 13.7122L75.567 10.8997H76.6619L77.4837 13.6522C77.6824 14.3234 77.844 14.9697 77.9683 15.5922H78.0055C78.0965 14.9859 78.2337 14.3397 78.4158 13.6522L79.1491 10.8997H80.4683V10.8984Z" fill="white"/>
<path d="M87.4332 16.7916H86.0896V13.4166C86.0896 12.3766 85.6844 11.8566 84.8716 11.8566C84.4729 11.8566 84.1511 11.9991 83.9011 12.2854C83.6537 12.5716 83.528 12.9091 83.528 13.2954V16.7904H82.1845V12.5829C82.1845 12.0654 82.1678 11.5041 82.1357 10.8966H83.3165L83.3793 11.8179H83.4165C83.5729 11.5316 83.8063 11.2954 84.1127 11.1066C84.4768 10.8866 84.8844 10.7754 85.3306 10.7754C85.8947 10.7754 86.3639 10.9529 86.737 11.3091C87.2011 11.7454 87.4332 12.3966 87.4332 13.2616V16.7916Z" fill="white"/>
<path d="M91.1392 16.7916H89.7969V8.19531H91.1392V16.7916Z" fill="white"/>
<path d="M99.0491 13.7968C99.0491 14.703 98.7837 15.4455 98.253 16.028C97.6966 16.6268 96.9581 16.9255 96.0389 16.9255C95.1504 16.9255 94.444 16.6393 93.9183 16.0643C93.3927 15.4905 93.1299 14.7668 93.1299 13.8943C93.1299 12.9818 93.4004 12.233 93.944 11.6518C94.4876 11.0705 95.2183 10.7793 96.1376 10.7793C97.026 10.7793 97.7376 11.0655 98.2786 11.6393C98.7914 12.1968 99.0491 12.9168 99.0491 13.7968ZM97.6542 13.8393C97.6542 13.2955 97.5337 12.8293 97.294 12.4405C97.0132 11.9705 96.6106 11.7355 96.0901 11.7355C95.5491 11.7355 95.1389 11.9705 94.8581 12.4405C94.6171 12.8293 94.4978 13.303 94.4978 13.863C94.4978 14.4068 94.6183 14.873 94.8581 15.2618C95.1491 15.7318 95.5542 15.9668 96.0773 15.9668C96.5901 15.9668 96.9914 15.728 97.2812 15.2493C97.5312 14.853 97.6542 14.383 97.6542 13.8393Z" fill="white"/>
<path d="M105.551 16.7918H104.345L104.245 16.113H104.208C103.795 16.6543 103.207 16.9255 102.442 16.9255C101.872 16.9255 101.41 16.7468 101.063 16.3918C100.748 16.0693 100.59 15.668 100.59 15.1918C100.59 14.4718 100.898 13.923 101.517 13.543C102.135 13.163 103.004 12.9768 104.123 12.9855V12.8755C104.123 12.0993 103.705 11.7118 102.868 11.7118C102.272 11.7118 101.746 11.858 101.292 12.148L101.019 11.288C101.581 10.9493 102.274 10.7793 103.092 10.7793C104.672 10.7793 105.464 11.5918 105.464 13.2168V15.3868C105.464 15.9755 105.494 16.4443 105.551 16.7918ZM104.157 14.7668V13.858C102.674 13.833 101.933 14.2293 101.933 15.0455C101.933 15.353 102.018 15.583 102.191 15.7368C102.364 15.8905 102.585 15.9668 102.848 15.9668C103.142 15.9668 103.418 15.8755 103.669 15.6943C103.922 15.5118 104.077 15.2805 104.135 14.9968C104.149 14.933 104.157 14.8555 104.157 14.7668Z" fill="white"/>
<path d="M113.186 16.7916H111.994L111.931 15.8453H111.894C111.513 16.5653 110.864 16.9253 109.953 16.9253C109.225 16.9253 108.618 16.6466 108.137 16.0891C107.657 15.5316 107.417 14.8078 107.417 13.9191C107.417 12.9653 107.677 12.1928 108.2 11.6028C108.707 11.0528 109.327 10.7778 110.066 10.7778C110.877 10.7778 111.445 11.0441 111.768 11.5778H111.794V8.19531H113.139V15.2041C113.139 15.7778 113.154 16.3066 113.186 16.7916ZM111.794 14.3066V13.3241C111.794 13.1541 111.781 13.0166 111.757 12.9116C111.681 12.5966 111.518 12.3316 111.271 12.1178C111.021 11.9041 110.72 11.7966 110.372 11.7966C109.871 11.7966 109.479 11.9903 109.19 12.3791C108.904 12.7678 108.759 13.2641 108.759 13.8703C108.759 14.4528 108.896 14.9253 109.172 15.2891C109.463 15.6766 109.855 15.8703 110.346 15.8703C110.787 15.8703 111.14 15.7091 111.408 15.3853C111.667 15.0866 111.794 14.7266 111.794 14.3066Z" fill="white"/>
<path d="M124.677 13.7968C124.677 14.703 124.412 15.4455 123.881 16.028C123.324 16.6268 122.589 16.9255 121.667 16.9255C120.781 16.9255 120.074 16.6393 119.546 16.0643C119.021 15.4905 118.758 14.7668 118.758 13.8943C118.758 12.9818 119.028 12.233 119.572 11.6518C120.116 11.0705 120.846 10.7793 121.768 10.7793C122.654 10.7793 123.368 11.0655 123.907 11.6393C124.419 12.1968 124.677 12.9168 124.677 13.7968ZM123.285 13.8393C123.285 13.2955 123.164 12.8293 122.924 12.4405C122.641 11.9705 122.241 11.7355 121.718 11.7355C121.18 11.7355 120.769 11.9705 120.486 12.4405C120.245 12.8293 120.126 13.303 120.126 13.863C120.126 14.4068 120.246 14.873 120.486 15.2618C120.777 15.7318 121.182 15.9668 121.705 15.9668C122.218 15.9668 122.622 15.728 122.912 15.2493C123.159 14.853 123.285 14.383 123.285 13.8393Z" fill="white"/>
<path d="M131.902 16.7916H130.559V13.4166C130.559 12.3766 130.154 11.8566 129.34 11.8566C128.941 11.8566 128.62 11.9991 128.371 12.2854C128.122 12.5716 127.998 12.9091 127.998 13.2954V16.7904H126.653V12.5829C126.653 12.0654 126.638 11.5041 126.605 10.8966H127.785L127.848 11.8179H127.885C128.043 11.5316 128.276 11.2954 128.581 11.1066C128.946 10.8866 129.353 10.7754 129.8 10.7754C130.363 10.7754 130.832 10.9529 131.205 11.3091C131.671 11.7454 131.902 12.3966 131.902 13.2616V16.7916Z" fill="white"/>
<path d="M140.943 11.8804H139.464V14.7429C139.464 15.4704 139.727 15.8341 140.247 15.8341C140.488 15.8341 140.688 15.8141 140.846 15.7729L140.881 16.7666C140.615 16.8641 140.267 16.9129 139.837 16.9129C139.306 16.9129 138.893 16.7554 138.595 16.4404C138.295 16.1254 138.146 15.5954 138.146 14.8516V11.8804H137.263V10.8991H138.146V9.81914L139.463 9.43164V10.8979H140.942V11.8804H140.943Z" fill="white"/>
<path d="M148.056 16.7916H146.711V13.4416C146.711 12.3853 146.306 11.8566 145.495 11.8566C144.872 11.8566 144.446 12.1628 144.213 12.7753C144.173 12.9041 144.15 13.0616 144.15 13.2466V16.7903H142.808V8.19531H144.15V11.7466H144.176C144.599 11.1003 145.205 10.7778 145.991 10.7778C146.547 10.7778 147.008 10.9553 147.373 11.3116C147.828 11.7553 148.056 12.4153 148.056 13.2878V16.7916Z" fill="white"/>
<path d="M155.394 13.5663C155.394 13.8013 155.376 13.9988 155.344 14.1601H151.314C151.332 14.7426 151.524 15.1863 151.897 15.4938C152.238 15.7688 152.678 15.9063 153.217 15.9063C153.813 15.9063 154.356 15.8138 154.846 15.6276L155.056 16.5376C154.483 16.7801 153.809 16.9013 153.028 16.9013C152.092 16.9013 151.355 16.6326 150.822 16.0951C150.286 15.5576 150.021 14.8363 150.021 13.9313C150.021 13.0426 150.268 12.3026 150.767 11.7126C151.287 11.0826 151.991 10.7676 152.879 10.7676C153.749 10.7676 154.409 11.0826 154.855 11.7126C155.215 12.2126 155.394 12.8313 155.394 13.5663ZM154.112 13.2276C154.122 12.8388 154.033 12.5038 153.851 12.2213C153.618 11.8576 153.263 11.6751 152.782 11.6751C152.344 11.6751 151.986 11.8526 151.713 12.2088C151.49 12.4926 151.358 12.8313 151.314 13.2276H154.112Z" fill="white"/>
<path d="M68.7759 39.3811H65.8644L64.2695 34.4948H58.7259L57.2067 39.3811H54.3721L59.8644 22.7461H63.2567L68.7759 39.3811ZM63.7887 32.4448L62.3464 28.1011C62.1939 27.6573 61.908 26.6123 61.4862 24.9673H61.4349C61.2669 25.6748 60.9964 26.7198 60.6246 28.1011L59.208 32.4448H63.7887Z" fill="white"/>
<path d="M82.9002 33.2349C82.9002 35.2749 82.3348 36.8874 81.204 38.0712C80.1912 39.1249 78.9335 39.6512 77.4322 39.6512C75.8117 39.6512 74.6476 39.0837 73.9386 37.9487H73.8873V44.2674H71.154V31.3337C71.154 30.0512 71.1194 28.7349 71.0527 27.3849H73.4566L73.6091 29.2862H73.6604C74.572 27.8537 75.9553 27.1387 77.8117 27.1387C79.263 27.1387 80.4745 27.6974 81.4438 28.8162C82.4156 29.9362 82.9002 31.4087 82.9002 33.2349ZM80.1156 33.3324C80.1156 32.1649 79.8463 31.2024 79.3053 30.4449C78.7143 29.6549 77.9207 29.2599 76.9258 29.2599C76.2514 29.2599 75.6386 29.4799 75.0912 29.9137C74.5425 30.3512 74.1835 30.9224 74.0156 31.6299C73.9309 31.9599 73.8886 32.2299 73.8886 32.4424V34.4424C73.8886 35.3149 74.163 36.0512 74.7117 36.6524C75.2604 37.2537 75.9732 37.5537 76.8502 37.5537C77.8797 37.5537 78.6809 37.1662 79.254 36.3937C79.8284 35.6199 80.1156 34.5999 80.1156 33.3324Z" fill="white"/>
<path d="M97.0503 33.2349C97.0503 35.2749 96.4849 36.8874 95.3528 38.0712C94.3413 39.1249 93.0836 39.6512 91.5823 39.6512C89.9618 39.6512 88.7977 39.0837 88.09 37.9487H88.0387V44.2674H85.3054V31.3337C85.3054 30.0512 85.2708 28.7349 85.2041 27.3849H87.6079L87.7605 29.2862H87.8118C88.722 27.8537 90.1054 27.1387 91.9631 27.1387C93.4131 27.1387 94.6246 27.6974 95.5964 28.8162C96.5644 29.9362 97.0503 31.4087 97.0503 33.2349ZM94.2656 33.3324C94.2656 32.1649 93.9951 31.2024 93.4541 30.4449C92.8631 29.6549 92.0721 29.2599 91.0759 29.2599C90.4003 29.2599 89.7887 29.4799 89.24 29.9137C88.6913 30.3512 88.3336 30.9224 88.1656 31.6299C88.0823 31.9599 88.0387 32.2299 88.0387 32.4424V34.4424C88.0387 35.3149 88.3131 36.0512 88.8592 36.6524C89.4079 37.2524 90.1208 37.5537 91.0003 37.5537C92.0297 37.5537 92.831 37.1662 93.4041 36.3937C93.9785 35.6199 94.2656 34.5999 94.2656 33.3324Z" fill="white"/>
<path d="M112.871 34.7157C112.871 36.1307 112.367 37.282 111.355 38.1707C110.244 39.142 108.696 39.627 106.708 39.627C104.872 39.627 103.4 39.282 102.286 38.5907L102.919 36.3695C104.119 37.077 105.436 37.432 106.871 37.432C107.9 37.432 108.702 37.2045 109.277 36.752C109.85 36.2995 110.136 35.692 110.136 34.9345C110.136 34.2595 109.9 33.6907 109.427 33.2295C108.957 32.7682 108.171 32.3395 107.073 31.9432C104.086 30.857 102.594 29.2657 102.594 27.1732C102.594 25.8057 103.117 24.6845 104.164 23.812C105.208 22.9382 106.6 22.502 108.341 22.502C109.894 22.502 111.184 22.7657 112.213 23.292L111.53 25.4645C110.568 24.9545 109.481 24.6995 108.264 24.6995C107.303 24.6995 106.552 24.9307 106.013 25.3907C105.558 25.802 105.33 26.3032 105.33 26.897C105.33 27.5545 105.59 28.0982 106.113 28.5257C106.568 28.9207 107.395 29.3482 108.595 29.8095C110.063 30.3857 111.141 31.0595 111.835 31.832C112.526 32.602 112.871 33.5657 112.871 34.7157Z" fill="white"/>
<path d="M121.908 29.3852H118.895V35.209C118.895 36.6902 119.426 37.4302 120.49 37.4302C120.979 37.4302 121.384 37.389 121.704 37.3065L121.78 39.3302C121.242 39.5265 120.533 39.6252 119.654 39.6252C118.575 39.6252 117.731 39.304 117.122 38.6627C116.516 38.0202 116.211 36.9427 116.211 35.429V29.3827H114.416V27.3827H116.211V25.1865L118.895 24.3965V27.3827H121.908V29.3852Z" fill="white"/>
<path d="M135.501 33.2844C135.501 35.1281 134.96 36.6419 133.881 37.8256C132.749 39.0444 131.246 39.6519 129.373 39.6519C127.568 39.6519 126.131 39.0681 125.059 37.9006C123.987 36.7331 123.451 35.2594 123.451 33.4831C123.451 31.6244 124.002 30.1019 125.109 28.9181C126.213 27.7331 127.702 27.1406 129.576 27.1406C131.381 27.1406 132.833 27.7244 133.929 28.8931C134.978 30.0269 135.501 31.4906 135.501 33.2844ZM132.665 33.3706C132.665 32.2644 132.423 31.3156 131.932 30.5244C131.359 29.5669 130.54 29.0894 129.478 29.0894C128.379 29.0894 127.545 29.5681 126.972 30.5244C126.481 31.3169 126.238 32.2806 126.238 33.4206C126.238 34.5269 126.481 35.4756 126.972 36.2656C127.563 37.2231 128.388 37.7006 129.454 37.7006C130.497 37.7006 131.317 37.2131 131.908 36.2406C132.411 35.4344 132.665 34.4756 132.665 33.3706Z" fill="white"/>
<path d="M144.386 29.7287C144.115 29.6799 143.827 29.6549 143.524 29.6549C142.563 29.6549 141.819 30.0087 141.296 30.7174C140.841 31.3424 140.613 32.1324 140.613 33.0862V39.3799H137.881L137.906 31.1624C137.906 29.7799 137.872 28.5212 137.804 27.3862H140.184L140.284 29.6812H140.36C140.649 28.8924 141.104 28.2574 141.727 27.7812C142.336 27.3524 142.993 27.1387 143.702 27.1387C143.955 27.1387 144.183 27.1562 144.386 27.1874V29.7287Z" fill="white"/>
<path d="M156.61 32.8159C156.61 33.2934 156.578 33.6959 156.51 34.0247H148.31C148.342 35.2097 148.738 36.1159 149.5 36.7409C150.191 37.2997 151.084 37.5797 152.182 37.5797C153.396 37.5797 154.504 37.3909 155.5 37.0122L155.928 38.8622C154.764 39.3572 153.39 39.6034 151.804 39.6034C149.896 39.6034 148.399 39.0559 147.309 37.9622C146.222 36.8684 145.677 35.3997 145.677 33.5572C145.677 31.7484 146.183 30.2422 147.197 29.0409C148.259 27.7584 149.693 27.1172 151.499 27.1172C153.272 27.1172 154.614 27.7584 155.525 29.0409C156.247 30.0597 156.61 31.3197 156.61 32.8159ZM154.004 32.1247C154.022 31.3347 153.843 30.6522 153.473 30.0759C153 29.3347 152.273 28.9647 151.295 28.9647C150.401 28.9647 149.674 29.3259 149.119 30.0509C148.664 30.6272 148.393 31.3184 148.31 32.1234H154.004V32.1247Z" fill="white"/>
</svg>
