<svg width="30" height="30" viewBox="0 0 30 30" fill="none" xmlns="http://www.w3.org/2000/svg">
<path d="M23.43 13.1254C22.785 13.1254 22.275 12.6004 22.275 11.9704C22.275 11.4154 21.72 10.2604 20.79 9.2554C19.875 8.28039 18.87 7.71039 18.03 7.71039C17.385 7.71039 16.875 7.18539 16.875 6.55539C16.875 5.92539 17.4 5.40039 18.03 5.40039C19.53 5.40039 21.105 6.21039 22.485 7.66539C23.775 9.0304 24.6 10.7254 24.6 11.9554C24.6 12.6004 24.075 13.1254 23.43 13.1254Z" fill="#0E82FD"/>
<path d="M28.8451 13.125C28.2001 13.125 27.6901 12.6 27.6901 11.97C27.6901 6.64501 23.3551 2.325 18.0451 2.325C17.4001 2.325 16.8901 1.8 16.8901 1.17C16.8901 0.540001 17.4001 0 18.0301 0C24.6301 0 30.0002 5.37001 30.0002 11.97C30.0002 12.6 29.4752 13.125 28.8451 13.125Z" fill="#0E82FD"/>
<path opacity="0.4" d="M14.685 18.315L9.78001 23.22C9.24001 22.74 8.71501 22.245 8.20501 21.735C6.66001 20.175 5.26501 18.54 4.02 16.83C2.79 15.12 1.8 13.41 1.08 11.715C0.36 10.005 0 8.37001 0 6.81001C0 5.79001 0.18 4.81501 0.54 3.915C0.900001 3 1.47 2.16 2.265 1.41C3.225 0.465001 4.275 0 5.38501 0C5.80501 0 6.22501 0.0900002 6.60001 0.27C6.99001 0.450001 7.33501 0.720001 7.60501 1.11L11.085 6.01501C11.355 6.39001 11.55 6.73501 11.685 7.06501C11.82 7.38001 11.895 7.69501 11.895 7.98001C11.895 8.34001 11.79 8.70001 11.58 9.04501C11.385 9.39001 11.1 9.75001 10.74 10.11L9.60001 11.295C9.43501 11.46 9.36001 11.655 9.36001 11.895C9.36001 12.015 9.37501 12.12 9.40501 12.24C9.45001 12.36 9.49501 12.45 9.52501 12.54C9.79501 13.035 10.26 13.68 10.92 14.46C11.595 15.24 12.315 16.035 13.095 16.83C13.635 17.355 14.16 17.865 14.685 18.315Z" fill="#0E82FD"/>
<path d="M29.9549 24.4956C29.9549 24.9156 29.8799 25.3506 29.7299 25.7706C29.6849 25.8906 29.6399 26.0106 29.5799 26.1306C29.3249 26.6706 28.9949 27.1806 28.5599 27.6606C27.8249 28.4706 27.0149 29.0556 26.0999 29.4306C26.0849 29.4306 26.0699 29.4456 26.0549 29.4456C25.1699 29.8056 24.2099 30.0006 23.1749 30.0006C21.6449 30.0006 20.0099 29.6406 18.2849 28.9056C16.5599 28.1706 14.8349 27.1806 13.1249 25.9356C12.5399 25.5006 11.9549 25.0656 11.3999 24.6006L16.3049 19.6955C16.7249 20.0105 17.0999 20.2505 17.4149 20.4155C17.4899 20.4455 17.5799 20.4905 17.6849 20.5355C17.8049 20.5805 17.9249 20.5955 18.0599 20.5955C18.3149 20.5955 18.5099 20.5056 18.6749 20.3406L19.8149 19.2155C20.1899 18.8405 20.5499 18.5555 20.8949 18.3755C21.2399 18.1655 21.5849 18.0605 21.9599 18.0605C22.2449 18.0605 22.5449 18.1205 22.8749 18.2555C23.2049 18.3905 23.5499 18.5855 23.9249 18.8405L28.8899 22.3656C29.2799 22.6356 29.5499 22.9506 29.7149 23.3256C29.8649 23.7006 29.9549 24.0756 29.9549 24.4956Z" fill="#0E82FD"/>
</svg>
