<svg width="32" height="32" viewBox="0 0 32 32" fill="none" xmlns="http://www.w3.org/2000/svg">
<path opacity="0.4" d="M27.1762 11.4856C27.1762 13.8008 26.4897 15.9245 25.3081 17.6968C23.5836 20.2516 20.8533 22.0558 17.6758 22.5189C17.1329 22.6147 16.5741 22.6626 15.9993 22.6626C15.4244 22.6626 14.8656 22.6147 14.3227 22.5189C11.1452 22.0558 8.41487 20.2516 6.69042 17.6968C5.50885 15.9245 4.82227 13.8008 4.82227 11.4856C4.82227 5.30631 9.81998 0.308594 15.9993 0.308594C22.1785 0.308594 27.1762 5.30631 27.1762 11.4856Z" fill="#0E82FD"/>
<path d="M30.7696 26.6066L28.135 27.2293C27.5442 27.373 27.0812 27.8201 26.9535 28.4109L26.3946 30.7581C26.0912 32.0354 24.4626 32.4186 23.6163 31.4127L16 22.6627L8.38368 31.4287C7.53742 32.4346 5.90877 32.0514 5.6054 30.774L5.04655 28.4268C4.90284 27.836 4.4398 27.373 3.86498 27.2453L1.23041 26.6226C0.0169036 26.3352 -0.414209 24.8183 0.463983 23.9401L6.69116 17.7129C8.41561 20.2676 11.146 22.0719 14.3235 22.535C14.8663 22.6308 15.4252 22.6787 16 22.6787C16.5748 22.6787 17.1337 22.6308 17.6765 22.535C20.854 22.0719 23.5844 20.2676 25.3088 17.7129L31.536 23.9401C32.4142 24.8023 31.9831 26.3192 30.7696 26.6066Z" fill="#0E82FD"/>
<path d="M16.9268 6.66291L17.8688 8.54702C17.9966 8.80249 18.3319 9.05797 18.6353 9.10588L20.3437 9.39327C21.4295 9.56891 21.685 10.3673 20.9026 11.1497L19.5773 12.4749C19.3538 12.6985 19.226 13.1296 19.3059 13.4489L19.6891 15.0936C19.9925 16.3869 19.3059 16.8978 18.1562 16.2112L16.5595 15.2692C16.2721 15.0935 15.7931 15.0935 15.5057 15.2692L13.909 16.2112C12.7594 16.8818 12.0728 16.3869 12.3761 15.0936L12.7594 13.4489C12.8232 13.1456 12.7115 12.6985 12.4879 12.4749L11.1626 11.1497C10.3803 10.3673 10.6357 9.58488 11.7215 9.39327L13.43 9.10588C13.7174 9.05797 14.0527 8.80249 14.1804 8.54702L15.1225 6.66291C15.5855 5.64101 16.4158 5.64101 16.9268 6.66291Z" fill="#0E82FD"/>
</svg>
