<svg width="24" height="32" viewBox="0 0 24 32" fill="none" xmlns="http://www.w3.org/2000/svg">
<path d="M17.3333 12.0007V9.33398H6.66667V12.0007C4.89921 12.0028 3.20475 12.7058 1.95496 13.9556C0.705177 15.2054 0.00211715 16.8999 0 18.6673V25.334C0.00211715 27.1015 0.705177 28.7959 1.95496 30.0457C3.20475 31.2955 4.89921 31.9986 6.66667 32.0007H17.3333C19.1008 31.9986 20.7953 31.2955 22.0451 30.0457C23.2948 28.7959 23.9979 27.1015 24 25.334V18.6673C23.9979 16.8999 23.2948 15.2054 22.0451 13.9556C20.7953 12.7058 19.1008 12.0028 17.3333 12.0007ZM16 22.6673H13.3333V25.334C13.3333 25.6876 13.1929 26.0268 12.9428 26.2768C12.6928 26.5269 12.3536 26.6673 12 26.6673C11.6464 26.6673 11.3073 26.5269 11.0572 26.2768C10.8072 26.0268 10.6667 25.6876 10.6667 25.334V22.6673H8.00001C7.64639 22.6673 7.30725 22.5269 7.0572 22.2768C6.80715 22.0268 6.66667 21.6876 6.66667 21.334C6.66667 20.9804 6.80715 20.6412 7.0572 20.3912C7.30725 20.1411 7.64639 20.0007 8.00001 20.0007H10.6667V17.334C10.6667 16.9804 10.8072 16.6412 11.0572 16.3912C11.3073 16.1411 11.6464 16.0007 12 16.0007C12.3536 16.0007 12.6928 16.1411 12.9428 16.3912C13.1929 16.6412 13.3333 16.9804 13.3333 17.334V20.0007H16C16.3536 20.0007 16.6928 20.1411 16.9428 20.3912C17.1929 20.6412 17.3333 20.9804 17.3333 21.334C17.3333 21.6876 17.1929 22.0268 16.9428 22.2768C16.6928 22.5269 16.3536 22.6673 16 22.6673Z" fill="#0E82FD"/>
<path opacity="0.4" d="M7.33334 6.66667H16.6667C17.5507 6.66667 18.3986 6.31548 19.0237 5.69036C19.6488 5.06524 20 4.21739 20 3.33334C20 2.44928 19.6488 1.60143 19.0237 0.976312C18.3986 0.35119 17.5507 0 16.6667 0H7.33334C6.44928 0 5.60143 0.35119 4.97631 0.976312C4.35119 1.60143 4 2.44928 4 3.33334C4 4.21739 4.35119 5.06524 4.97631 5.69036C5.60143 6.31548 6.44928 6.66667 7.33334 6.66667Z" fill="#0E82FD"/>
</svg>
