<svg width="35" height="35" viewBox="0 0 35 35" fill="none" xmlns="http://www.w3.org/2000/svg">
<path d="M34.0346 18.0097L22.8054 30.2728C21.4383 31.7635 19.776 32.9536 17.9241 33.7672C16.0723 34.5809 14.0715 35.0005 12.0487 34.9993H5.83333C4.28624 34.9993 2.80251 34.3847 1.70854 33.2907C0.614581 32.1968 0 30.713 0 29.1659V21.8743C0 20.3272 0.614581 18.8434 1.70854 17.7495C2.80251 16.6555 4.28624 16.0409 5.83333 16.0409H17.1894C17.6714 16.0419 18.1472 16.1505 18.5818 16.359C19.0165 16.5674 19.3991 16.8704 19.7016 17.2457C20.0041 17.6211 20.2189 18.0593 20.3302 18.5283C20.4416 18.9973 20.4467 19.4853 20.3452 19.9566C20.1873 20.6158 19.8317 21.211 19.3261 21.6624C18.8204 22.1138 18.1889 22.4 17.516 22.4824L11.445 23.3326C11.0624 23.3875 10.7172 23.592 10.4853 23.9013C10.2534 24.2106 10.1538 24.5993 10.2083 24.982C10.2629 25.3649 10.4673 25.7104 10.7766 25.9426C11.0859 26.1748 11.4748 26.2746 11.8577 26.2201L18.0585 25.3451C19.519 25.13 20.8541 24.3988 21.8218 23.2839C22.7895 22.1691 23.3257 20.7444 23.3333 19.2682C23.3262 18.9561 23.2945 18.645 23.2385 18.3378L28.404 12.888C29.0851 12.1505 30.0304 11.7124 31.0335 11.6695C32.0366 11.6266 33.0159 11.9823 33.7575 12.6591C34.4954 13.3353 34.9379 14.2745 34.9898 15.274C35.0416 16.2736 34.6986 17.2534 34.0346 18.0024V18.0097Z" fill="#0E82FD"/>
<path opacity="0.7" d="M23.3334 4.01042C23.3334 7.16479 19.2209 11.0848 17.1719 12.7283C16.8513 12.9854 16.4526 13.1254 16.0417 13.1254C15.6308 13.1254 15.2321 12.9854 14.9115 12.7283C12.8625 11.0833 8.75004 7.16479 8.75004 4.01042C8.70404 2.99574 9.0618 2.00414 9.74505 1.25257C10.4283 0.500997 11.3814 0.0506311 12.3959 0C13.4103 0.0506311 14.3634 0.500997 15.0467 1.25257C15.6515 1.91789 16.0013 2.77129 16.0417 3.6623C16.0821 2.77129 16.4319 1.91789 17.0367 1.25257C17.72 0.500997 18.6731 0.0506311 19.6875 0C20.702 0.0506311 21.6551 0.500997 22.3384 1.25257C23.0216 2.00414 23.3794 2.99574 23.3334 4.01042Z" fill="#0E82FD"/>
</svg>
