<svg width="32" height="32" viewBox="0 0 32 32" fill="none" xmlns="http://www.w3.org/2000/svg">
<path d="M8.96381 0.0377579C7.94357 0.194002 6.95646 0.52524 6.22109 0.956474L5.66459 1.28771L5.24722 1.20647C4.2866 1.01272 3.20012 1.15022 2.27262 1.56895C1.20601 2.05018 0.490515 2.9189 0.146018 4.15011C0.0267696 4.56884 0.000269832 4.83133 0.000269832 5.77505C-0.00635511 7.13125 0.106269 7.78122 0.642889 9.53741C1.10001 11.0374 1.10001 11.0499 1.09338 11.6748C1.08013 12.3123 1.17951 12.5123 1.59026 12.656C1.94138 12.781 2.12025 12.731 2.70324 12.3373C3.27299 11.9561 3.90898 11.2811 4.32635 10.6124L4.67748 10.0624L4.98222 10.3124C5.14785 10.4561 5.43934 10.6374 5.61822 10.7249C5.80372 10.8124 5.96271 10.8936 5.97596 10.9061C5.98921 10.9124 5.94284 11.1936 5.87659 11.5248C5.76397 12.0998 5.75072 12.1311 5.53872 12.2248C5.04185 12.4436 4.40585 13.2185 4.19386 13.8623C4.07461 14.2247 4.06136 14.4435 4.06136 16.6496V19.0433L3.14049 20.837C2.12688 22.7994 2.06063 23.0057 2.19312 23.7306C2.33887 24.5556 2.88212 25.2493 3.64399 25.5931L4.05473 25.7743V28.743C4.06136 32.1178 4.04148 31.9928 4.5516 31.9928C4.75698 31.9928 4.8696 31.9553 4.96235 31.8616C5.0816 31.7366 5.08822 31.5804 5.1081 28.9617L5.12797 26.193L6.12171 26.593C6.69146 26.8243 7.22145 26.993 7.34733 26.993C7.62557 26.993 7.83757 26.8055 7.83757 26.5618C7.83757 26.1556 7.89057 26.1868 5.55859 25.2681C4.34623 24.7931 3.92223 24.5994 3.73674 24.4306C3.38561 24.1119 3.23986 23.7869 3.23324 23.3307C3.23324 22.9557 3.26636 22.8807 4.12761 21.2495C4.61785 20.3183 5.04185 19.5558 5.06835 19.5558C5.16772 19.5558 7.17508 20.5245 7.17508 20.5683C7.17508 20.5995 6.91008 21.1182 6.58546 21.7307C6.26084 22.3369 5.97596 22.9244 5.95609 23.0369C5.88984 23.3119 6.01571 23.6869 6.22771 23.8806C6.43971 24.0681 10.1166 25.5493 10.4942 25.5993C10.6598 25.6243 11.0374 25.5368 11.8059 25.3056C12.4022 25.1306 12.9057 24.9993 12.9255 25.0243C12.952 25.0431 12.8328 25.1806 12.6672 25.3243C12.3028 25.6368 12.2233 25.8806 12.369 26.2055C12.4485 26.3868 12.5413 26.468 12.8262 26.5868C13.2634 26.768 13.4688 26.993 13.4688 27.2868C13.4688 27.6742 13.0911 28.0555 12.7069 28.0555C12.6407 28.0555 11.9185 27.7867 11.0904 27.4618C10.2623 27.1368 9.51368 26.868 9.42756 26.868C8.89094 26.8743 8.75181 27.6055 9.24868 27.8242C9.36793 27.8805 10.0901 28.168 10.8519 28.468C12.1504 28.9804 12.2763 29.0242 12.7069 29.0242C13.8398 29.0242 14.6016 28.2367 14.5155 27.1493C14.4758 26.6868 14.2571 26.2805 13.906 26.0181L13.6874 25.8493L13.853 25.5743C14.1379 25.0868 14.0054 24.4994 13.5151 24.1556C13.1773 23.9244 12.7533 23.9556 11.6204 24.2994L10.6068 24.6056L8.87769 23.9244C7.9237 23.5431 7.12208 23.2182 7.09558 23.1932C7.06908 23.1682 7.69845 21.8932 8.50007 20.3683C9.84493 17.8059 9.96418 17.5559 10.0039 17.1746C10.0901 16.2747 9.57331 15.4122 8.71206 15.0122C8.38082 14.8622 8.25494 14.8372 7.7382 14.8372C7.21483 14.8372 7.09558 14.8622 6.75108 15.0185C6.20784 15.2684 5.88984 15.6059 5.47909 16.3684L5.12797 17.0246V15.6809C5.12135 14.3935 5.12797 14.3247 5.28035 14.0185C5.46584 13.6498 5.85672 13.2123 6.12171 13.081C6.36684 12.9623 6.80408 12.9685 7.06245 13.0935C7.4997 13.306 11.8523 16.1184 12.0577 16.3184C12.3823 16.6371 12.5678 17.0809 12.5678 17.5559C12.5678 17.8871 12.528 18.0496 12.3492 18.4058C12.0709 18.9683 12.104 19.1371 12.528 19.5058C14.2903 21.0182 15.3635 22.4369 15.973 24.0681C16.6554 25.8931 16.4699 27.393 15.4165 28.493C15.284 28.6305 14.9528 28.8992 14.6811 29.0929C13.9921 29.5804 13.9391 29.7179 13.9325 30.8116C13.9325 31.5804 13.9458 31.6803 14.0716 31.8303C14.2439 32.0366 14.6546 32.0616 14.86 31.8678C14.9793 31.7553 14.9925 31.6616 14.9925 30.9366V30.1304L15.4165 29.8429C15.9399 29.4929 16.4699 28.9429 16.8011 28.418C17.563 27.2055 17.6491 25.5431 17.033 23.8369C16.4699 22.2744 15.1449 20.387 13.8 19.2308L13.3363 18.8308L13.482 18.4933C13.6741 18.0246 13.6741 17.1121 13.482 16.6122C13.1706 15.7934 12.8792 15.5184 11.2627 14.4997C10.3749 13.9435 10.0437 13.706 10.0636 13.631C10.0768 13.5748 10.1497 13.2123 10.2226 12.8373C10.302 12.4561 10.3815 12.0873 10.4014 12.0123C10.4345 11.8748 10.4478 11.8811 11.0772 12.1811C11.4349 12.3436 11.8258 12.4998 11.9583 12.5248C12.2365 12.5748 12.6605 12.4748 12.8858 12.3061C13.1375 12.1248 14.9064 9.68115 14.9594 9.44366C14.9925 9.28117 14.9594 9.14992 14.8004 8.83743C14.4625 8.18746 14.5221 7.91872 15.019 7.78122C15.4894 7.64998 16.1386 7.24374 16.3837 6.925C16.6355 6.60002 16.821 6.03129 16.9137 5.33756C17.2052 3.1314 15.6749 1.25021 12.8858 0.368996C12.0378 0.100256 11.2097 -0.00598907 10.0901 0.000259399C9.56006 0.00650978 9.05656 0.025259 8.96381 0.0377579ZM12.0113 1.18147C14.9395 1.90644 16.45 3.82512 15.7146 5.88754C15.549 6.35628 15.4099 6.50627 14.9329 6.72501C14.224 7.05625 13.4025 6.93126 12.5479 6.36253C12.2895 6.19378 12.0113 6.05629 11.9185 6.05629C11.8258 6.05629 11.4879 6.18128 11.1699 6.33753C10.8519 6.49377 10.5538 6.61877 10.514 6.61877C10.4677 6.61877 10.408 6.55627 10.3815 6.48127C10.3617 6.40627 10.2027 6.21253 10.0371 6.04379C9.54681 5.55006 8.81806 5.43131 8.18207 5.73755C7.59245 6.02504 7.28108 6.57502 7.28108 7.33749C7.28108 7.90622 7.4202 8.27496 7.80445 8.71869L8.04295 8.98743L7.6587 9.35616C7.00946 9.98114 6.58546 10.0936 6.02896 9.78115C5.45259 9.46866 4.95572 8.74994 4.71723 7.88747C4.38598 6.69376 4.6311 4.60634 5.2406 3.43139C5.58509 2.76891 6.41321 1.98769 7.14195 1.6377C8.22844 1.11897 8.89756 0.987724 10.355 1.01897C11.2163 1.03772 11.5674 1.07522 12.0113 1.18147ZM4.7901 2.15643C4.7901 2.17518 4.71723 2.28143 4.6311 2.38767C4.05473 3.11265 3.62411 4.53134 3.49824 6.11879C3.43861 6.81251 3.55124 7.76247 3.77648 8.4437L3.94873 8.98743L3.80298 9.34992C3.72349 9.54991 3.52474 9.9124 3.36574 10.1561C3.02124 10.6811 2.32562 11.4061 2.22625 11.3498C2.19312 11.3311 2.14013 11.1499 2.12025 10.9499C2.09375 10.7499 1.91488 10.0436 1.71613 9.38741C1.17288 7.59998 1.05364 6.96251 1.05364 5.8063C1.05364 5.09382 1.08676 4.73134 1.16626 4.43135C1.49751 3.26264 2.266 2.51892 3.46511 2.21893C3.81623 2.13143 4.7901 2.08143 4.7901 2.15643ZM9.26856 6.76876C9.42093 6.91251 9.50043 7.0625 9.53356 7.24999C9.58656 7.56248 9.8118 7.80622 10.0437 7.80622C10.2424 7.80622 10.8453 7.61248 11.415 7.36249L11.8523 7.175L12.2432 7.39999C12.4618 7.52498 12.8527 7.68748 13.1044 7.76247L13.5681 7.89997L13.5748 8.33745C13.5748 8.63119 13.6211 8.86868 13.7073 9.05618L13.8398 9.33117L13.0183 10.4436C12.5678 11.0561 12.1902 11.5561 12.1769 11.5561C12.1637 11.5561 11.7198 11.3561 11.1898 11.1061C10.2424 10.6686 10.2226 10.6624 9.95755 10.7374C9.8118 10.7749 9.64618 10.8749 9.59318 10.9561C9.54018 11.0311 9.40106 11.5498 9.28843 12.1061C9.14268 12.806 9.05656 13.106 9.00356 13.0748C8.96381 13.0498 8.62594 12.8435 8.25494 12.606C7.88395 12.3748 7.41358 12.1311 7.22145 12.0748L6.86371 11.9748L6.97633 11.4498C7.04258 11.1623 7.1022 10.9186 7.11545 10.9124C7.1287 10.9061 7.30758 10.8186 7.51958 10.7249C8.0032 10.4936 8.38744 10.1811 8.74519 9.71865C8.91081 9.51241 9.08969 9.33742 9.14931 9.33742C9.20893 9.33117 9.34143 9.32492 9.44743 9.31867C9.69918 9.29992 9.8913 9.09993 9.8913 8.84369C9.8913 8.51245 9.71243 8.3562 9.31493 8.3312C8.92406 8.31245 8.69219 8.18746 8.50007 7.89997C8.20857 7.44999 8.30132 6.82501 8.69881 6.63752C8.94394 6.51877 9.02344 6.53752 9.26856 6.76876ZM8.20194 15.9247C8.70544 16.1372 9.03006 16.6809 8.93731 17.1434C8.89094 17.3621 7.7382 19.6183 7.67195 19.6183C7.65207 19.6183 7.16183 19.3933 6.57883 19.1183C5.69772 18.7058 5.53209 18.5996 5.56522 18.5121C5.74409 18.0683 6.73121 16.2997 6.88358 16.1559C7.2612 15.7997 7.72495 15.7184 8.20194 15.9247Z" fill="white"/>
<path d="M18.2713 10.4123C15.926 10.881 14.2698 12.8059 14.2632 15.0683C14.2632 16.3995 14.7998 17.6308 15.9592 18.9245C16.6879 19.7494 17.6684 20.5556 20.6364 22.7931C22.7034 24.3493 22.8557 24.4243 23.5447 24.243C23.7832 24.1805 27.1951 21.6556 28.5797 20.5181C30.8189 18.6807 31.806 17.1995 31.9849 15.4246C32.0379 14.8996 31.9253 14.0434 31.7861 13.8246C31.6536 13.6434 31.3489 13.5871 31.0972 13.7059C30.8322 13.8371 30.799 13.9746 30.8918 14.5746C31.064 15.6496 30.6864 16.7683 29.7788 17.9057C29.3084 18.4932 28.2948 19.4307 27.2481 20.2494C25.8237 21.3619 23.2002 23.3055 23.1207 23.3055C23.028 23.3055 19.53 20.6744 18.5031 19.8369C17.0722 18.6745 16.2838 17.812 15.82 16.912C15.4292 16.1433 15.3033 15.6183 15.343 14.8996C15.4292 13.3309 16.5289 11.981 18.1189 11.4872C18.523 11.3622 18.7284 11.3372 19.3644 11.3435C20.0269 11.3435 20.1925 11.3685 20.6231 11.5185C21.3055 11.7622 21.9084 12.156 22.4052 12.6809C22.8027 13.0997 22.8359 13.1184 23.1141 13.1184C23.3923 13.1184 23.4321 13.0934 24.0217 12.5372C24.7107 11.881 25.1745 11.6185 25.9628 11.431C27.2414 11.1185 28.5134 11.4247 29.6132 12.2934C29.8715 12.5059 30.1233 12.6809 30.1763 12.6872C30.5738 12.7372 30.8255 12.5497 30.8255 12.2122C30.8255 12.0247 30.7659 11.931 30.5009 11.681C30.057 11.2622 29.3283 10.831 28.7188 10.6185C26.8572 9.98103 24.8896 10.3498 23.4586 11.606L23.1406 11.881L22.7961 11.5872C21.5572 10.5248 19.8613 10.0873 18.2713 10.4123Z" fill="white"/>
<path d="M21.8755 14.4862C21.69 14.6674 21.6834 14.6861 21.6834 15.2986V15.9298H21.0872C20.4446 15.9298 20.1531 16.0173 20.0272 16.2361C19.9941 16.3048 19.9609 16.7736 19.9609 17.3048C19.9609 17.836 19.9941 18.3048 20.0272 18.3735C20.1531 18.5923 20.4446 18.6797 21.0872 18.6797H21.6834V19.2797C21.6834 20.2484 21.7695 20.3047 23.1674 20.3047H24.1346L24.3466 20.1234C24.5653 19.9422 24.5653 19.9297 24.5851 19.311L24.6116 18.6797H25.241C25.8704 18.6797 25.8704 18.6797 26.0956 18.4673L26.3209 18.2548V17.3048V16.3548L26.0956 16.1423C25.8704 15.9298 25.8704 15.9298 25.241 15.9298H24.6116L24.5851 15.2986C24.5653 14.6799 24.5653 14.6674 24.3466 14.4862L24.1346 14.3049H23.1012H22.0677L21.8755 14.4862ZM23.5384 15.8986C23.5384 16.4611 23.545 16.4986 23.7305 16.6923C23.9227 16.8986 23.9359 16.8986 24.5918 16.9173L25.2609 16.9423V17.3048V17.6673L24.5918 17.6923C23.9359 17.711 23.9227 17.711 23.7305 17.9173C23.545 18.111 23.5384 18.1485 23.5384 18.711V19.3047H23.1409H22.7434V18.7735C22.7434 17.8735 22.538 17.6798 21.584 17.6798H21.0209V17.3048V16.9298H21.584C22.538 16.9298 22.7434 16.7361 22.7434 15.8361V15.3049H23.1409H23.5384V15.8986Z" fill="black"/>
</svg>
