<svg width="70" height="70" viewBox="0 0 70 70" fill="none" xmlns="http://www.w3.org/2000/svg">
<path d="M57.0801 6.221C56.7793 6.50811 56.7383 6.67217 56.7383 7.58819C56.7383 8.5042 56.7793 8.66827 57.0801 8.95538C57.4355 9.32452 57.7773 9.3792 58.2969 9.14678C58.7754 8.92803 58.9668 8.35381 58.8984 7.30108C58.8574 6.54913 58.7891 6.34405 58.5293 6.13897C58.0781 5.76983 57.4766 5.81084 57.0801 6.221Z" fill="#E5E7EB"/>
<path d="M11.0195 9.72086C10.6914 9.98063 10.6641 10.0763 10.6641 11.1427C10.6641 12.2091 10.6914 12.3048 11.0195 12.5646C11.6758 13.0841 12.4414 12.8927 12.7012 12.1545C13.043 11.1564 12.7969 9.85758 12.2227 9.58414C11.7305 9.36539 11.4297 9.39274 11.0195 9.72086Z" fill="#E5E7EB"/>
<path d="M53.9627 9.5293C53.6072 9.625 53.2928 10.3359 53.3885 10.8145C53.5252 11.4297 53.9217 11.6211 55.0701 11.6211C55.9451 11.6211 56.1092 11.5801 56.3963 11.2793C56.615 11.0742 56.7381 10.7871 56.7381 10.5273C56.7381 10.2676 56.615 9.98047 56.3963 9.77539C56.1092 9.47461 55.9588 9.43359 55.1385 9.44727C54.6326 9.46094 54.0994 9.48828 53.9627 9.5293Z" fill="#E5E7EB"/>
<path d="M59.2811 9.73438C58.9119 10.0762 58.8162 10.4043 58.9666 10.9512C59.0897 11.416 59.5818 11.6211 60.6209 11.6211C61.742 11.6211 62.2068 11.3066 62.2068 10.5273C62.2068 9.73438 61.7557 9.43359 60.5525 9.43359C59.7869 9.43359 59.5682 9.48828 59.2811 9.73438Z" fill="#E5E7EB"/>
<path d="M57.3262 11.8946C56.875 12.0724 56.7383 12.4688 56.7383 13.5763C56.7383 14.4513 56.7793 14.6153 57.0527 14.8751C57.4492 15.2442 58.1055 15.2579 58.5293 14.9161C58.7891 14.711 58.8574 14.506 58.8984 13.754C58.9668 12.7013 58.7754 12.127 58.2969 11.9083C57.9004 11.7306 57.7363 11.7306 57.3262 11.8946Z" fill="#E5E7EB"/>
<path d="M7.8066 13.1797C7.17769 13.5215 7.06832 14.3281 7.58785 14.834C7.87496 15.1348 8.03902 15.1758 8.95504 15.1758C9.87105 15.1758 10.0351 15.1348 10.3222 14.834C10.8691 14.3008 10.7597 13.5215 10.1035 13.1934C9.62496 12.9336 8.2441 12.9336 7.8066 13.1797Z" fill="#E5E7EB"/>
<path d="M13.111 13.3848C12.7555 13.7539 12.7008 13.8906 12.7692 14.2598C12.9059 14.9844 13.275 15.1758 14.4781 15.1758C15.4078 15.1758 15.5719 15.1348 15.8317 14.8613C16.2008 14.4648 16.2145 13.8086 15.8727 13.3848C15.6539 13.1113 15.4625 13.0566 14.5738 13.0156C13.5758 12.9609 13.5348 12.9746 13.111 13.3848Z" fill="#E5E7EB"/>
<path d="M11.3887 15.4221C10.8555 15.5041 10.6641 15.9553 10.6641 17.1174C10.6641 18.0061 10.7051 18.2248 10.9375 18.4573C11.293 18.8127 12.0312 18.8127 12.4551 18.4709C12.7559 18.2385 12.7832 18.1018 12.7832 17.1174C12.7832 15.6955 12.4277 15.258 11.3887 15.4221Z" fill="#E5E7EB"/>
<path d="M22.0116 15.7501C21.4647 16.0372 20.453 17.3087 12.619 27.754C7.77914 34.1798 3.73227 39.7032 3.60922 40.0177C3.34946 40.6876 3.43149 41.5763 3.80063 42.1231C4.1561 42.6563 5.87875 44.1466 7.68344 45.5001C15.9959 51.6661 26.1815 54.879 36.2987 54.4962C47.0311 54.0997 56.6698 50.3263 64.7225 43.3536C66.4998 41.8224 66.8963 40.9474 66.3905 39.7442C66.1034 39.047 48.5897 16.2423 48.0702 15.8868C47.4823 15.4767 46.826 15.381 46.0741 15.586C45.6092 15.7091 45.2264 15.9962 44.3241 16.8985C42.5057 18.7032 40.8651 19.6876 38.3221 20.4669C37.2284 20.795 36.9276 20.836 34.9315 20.836C33.1268 20.836 32.5662 20.7813 31.6912 20.5353C29.2577 19.8653 27.3983 18.7989 25.4979 16.9532C23.8846 15.3946 23.201 15.1622 22.0116 15.7501ZM25.6346 20.0567C27.1795 21.2188 29.3123 22.2032 31.4315 22.7364C32.4159 22.9825 32.9901 23.0235 34.9315 23.0235C36.9823 23.0099 37.4061 22.9688 38.5682 22.6681C41.3983 21.9024 43.5174 20.7267 45.4998 18.8126C46.1971 18.1427 46.7987 17.6231 46.8397 17.6778C47.0858 17.9103 64.3944 40.5509 64.3944 40.6329C64.3944 40.756 62.2069 42.6563 62.0702 42.6563C62.0155 42.6563 60.5389 40.797 58.7889 38.5138C57.0389 36.2442 55.494 34.2755 55.3436 34.1388C54.7147 33.5919 53.5936 34.1251 53.5936 34.9591C53.5936 35.4376 53.4432 35.2325 57.0662 39.922C58.7069 42.0685 60.1151 43.8868 60.1834 43.9688C60.3202 44.1466 57.7635 45.8556 55.5487 47.086C48.3573 51.0509 39.3885 52.9513 31.3084 52.2267C25.3885 51.6798 20.2752 50.1896 14.9705 47.4688C12.9471 46.4161 9.70688 44.4063 9.70688 44.2013C9.70688 44.1466 10.951 42.4923 12.4549 40.5372C16.3651 35.4923 16.4061 35.4376 16.4061 34.9728C16.4061 34.2208 15.408 33.6329 14.7928 34.0294C14.6834 34.0841 13.1112 36.0665 11.2928 38.4317C9.47446 40.797 7.91586 42.7247 7.83383 42.7247C7.58774 42.7247 5.59164 40.961 5.66 40.797C5.71469 40.6603 20.494 20.8771 22.3807 18.4024L22.9959 17.5958L24.035 18.6212C24.6229 19.1817 25.3338 19.8243 25.6346 20.0567Z" fill="#E5E7EB"/>
<path d="M45.5273 20.3303C45.418 20.385 45.0215 20.6721 44.6387 20.9865C42.3418 22.9006 39.6484 23.9944 36.3125 24.3635C34.5898 24.5412 34.3164 24.7053 34.3164 25.5393C34.3164 26.3596 34.6445 26.5783 35.8887 26.551C38.0078 26.4963 40.9883 25.7307 42.957 24.7326C44.0508 24.1858 45.5684 23.1604 46.3203 22.4631C46.8125 21.9983 46.8945 21.8342 46.8945 21.3557C46.8945 20.549 46.2383 20.0569 45.5273 20.3303Z" fill="#E5E7EB"/>
<path d="M23.5567 25.9629C20.4258 27.0566 18.3887 29.832 18.4024 33.0176C18.4161 33.9609 18.4844 34.4394 18.7305 35.0683C19.3731 36.75 20.5899 38.1445 22.586 39.4844C23.9805 40.4277 25.252 41.6308 26.2501 42.957C27.6446 44.789 27.9317 45.1308 28.7794 45.8008C31.2266 47.7422 33.9337 48.4941 37.9805 48.3574C41.3028 48.248 44.9258 47.3867 47.3458 46.1152C49.2051 45.1445 50.5997 43.3672 51.0645 41.4121C51.42 39.8945 51.2559 37.1465 50.7364 35.793C50.6133 35.4785 50.6544 35.2734 50.9962 34.5625C51.7481 32.9765 51.4337 31.8144 50.0391 30.9121C47.1407 29.039 41.3028 27.8086 39.3751 28.6699C38.6231 28.998 37.9395 29.75 37.7208 30.4746C37.5704 30.9941 37.5567 31.0078 36.7774 31.0762C36.3536 31.1035 35.793 31.2539 35.5469 31.3769C35.2051 31.5547 35.0684 31.5683 35.0274 31.459C34.836 30.8847 33.4551 29.1211 32.4844 28.2051C30.5157 26.332 28.6426 25.5664 26.045 25.5664C24.8966 25.5664 24.5001 25.6347 23.5567 25.9629ZM27.3575 27.8086C28.8477 28.123 29.8594 28.7246 31.254 30.1328C32.2383 31.1172 32.6075 31.6094 33.045 32.498C33.9473 34.3027 33.9747 35.4648 33.1407 36.2988C31.9512 37.4883 33.2091 38.8965 34.6173 37.9394C35.3555 37.4472 35.8204 36.3808 35.9161 35C35.9844 34.0976 36.0528 33.8379 36.3262 33.5508C36.5997 33.25 36.7364 33.209 37.1602 33.2637C39.0059 33.5371 39.0196 33.5371 39.293 33.2363C39.4571 33.0586 39.5801 32.6484 39.6348 32.0605C39.7716 30.7617 40.0176 30.5566 41.3985 30.5703C43.3673 30.5976 46.4024 31.4043 48.2344 32.4023C49.1915 32.9219 49.3419 33.1406 49.0548 33.5234C48.8907 33.7285 48.754 33.6875 47.5782 33.2226C45.8965 32.539 44.0235 31.9922 43.0528 31.8965C42.3419 31.8281 42.2735 31.8418 42.0001 32.1972C41.6583 32.6211 41.6309 32.9219 41.8497 33.414C42.0274 33.7832 42.1368 33.8379 44.1739 34.3711C45.3223 34.6855 46.9903 35.2871 48.1661 35.834C48.5352 35.998 48.5762 36.0664 48.959 37.625C49.0411 37.9941 49.0958 38.8555 49.0548 39.6211C49.0137 40.7969 48.9454 41.084 48.5626 41.8633C47.7969 43.4219 46.6075 44.2695 44.0098 45.0898C41.3985 45.9238 40.1133 46.1289 37.3243 46.1289C35.1368 46.1289 34.6446 46.0879 33.7286 45.8281C31.377 45.1719 29.8868 44.1465 28.4102 42.1367C27.1524 40.4277 25.5528 38.8418 23.9669 37.7617C22.3946 36.6953 21.4376 35.7383 20.9591 34.7402C20.1387 33.0859 20.6173 30.9121 22.1485 29.3945C23.1192 28.4101 24.7598 27.6855 26.1133 27.6308C26.3048 27.6308 26.8653 27.7129 27.3575 27.8086Z" fill="#E5E7EB"/>
<path d="M59.7598 51.625C59.5273 51.9258 59.4727 52.1856 59.4727 52.9649C59.4863 53.5391 59.5547 54.0313 59.6641 54.168C59.9238 54.5235 60.5117 54.7012 60.8945 54.5508C61.4551 54.3457 61.6602 53.8946 61.6602 52.8965C61.6602 51.7207 61.3594 51.2696 60.5664 51.2696C60.1562 51.2696 59.9785 51.3516 59.7598 51.625Z" fill="#E5E7EB"/>
<path d="M10.9648 55.139C10.7051 55.4124 10.6641 55.6175 10.6641 56.5608C10.6641 57.5999 10.6914 57.6956 11.0195 57.9554C11.7715 58.5433 12.6328 58.1194 12.7832 57.094C12.9062 56.2874 12.7422 55.3987 12.4277 55.0843C12.0586 54.7151 11.334 54.7425 10.9648 55.139Z" fill="#E5E7EB"/>
<path d="M56.4509 55.084C55.9724 55.4668 56.0134 56.2598 56.5329 56.6973C56.8884 57.0117 57.0114 57.0391 57.9411 56.9844C58.8024 56.9434 58.9939 56.8887 59.2126 56.6153C59.5681 56.1778 59.5544 55.4942 59.1579 55.125C58.7204 54.7149 56.9431 54.6875 56.4509 55.084Z" fill="#E5E7EB"/>
<path d="M61.9332 55.0977C61.5504 55.4805 61.5641 56.3281 61.9469 56.6836C62.1793 56.8887 62.4391 56.9434 63.3004 56.9434C64.5992 56.9434 64.941 56.7246 64.941 55.8906C64.941 55.043 64.6129 54.8242 63.3004 54.8242C62.3844 54.8242 62.1656 54.8652 61.9332 55.0977Z" fill="#E5E7EB"/>
<path d="M59.8145 57.4901C59.5137 57.7772 59.4727 57.9413 59.4727 58.8573C59.4727 59.7733 59.5137 59.9374 59.8145 60.2245C60.2109 60.6347 60.8262 60.6757 61.2637 60.3065C61.5508 60.0741 61.5918 59.8964 61.6328 58.953C61.6875 57.914 61.6602 57.8319 61.332 57.5038C60.8809 57.039 60.252 57.039 59.8145 57.4901Z" fill="#E5E7EB"/>
<path d="M7.58789 58.7207C7.36914 58.9258 7.24609 59.2129 7.24609 59.4727C7.24609 59.7324 7.36914 60.0195 7.58789 60.2246C7.875 60.5254 8.03906 60.5664 8.95508 60.5664C9.87109 60.5664 10.0352 60.5254 10.3223 60.2246C10.7734 59.7871 10.7734 59.1582 10.3223 58.7207C10.0352 58.4199 9.87109 58.3789 8.95508 58.3789C8.03906 58.3789 7.875 58.4199 7.58789 58.7207Z" fill="#E5E7EB"/>
<path d="M13.1113 58.6389C12.8652 58.8303 12.7832 59.0354 12.7832 59.4592C12.7832 60.2932 13.0566 60.4846 14.3555 60.5393C15.3672 60.594 15.4629 60.5667 15.7773 60.2385C16.2422 59.7874 16.2422 59.1584 15.791 58.7209C15.5039 58.4202 15.3398 58.3792 14.4512 58.3792C13.6582 58.3792 13.3574 58.4338 13.1113 58.6389Z" fill="#E5E7EB"/>
<path d="M11.0195 60.9903C10.6914 61.2501 10.6641 61.3458 10.6641 62.3985C10.6641 63.3966 10.7051 63.5607 10.9785 63.8204C11.375 64.2032 12.0723 64.2169 12.4277 63.8614C12.7422 63.547 12.9199 62.5763 12.7832 61.8107C12.6191 60.8263 11.7441 60.4161 11.0195 60.9903Z" fill="#E5E7EB"/>
</svg>
