<svg width="70" height="70" viewBox="0 0 70 70" fill="none" xmlns="http://www.w3.org/2000/svg">
<g clip-path="url(#clip0_3791_107103)">
<path d="M60.539 0.342018C58.1875 1.16233 57.039 2.43382 55.7812 5.57835C55.5351 6.20725 55.2207 6.84983 55.084 7.01389C54.8379 7.31467 54.8379 7.31467 54.3867 7.0549C51.3379 5.33225 48.2754 4.40257 46.1426 4.55296L45.1855 4.62132L44.2695 3.74632C43.75 3.2678 43.1074 2.76194 42.834 2.62522C40.2363 1.31272 37.0098 2.40647 35.793 5.0178C35.2871 6.0842 35.1504 7.53342 35.4512 8.50412L35.6562 9.16037H34.7539C32.7988 9.16037 30.543 10.0627 28.8476 11.5256C28.2871 12.0178 24.8555 15.3811 21.2324 19.0178C15.5312 24.76 14.6426 25.7033 14.5605 26.1408C14.4375 26.8108 14.7109 27.3576 15.3262 27.6584C16.2422 28.0959 16.3242 28.0412 20.5898 23.7756L24.5273 19.8244L27.1523 22.4221L29.7637 25.0198H30.3789C30.8574 25.0198 31.0762 24.9377 31.3496 24.6643C31.7871 24.2405 31.9375 23.5295 31.7187 23.092C31.623 22.9143 30.4336 21.6428 29.0664 20.2619L26.5918 17.76L28.7793 15.5998C31.0625 13.344 31.9238 12.7287 33.3594 12.2776C34.8906 11.7854 36.8457 12.0315 38.418 12.8928C39.498 13.4807 56.5195 30.5022 57.1074 31.5823C58.2832 33.7424 58.2695 36.0119 57.039 38.2131C56.3691 39.4162 29.5176 66.2541 28.5058 66.7326C28.0273 66.9651 27.5078 67.0744 26.7832 67.1018C24.8144 67.1975 25.5664 67.8401 13.9863 56.2873C6.63084 48.9455 3.59569 45.8283 3.32225 45.3362C2.98045 44.7209 2.93944 44.5022 2.93944 43.4084C2.93944 41.5217 3.02147 41.4123 7.10936 37.2561C9.37889 34.9592 10.664 33.5647 10.7187 33.3323C10.9375 32.3889 10.0215 31.4729 9.03709 31.6506C8.61327 31.719 7.99803 32.2795 4.92186 35.383C1.09373 39.2248 0.724593 39.7033 0.218734 41.4123C-0.0957192 42.4787 -0.0683755 44.3791 0.273421 45.5276C0.423812 46.0334 0.779281 46.7991 1.08006 47.2502C1.80467 48.344 22.1074 68.6057 22.9961 69.1116C24.5273 69.9729 26.9336 70.2737 28.5879 69.7815C30.5019 69.2209 30.0371 69.6448 44.2832 55.4533C51.5976 48.1526 57.9824 41.7131 58.4746 41.1526C59.9375 39.4573 60.8398 37.2014 60.8398 35.2463V34.344L61.4961 34.549C62.4668 34.8498 63.916 34.7131 64.9824 34.2073C67.5937 32.9905 68.6875 29.7639 67.375 27.1662C67.2383 26.8928 66.7324 26.2502 66.2539 25.7307L65.3789 24.8147L65.4473 23.8576C65.5976 21.7248 64.668 18.6623 62.9453 15.6135C62.6855 15.1623 62.6855 15.1623 62.9863 14.9162C63.1504 14.7795 63.793 14.4651 64.4219 14.219C66.9238 13.2209 67.9082 12.5373 68.8379 11.1428C70.3965 8.79123 70.3965 5.44163 68.8515 3.10374C67.498 1.06663 65.3926 -0.0134583 62.7812 0.0138855C61.7558 0.0138855 61.25 0.0959244 60.539 0.342018ZM64.7773 3.2678C65.5156 3.65061 66.3496 4.47092 66.7461 5.22288C67.0058 5.71507 67.0605 6.01585 67.0605 7.10959C67.0605 8.20334 67.0058 8.50412 66.7461 9.00998C66.2129 9.99436 65.3926 10.678 64.1074 11.1975C61.4414 12.2776 60.3613 13.0569 59.9375 14.1643C59.5957 15.0803 59.7461 15.7776 60.7578 17.678C61.5508 19.1955 62.3437 21.1643 62.3437 21.6291C62.3437 21.7248 59.1719 18.635 55.3027 14.7658C51.4336 10.8967 48.3164 7.71115 48.3848 7.68381C48.6582 7.58811 50.75 8.42209 52.3223 9.2424C54.2226 10.2541 54.9199 10.4045 55.8359 10.0627C56.9433 9.63889 57.6543 8.64084 58.707 6.09787C59.2812 4.70335 59.6777 4.1428 60.4297 3.62327C61.3047 3.02171 61.8926 2.85764 63.0957 2.91233C63.8887 2.95335 64.3535 3.04905 64.7773 3.2678ZM41.3301 5.14085C41.9316 5.44163 64.4902 27.9729 64.8183 28.6018C65.2695 29.4905 65.0781 30.4748 64.3125 31.1994C63.5605 31.8967 62.6855 32.0334 61.8242 31.5959C61.1953 31.2678 38.664 8.7092 38.3633 8.10764C37.4883 6.34397 39.5664 4.26585 41.3301 5.14085Z" fill="#E5E7EB"/>
<path d="M34.0293 27.1936C33.7148 27.508 33.6328 27.7131 33.6328 28.1643C33.6328 29.2307 34.4805 29.8596 35.4648 29.5315C36.9277 29.0529 36.5449 26.7971 35 26.7971C34.5488 26.7971 34.3438 26.8791 34.0293 27.1936Z" fill="#E5E7EB"/>
<path d="M11.8261 28.6152C11.1972 29.2441 11.1699 29.873 11.7441 30.5156C12.0859 30.8984 12.2363 30.9668 12.7695 30.9668C13.6445 30.9668 14.1503 30.4609 14.1503 29.5996C14.1503 28.8203 13.6855 28.3145 12.8789 28.2051C12.373 28.1367 12.2636 28.1777 11.8261 28.6152Z" fill="#E5E7EB"/>
<path d="M43.832 31.9242C43.2578 32.225 43.0801 32.5257 43.0664 33.2093V33.8109L46.1699 36.9281C49.4785 40.264 49.7793 40.4828 50.6406 40.1957C51.2422 40.0043 51.543 39.5394 51.543 38.8148C51.543 38.2543 51.4883 38.1859 48.5078 35.1644C45.7598 32.4027 44.9531 31.7191 44.4062 31.7191C44.3105 31.7191 44.0508 31.8148 43.832 31.9242Z" fill="#E5E7EB"/>
<path d="M37.0098 38.6367C36.545 39.1016 36.4219 39.7715 36.6817 40.2773C36.8047 40.4961 38.2676 42.041 39.9493 43.709L43.0118 46.7578H43.6407C44.7071 46.7578 45.3497 45.8008 44.9395 44.8301C44.8301 44.5566 43.4219 43.0527 41.6719 41.3164L38.5958 38.2812H37.9805C37.502 38.2812 37.2833 38.3633 37.0098 38.6367Z" fill="#E5E7EB"/>
<path d="M31.0762 44.8029C30.9121 44.8302 30.625 45.0216 30.4336 45.213C30.1602 45.4865 30.0781 45.7052 30.0781 46.1837V46.8127L33.25 49.9982C36.6406 53.3888 36.8594 53.5529 37.7344 53.1837C38.2676 52.965 38.5547 52.4865 38.5547 51.8029C38.5547 51.2423 38.5 51.174 35.6562 48.3029C34.0566 46.6896 32.5938 45.2541 32.4023 45.131C32.0059 44.8439 31.5137 44.7209 31.0762 44.8029Z" fill="#E5E7EB"/>
<path d="M24.2404 51.434C24.09 51.5023 23.8439 51.7758 23.7208 52.0082C23.2286 52.9105 23.3654 53.1019 26.7697 56.5062C29.8595 59.5961 30.2423 59.8969 30.9943 59.7738C31.3908 59.7191 31.9513 59.1449 32.0197 58.7211C32.1837 57.9144 31.9923 57.6684 28.9982 54.6469C27.3712 53.0062 25.881 51.5707 25.6759 51.4613C25.2521 51.2426 24.6642 51.2289 24.2404 51.434Z" fill="#E5E7EB"/>
</g>
<defs>
<clipPath id="clip0_3791_107103">
<rect width="70" height="70" fill="white"/>
</clipPath>
</defs>
</svg>
