<svg width="32" height="32" viewBox="0 0 32 32" fill="none" xmlns="http://www.w3.org/2000/svg">
<path d="M16.7188 0.0437489C15.3 0.225 13.6938 0.86875 12.4875 1.73125C11.925 2.13125 9.58125 4.39375 9.04375 5.05C8.59375 5.6 8.2375 6.275 8.025 6.96875C7.875 7.4625 7.85625 7.6375 7.85625 8.40625C7.85625 9.175 7.875 9.35 8.025 9.84375C8.11875 10.15 8.30625 10.6125 8.44375 10.8562L8.69375 11.3125H7.925C7.5 11.3125 7.05625 11.3438 6.9375 11.375C6.3125 11.55 5.7 12.1187 5.48125 12.7375C5.375 13.025 5.35625 13.0437 5.0125 13.15C4.2875 13.3687 3.69375 13.8938 3.35625 14.6125C3.16875 15.0125 3.15625 15.0687 3.15625 15.7812C3.15625 16.4937 3.16875 16.55 3.35625 16.9563C3.71875 17.7125 4.5375 18.3625 5.2875 18.475C5.45 18.5 5.54375 18.5437 5.525 18.5875C5.45625 18.775 5.4 20.3688 5.44375 21.075C5.575 23.35 6.43125 25.5938 7.85625 27.45C8.11875 27.7937 8.15 27.8125 8.4 27.8125C8.725 27.8125 8.9 27.65 8.9 27.3562C8.9 27.2125 8.7875 27.0062 8.4875 26.5938C6.975 24.5187 6.28125 22.1375 6.44375 19.5813C6.5625 17.725 7.2 15.8438 8.225 14.3313C8.7375 13.5813 8.825 13.475 9.45 12.8375L9.94375 12.325L10.7188 12.3062C11.6188 12.275 11.75 12.2125 11.75 11.8C11.75 11.375 11.625 11.3125 10.7562 11.3125H10.0062L9.79375 11.0437C9.44375 10.6187 9.20625 10.1875 9.025 9.65625C8.875 9.21875 8.85 9.0625 8.85625 8.40625C8.85625 7.76875 8.88125 7.58125 9.0125 7.16875C9.31875 6.25 9.575 5.9125 11.15 4.34375C11.9438 3.55 12.7688 2.78125 12.9875 2.625C14.3375 1.64375 15.75 1.125 17.4 1C18.4438 0.918749 21.3875 0.918749 22.2812 1C23.7875 1.13125 24.9375 1.65 26.0125 2.675C26.8062 3.43125 27.3875 4.39375 27.6875 5.44375C27.7812 5.775 27.8375 6.1875 27.8687 6.89375C27.9125 7.7875 27.925 7.89375 28.05 8.0125C28.225 8.1875 28.5688 8.19375 28.7563 8.03125C28.8875 7.9125 28.8875 7.875 28.8563 6.84375C28.8313 5.95 28.8 5.6875 28.6625 5.1875C28.3375 4.03125 27.775 3.0375 26.9438 2.175C25.9 1.075 24.6125 0.36875 23.1688 0.09375C22.7688 0.0187492 22.1313 0 19.7875 0.00625038C18.2063 0.0124989 16.825 0.03125 16.7188 0.0437489ZM8.11875 12.7625C7.21875 13.8313 6.38125 15.3687 5.95625 16.7312C5.7375 17.4437 5.70625 17.5 5.5625 17.5C5.16875 17.4937 4.6 17.1 4.33125 16.6438C4.1 16.25 4.05625 15.5188 4.23125 15.1187C4.50625 14.5062 5.05 14.1 5.725 14.025C6.1625 13.9688 6.28125 13.8625 6.3375 13.4625C6.4 13.0437 6.6375 12.6625 6.95625 12.475C7.19375 12.3313 7.2875 12.3125 7.8625 12.3125H8.5L8.11875 12.7625Z" fill="white"/>
<path d="M21.775 5.44309C21.6625 5.56809 21.6562 5.71809 21.6375 7.93059L21.6187 10.2806L21.1062 10.7931L20.5937 11.3118H19.8687C19.0125 11.3118 18.85 11.3868 18.85 11.7681C18.85 12.0556 19.0062 12.2306 19.325 12.2806L19.575 12.3243L18.6687 13.2431C17.5062 14.4243 17.4062 14.5993 17.4062 15.4993C17.4062 16.0556 17.4312 16.1993 17.55 16.4431L17.6937 16.7243L17.5375 17.0056C16.8875 18.1681 17.2375 19.7306 18.3187 20.5306C19.2812 21.2368 20.6625 21.2431 21.6062 20.5368C22.1125 20.1556 27.2312 14.9993 27.5875 14.5056L27.8812 14.0993L27.8625 17.9431C27.8375 22.2618 27.8437 22.1681 27.3187 23.7493C26.125 27.3181 23.075 30.0118 19.3562 30.7868C16.1812 31.4493 12.9062 30.6493 10.375 28.5931C9.89998 28.2056 9.68748 28.1306 9.46873 28.2743C9.03123 28.5618 9.11248 28.8743 9.73748 29.3806C11.2187 30.5743 12.9187 31.3681 14.9062 31.7931C15.6687 31.9556 15.8187 31.9618 17.2812 31.9618C18.675 31.9681 18.9125 31.9493 19.4937 31.8243C21.8125 31.3181 23.6562 30.3306 25.3062 28.7243C27.0625 27.0056 28.1812 24.9618 28.7 22.5243L28.8437 21.8431L28.8625 15.5806C28.8812 9.35559 28.8812 9.31809 28.75 9.18684C28.5875 9.02434 28.2312 9.01809 28.0687 9.18059C27.9125 9.33684 27.8875 9.51809 27.8562 10.6556C27.8312 11.4681 27.8062 11.6618 27.6562 12.1243C27.2687 13.3181 26.8875 13.8681 25.4125 15.3618L24.35 16.4431L22.4875 14.5806L20.625 12.7181L21.45 11.8931L22.2687 11.0681L22.4437 11.1618C22.8062 11.3431 23.1937 11.2243 23.275 10.8993C23.3437 10.6368 23.2125 10.4118 22.9062 10.2618L22.625 10.1243V7.84309C22.625 5.64309 22.6187 5.55559 22.5 5.43684C22.325 5.26184 21.9375 5.26809 21.775 5.44309ZM22.3562 18.4243C20.9062 19.8806 20.6375 20.0618 19.9687 20.0618C19.2687 20.0618 18.6187 19.6243 18.3312 18.9556C18.2 18.6431 18.2 17.9806 18.3312 17.6681C18.3875 17.5368 18.6 17.2556 18.8 17.0431C19.3625 16.4556 19.4312 16.2368 19.1562 15.9681C18.9937 15.7993 18.6062 15.7493 18.525 15.8806C18.4562 15.9993 18.375 15.8056 18.375 15.5118C18.375 15.0806 18.525 14.8306 19.2312 14.1118L19.9 13.4306L21.7625 15.2931L23.625 17.1556L22.3562 18.4243Z" fill="white"/>
<path d="M12.8563 18.5621C11.9126 18.7996 11.1563 19.6934 11.0751 20.6559L11.0438 21.0434L10.6438 21.0809C8.8313 21.2496 7.88755 23.3684 8.9563 24.8621C9.33755 25.3934 10.1376 25.8121 10.7813 25.8121H11.0626V26.0934C11.0626 26.7371 11.4813 27.5371 12.0126 27.9184C13.5251 28.9996 15.5938 28.0559 15.7938 26.1871L15.8313 25.8309L16.2438 25.7871C16.8063 25.7371 17.3376 25.4684 17.7438 25.0309C18.1688 24.5559 18.3376 24.1184 18.3376 23.4371C18.3376 22.6934 18.1688 22.2809 17.6626 21.7746C17.2376 21.3496 16.8063 21.1496 16.1876 21.0809L15.8313 21.0434L15.7938 20.6871C15.7251 20.0684 15.5251 19.6371 15.1001 19.2121C14.8188 18.9309 14.6188 18.7934 14.3438 18.6934C13.9251 18.5309 13.2188 18.4746 12.8563 18.5621ZM13.8376 19.5746C13.9938 19.6246 14.2063 19.7684 14.3813 19.9434C14.6126 20.1684 14.6876 20.2996 14.7501 20.5746C14.8251 20.8934 14.8188 21.0434 14.7126 21.6371C14.6813 21.8309 14.7001 21.8934 14.8438 22.0309C14.9813 22.1746 15.0438 22.1934 15.2376 22.1559C16.1501 21.9996 16.5126 22.0684 16.9438 22.4996C17.4813 23.0371 17.5001 23.7621 16.9876 24.3371C16.5876 24.7934 16.1751 24.8871 15.2376 24.7184C15.0438 24.6809 14.9813 24.6996 14.8438 24.8434C14.7001 24.9809 14.6813 25.0434 14.7188 25.2371C14.8688 26.0871 14.8063 26.4621 14.4501 26.8809C13.9126 27.5121 13.0376 27.5371 12.4563 26.9371C12.1563 26.6246 12.0438 26.2809 12.0876 25.8059C12.1688 25.0059 12.1626 24.9309 12.0001 24.7996C11.8813 24.7059 11.7938 24.6871 11.6251 24.7184C10.7626 24.8746 10.3251 24.7996 9.93755 24.4184C9.3438 23.8371 9.36255 22.9871 9.98755 22.4246C10.3813 22.0684 10.7813 22.0059 11.6251 22.1559C11.7938 22.1871 11.8813 22.1684 12.0001 22.0746C12.1626 21.9434 12.1688 21.8684 12.0876 21.0684C12.0438 20.5746 12.1563 20.2434 12.4938 19.9121C12.8813 19.5371 13.3251 19.4246 13.8376 19.5746Z" fill="white"/>
</svg>
