<svg width="32" height="32" viewBox="0 0 32 32" fill="none" xmlns="http://www.w3.org/2000/svg">
<path d="M26.0938 2.84294C25.9563 2.97419 25.9375 3.04919 25.9375 3.46794C25.9375 3.88669 25.9563 3.96169 26.0938 4.09294C26.2562 4.26169 26.4125 4.28669 26.65 4.18044C26.8688 4.08044 26.9563 3.81794 26.925 3.33669C26.9062 2.99294 26.875 2.89919 26.7563 2.80544C26.55 2.63669 26.275 2.65544 26.0938 2.84294Z" fill="white"/>
<path d="M5.0375 4.44287C4.8875 4.56162 4.875 4.60537 4.875 5.09287C4.875 5.58037 4.8875 5.62412 5.0375 5.74287C5.3375 5.98037 5.6875 5.89287 5.80625 5.55537C5.9625 5.09912 5.85 4.50537 5.5875 4.38037C5.3625 4.28037 5.225 4.29287 5.0375 4.44287Z" fill="white"/>
<path d="M24.6689 4.35625C24.5064 4.4 24.3626 4.725 24.4064 4.94375C24.4689 5.225 24.6501 5.3125 25.1751 5.3125C25.5751 5.3125 25.6501 5.29375 25.7814 5.15625C25.8814 5.0625 25.9376 4.93125 25.9376 4.8125C25.9376 4.69375 25.8814 4.5625 25.7814 4.46875C25.6501 4.33125 25.5814 4.3125 25.2064 4.31875C24.9751 4.325 24.7314 4.3375 24.6689 4.35625Z" fill="white"/>
<path d="M27.1002 4.45C26.9315 4.60625 26.8877 4.75625 26.9565 5.00625C27.0127 5.21875 27.2377 5.3125 27.7127 5.3125C28.2252 5.3125 28.4377 5.16875 28.4377 4.8125C28.4377 4.45 28.2315 4.3125 27.6815 4.3125C27.3315 4.3125 27.2315 4.3375 27.1002 4.45Z" fill="white"/>
<path d="M26.2063 5.43771C26 5.51896 25.9375 5.70021 25.9375 6.20646C25.9375 6.60646 25.9563 6.68146 26.0812 6.80021C26.2625 6.96896 26.5625 6.97521 26.7563 6.81896C26.875 6.72521 26.9062 6.63146 26.925 6.28771C26.9563 5.80646 26.8688 5.54396 26.65 5.44396C26.4688 5.36271 26.3938 5.36271 26.2063 5.43771Z" fill="white"/>
<path d="M3.56875 6.025C3.28125 6.18125 3.23125 6.55 3.46875 6.78125C3.6 6.91875 3.675 6.9375 4.09375 6.9375C4.5125 6.9375 4.5875 6.91875 4.71875 6.78125C4.96875 6.5375 4.91875 6.18125 4.61875 6.03125C4.4 5.9125 3.76875 5.9125 3.56875 6.025Z" fill="white"/>
<path d="M5.99408 6.11875C5.83158 6.2875 5.80658 6.35 5.83783 6.51875C5.90033 6.85 6.06908 6.9375 6.61908 6.9375C7.04408 6.9375 7.11908 6.91875 7.23783 6.79375C7.40658 6.6125 7.41283 6.3125 7.25658 6.11875C7.15658 5.99375 7.06908 5.96875 6.66283 5.95C6.20658 5.925 6.18783 5.93125 5.99408 6.11875Z" fill="white"/>
<path d="M5.20625 7.05038C4.9625 7.08788 4.875 7.29413 4.875 7.82538C4.875 8.23163 4.89375 8.33163 5 8.43788C5.1625 8.60038 5.5 8.60038 5.69375 8.44413C5.83125 8.33788 5.84375 8.27538 5.84375 7.82538C5.84375 7.17538 5.68125 6.97538 5.20625 7.05038Z" fill="white"/>
<path d="M10.0627 7.19926C9.81268 7.33051 9.35018 7.91176 5.76893 12.6868C3.55643 15.6243 1.70643 18.1493 1.65018 18.293C1.53143 18.5993 1.56893 19.0055 1.73768 19.2555C1.90018 19.4993 2.68768 20.1805 3.51268 20.7993C7.31268 23.618 11.9689 25.0868 16.5939 24.9118C21.5002 24.7305 25.9064 23.0055 29.5877 19.818C30.4002 19.118 30.5814 18.718 30.3502 18.168C30.2189 17.8493 22.2127 7.42426 21.9752 7.26176C21.7064 7.07426 21.4064 7.03051 21.0627 7.12426C20.8502 7.18051 20.6752 7.31176 20.2627 7.72426C19.4314 8.54926 18.6814 8.99926 17.5189 9.35551C17.0189 9.50551 16.8814 9.52426 15.9689 9.52426C15.1439 9.52426 14.8877 9.49926 14.4877 9.38676C13.3752 9.08051 12.5252 8.59301 11.6564 7.74926C10.9189 7.03676 10.6064 6.93051 10.0627 7.19926ZM11.7189 9.16801C12.4252 9.69926 13.4002 10.1493 14.3689 10.393C14.8189 10.5055 15.0814 10.5243 15.9689 10.5243C16.9064 10.518 17.1002 10.4993 17.6314 10.3618C18.9252 10.0118 19.8939 9.47426 20.8002 8.59926C21.1189 8.29301 21.3939 8.05551 21.4127 8.08051C21.5252 8.18676 29.4377 18.5368 29.4377 18.5743C29.4377 18.6305 28.4377 19.4993 28.3752 19.4993C28.3502 19.4993 27.6752 18.6493 26.8752 17.6055C26.0752 16.568 25.3689 15.668 25.3002 15.6055C25.0127 15.3555 24.5002 15.5993 24.5002 15.9805C24.5002 16.1993 24.4314 16.1055 26.0877 18.2493C26.8377 19.2305 27.4814 20.0618 27.5127 20.0993C27.5752 20.1805 26.4064 20.9618 25.3939 21.5243C22.1064 23.3368 18.0064 24.2055 14.3127 23.8743C11.6064 23.6243 9.26893 22.943 6.84393 21.6993C5.91893 21.218 4.43768 20.2993 4.43768 20.2055C4.43768 20.1805 5.00643 19.4243 5.69393 18.5305C7.48143 16.2243 7.50018 16.1993 7.50018 15.9868C7.50018 15.643 7.04393 15.3743 6.76268 15.5555C6.71268 15.5805 5.99393 16.4868 5.16268 17.568C4.33143 18.6493 3.61893 19.5305 3.58143 19.5305C3.46893 19.5305 2.55643 18.7243 2.58768 18.6493C2.61268 18.5868 9.36893 9.54301 10.2314 8.41176L10.5127 8.04301L10.9877 8.51176C11.2564 8.76801 11.5814 9.06176 11.7189 9.16801Z" fill="white"/>
<path d="M20.8125 9.29391C20.7625 9.31891 20.5813 9.45016 20.4062 9.59391C19.3563 10.4689 18.125 10.9689 16.6 11.1377C15.8125 11.2189 15.6875 11.2939 15.6875 11.6752C15.6875 12.0502 15.8375 12.1502 16.4062 12.1377C17.375 12.1127 18.7375 11.7627 19.6375 11.3064C20.1375 11.0564 20.8313 10.5877 21.175 10.2689C21.4 10.0564 21.4375 9.98141 21.4375 9.76266C21.4375 9.39391 21.1375 9.16891 20.8125 9.29391Z" fill="white"/>
<path d="M10.7689 11.8686C9.33763 12.3686 8.40638 13.6374 8.41263 15.0936C8.41888 15.5249 8.45013 15.7436 8.56263 16.0311C8.85638 16.7999 9.41263 17.4374 10.3251 18.0499C10.9626 18.4811 11.5439 19.0311 12.0001 19.6374C12.6376 20.4749 12.7689 20.6311 13.1564 20.9374C14.2751 21.8249 15.5126 22.1686 17.3626 22.1061C18.8814 22.0561 20.5376 21.6624 21.6439 21.0811C22.4939 20.6374 23.1314 19.8249 23.3439 18.9311C23.5064 18.2374 23.4314 16.9811 23.1939 16.3624C23.1376 16.2186 23.1564 16.1249 23.3126 15.7999C23.6564 15.0749 23.5126 14.5436 22.8751 14.1311C21.5501 13.2749 18.8814 12.7124 18.0001 13.1061C17.6564 13.2561 17.3439 13.5999 17.2439 13.9311C17.1751 14.1686 17.1689 14.1749 16.8126 14.2061C16.6189 14.2186 16.3626 14.2874 16.2501 14.3436C16.0939 14.4249 16.0314 14.4311 16.0126 14.3811C15.9251 14.1186 15.2939 13.3124 14.8501 12.8936C13.9501 12.0374 13.0939 11.6874 11.9064 11.6874C11.3814 11.6874 11.2001 11.7186 10.7689 11.8686ZM12.5064 12.7124C13.1876 12.8561 13.6501 13.1311 14.2876 13.7749C14.7376 14.2249 14.9064 14.4499 15.1064 14.8561C15.5189 15.6811 15.5314 16.2124 15.1501 16.5936C14.6064 17.1374 15.1814 17.7811 15.8251 17.3436C16.1626 17.1186 16.3751 16.6311 16.4189 15.9999C16.4501 15.5874 16.4814 15.4686 16.6064 15.3374C16.7314 15.1999 16.7939 15.1811 16.9876 15.2061C17.8314 15.3311 17.8376 15.3311 17.9626 15.1936C18.0376 15.1124 18.0939 14.9249 18.1189 14.6561C18.1814 14.0624 18.2939 13.9686 18.9251 13.9749C19.8251 13.9874 21.2126 14.3561 22.0501 14.8124C22.4876 15.0499 22.5564 15.1499 22.4251 15.3249C22.3501 15.4186 22.2876 15.3999 21.7501 15.1874C20.9814 14.8749 20.1251 14.6249 19.6814 14.5811C19.3564 14.5499 19.3251 14.5561 19.2001 14.7186C19.0439 14.9124 19.0314 15.0499 19.1314 15.2749C19.2126 15.4436 19.2626 15.4686 20.1939 15.7124C20.7189 15.8561 21.4814 16.1311 22.0189 16.3811C22.1876 16.4561 22.2064 16.4874 22.3814 17.1999C22.4189 17.3686 22.4439 17.7624 22.4251 18.1124C22.4064 18.6499 22.3751 18.7811 22.2001 19.1374C21.8501 19.8499 21.3064 20.2374 20.1189 20.6124C18.9251 20.9936 18.3376 21.0874 17.0626 21.0874C16.0626 21.0874 15.8376 21.0686 15.4189 20.9499C14.3439 20.6499 13.6626 20.1811 12.9876 19.2624C12.4126 18.4811 11.6814 17.7561 10.9564 17.2624C10.2376 16.7749 9.80013 16.3374 9.58138 15.8811C9.20638 15.1249 9.42513 14.1311 10.1251 13.4374C10.5689 12.9874 11.3189 12.6561 11.9376 12.6311C12.0251 12.6311 12.2814 12.6686 12.5064 12.7124Z" fill="white"/>
<path d="M27.3188 23.5989C27.2125 23.7364 27.1875 23.8552 27.1875 24.2114C27.1938 24.4739 27.225 24.6989 27.275 24.7614C27.3937 24.9239 27.6625 25.0052 27.8375 24.9364C28.0938 24.8427 28.1875 24.6364 28.1875 24.1802C28.1875 23.6427 28.05 23.4364 27.6875 23.4364C27.5 23.4364 27.4188 23.4739 27.3188 23.5989Z" fill="white"/>
<path d="M5.0125 25.2055C4.89375 25.3305 4.875 25.4243 4.875 25.8555C4.875 26.3305 4.8875 26.3743 5.0375 26.493C5.38125 26.7618 5.775 26.568 5.84375 26.0993C5.9 25.7305 5.825 25.3243 5.68125 25.1805C5.5125 25.0118 5.18125 25.0243 5.0125 25.2055Z" fill="white"/>
<path d="M25.8063 25.1815C25.5876 25.3565 25.6063 25.719 25.8438 25.919C26.0063 26.0628 26.0626 26.0753 26.4876 26.0503C26.8813 26.0315 26.9688 26.0065 27.0688 25.8815C27.2313 25.6815 27.2251 25.369 27.0438 25.2003C26.8438 25.0128 26.0313 25.0003 25.8063 25.1815Z" fill="white"/>
<path d="M28.3127 25.1875C28.1377 25.3625 28.144 25.75 28.319 25.9125C28.4252 26.0062 28.544 26.0312 28.9377 26.0312C29.5315 26.0312 29.6877 25.9312 29.6877 25.55C29.6877 25.1625 29.5377 25.0625 28.9377 25.0625C28.519 25.0625 28.419 25.0813 28.3127 25.1875Z" fill="white"/>
<path d="M27.3437 26.2804C27.2062 26.4117 27.1875 26.4867 27.1875 26.9054C27.1875 27.3242 27.2062 27.3992 27.3437 27.5304C27.525 27.7179 27.8062 27.7367 28.0062 27.5679C28.1375 27.4617 28.1562 27.3804 28.175 26.9492C28.2 26.4742 28.1875 26.4367 28.0375 26.2867C27.8312 26.0742 27.5437 26.0742 27.3437 26.2804Z" fill="white"/>
<path d="M3.46875 26.8438C3.36875 26.9375 3.3125 27.0687 3.3125 27.1875C3.3125 27.3063 3.36875 27.4375 3.46875 27.5312C3.6 27.6687 3.675 27.6875 4.09375 27.6875C4.5125 27.6875 4.5875 27.6687 4.71875 27.5312C4.925 27.3312 4.925 27.0437 4.71875 26.8438C4.5875 26.7063 4.5125 26.6875 4.09375 26.6875C3.675 26.6875 3.6 26.7063 3.46875 26.8438Z" fill="white"/>
<path d="M5.99375 26.8066C5.88125 26.8941 5.84375 26.9879 5.84375 27.1816C5.84375 27.5629 5.96875 27.6504 6.5625 27.6754C7.025 27.7004 7.06875 27.6879 7.2125 27.5379C7.425 27.3316 7.425 27.0441 7.21875 26.8441C7.0875 26.7066 7.0125 26.6879 6.60625 26.6879C6.24375 26.6879 6.10625 26.7129 5.99375 26.8066Z" fill="white"/>
<path d="M5.0375 27.8807C4.8875 27.9994 4.875 28.0432 4.875 28.5244C4.875 28.9807 4.89375 29.0557 5.01875 29.1744C5.2 29.3494 5.51875 29.3557 5.68125 29.1932C5.825 29.0494 5.90625 28.6057 5.84375 28.2557C5.76875 27.8057 5.36875 27.6182 5.0375 27.8807Z" fill="white"/>
</svg>
