<svg width="70" height="65" viewBox="0 0 70 65" fill="none" xmlns="http://www.w3.org/2000/svg">
<path d="M19.6098 0.0825958C17.3779 0.424385 15.2184 1.14896 13.6097 2.09229L12.3922 2.81687L11.4792 2.63914C9.37767 2.21533 7.00079 2.51611 4.97175 3.43208C2.63835 4.48478 1.07308 6.3851 0.31944 9.07836C0.0585629 9.99434 0.000590303 10.5685 0.000590303 12.6329C-0.0139029 15.5996 0.232481 17.0214 1.40643 20.8631C2.40646 24.1442 2.40646 24.1716 2.39196 25.5387C2.36298 26.9332 2.58037 27.3707 3.47895 27.6851C4.24709 27.9585 4.6384 27.8492 5.9138 26.9879C7.16021 26.1539 8.55156 24.6774 9.46462 23.2146L10.2328 22.0115L10.8994 22.5583C11.2618 22.8728 11.8995 23.2692 12.2908 23.4606C12.6966 23.652 13.0444 23.8298 13.0734 23.8571C13.1024 23.8708 13.001 24.486 12.856 25.2106C12.6096 26.4683 12.5807 26.5367 12.1169 26.7418C11.0299 27.2203 9.63854 28.9155 9.17476 30.3237C8.91388 31.1166 8.8849 31.5951 8.8849 36.4211V41.6572L6.87035 45.5809C4.6529 49.8737 4.50796 50.3249 4.79783 51.9108C5.11668 53.7154 6.30512 55.2329 7.97183 55.9848L8.87041 56.3813V62.8752C8.8849 70.2578 8.84142 69.9843 9.95739 69.9843C10.4067 69.9843 10.6531 69.9023 10.856 69.6972C11.1168 69.4238 11.1313 69.082 11.1748 63.3537L11.2183 57.2973L13.3923 58.1723C14.6387 58.6781 15.7981 59.0472 16.0735 59.0472C16.6822 59.0472 17.146 58.6371 17.146 58.1039C17.146 57.2153 17.2619 57.2836 12.1604 55.2739C9.5081 54.2349 8.58054 53.8111 8.17473 53.442C7.4066 52.7447 7.08775 52.0338 7.07325 51.0358C7.07325 50.2155 7.14572 50.0515 9.02983 46.4832C10.1023 44.4462 11.0299 42.7783 11.0879 42.7783C11.3053 42.7783 15.6967 44.8974 15.6967 44.9931C15.6967 45.0614 15.117 46.1961 14.4068 47.5359C13.6966 48.8621 13.0734 50.1472 13.0299 50.3933C12.885 50.9948 13.1604 51.8151 13.6242 52.2389C14.0879 52.649 22.1316 55.8891 22.9578 55.9985C23.3201 56.0532 24.1462 55.8618 25.8274 55.356C27.1318 54.9732 28.2333 54.6861 28.2767 54.7407C28.3347 54.7818 28.0738 55.0825 27.7115 55.397C26.9144 56.0805 26.7405 56.6137 27.0593 57.3246C27.2332 57.7211 27.4361 57.8988 28.0594 58.1586C29.0159 58.5551 29.4652 59.0472 29.4652 59.6898C29.4652 60.5374 28.6391 61.3714 27.7985 61.3714C27.6535 61.3714 26.0738 60.7835 24.2621 60.0726C22.4505 59.3617 20.8128 58.7738 20.6244 58.7738C19.4504 58.7875 19.1461 60.387 20.233 60.8655C20.4939 60.9886 22.0737 61.6174 23.7404 62.2737C26.581 63.3947 26.8564 63.4904 27.7985 63.4904C30.2768 63.4904 31.9435 61.7678 31.7551 59.389C31.6681 58.3773 31.1899 57.4887 30.4217 56.9145L29.9435 56.5454L30.3058 55.9438C30.929 54.8775 30.6391 53.5924 29.5666 52.8404C28.8275 52.3346 27.8999 52.4029 25.4216 53.1549L23.2041 53.8248L19.4214 52.3346C17.3344 51.5006 15.5807 50.7897 15.5228 50.735C15.4648 50.6804 16.8416 47.8914 18.5953 44.5556C21.5374 38.9503 21.7983 38.4035 21.8853 37.5695C22.0737 35.6008 20.9432 33.7142 19.0591 32.8392C18.3344 32.5111 18.0591 32.4564 16.9286 32.4564C15.7836 32.4564 15.5228 32.5111 14.7691 32.8529C13.5807 33.3997 12.885 34.138 11.9864 35.8059L11.2183 37.2414V34.302C11.2038 31.4857 11.2183 31.3354 11.5516 30.6655C11.9574 29.8588 12.8125 28.9019 13.3923 28.6147C13.9285 28.355 14.8851 28.3687 15.4503 28.6421C16.4069 29.1069 25.9289 35.259 26.3781 35.6965C27.0883 36.3938 27.4941 37.3644 27.4941 38.4035C27.4941 39.128 27.4072 39.4835 27.0158 40.2628C26.4071 41.4932 26.4796 41.8623 27.4072 42.6689C31.2623 45.9774 33.6102 49.0808 34.9436 52.649C36.4364 56.6411 36.0306 59.9222 33.7262 62.3284C33.4363 62.6291 32.7117 63.217 32.1174 63.6408C30.6101 64.7072 30.4942 65.008 30.4797 67.4004C30.4797 69.082 30.5087 69.3008 30.7841 69.6289C31.1609 70.08 32.0595 70.1347 32.5088 69.7109C32.7696 69.4648 32.7986 69.2597 32.7986 67.6739V65.9103L33.7262 65.2814C34.8711 64.5158 36.0306 63.3127 36.7552 62.1643C38.422 59.5121 38.6104 55.8755 37.2625 52.1432C36.0306 48.7253 33.132 44.5966 30.1898 42.0674L29.1753 41.1924L29.4942 40.4542C29.9145 39.4288 29.9145 37.4328 29.4942 36.3391C28.813 34.5481 28.1753 33.9466 24.639 31.7182C22.6969 30.5014 21.9722 29.9819 22.0157 29.8178C22.0447 29.6948 22.2041 28.9019 22.3635 28.0816C22.5375 27.2476 22.7114 26.441 22.7549 26.2769C22.8273 25.9762 22.8563 25.9898 24.2332 26.6461C25.0158 27.0015 25.8709 27.3433 26.1607 27.398C26.7695 27.5074 27.697 27.2886 28.1898 26.9195C28.7405 26.523 32.6102 21.1775 32.7262 20.658C32.7986 20.3026 32.7262 20.0155 32.3783 19.3319C31.6392 17.9101 31.7696 17.3222 32.8566 17.0214C33.8856 16.7343 35.3059 15.8457 35.8422 15.1484C36.3929 14.4375 36.7987 13.1934 37.0016 11.6759C37.6393 6.84993 34.2914 2.73484 28.1898 0.807182C26.3347 0.219315 24.523 -0.0130997 22.0737 0.000572205C20.9142 0.0142441 19.8127 0.0552521 19.6098 0.0825958ZM26.2767 2.58446C32.6827 4.17034 35.9871 8.36745 34.3784 12.879C34.016 13.9044 33.7117 14.2325 32.6682 14.711C31.1174 15.4355 29.3203 15.1621 27.4506 13.918C26.8854 13.5489 26.2767 13.2481 26.0738 13.2481C25.8709 13.2481 25.1317 13.5216 24.4361 13.8633C23.7404 14.2051 23.0882 14.4785 23.0012 14.4785C22.8998 14.4785 22.7693 14.3418 22.7114 14.1778C22.6679 14.0137 22.3201 13.5899 21.9577 13.2208C20.8852 12.1408 19.291 11.881 17.8996 12.5509C16.6098 13.1798 15.9286 14.3829 15.9286 16.0508C15.9286 17.2949 16.2329 18.1015 17.0735 19.0721L17.5953 19.66L16.7547 20.4666C15.3344 21.8338 14.4068 22.0798 13.1894 21.3963C11.9285 20.7127 10.8415 19.1405 10.3197 17.2538C9.59506 14.6426 10.1313 10.0764 11.4647 7.50615C12.2183 6.05699 14.03 4.34807 15.6242 3.58247C18.0011 2.44775 19.4649 2.16064 22.6534 2.229C24.5375 2.27002 25.3057 2.35204 26.2767 2.58446ZM10.4791 4.71719C10.4791 4.75821 10.3197 4.99062 10.1313 5.22304C8.87041 6.80891 7.92835 9.91232 7.65298 13.3848C7.52254 14.9024 7.76892 16.9804 8.26169 18.4706L8.63851 19.66L8.31966 20.4529C8.14575 20.8904 7.71095 21.6834 7.36312 22.2165C6.60947 23.3649 5.08769 24.9508 4.87029 24.8278C4.79783 24.7868 4.68188 24.3903 4.6384 23.9528C4.58043 23.5153 4.18911 21.9705 3.75432 20.535C2.56588 16.625 2.305 15.2305 2.305 12.7013C2.305 11.1427 2.37747 10.3498 2.55139 9.69357C3.27604 7.13703 4.95725 5.51013 7.58051 4.8539C8.34865 4.66251 10.4791 4.55314 10.4791 4.71719ZM20.2765 14.8067C20.6099 15.1211 20.7838 15.4492 20.8563 15.8594C20.9722 16.5429 21.465 17.0761 21.9722 17.0761C22.407 17.0761 23.7259 16.6523 24.9723 16.1054L25.9289 15.6953L26.784 16.1875C27.2622 16.4609 28.1173 16.8164 28.6681 16.9804L29.6826 17.2812L29.6971 18.2382C29.6971 18.8807 29.7985 19.4002 29.9869 19.8104L30.2768 20.4119L28.4797 22.8454C27.4941 24.1852 26.668 25.2789 26.639 25.2789C26.61 25.2789 25.639 24.8415 24.4795 24.2946C22.407 23.3376 22.3635 23.3239 21.7838 23.488C21.465 23.57 21.1026 23.7888 20.9867 23.9665C20.8707 24.1305 20.5664 25.2653 20.32 26.482C20.0012 28.0132 19.8127 28.6694 19.6968 28.6011C19.6098 28.5464 18.8707 28.0952 18.0591 27.5757C17.2475 27.0699 16.2184 26.5367 15.7981 26.4137L15.0155 26.1949L15.2619 25.0465C15.4068 24.4176 15.5373 23.8845 15.5662 23.8708C15.5952 23.8571 15.9865 23.6657 16.4503 23.4606C17.5083 22.9548 18.3489 22.2712 19.1316 21.2596C19.4939 20.8084 19.8852 20.4256 20.0156 20.4256C20.1461 20.4119 20.4359 20.3983 20.6678 20.3846C21.2186 20.3436 21.6389 19.9061 21.6389 19.3456C21.6389 18.621 21.2476 18.2792 20.378 18.2245C19.5229 18.1835 19.0156 17.9101 18.5953 17.2812C17.9576 16.2968 18.1605 14.9297 19.0301 14.5196C19.5664 14.2598 19.7403 14.3008 20.2765 14.8067ZM17.9431 34.8352C19.0446 35.3001 19.7548 36.4895 19.5519 37.5011C19.4504 37.9796 16.9286 42.915 16.7837 42.915C16.7402 42.915 15.6677 42.4228 14.3923 41.8213C12.4647 40.919 12.1024 40.6866 12.1748 40.4952C12.5662 39.5245 14.7256 35.6555 15.059 35.3411C15.8851 34.5618 16.8996 34.3841 17.9431 34.8352Z" fill="#E5E7EB"/>
<path d="M39.9734 22.7768C34.8429 23.8022 31.2196 28.013 31.2051 32.962C31.2051 35.874 32.379 38.5673 34.9153 41.3972C36.5096 43.2019 38.6546 44.9655 45.1475 49.8598C49.6694 53.264 50.0027 53.4281 51.51 53.0316C52.0318 52.8949 59.4957 47.3716 62.5248 44.8834C67.4235 40.8641 69.583 37.6239 69.9743 33.7413C70.0902 32.5929 69.8438 30.7199 69.5395 30.2414C69.2496 29.8449 68.5829 29.7219 68.0322 29.9816C67.4525 30.2687 67.38 30.5695 67.5829 31.882C67.9597 34.2334 67.1336 36.6806 65.1481 39.1688C64.119 40.4539 61.9016 42.5046 59.6117 44.2956C56.4956 46.7291 50.7564 50.9809 50.5824 50.9809C50.3795 50.9809 42.7271 45.2252 40.4807 43.3933C37.3502 40.8504 35.6255 38.9637 34.611 36.9951C33.7559 35.3135 33.4805 34.1651 33.5675 32.5929C33.7559 29.1614 36.1617 26.2083 39.6401 25.1283C40.5242 24.8549 40.9735 24.8002 42.3648 24.8139C43.8141 24.8139 44.1765 24.8685 45.1185 25.1967C46.6113 25.7298 47.9302 26.5911 49.0172 27.7395C49.8868 28.6555 49.9592 28.6965 50.5679 28.6965C51.1767 28.6965 51.2636 28.6418 52.5535 27.4251C54.0608 25.9896 55.0753 25.4154 56.8 25.0053C59.5972 24.3217 62.3799 24.9916 64.7857 26.8919C65.351 27.3567 65.9017 27.7395 66.0177 27.7532C66.8872 27.8626 67.438 27.4524 67.438 26.7142C67.438 26.304 67.3075 26.099 66.7278 25.5521C65.7568 24.6361 64.1625 23.6928 62.8292 23.228C58.7566 21.8335 54.4521 22.6401 51.3216 25.3881L50.6259 25.9896L49.8723 25.347C47.162 23.0229 43.4518 22.0659 39.9734 22.7768Z" fill="#E5E7EB"/>
<path d="M47.8604 31.687C47.4546 32.0835 47.4401 32.1245 47.4401 33.4644V34.8453H46.1357C44.7299 34.8453 44.0922 35.0367 43.8168 35.5153C43.7443 35.6657 43.6719 36.6911 43.6719 37.8533C43.6719 39.0154 43.7443 40.0408 43.8168 40.1912C44.0922 40.6698 44.7299 40.8612 46.1357 40.8612H47.4401V42.1737C47.4401 44.293 47.6285 44.416 50.6866 44.416H52.8026L53.2663 44.0195C53.7446 43.623 53.7446 43.5957 53.7881 42.2421L53.8461 40.8612H55.2229C56.5998 40.8612 56.5998 40.8612 57.0925 40.3963L57.5853 39.9315V37.8533V35.775L57.0925 35.3102C56.5998 34.8453 56.5998 34.8453 55.2229 34.8453H53.8461L53.7881 33.4644C53.7446 32.1108 53.7446 32.0835 53.2663 31.687L52.8026 31.2905H50.5416H48.2807L47.8604 31.687ZM51.4982 34.777C51.4982 36.0075 51.5127 36.0895 51.9185 36.5134C52.3388 36.9645 52.3678 36.9645 53.8026 37.0056L55.2664 37.0603V37.8533V38.6463L53.8026 38.7009C52.3678 38.742 52.3388 38.742 51.9185 39.1932C51.5127 39.617 51.4982 39.699 51.4982 40.9295V42.2284H50.6286H49.759V41.0663C49.759 39.0974 49.3097 38.6736 47.2227 38.6736H45.9908V37.8533V37.0329H47.2227C49.3097 37.0329 49.759 36.6091 49.759 34.6402V33.4781H50.6286H51.4982V34.777Z" fill="#E5E7EB"/>
</svg>
