<svg width="32" height="32" viewBox="0 0 32 32" fill="none" xmlns="http://www.w3.org/2000/svg">
<path d="M27.675 0.156393C26.6 0.531393 26.075 1.11264 25.5 2.55014C25.3875 2.83764 25.2437 3.13139 25.1812 3.20639C25.0687 3.34389 25.0687 3.34389 24.8625 3.22514C23.4687 2.43764 22.0687 2.01264 21.0937 2.08139L20.6562 2.11264L20.2375 1.71264C20 1.49389 19.7062 1.26264 19.5812 1.20014C18.3937 0.600143 16.9187 1.10014 16.3625 2.29389C16.1312 2.78139 16.0687 3.44389 16.2062 3.88764L16.3 4.18764H15.8875C14.9937 4.18764 13.9625 4.60014 13.1875 5.26889C12.9312 5.49389 11.3625 7.03139 9.7062 8.6939C7.09995 11.3189 6.6937 11.7501 6.6562 11.9501C6.59995 12.2564 6.72495 12.5064 7.0062 12.6439C7.42495 12.8439 7.46245 12.8189 9.41245 10.8689L11.2125 9.06264L12.4125 10.2501L13.6062 11.4376H13.8875C14.1062 11.4376 14.2062 11.4001 14.3312 11.2751C14.5312 11.0814 14.6 10.7564 14.5 10.5564C14.4562 10.4751 13.9125 9.89389 13.2875 9.26264L12.1562 8.11889L13.1562 7.1314C14.2 6.10015 14.5937 5.81889 15.25 5.61264C15.95 5.38764 16.8437 5.50014 17.5625 5.89389C18.0562 6.16264 25.8375 13.9439 26.1062 14.4376C26.6437 15.4251 26.6375 16.4626 26.075 17.4689C25.7687 18.0189 13.4937 30.2876 13.0312 30.5064C12.8125 30.6126 12.575 30.6626 12.2437 30.6751C11.3437 30.7189 11.6875 31.0126 6.3937 25.7314C3.0312 22.3751 1.6437 20.9501 1.5187 20.7251C1.36245 20.4439 1.3437 20.3439 1.3437 19.8439C1.3437 18.9814 1.3812 18.9314 3.24995 17.0314C4.28745 15.9814 4.87495 15.3439 4.89995 15.2376C4.99995 14.8064 4.5812 14.3876 4.1312 14.4689C3.93745 14.5001 3.6562 14.7564 2.24995 16.1751C0.499951 17.9314 0.331201 18.1501 0.0999508 18.9314C-0.0437992 19.4189 -0.0312992 20.2876 0.124951 20.8126C0.193701 21.0439 0.356201 21.3939 0.493701 21.6001C0.824951 22.1001 10.1062 31.3626 10.5125 31.5939C11.2125 31.9876 12.3125 32.1251 13.0687 31.9001C13.9437 31.6439 13.7312 31.8376 20.2437 25.3501C23.5875 22.0126 26.5062 19.0689 26.7312 18.8126C27.4 18.0376 27.8125 17.0064 27.8125 16.1126V15.7001L28.1125 15.7939C28.5562 15.9314 29.2187 15.8689 29.7062 15.6376C30.9 15.0814 31.4 13.6064 30.8 12.4189C30.7375 12.2939 30.5062 12.0001 30.2875 11.7626L29.8875 11.3439L29.9187 10.9064C29.9875 9.93139 29.5625 8.53139 28.775 7.13764C28.6562 6.93139 28.6562 6.93139 28.7937 6.8189C28.8687 6.7564 29.1625 6.61264 29.45 6.50014C30.5937 6.04389 31.0437 5.73139 31.4687 5.09389C32.1812 4.01889 32.1812 2.48764 31.475 1.41889C30.8562 0.487642 29.8937 -0.00610733 28.7 0.00639343C28.2312 0.00639343 28 0.0438938 27.675 0.156393ZM29.6125 1.49389C29.95 1.66889 30.3312 2.04389 30.5125 2.38764C30.6312 2.61264 30.6562 2.75014 30.6562 3.25014C30.6562 3.75014 30.6312 3.88764 30.5125 4.11889C30.2687 4.56889 29.8937 4.88139 29.3062 5.11889C28.0875 5.61264 27.5937 5.96889 27.4 6.47515C27.2437 6.89389 27.3125 7.21264 27.775 8.08139C28.1375 8.77514 28.5 9.67514 28.5 9.88764C28.5 9.93139 27.05 8.51889 25.2812 6.75014C23.5125 4.98139 22.0875 3.52514 22.1187 3.51264C22.2437 3.46889 23.2 3.85014 23.9187 4.22514C24.7875 4.68764 25.1062 4.75639 25.525 4.60014C26.0312 4.40639 26.3562 3.95014 26.8375 2.78764C27.1 2.15014 27.2812 1.89389 27.625 1.65639C28.025 1.38139 28.2937 1.30639 28.8437 1.33139C29.2062 1.35014 29.4187 1.39389 29.6125 1.49389ZM18.8937 2.35014C19.1687 2.48764 29.4812 12.7876 29.6312 13.0751C29.8375 13.4814 29.75 13.9314 29.4 14.2626C29.0562 14.5814 28.6562 14.6439 28.2625 14.4439C27.975 14.2939 17.675 3.98139 17.5375 3.70639C17.1375 2.90014 18.0875 1.95014 18.8937 2.35014Z" fill="white"/>
<path d="M15.5563 12.4314C15.4125 12.5752 15.375 12.6689 15.375 12.8752C15.375 13.3627 15.7625 13.6502 16.2125 13.5002C16.8813 13.2814 16.7063 12.2502 16 12.2502C15.7938 12.2502 15.7 12.2877 15.5563 12.4314Z" fill="white"/>
<path d="M5.40609 13.0812C5.11859 13.3687 5.10609 13.6562 5.36859 13.95C5.52484 14.125 5.59359 14.1562 5.83734 14.1562C6.23734 14.1562 6.46859 13.925 6.46859 13.5312C6.46859 13.175 6.25609 12.9438 5.88734 12.8937C5.65609 12.8625 5.60609 12.8813 5.40609 13.0812Z" fill="white"/>
<path d="M20.0375 14.5937C19.775 14.7312 19.6938 14.8687 19.6875 15.1812V15.4562L21.1063 16.8812C22.6188 18.4062 22.7563 18.5062 23.15 18.3749C23.425 18.2874 23.5625 18.0749 23.5625 17.7437C23.5625 17.4874 23.5375 17.4562 22.175 16.0749C20.9188 14.8124 20.55 14.4999 20.3 14.4999C20.2563 14.4999 20.1375 14.5437 20.0375 14.5937Z" fill="white"/>
<path d="M16.9187 17.6625C16.7062 17.875 16.65 18.1812 16.7687 18.4125C16.825 18.5125 17.4937 19.2188 18.2625 19.9812L19.6625 21.375H19.95C20.4375 21.375 20.7312 20.9375 20.5437 20.4937C20.4937 20.3687 19.85 19.6812 19.05 18.8875L17.6437 17.5H17.3625C17.1437 17.5 17.0437 17.5375 16.9187 17.6625Z" fill="white"/>
<path d="M14.2063 20.4814C14.1312 20.4939 14 20.5814 13.9125 20.6689C13.7875 20.7939 13.75 20.8939 13.75 21.1126V21.4001L15.2 22.8564C16.75 24.4064 16.85 24.4814 17.25 24.3126C17.4938 24.2126 17.625 23.9939 17.625 23.6814C17.625 23.4251 17.6 23.3939 16.3 22.0814C15.5688 21.3439 14.9 20.6876 14.8125 20.6314C14.6313 20.5001 14.4062 20.4439 14.2063 20.4814Z" fill="white"/>
<path d="M11.0811 23.5129C11.0123 23.5441 10.8998 23.6691 10.8436 23.7754C10.6186 24.1879 10.6811 24.2754 12.2373 25.8316C13.6498 27.2441 13.8248 27.3816 14.1686 27.3254C14.3498 27.3004 14.6061 27.0379 14.6373 26.8441C14.7123 26.4754 14.6248 26.3629 13.2561 24.9816C12.5123 24.2316 11.8311 23.5754 11.7373 23.5254C11.5436 23.4254 11.2748 23.4191 11.0811 23.5129Z" fill="white"/>
</svg>
