<svg width="15" height="14" viewBox="0 0 15 14" fill="none" xmlns="http://www.w3.org/2000/svg">
<path d="M12.1665 7.1168V8.10851C12.1665 9.94601 11.1165 10.7335 9.5415 10.7335H4.2915C2.7165 10.7335 1.6665 9.94601 1.6665 8.10851V4.9585C1.6665 3.121 2.7165 2.3335 4.2915 2.3335H5.8665C5.79067 2.55516 5.74984 2.80016 5.74984 3.06266V5.33768C5.74984 5.90351 5.9365 6.38183 6.269 6.71433C6.6015 7.04683 7.07984 7.23351 7.64567 7.23351V8.04435C7.64567 8.34185 7.984 8.52264 8.23484 8.3593L9.92067 7.23351H11.4373C11.6998 7.23351 11.9448 7.19263 12.1665 7.1168Z" stroke="#0E82FD" stroke-width="1.5" stroke-miterlimit="10" stroke-linecap="round" stroke-linejoin="round"/>
<path d="M13.3333 3.06234V5.33735C13.3333 6.20652 12.89 6.85981 12.1667 7.11647C11.945 7.19231 11.7 7.23318 11.4375 7.23318H9.92083L8.235 8.35898C7.98417 8.52231 7.64583 8.34153 7.64583 8.04403V7.23318C7.08 7.23318 6.60167 7.04651 6.26917 6.71401C5.93667 6.38151 5.75 5.90318 5.75 5.33735V3.06234C5.75 2.79984 5.79083 2.55484 5.86667 2.33317C6.12333 1.60984 6.77667 1.1665 7.64583 1.1665H11.4375C12.575 1.1665 13.3333 1.92484 13.3333 3.06234Z" stroke="#0E82FD" stroke-width="1.5" stroke-miterlimit="10" stroke-linecap="round" stroke-linejoin="round"/>
<path d="M4.81689 12.8335H9.0169" stroke="#0E82FD" stroke-width="1.5" stroke-miterlimit="10" stroke-linecap="round" stroke-linejoin="round"/>
<path d="M6.9165 10.7334V12.8334" stroke="#0E82FD" stroke-width="1.5" stroke-miterlimit="10" stroke-linecap="round" stroke-linejoin="round"/>
<path d="M11.289 4.22917H11.2943" stroke="#0E82FD" stroke-width="1.5" stroke-linecap="round" stroke-linejoin="round"/>
<path d="M9.65574 4.22917H9.66099" stroke="#0E82FD" stroke-width="1.5" stroke-linecap="round" stroke-linejoin="round"/>
<path d="M8.02244 4.22917H8.02769" stroke="#0E82FD" stroke-width="1.5" stroke-linecap="round" stroke-linejoin="round"/>
</svg>
