<svg width="45" height="45" viewBox="0 0 45 45" fill="none" xmlns="http://www.w3.org/2000/svg">
<path fill-rule="evenodd" clip-rule="evenodd" d="M29.5151 44.1133C28.8562 44.1133 28.1974 44.1133 27.5385 44.1133C26.775 43.829 26.4941 43.268 26.5148 42.4713C26.5459 41.2833 26.5215 40.0939 26.5232 38.905C26.527 36.2748 27.868 34.3779 30.3567 33.5026C30.5789 33.4244 30.6786 33.3365 30.675 33.0877C30.6612 32.1282 30.662 31.1684 30.6743 30.2089C30.6775 29.9544 30.577 29.8693 30.3391 29.8193C29.3595 29.6137 28.383 29.3928 27.409 29.1621C27.1412 29.0986 27.0047 29.1801 26.8662 29.4138C25.765 31.2728 24.6507 33.1239 23.5371 34.9757C22.8391 36.1365 21.7533 36.1359 21.0553 34.9754C19.9416 33.1237 18.8261 31.2732 17.7235 29.4151C17.5856 29.1827 17.4523 29.1 17.1811 29.165C16.2218 29.3954 15.2607 29.6211 14.2927 29.8109C13.9759 29.8729 13.916 30.0116 13.9177 30.2982C13.9281 32.1171 13.9305 33.9362 13.9159 35.7551C13.9132 36.0817 14.0002 36.2448 14.3142 36.3959C15.8485 37.1345 16.6819 38.3874 16.6684 40.084C16.6545 41.8162 15.7837 43.0665 14.1972 43.7853C13.8768 43.9305 13.5245 44.0057 13.187 44.1131C12.8146 44.1131 12.4422 44.1131 12.0698 44.1131C12.0197 44.0891 11.9722 44.0541 11.9195 44.0428C10.1371 43.6622 8.8244 42.3044 8.62878 40.6359C8.40509 38.7282 9.29345 37.143 11.0676 36.3394C11.3243 36.2231 11.3477 36.0691 11.3472 35.8421C11.3427 34.1951 11.3453 32.5482 11.3437 30.9013C11.3436 30.7774 11.3287 30.6536 11.3175 30.4801C10.8631 30.5824 10.4489 30.6793 10.0332 30.7685C7.80838 31.2458 6.35711 32.5825 5.63985 34.7286C4.74266 37.4136 3.8402 40.0967 2.96651 42.7893C2.77594 43.3766 2.50594 43.8522 1.92917 44.1129C1.69998 44.1129 1.47078 44.1129 1.2417 44.1129C0.811618 43.9128 0.504954 43.5892 0.296387 43.1676C0.296387 42.9384 0.296387 42.7093 0.296387 42.4801C0.353571 42.3533 0.42233 42.2303 0.46622 42.0992C1.38208 39.3616 2.28546 36.6199 3.21141 33.8857C4.25952 30.791 6.40983 28.9221 9.58911 28.2172C11.8911 27.7067 14.1914 27.1872 16.4964 26.6903C16.7996 26.625 16.8867 26.509 16.8787 26.2089C16.8576 25.4222 16.8499 24.6336 16.881 23.8476C16.8957 23.4715 16.767 23.2738 16.4517 23.067C13.3546 21.0351 11.598 18.1718 11.3885 14.4655C11.2723 12.4108 11.3472 10.3444 11.3621 8.28352C11.3712 7.02845 11.7908 5.89301 12.5476 4.89911C14.2054 2.72175 16.3488 1.24276 19.0028 0.543252C19.7164 0.355312 20.4531 0.254236 21.1792 0.113281C21.9239 0.113281 22.6688 0.113281 23.4136 0.113281C23.4931 0.138149 23.5713 0.177456 23.6525 0.185936C26.9947 0.535001 29.7123 2.03772 31.8374 4.62556C32.7084 5.68617 33.2185 6.90239 33.2292 8.28352C33.2456 10.4014 33.2354 12.52 33.2054 14.6377C33.1982 15.1478 33.1039 15.6642 32.9894 16.1638C32.2972 19.1854 30.6267 21.5189 28.0003 23.1638C27.797 23.2912 27.7106 23.4296 27.7153 23.6763C27.7313 24.5205 27.7343 25.3656 27.7146 26.2097C27.7076 26.509 27.7927 26.6212 28.0978 26.6872C30.5284 27.2125 32.9627 27.7256 35.379 28.312C38.2048 28.9979 40.1896 30.7214 41.2127 33.4464C41.9356 35.3715 42.5296 37.3449 43.1894 39.2939C43.5498 40.3589 43.927 41.4184 44.2967 42.4804C44.2967 42.7096 44.2967 42.9387 44.2967 43.1679C43.9816 43.483 43.6664 43.798 43.3514 44.1132C43.1222 44.1132 42.893 44.1132 42.6638 44.1132C42.0856 43.8539 41.8174 43.3776 41.6269 42.7904C40.7535 40.0988 39.8768 37.4074 38.9367 34.7388C38.6758 33.9984 38.2777 33.2698 37.7947 32.6513C36.6651 31.2048 35.0238 30.7466 33.2484 30.512C33.2484 31.3712 33.2638 32.1857 33.2406 32.9991C33.2315 33.3157 33.3476 33.4293 33.6377 33.5332C35.8225 34.3152 37.1237 35.8632 37.3381 38.1759C37.4697 39.596 37.3691 41.0363 37.4069 42.4669C37.4279 43.2595 37.1532 43.8258 36.3905 44.1133C35.7317 44.1133 35.0728 44.1133 34.4139 44.1133C34.3027 44.0538 34.188 43.9999 34.0808 43.9341C33.6408 43.6634 33.4219 43.2682 33.4485 42.7508C33.4742 42.2493 33.7269 41.8828 34.1742 41.669C34.3627 41.579 34.5798 41.5487 34.7969 41.4875C34.7969 40.4659 34.8645 39.4324 34.781 38.4116C34.6585 36.914 33.4644 35.8606 32.0048 35.8392C30.5254 35.8176 29.2859 36.8549 29.1468 38.3666C29.0516 39.3998 29.1286 40.4489 29.1286 41.4889C30.1073 41.7091 30.5428 42.1885 30.4721 42.9607C30.4164 43.5632 30.0109 43.8758 29.5151 44.1133ZM22.2789 22.2495C22.8736 22.173 23.4753 22.1308 24.062 22.0139C27.8365 21.2623 30.6967 17.7287 30.6596 13.8713C30.6585 13.7464 30.5713 13.5415 30.4784 13.5104C29.3853 13.1443 28.6182 12.349 27.8633 11.5443C27.6311 11.2968 27.441 11.2634 27.1235 11.3814C23.9402 12.5647 20.7423 12.5698 17.5541 11.4103C17.1675 11.2697 16.9438 11.3091 16.6718 11.6027C15.9408 12.3922 15.1808 13.1506 14.1188 13.5103C14.0206 13.5437 13.9328 13.7723 13.9335 13.9098C13.9538 18.4738 17.6992 22.1927 22.2789 22.2495ZM30.531 10.6278C30.5758 10.6077 30.6205 10.5876 30.6652 10.5677C30.6652 9.85798 30.6715 9.14828 30.6636 8.4388C30.6546 7.6208 30.367 6.90377 29.8536 6.27107C28.1746 4.20178 26.0165 3.00527 23.3607 2.75258C20.2113 2.45302 17.5248 3.4106 15.2469 5.64709C13.7946 7.07303 13.8419 8.78706 13.9698 10.7029C14.5881 10.0712 15.1301 9.51029 15.6803 8.95736C16.3093 8.32524 16.7277 8.25476 17.5288 8.61746C20.7108 10.0584 23.8932 10.0608 27.074 8.61287C27.8615 8.25441 28.2638 8.31572 28.888 8.9365C29.4454 9.49058 29.9842 10.0633 30.531 10.6278ZM22.2988 32.0307C23.2498 30.4446 24.1537 28.9389 25.0543 27.4314C25.0967 27.3605 25.1361 27.2737 25.1366 27.1941C25.1423 26.2814 25.1402 25.3689 25.1402 24.4105C23.2293 24.9006 21.3553 24.8966 19.4987 24.4241C19.3427 26.0739 19.3084 27.6353 20.4431 28.9701C20.7808 29.3674 20.9963 29.8685 21.2687 30.3213C21.5977 30.8685 21.9278 31.4152 22.2988 32.0307ZM12.6439 38.5999C11.8272 38.5948 11.1678 39.2382 11.158 40.0501C11.1482 40.8517 11.813 41.5275 12.618 41.5339C13.4227 41.5404 14.0962 40.8805 14.1057 40.0761C14.1153 39.2724 13.4543 38.605 12.6439 38.5999Z" fill="#BFE0FE"/>
<path fill-rule="evenodd" clip-rule="evenodd" d="M22.299 32.0304C21.928 31.4149 21.598 30.8683 21.2689 30.321C20.9965 29.8681 20.781 29.3671 20.4433 28.9698C19.3086 27.6351 19.3429 26.0737 19.4989 24.4238C21.3555 24.8963 23.2295 24.9003 25.1404 24.4102C25.1404 25.3685 25.1426 26.2811 25.1368 27.1937C25.1363 27.2734 25.0969 27.3602 25.0545 27.4311C24.1539 28.9387 23.25 30.4444 22.299 32.0304Z" fill="white"/>
<path fill-rule="evenodd" clip-rule="evenodd" d="M12.6438 38.5996C13.4541 38.6048 14.1151 39.2723 14.1056 40.0759C14.0961 40.8804 13.4226 41.5402 12.6179 41.5337C11.813 41.5273 11.1481 40.8515 11.1578 40.0499C11.1677 39.2379 11.8271 38.5945 12.6438 38.5996Z" fill="white"/>
</svg>
