<svg width="45" height="47" viewBox="0 0 45 47" fill="none" xmlns="http://www.w3.org/2000/svg">
<g clip-path="url(#clip0_4141_133469)">
<path fill-rule="evenodd" clip-rule="evenodd" d="M9.2437 2.95494C9.2437 2.30474 9.23512 1.72994 9.24598 1.15537C9.25794 0.526342 9.63637 0.122651 10.1998 0.113442C10.7856 0.103919 11.1823 0.517448 11.1927 1.16718C11.2017 1.74119 11.1945 2.3156 11.1945 2.92196C15.6552 2.92196 20.0746 2.92196 24.5699 2.92196C24.5699 2.31686 24.5564 1.69767 24.574 1.07958C24.5886 0.572307 24.911 0.208914 25.3674 0.130915C25.8286 0.0520505 26.2745 0.262278 26.4319 0.679585C26.5085 0.882651 26.5205 1.1172 26.526 1.33837C26.5387 1.86342 26.5301 2.38895 26.5301 2.95502C27.8726 2.95502 29.1535 2.9536 30.4343 2.95541C31.6457 2.95714 32.7443 3.29881 33.6798 4.08368C34.7792 5.00606 35.4265 6.18328 35.4499 7.62654C35.4878 9.9677 35.4702 12.3096 35.4718 14.6512C35.474 17.8429 35.4723 21.0347 35.4723 24.2265C35.4723 24.4176 35.4723 24.6088 35.4723 24.8274C35.8725 24.9389 36.2554 25.0362 36.6326 25.152C41.3835 26.6099 44.5675 31.1436 44.2785 36.0346C43.9794 41.0942 40.3199 45.2486 35.3827 46.1336C30.4898 47.0104 25.616 44.4313 23.6071 39.8767C23.4414 39.501 23.2458 39.4077 22.8639 39.4084C17.0097 39.4198 11.1554 39.4204 5.30124 39.4143C2.78189 39.4117 0.80169 37.7556 0.363605 35.2924C0.30237 34.948 0.300088 34.5902 0.29993 34.2385C0.296703 25.5454 0.295837 16.8523 0.298277 8.15924C0.299143 5.02495 2.37962 2.95714 5.52312 2.9551C6.74009 2.95423 7.95722 2.95494 9.2437 2.95494ZM2.25746 12.2257C2.25746 12.4571 2.25746 12.6317 2.25746 12.8063C2.25746 19.9257 2.25683 27.045 2.25786 34.1643C2.25817 36.2402 3.46893 37.4576 5.53807 37.4584C11.1181 37.4606 16.6982 37.4592 22.2782 37.4592C22.4509 37.4592 22.6236 37.4592 22.8329 37.4592C22.3265 34.1091 23.0599 31.1225 25.2086 28.556C27.3552 25.992 30.1701 24.7537 33.4749 24.6566C33.4749 20.4833 33.4749 16.3573 33.4749 12.2258C23.0651 12.2257 12.6962 12.2257 2.25746 12.2257ZM42.3319 35.4994C42.3554 30.6416 38.3774 26.6486 33.4993 26.6332C28.6456 26.618 24.6736 30.5611 24.6474 35.421C24.6209 40.3247 28.5412 44.3062 33.4174 44.3281C38.3278 44.3502 42.308 40.4082 42.3319 35.4994ZM9.25149 4.96765C7.6978 4.96765 6.20087 4.87021 4.72345 4.99803C3.50427 5.10358 2.63195 5.91954 2.39465 7.12116C2.19654 8.12437 2.26415 9.17992 2.21331 10.2281C12.7063 10.2281 23.0906 10.2281 33.5208 10.2281C33.5208 9.455 33.5262 8.70555 33.5197 7.95617C33.5044 6.20926 32.2712 4.9619 30.5205 4.93821C29.382 4.92278 28.2433 4.93491 27.1047 4.93467C26.9342 4.93467 26.7638 4.93467 26.5458 4.93467C26.5458 5.57401 26.5582 6.14834 26.5422 6.72188C26.5272 7.26158 26.2525 7.63276 25.8267 7.74374C25.1828 7.91154 24.6056 7.47842 24.58 6.77831C24.558 6.17565 24.5754 5.57133 24.5754 4.96505C20.0901 4.96505 15.6719 4.96505 11.2026 4.96505C11.2026 5.35898 11.2026 5.72403 11.2026 6.08907C11.2026 7.33076 10.939 7.77971 10.2146 7.77184C9.50776 7.76412 9.25149 7.32258 9.25149 6.11261C9.25149 5.74622 9.25149 5.37984 9.25149 4.96765Z" fill="#BFE0FE"/>
<path fill-rule="evenodd" clip-rule="evenodd" d="M42.3321 35.499C42.3082 40.4078 38.328 44.3498 33.4176 44.3277C28.5414 44.3058 24.6211 40.3243 24.6476 35.4206C24.6738 30.5608 28.6457 26.6176 33.4995 26.6329C38.3776 26.6482 42.3556 30.6413 42.3321 35.499ZM32.2046 37.5194C32.0625 37.3839 31.9457 37.277 31.834 37.1651C30.9839 36.3139 30.1337 35.4631 29.2862 34.6092C28.9841 34.3049 28.643 34.1282 28.206 34.2632C27.4585 34.4942 27.2804 35.3597 27.873 35.9606C29.0104 37.1142 30.1612 38.2544 31.3075 39.3991C31.9513 40.0419 32.4156 40.0457 33.0751 39.4154C35.1042 37.4762 37.133 35.5369 39.1609 33.5964C39.2766 33.4858 39.3965 33.376 39.4917 33.2486C39.7471 32.9069 39.771 32.5334 39.5619 32.1664C39.3602 31.8125 39.0239 31.6287 38.6317 31.7155C38.368 31.774 38.0921 31.9229 37.8941 32.1086C36.3625 33.5467 34.8487 35.0039 33.3288 36.4544C32.9603 36.8058 32.5895 37.1548 32.2046 37.5194Z" fill="white"/>
<path fill-rule="evenodd" clip-rule="evenodd" d="M16.9156 22.6152C14.5098 22.6152 12.1038 22.6155 9.69799 22.6147C9.53775 22.6147 9.37639 22.6185 9.21748 22.602C8.69432 22.5476 8.31959 22.1508 8.3107 21.6525C8.30196 21.1643 8.67865 20.7329 9.18584 20.6634C9.32791 20.644 9.47407 20.652 9.61834 20.652C14.4782 20.6516 19.3381 20.6517 24.198 20.6517C24.2782 20.6517 24.3584 20.6499 24.4385 20.6524C25.0716 20.6727 25.52 21.0865 25.5143 21.6446C25.5088 22.1953 25.093 22.5957 24.47 22.6097C23.7326 22.6262 22.9944 22.615 22.2566 22.6151C20.4763 22.6154 18.6959 22.6152 16.9156 22.6152Z" fill="#BFE0FE"/>
<path fill-rule="evenodd" clip-rule="evenodd" d="M13.8844 29.014C12.3773 29.0139 10.8702 29.0216 9.36316 29.0101C8.75452 29.0054 8.32383 28.5901 8.31085 28.0462C8.29786 27.4976 8.7095 27.0894 9.32405 27.0476C9.46777 27.0377 9.61251 27.0428 9.75678 27.0428C12.4343 27.0426 15.1116 27.0426 17.7891 27.0427C17.9655 27.0427 18.142 27.0377 18.3181 27.0451C18.9805 27.0733 19.3871 27.4519 19.3836 28.032C19.3803 28.6137 18.9657 29.0071 18.3093 29.0113C16.8344 29.0205 15.3593 29.0142 13.8844 29.014Z" fill="#BFE0FE"/>
<path fill-rule="evenodd" clip-rule="evenodd" d="M32.2043 37.5206C32.5892 37.156 32.9601 36.807 33.3284 36.4555C34.8483 35.005 36.3621 33.5478 37.8938 32.1097C38.0916 31.9241 38.3677 31.7751 38.6313 31.7167C39.0235 31.6298 39.3599 31.8136 39.5615 32.1675C39.7706 32.5346 39.7467 32.908 39.4913 33.2497C39.3962 33.3771 39.2762 33.487 39.1606 33.5975C37.1326 35.538 35.1038 37.4773 33.0747 39.4165C32.4152 40.0468 31.951 40.043 31.3071 39.4002C30.1608 38.2555 29.0099 37.1153 27.8727 35.9618C27.2801 35.3607 27.4582 34.4954 28.2056 34.2644C28.6426 34.1293 28.9837 34.306 29.2858 34.6103C30.1333 35.4642 30.9836 36.315 31.8336 37.1662C31.9454 37.2782 32.0623 37.3851 32.2043 37.5206Z" fill="#BFE0FE"/>
</g>
<defs>
<clipPath id="clip0_4141_133469">
<rect width="44" height="46.1901" fill="white" transform="translate(0.296875 0.113281)"/>
</clipPath>
</defs>
</svg>
