<svg width="230" height="230" viewBox="0 0 230 230" fill="none" xmlns="http://www.w3.org/2000/svg">
<g opacity="0.1">
<path d="M97.1576 188.6H33.4347V109.584C33.4347 88.343 37.6829 72.1998 46.1793 61.1545C55.5253 49.6844 71.2436 43.0997 93.3343 41.4004V78.9969C85.6875 78.9969 79.3152 82.1831 74.2174 88.5554C71.6685 91.9539 70.394 98.5386 70.394 108.309V120.417H97.1576V188.6ZM196.565 188.6H132.842V109.584C132.842 88.343 136.666 72.8371 144.313 63.0662C154.508 50.3216 170.651 43.0997 192.742 41.4004V78.9969C179.573 78.9969 172.138 85.5816 170.439 98.7511C170.014 100.45 169.802 103.636 169.802 108.309V120.417H196.565V188.6Z" fill="white"/>
</g>
</svg>
