<svg width="41" height="40" viewBox="0 0 41 40" fill="none" xmlns="http://www.w3.org/2000/svg">
<g clip-path="url(#clip0_3857_30775)">
<path d="M4.1046 0.249893C3.93272 0.413956 3.80772 0.624893 3.76085 0.820206C3.65147 1.27333 3.65928 5.46864 3.76866 5.77333C3.81553 5.90614 3.9171 6.05458 3.99522 6.09364C4.23741 6.21864 4.61241 6.17958 4.77647 6.01552C4.92491 5.86708 4.93272 5.75771 4.93272 3.51552V1.17177H16.6124H28.2921V11.664V22.1561L27.9718 22.1249C27.1983 22.0468 26.5187 22.4921 26.089 23.3593C25.714 24.1093 25.8468 25.1171 26.378 25.5311L26.5655 25.6796L24.4327 29.3827L22.2921 33.0858L13.6124 33.1093L4.93272 33.1249V20.5546V7.97646L4.7296 7.82021C4.45616 7.60146 4.20616 7.61708 3.94053 7.84364L3.72178 8.03115V20.7968C3.72178 33.4843 3.72178 33.5546 3.87803 33.828C4.22178 34.414 3.58116 34.3749 13.128 34.3749H21.6749L21.6202 34.6249C21.4093 35.6952 21.5343 36.6718 22.0108 37.6561C22.5265 38.703 23.6124 39.5858 24.7374 39.8827C25.2608 40.0155 26.4405 40.039 26.964 39.914C27.5108 39.789 28.3702 39.3436 28.8155 38.9452C29.2452 38.5702 29.8858 37.6718 29.9718 37.328C30.0421 37.0468 29.8312 36.6561 29.5655 36.5936C29.2062 36.4999 28.9874 36.6561 28.5733 37.2655C27.8858 38.2733 27.0265 38.7499 25.8937 38.7499C24.1593 38.7499 22.8077 37.4061 22.7921 35.664C22.7843 34.8749 22.8858 34.6093 23.7608 33.0858L24.4405 31.914L28.0499 31.8905C30.0265 31.8827 31.6515 31.8905 31.6515 31.9218C31.6515 31.9452 31.2999 32.5702 30.8702 33.3202C30.4171 34.1015 30.089 34.7577 30.089 34.8749C30.089 35.3436 30.7296 35.6327 31.0968 35.3358C31.1827 35.2577 31.9171 34.0546 32.7218 32.6561C34.128 30.2186 34.1983 30.1093 34.3858 30.164C35.0421 30.3515 35.9093 30.0936 36.2843 29.6015C36.9015 28.789 37.0343 27.9843 36.6827 27.2733C36.4952 26.9061 36.378 26.7968 35.8077 26.4374C35.7921 26.4296 36.1905 25.703 36.6983 24.828L37.6202 23.2421L37.6515 22.6405C37.6827 22.1015 37.6593 21.9999 37.464 21.6405C37.339 21.414 37.1358 21.1483 37.003 21.0546C36.878 20.9608 35.9327 20.3983 34.9093 19.8124C32.7765 18.5858 32.5108 18.4921 31.7843 18.703C31.1437 18.8905 30.8468 19.203 30.1671 20.3827L29.5812 21.4061L29.5421 11.0702C29.503 1.12489 29.4952 0.734268 29.3546 0.499893C29.0265 -0.0391693 30.089 -0.000106812 16.5812 -0.000106812H4.38585L4.1046 0.249893ZM34.2374 20.8905C35.2452 21.4686 36.1437 22.0155 36.2452 22.1015C36.5733 22.3905 36.4874 22.6483 35.5577 24.2577C35.089 25.078 34.6593 25.7343 34.6124 25.7186C34.4952 25.6874 30.2999 23.2733 30.1827 23.164C30.0968 23.0936 30.2452 22.789 30.9093 21.6327C31.3702 20.8436 31.7843 20.1483 31.8312 20.0858C31.9249 19.9765 32.1749 19.8593 32.3233 19.8515C32.3702 19.8436 33.2296 20.3124 34.2374 20.8905ZM31.4952 25.414C33.4483 26.539 35.1671 27.5311 35.3077 27.6171C35.6593 27.828 35.7062 28.0702 35.4796 28.4921C35.2765 28.8671 35.0733 29.0155 34.8468 28.9608C34.7608 28.9374 33.0108 27.9452 30.9483 26.7577C26.9327 24.4374 26.9952 24.4843 27.1983 23.9843C27.3312 23.6718 27.628 23.3593 27.7999 23.3593C27.878 23.3593 29.5421 24.2811 31.4952 25.414ZM30.4405 27.9296C31.7765 28.6952 32.9093 29.3671 32.9718 29.414C33.0577 29.4999 33.0187 29.6093 32.753 30.0702L32.4249 30.6249H28.7999H25.1827L26.003 29.1952C27.7921 26.1015 27.6593 26.3046 27.8468 26.4296C27.9405 26.4843 29.1124 27.164 30.4405 27.9296Z" fill="#487700" stroke="#487700" stroke-width="0.2"/>
<path d="M15.1123 2.96156C14.9795 3.0475 14.8232 3.18813 14.7842 3.27406C14.7373 3.36 14.6982 3.85219 14.6982 4.36781V5.31313H13.7998C12.8311 5.31313 12.5498 5.39125 12.3232 5.71938C12.1436 5.97719 12.1436 8.55531 12.3232 8.81313C12.5498 9.14125 12.8311 9.21938 13.7998 9.21938H14.6982V10.1881C14.6982 11.6725 14.792 11.7428 16.7686 11.7038L18.0732 11.6803L18.2998 11.4225C18.5264 11.1725 18.5264 11.1647 18.5264 10.2038V9.235L19.5498 9.20375L20.5732 9.18031L20.7998 8.9225L21.0264 8.6725V7.26625V5.86L20.7998 5.61L20.5732 5.35219L19.5498 5.32875L18.5264 5.2975V4.32875C18.5264 3.36782 18.5264 3.36 18.2998 3.11L18.0732 2.85219L16.7139 2.82875C15.4795 2.81313 15.3389 2.82094 15.1123 2.96156ZM17.2764 5.00063C17.2764 6.00063 17.3623 6.32094 17.6592 6.485C17.7451 6.52406 18.2529 6.56313 18.792 6.56313H19.7764V7.26625V7.96938H18.792C18.2529 7.96938 17.7451 8.00844 17.6592 8.0475C17.3623 8.21156 17.2764 8.53188 17.2764 9.53188V10.4694H16.6201H15.9639L15.9326 9.40688C15.9092 8.35219 15.9092 8.34438 15.6904 8.15688C15.4795 7.97719 15.417 7.96938 14.4561 7.96938H13.4482V7.26625V6.56313H14.4561C15.417 6.56313 15.4795 6.55531 15.6904 6.37563C15.9092 6.18813 15.9092 6.18031 15.9326 5.12563L15.9639 4.06313H16.6201H17.2764V5.00063Z" fill="#6CB300"/>
<path d="M8.70605 14.7264C8.22168 14.9373 8.13574 15.203 8.13574 16.5467C8.13574 17.867 8.19043 18.0623 8.60449 18.3123C8.80762 18.4217 9.54199 18.4373 16.6123 18.4373C25.1748 18.4373 24.7139 18.4608 24.9717 17.9608C25.0732 17.7655 25.0967 17.492 25.0732 16.4451C25.0498 15.0311 25.0186 14.9373 24.4873 14.7186C24.1045 14.5545 9.07324 14.5623 8.70605 14.7264ZM16.0264 16.5233V17.1873H12.7061H9.38574V16.5233V15.8592H12.7061H16.0264V16.5233ZM23.8389 16.5233V17.1873H20.5576H17.2764V16.5233V15.8592H20.5576H23.8389V16.5233Z" fill="#487700"/>
<path d="M9.66716 20.7109C9.40934 20.9141 9.37809 21.3984 9.62028 21.6406C9.76872 21.7891 9.87809 21.7969 12.6672 21.7969H15.5656L15.7531 21.6016C15.9562 21.4062 15.9797 21.2734 15.9015 20.9531C15.7922 20.5703 15.6203 20.5469 12.6437 20.5469C9.96403 20.5469 9.87028 20.5547 9.66716 20.7109Z" fill="#487700"/>
<path d="M21.8308 20.625C21.4637 20.7734 21.3855 21.3047 21.6902 21.6016C21.8621 21.7813 21.9324 21.7969 22.6277 21.7969C23.4793 21.7969 23.6277 21.7422 23.7527 21.4063C23.8465 21.1172 23.7605 20.8438 23.5105 20.6719C23.3152 20.5313 22.1433 20.5 21.8308 20.625Z" fill="#487700"/>
<path d="M9.62017 24.1406C9.40142 24.3594 9.40923 24.8438 9.62798 25.0469C9.78423 25.1875 9.94829 25.1953 12.6827 25.1953H15.5733L15.7608 24.9766C15.9874 24.7109 16.003 24.4609 15.7842 24.1875L15.628 23.9844H12.6983C9.87798 23.9844 9.76861 23.9922 9.62017 24.1406Z" fill="#487700"/>
<path d="M21.6594 24.1876C21.4719 24.422 21.4563 24.5939 21.5891 24.8829C21.7063 25.1486 22.1125 25.2579 22.8547 25.2189C23.5656 25.1876 23.7922 25.0236 23.7922 24.5626C23.7922 24.0861 23.5891 23.9845 22.6281 23.9845C21.8469 23.9845 21.8156 23.9923 21.6594 24.1876Z" fill="#487700"/>
<path d="M9.63614 27.5234C9.38614 27.7891 9.40177 28.2188 9.66739 28.4297C9.87052 28.5859 9.96427 28.5938 12.7221 28.5938H15.5658L15.7533 28.3984C15.8783 28.2812 15.9486 28.1172 15.9486 27.9688C15.9486 27.8203 15.8783 27.6562 15.7533 27.5391L15.5658 27.3438H12.683H9.8002L9.63614 27.5234Z" fill="#487700"/>
<path d="M21.6904 27.5391C21.5654 27.6562 21.4951 27.8203 21.4951 27.9688C21.4951 28.1172 21.5654 28.2812 21.6904 28.3984C21.8623 28.5781 21.9326 28.5938 22.6436 28.5938C23.1514 28.5859 23.4561 28.5547 23.542 28.4844C23.7529 28.3281 23.8467 28 23.7529 27.7578C23.6201 27.4062 23.4717 27.3516 22.6436 27.3438C21.9326 27.3438 21.8623 27.3594 21.6904 27.5391Z" fill="#487700"/>
</g>
<defs>
<clipPath id="clip0_3857_30775">
<rect width="40" height="40" fill="white" transform="translate(0.713867)"/>
</clipPath>
</defs>
</svg>
