<svg width="41" height="40" viewBox="0 0 41 40" fill="none" xmlns="http://www.w3.org/2000/svg">
<g clip-path="url(#clip0_3857_30757)">
<path d="M9.70724 0.431572L9.7072 0.431503C9.88711 0.34008 10.1424 0.293713 10.4105 0.307419C10.679 0.321144 10.9235 0.393215 11.0856 0.500298L11.0863 0.500759C11.3077 0.646156 11.418 0.775284 11.4878 0.978378C11.5665 1.20736 11.5994 1.54655 11.5994 2.13281V3.125V3.425H11.8994H15.415H18.9307H19.2307V3.125V2.13281C19.2307 1.54655 19.2636 1.20736 19.3423 0.978378C19.4121 0.775284 19.5224 0.646156 19.7438 0.500755L19.7439 0.50071C19.8686 0.418736 19.9337 0.387886 20.0134 0.369312C20.1057 0.347805 20.2339 0.339058 20.4932 0.339058C20.7524 0.339058 20.8806 0.347805 20.9729 0.369312C21.0526 0.387886 21.1177 0.418736 21.2425 0.50071L21.2425 0.500755C21.464 0.646156 21.5742 0.775284 21.644 0.978378C21.7227 1.20736 21.7557 1.54655 21.7557 2.13281V3.125V3.425H22.0557H25.6104H29.165H29.465V3.125V2.13281C29.465 1.54655 29.498 1.20736 29.5767 0.978378C29.6465 0.775284 29.7568 0.646156 29.9782 0.500755L29.9782 0.50071C30.103 0.418736 30.1681 0.387886 30.2478 0.369312C30.3401 0.347805 30.4683 0.339058 30.7275 0.339058C30.9868 0.339058 31.115 0.347805 31.2073 0.369312C31.287 0.387886 31.3521 0.418736 31.4768 0.50071L31.4769 0.500755C31.6984 0.646229 31.8087 0.775471 31.8785 0.977707C31.9571 1.2056 31.99 1.54276 31.99 2.125V3.10937V3.40379L32.2844 3.40932L33.948 3.44056C34.7225 3.45628 35.1335 3.46795 35.4236 3.49854C35.6989 3.52756 35.8612 3.57308 36.1393 3.66703L36.1398 3.6672C37.1176 3.9956 37.7656 4.39981 38.531 5.16525C39.288 5.9222 39.6932 6.57074 40.0375 7.5583C40.0377 7.55875 40.0378 7.5592 40.038 7.55966L40.2324 8.13557L40.2557 17.2193V17.2195L40.2712 26.2839L40.1369 26.5652C40.1369 26.5652 40.1369 26.5652 40.1369 26.5653C40.0576 26.7298 39.9062 26.9045 39.7611 26.9973L39.7581 26.9993C39.6334 27.0813 39.5682 27.1121 39.4885 27.1307C39.3963 27.1522 39.268 27.1609 39.0088 27.1609C38.7495 27.1609 38.6213 27.1522 38.529 27.1307C38.4495 27.1121 38.3845 27.0814 38.2603 26.9998C38.1162 26.9035 37.9577 26.7257 37.8798 26.5711C37.8786 26.5687 37.8774 26.5663 37.8763 26.5639C37.8478 26.5044 37.8301 26.4675 37.8131 26.3349C37.7923 26.1738 37.777 25.8945 37.7667 25.3469C37.7463 24.2578 37.7463 22.1623 37.7463 17.9609C37.7463 15.3784 37.7385 13.2271 37.7248 11.679C37.718 10.9051 37.7096 10.2811 37.7001 9.8291C37.6908 9.3891 37.6801 9.08816 37.6653 8.98198L37.6651 8.98101C37.5547 8.208 37.2293 7.54624 36.6897 7.00661L36.6885 7.00549C36.2869 6.60805 35.868 6.33947 35.3109 6.17429C34.7652 6.01249 34.0999 5.95394 33.2132 5.95L33.2119 5.94999L32.29 5.95H31.99V6.25V7.24218C31.99 7.82844 31.9571 8.16763 31.8784 8.39661C31.8086 8.59971 31.6983 8.72884 31.4769 8.87424L31.4768 8.87428C31.3521 8.95626 31.287 8.9871 31.2073 9.00568C31.115 9.02719 30.9868 9.03593 30.7275 9.03593C30.4683 9.03593 30.3401 9.02719 30.2478 9.00568C30.1681 8.9871 30.103 8.95626 29.9782 8.87428L29.9782 8.87424C29.7568 8.72884 29.6465 8.59971 29.5767 8.39661C29.498 8.16763 29.465 7.82844 29.465 7.24218V6.25V5.95H29.165H25.6104H22.0557H21.7557V6.25V7.24218C21.7557 7.82844 21.7227 8.16763 21.644 8.39661C21.5742 8.59971 21.464 8.72884 21.2425 8.87424L21.2425 8.87428C21.1177 8.95626 21.0526 8.9871 20.9729 9.00568C20.8806 9.02719 20.7524 9.03593 20.4932 9.03593C20.2339 9.03593 20.1057 9.02719 20.0134 9.00568C19.9337 8.9871 19.8686 8.95626 19.7439 8.87428L19.7438 8.87424C19.5224 8.72884 19.4121 8.59971 19.3423 8.39661C19.2636 8.16763 19.2307 7.82844 19.2307 7.24218V6.25V5.95H18.9307H15.415H11.8994H11.5994V6.25V7.24218C11.5994 7.82844 11.5665 8.16763 11.4878 8.39661C11.418 8.59971 11.3077 8.72884 11.0863 8.87424L11.0862 8.87428C10.9615 8.95626 10.8964 8.9871 10.8167 9.00568C10.7244 9.02719 10.5962 9.03593 10.3369 9.03593C10.0777 9.03593 9.94944 9.02719 9.85716 9.00568C9.77747 8.9871 9.71235 8.95626 9.5876 8.87428L9.58753 8.87424C9.36613 8.72884 9.25586 8.59971 9.18605 8.39661C9.10734 8.16763 9.07441 7.82844 9.07441 7.24218V6.25V5.95H8.77441H7.89941H7.89806C7.02672 5.95394 6.36909 6.01254 5.82719 6.17447C5.27425 6.33971 4.85555 6.6082 4.45403 7.00549L4.4529 7.00661C3.91328 7.54624 3.58786 8.208 3.47743 8.98101L3.47718 8.98276C3.46802 9.0497 3.462 9.20595 3.45666 9.41144C3.45106 9.62708 3.44588 9.92041 3.44112 10.2797C3.43158 10.9985 3.42364 11.9848 3.41729 13.149C3.40459 15.4776 3.39824 18.5202 3.39824 21.5625C3.39824 24.6048 3.40459 27.6474 3.41729 29.976C3.42364 31.1402 3.43158 32.1265 3.44112 32.8453C3.44588 33.2046 3.45106 33.4979 3.45666 33.7136C3.462 33.919 3.46802 34.0753 3.47718 34.1422L3.47742 34.144L3.47743 34.144C3.69941 35.6979 4.87343 36.8719 6.4273 37.0939L6.42947 37.0942L6.42947 37.0942C6.4973 37.1033 6.66714 37.1093 6.89479 37.1146C7.13347 37.1202 7.46049 37.1254 7.86259 37.1302C8.66705 37.1397 9.77541 37.1477 11.0859 37.154C13.7072 37.1667 17.1394 37.173 20.5713 37.173C24.0032 37.173 27.4354 37.1667 30.0566 37.154C31.3672 37.1477 32.4755 37.1397 33.28 37.1302C33.6821 37.1254 34.0091 37.1202 34.2478 37.1146C34.4754 37.1093 34.6453 37.1033 34.7131 37.0942L34.7153 37.0939C35.4883 36.9834 36.15 36.658 36.6897 36.1184L36.6912 36.1168C37.277 35.5225 37.5484 34.9119 37.6961 33.9273L37.6965 33.9247C37.774 33.3741 37.8536 33.1368 37.9537 32.9867L37.9547 32.9853C38.1905 32.6271 38.6302 32.4515 39.0883 32.4838C39.5466 32.5161 39.9593 32.7522 40.1446 33.1378L40.1455 33.1395C40.2207 33.2936 40.2471 33.3689 40.2593 33.4823C40.2738 33.6165 40.2682 33.8048 40.2483 34.1875L40.2482 34.1883C40.174 35.6881 39.6532 36.8376 38.531 37.9597C37.7741 38.7167 37.1255 39.1219 36.1379 39.4663C36.1375 39.4664 36.1371 39.4666 36.1366 39.4667L35.5611 39.6609H20.5713H5.58149L5.00457 39.4662C4.01703 39.1219 3.36848 38.7167 2.61155 37.9597C1.85461 37.2028 1.44937 36.5543 1.10506 35.5667L0.910352 34.9898V21.5625V8.13519L1.10458 7.55966C1.10473 7.55923 1.10488 7.5588 1.10503 7.55838C1.44934 6.57078 1.85458 5.92222 2.61155 5.16525C3.37659 4.40021 4.02432 3.99602 5.00122 3.66771C5.2805 3.57716 5.446 3.53129 5.71836 3.50132C6.00414 3.46988 6.40561 3.45627 7.15521 3.44057C7.15537 3.44057 7.15553 3.44056 7.1557 3.44056M9.70724 0.431572L7.14941 3.14062L7.1557 3.44056M9.70724 0.431572L9.70111 0.434517C9.55788 0.503265 9.36453 0.676105 9.2757 0.812317L9.27504 0.81332C9.18802 0.945591 9.15987 0.999138 9.13852 1.12455C9.11182 1.28144 9.10189 1.52885 9.08996 2.04598M9.70724 0.431572L9.08996 2.04598M7.1557 3.44056L8.7724 3.40932L9.06023 3.40375L9.06653 3.11594L9.08996 2.04598M7.1557 3.44056L9.08996 2.04598M9.08996 2.04598L8.79004 2.03906L9.08997 2.04563L9.08996 2.04598ZM32.29 3.10937V2.125C32.29 0.960934 32.165 0.593746 31.6416 0.249996C31.3682 0.0703087 31.2432 0.0390587 30.7275 0.0390587C30.2119 0.0390587 30.0869 0.0703087 29.8135 0.249996C29.29 0.593746 29.165 0.960934 29.165 2.13281V2.825V3.125H28.865H25.6104H22.3557H22.0557V2.825V2.13281C22.0557 0.960934 21.9307 0.593746 21.4072 0.249996C21.1338 0.0703087 21.0088 0.0390587 20.4932 0.0390587C19.9775 0.0390587 19.8525 0.0703087 19.5791 0.249996C19.0557 0.593746 18.9307 0.960934 18.9307 2.13281V2.825V3.125H18.6307H15.415H12.1994H11.8994V2.825V2.13281C11.8994 0.960934 11.7744 0.593746 11.251 0.249996C10.8135 -0.0390663 10.0479 -0.0781288 9.57129 0.164059C9.37598 0.257809 9.1416 0.468746 9.02441 0.648434L32.29 3.10937Z" fill="#3129D6" stroke="#EAE9FF" stroke-width="0.6"/>
<path d="M9.5713 15.0088C9.08693 15.251 8.82911 15.6807 8.79005 16.2978C8.72755 17.2666 9.26661 17.8916 10.2276 17.9541C11.1963 18.0166 11.8213 17.4775 11.8838 16.5166C11.9229 15.8838 11.7119 15.3994 11.251 15.0947C10.8135 14.8057 10.0479 14.7666 9.5713 15.0088Z" fill="#3129D6"/>
<path d="M16.3682 15.0088C15.8838 15.251 15.626 15.6807 15.5869 16.2978C15.5244 17.2666 16.0635 17.8916 17.0244 17.9541C17.9932 18.0166 18.6182 17.4775 18.6807 16.5166C18.7197 15.8838 18.5088 15.3994 18.0479 15.0947C17.6104 14.8057 16.8447 14.7666 16.3682 15.0088Z" fill="#3129D6"/>
<path d="M23.1651 15.0088C22.6807 15.251 22.4229 15.6807 22.3838 16.2978C22.3213 17.2666 22.8604 17.8916 23.8213 17.9541C24.7901 18.0166 25.4151 17.4775 25.4776 16.5166C25.5166 15.8838 25.3057 15.3994 24.8447 15.0947C24.4072 14.8057 23.6416 14.7666 23.1651 15.0088Z" fill="#3129D6"/>
<path d="M29.9619 15.0088C29.4776 15.251 29.2197 15.6807 29.1807 16.2978C29.1182 17.2666 29.6572 17.8916 30.6182 17.9541C31.5869 18.0166 32.2119 17.4775 32.2744 16.5166C32.3135 15.8838 32.1026 15.3994 31.6416 15.0947C31.2041 14.8057 30.4385 14.7666 29.9619 15.0088Z" fill="#3129D6"/>
<path d="M9.5713 21.8057C9.08693 22.0478 8.82911 22.4775 8.79005 23.0947C8.72755 24.0635 9.26661 24.6885 10.2276 24.751C11.1963 24.8135 11.8213 24.2744 11.8838 23.3135C11.9229 22.6807 11.7119 22.1963 11.251 21.8916C10.8135 21.6025 10.0479 21.5635 9.5713 21.8057Z" fill="#3129D6"/>
<path d="M16.3682 21.8057C15.8838 22.0478 15.626 22.4775 15.5869 23.0947C15.5244 24.0635 16.0635 24.6885 17.0244 24.751C17.9932 24.8135 18.6182 24.2744 18.6807 23.3135C18.7197 22.6807 18.5088 22.1963 18.0479 21.8916C17.6104 21.6025 16.8447 21.5635 16.3682 21.8057Z" fill="#3129D6"/>
<path d="M24.376 21.8281C23.4854 22.1953 23.0166 22.6406 22.6182 23.4922L22.4072 23.9453V26.6016V29.2578L22.6572 29.7812C22.79 30.0703 23.0635 30.4688 23.2666 30.6641C23.4619 30.8672 23.8604 31.1406 24.1494 31.2734L24.6729 31.5234H27.3291H29.9854L30.5088 31.2734C31.1729 30.9609 31.6885 30.4453 32.001 29.7812L32.251 29.2578V26.6016V23.9453L32.001 23.4219C31.6885 22.7578 31.1729 22.2422 30.5088 21.9297L29.9854 21.6797L27.4072 21.6641C24.8369 21.6406 24.8291 21.6406 24.376 21.8281ZM29.165 26.6016V28.4375H27.3291H25.4932V26.6016V24.7656H27.3291H29.165V26.6016Z" fill="#5149F8"/>
<path d="M9.5713 28.6025C9.08693 28.8447 8.82911 29.2744 8.79005 29.8916C8.72755 30.8603 9.26661 31.4853 10.2276 31.5478C11.1963 31.6103 11.8213 31.0713 11.8838 30.1103C11.9229 29.4775 11.7119 28.9932 11.251 28.6885C10.8135 28.3994 10.0479 28.3603 9.5713 28.6025Z" fill="#3129D6"/>
<path d="M16.3682 28.6025C15.8838 28.8447 15.626 29.2744 15.5869 29.8916C15.5244 30.8603 16.0635 31.4853 17.0244 31.5478C17.9932 31.6103 18.6182 31.0713 18.6807 30.1103C18.7197 29.4775 18.5088 28.9932 18.0479 28.6885C17.6104 28.3994 16.8447 28.3603 16.3682 28.6025Z" fill="#3129D6"/>
</g>
<defs>
<clipPath id="clip0_3857_30757">
<rect width="40" height="40" fill="white" transform="translate(0.571289)"/>
</clipPath>
</defs>
</svg>
