<svg width="41" height="40" viewBox="0 0 41 40" fill="none" xmlns="http://www.w3.org/2000/svg">
<path d="M24.8101 0.188477C24.646 0.290039 24.4273 0.508789 24.3257 0.672852C24.1382 0.969727 24.1382 1.00879 24.1382 3.09473C24.1382 5.13379 24.146 5.21973 24.3023 5.42285L24.4664 5.63379L24.2632 5.92285C23.9976 6.31348 23.9976 6.65723 24.2632 6.86816C24.646 7.17285 24.8882 7.09473 25.4429 6.50098C25.7085 6.21191 25.9351 5.9541 25.9351 5.91504C25.9351 5.88379 26.732 5.86035 27.7164 5.86816H29.4898L31.2789 7.91504C32.271 9.04004 33.1617 10.1416 33.271 10.3525L33.4742 10.7432L33.4976 14.3525L33.521 17.9697H32.4195H31.3257V14.7197C31.3257 11.5479 31.3179 11.4541 31.1617 11.1963C31.0679 11.0557 30.8648 10.8682 30.6929 10.7822C30.4117 10.6338 30.232 10.626 27.7554 10.626C24.7867 10.626 24.6382 10.6494 24.3101 11.1885C24.1382 11.4619 24.1382 11.5244 24.1382 14.7197V17.9697H23.2789H22.4195V13.9541V9.93066L22.9429 9.33691C23.3648 8.85254 23.4664 8.68848 23.4664 8.47754C23.4664 8.0166 23.0445 7.72754 22.6226 7.8916L22.4195 7.96973V7.42285C22.4195 6.36816 21.8179 5.39941 20.9117 4.99316L20.5054 4.80566H14.646H8.78666L8.42729 4.98535C7.84135 5.27441 7.45073 5.66504 7.16948 6.23535L6.91166 6.75879L6.88041 8.96973C6.8726 10.1807 6.88041 11.2979 6.90385 11.4463C7.00541 11.9854 7.50541 12.1963 7.91166 11.876L8.11479 11.7197L8.13823 9.35254L8.16166 6.97754L8.38041 6.64941C8.52104 6.43848 8.72416 6.25879 8.92729 6.16504C9.23979 6.02441 9.52104 6.0166 14.6617 6.0166C18.2945 6.0166 20.1382 6.04004 20.2867 6.10254C20.5835 6.21191 20.9351 6.54785 21.0601 6.85254C21.146 7.05566 21.1695 8.10254 21.1695 12.54V17.9697H14.646H8.1226V15.9072V13.8369L7.91948 13.6807C7.55229 13.3916 7.11479 13.5088 6.95073 13.9385C6.90385 14.0635 6.8726 14.9307 6.8726 16.0635V17.9697H6.09135C5.23979 17.9697 4.97416 18.0479 4.70073 18.3994C4.61479 18.5088 3.97416 19.876 3.28666 21.4385C1.84135 24.7041 1.83354 24.7432 2.33354 25.2432L2.63823 25.5479H3.6226H4.60698V32.165C4.60698 36.4072 4.63823 38.8916 4.6851 39.0791C4.77104 39.3838 5.27104 39.8916 5.5601 39.9619C5.66166 39.9854 12.5757 39.9932 20.9351 39.9854L36.1304 39.9619L36.396 39.7744C36.5367 39.6729 36.7242 39.4463 36.8023 39.2666C36.9429 38.9619 36.9507 38.6104 36.9507 32.2432V25.5479H38.0132H39.0757L39.3804 25.2432C39.896 24.7354 39.8804 24.6807 38.396 21.4932C37.6851 19.9697 37.0367 18.6104 36.9507 18.4697C36.7085 18.0869 36.3804 17.9697 35.5132 17.9697H34.7632V14.3838C34.7632 9.6416 34.9117 10.1104 32.5601 7.4541C30.8492 5.5166 30.9585 5.68066 31.1617 5.42285C31.3179 5.21973 31.3257 5.12598 31.3257 3.10254C31.3257 1.0166 31.3257 0.985352 31.1382 0.672852C31.0367 0.493164 30.8101 0.274414 30.6382 0.172852C30.3335 0.000976562 30.2789 0.000976562 27.7242 0.000976562C25.1226 0.000976562 25.1148 0.000976562 24.8101 0.188477ZM29.9039 1.21973C30.0757 1.2666 30.0757 1.27441 30.0757 2.93848V4.61035H27.732H25.3882V2.93848C25.3882 1.40723 25.4039 1.25879 25.5289 1.22754C25.732 1.17285 29.7007 1.16504 29.9039 1.21973ZM30.0757 12.8525V13.8291H27.732H25.3882V12.8525V11.876H27.732H30.0757V12.8525ZM30.0757 16.5244V17.9697H27.732H25.3882V16.5244V15.0791H27.732H30.0757V16.5244ZM26.4429 21.7354L25.3257 24.2588L14.3726 24.2822C5.61479 24.2979 3.42729 24.2822 3.45854 24.2041C3.48198 24.1494 3.98198 23.001 4.57573 21.6572L5.65385 19.2197H16.607H27.5601L26.4429 21.7354ZM37.1148 21.751C37.7554 23.126 38.2789 24.2588 38.2789 24.2744C38.2789 24.29 36.8414 24.2979 35.0835 24.2979H31.896L31.0523 22.4775C30.5835 21.4854 30.0523 20.3369 29.8726 19.9385L29.5367 19.2197L32.7476 19.2354L35.9585 19.2588L37.1148 21.751ZM30.0367 23.3213C30.8335 25.04 30.9195 25.1885 31.3257 25.3916C31.607 25.5322 31.7945 25.5479 33.6695 25.5479H35.7007V28.3994V31.2432L33.5132 31.2666L31.3257 31.29L31.1148 31.5088L30.896 31.7197V33.8291V35.9385L31.1148 36.1494L31.3257 36.3682L33.5132 36.3916L35.7007 36.415V37.5713C35.7007 38.5635 35.6851 38.7432 35.5757 38.7822C35.5054 38.8057 34.0289 38.8291 32.2945 38.8291H29.1382V30.1338C29.146 22.79 29.1617 21.4775 29.2476 21.6416C29.3101 21.751 29.6617 22.501 30.0367 23.3213ZM27.8882 30.2744V38.8291H16.9664C8.57573 38.8291 6.02104 38.8057 5.95073 38.7354C5.88041 38.665 5.85698 37.0791 5.85698 32.0947V25.5479H8.83354H11.8179L11.4273 25.9541C10.9664 26.4541 10.646 26.915 10.3257 27.54C10.0445 28.1025 9.76323 28.9932 9.76323 29.3135C9.76323 29.6104 10.0757 29.9229 10.3726 29.9229C10.7242 29.9229 10.9195 29.7041 11.0523 29.1807C11.1148 28.9229 11.3179 28.415 11.4976 28.0479C11.9117 27.2197 12.896 26.1885 13.6382 25.7979L14.1226 25.5479H16.3726H18.6148L18.9742 25.7588C20.2085 26.4775 21.0601 27.5088 21.5289 28.8682C21.7242 29.4307 21.7476 29.5947 21.7476 30.5088C21.7476 31.3916 21.7164 31.6025 21.5367 32.1494C21.0445 33.626 20.0914 34.7275 18.7085 35.3994C17.857 35.8135 17.2242 35.9619 16.3179 35.9541C13.9429 35.9541 11.8882 34.4307 11.1304 32.1182C11.0601 31.8916 10.9273 31.6338 10.8492 31.5557C10.6539 31.3604 10.3023 31.3682 10.0445 31.5713C9.77885 31.7822 9.77885 32.0869 10.0367 32.8291C10.8648 35.1885 13.0992 36.9229 15.6382 37.1807C17.607 37.376 19.4429 36.7666 20.9117 35.4385C21.7632 34.665 22.5445 33.3525 22.857 32.1494C23.0757 31.3213 23.0601 29.626 22.8257 28.8057C22.5054 27.6807 22.0914 26.915 21.3101 26.001L20.9273 25.5557L23.3414 25.5322L25.7632 25.5088L26.0679 25.2666C26.3179 25.0635 26.4742 24.7822 27.0992 23.3682C27.5054 22.4619 27.8492 21.7197 27.8648 21.7197C27.8726 21.7197 27.8882 25.5713 27.8882 30.2744ZM35.7007 33.8291V35.1572H33.9039H32.107V33.8291V32.501H33.9039H35.7007V33.8291Z" fill="#002ED0"/>
<path d="M14.7941 26.9062C14.5285 27.1719 14.5285 27.1719 14.5285 27.9141V28.6562L13.7473 28.6875C13.0598 28.7109 12.9504 28.7344 12.7707 28.9062C12.6613 29.0078 12.5363 29.2344 12.4894 29.4062C12.3801 29.8203 12.4348 31.6953 12.5598 31.9297C12.7316 32.2344 13.0519 32.3438 13.8254 32.3438H14.5285V33.0547C14.5285 34.3047 14.6144 34.3672 16.3332 34.375C17.5285 34.375 17.6457 34.3594 17.8332 34.2188C18.091 34.0156 18.2004 33.6328 18.2004 32.9062V32.3438H18.8566C19.6535 32.3438 19.8723 32.2734 20.0754 31.9375C20.216 31.7109 20.2316 31.5391 20.2316 30.5234C20.2316 28.8672 20.091 28.6719 18.841 28.6719H18.2238L18.1848 27.9453C18.1223 26.7109 18.0207 26.6406 16.2785 26.6406H15.0598L14.7941 26.9062ZM16.9504 28.6797C16.9504 29.4453 16.9582 29.4688 17.1769 29.6953C17.4035 29.9141 17.4269 29.9219 18.1926 29.9219H18.9816V30.5078V31.0938H18.2707C17.1223 31.0938 16.9582 31.25 16.9504 32.3594V33.125H16.3644H15.7785V32.4609C15.7785 31.3203 15.5441 31.0938 14.3723 31.0938H13.6691V30.5078V29.9219H14.4504C15.2004 29.9219 15.2394 29.9141 15.4816 29.6953C15.7394 29.4688 15.7394 29.4531 15.7629 28.6797L15.7941 27.8906H16.3723H16.9504V28.6797Z" fill="#002ED0"/>
<path d="M11.2082 8.47689C10.7473 8.64095 10.1926 9.26595 10.0754 9.76595C9.68478 11.4066 11.4582 12.6956 12.8801 11.8128C13.8332 11.2269 14.0285 9.84408 13.2942 8.96908C12.8488 8.43783 11.927 8.22689 11.2082 8.47689ZM12.302 9.80502C12.427 9.9222 12.4973 10.0863 12.4973 10.2347C12.4973 10.5394 12.1926 10.8597 11.9113 10.8597C11.6613 10.8597 11.2473 10.4691 11.2473 10.2347C11.2473 10.0003 11.6613 9.6097 11.9113 9.6097C12.0207 9.6097 12.2004 9.69564 12.302 9.80502Z" fill="#3864FF"/>
<path d="M16.8027 8.47006C16.0762 8.73568 15.5918 9.431 15.5918 10.2357C15.5918 10.8529 15.7871 11.2669 16.248 11.6654C17.2168 12.4935 18.8027 12.0716 19.209 10.8685C19.3262 10.5091 19.3184 9.81381 19.1934 9.50912C18.8184 8.6185 17.7168 8.14193 16.8027 8.47006ZM17.8496 9.806C17.9746 9.92318 18.0449 10.0872 18.0449 10.2357C18.0449 10.5326 17.7402 10.8607 17.4668 10.8607C17.1621 10.8607 16.8496 10.5404 16.8496 10.2357C16.8496 10.0482 16.9043 9.92318 17.0605 9.79037C17.334 9.556 17.6152 9.56381 17.8496 9.806Z" fill="#3864FF"/>
<path d="M11.4043 13.1972C10.5293 13.4862 10.0449 14.1268 10.0449 15.0018C10.0449 16.0565 10.7012 16.7753 11.7559 16.8612C12.1309 16.8847 12.3105 16.8612 12.6387 16.7206C14.3965 15.9628 13.9512 13.2831 12.0527 13.1581C11.8027 13.1425 11.5137 13.1581 11.4043 13.1972ZM12.1777 14.494C12.5527 14.6815 12.6152 15.1268 12.3027 15.4315C12.0293 15.705 11.709 15.6893 11.4512 15.3847C11.1855 15.0722 11.1934 14.8847 11.4746 14.6034C11.7324 14.3456 11.8652 14.33 12.1777 14.494Z" fill="#3864FF"/>
<path d="M16.9512 13.197C16.0918 13.4626 15.5918 14.1189 15.5918 15.0017C15.5918 16.4001 16.9746 17.2829 18.2402 16.6892C18.9355 16.3689 19.2949 15.7908 19.2949 15.0251C19.2949 13.7673 18.1152 12.8454 16.9512 13.197ZM17.9121 14.6189C18.1074 14.8533 18.084 15.2048 17.8496 15.4314C17.5762 15.7126 17.2559 15.6892 16.9902 15.3767C16.7402 15.0876 16.7715 14.822 17.084 14.5486C17.3262 14.3298 17.6934 14.3611 17.9121 14.6189Z" fill="#3864FF"/>
</svg>
