<svg width="117" height="31" viewBox="0 0 117 31" fill="none" xmlns="http://www.w3.org/2000/svg">
<path fill-rule="evenodd" clip-rule="evenodd" d="M15.9265 30.5C24.2108 30.5 30.9265 23.7843 30.9265 15.5C30.9265 7.21574 24.2108 0.5 15.9265 0.5C7.64223 0.5 0.926514 7.21574 0.926514 15.5C0.926514 23.7843 7.64223 30.5 15.9265 30.5ZM20.606 7.48764C20.8338 6.67854 20.0486 6.2001 19.3315 6.71098L9.32135 13.8422C8.54367 14.3962 8.666 15.5 9.5051 15.5H12.141V15.4796H17.2784L13.0924 16.9566L11.247 23.5124C11.0193 24.3215 11.8044 24.7999 12.5215 24.289L22.5317 17.1579C23.3094 16.6038 23.187 15.5 22.3479 15.5H18.3506L20.606 7.48764Z" fill="#155EEF"/>
<path d="M38.4265 22.6592V20.2865H40.3083V10.7138H38.4265V8.34105H45.7901C46.6629 8.34105 47.4197 8.49105 48.0606 8.79105C48.7151 9.07742 49.2197 9.49332 49.5742 10.0388C49.9424 10.5706 50.1265 11.2115 50.1265 11.9615V12.1661C50.1265 12.8206 50.0038 13.3592 49.7583 13.782C49.5129 14.1911 49.2197 14.5115 48.8788 14.7433C48.5515 14.9615 48.2379 15.1183 47.9379 15.2138V15.582C48.2379 15.6638 48.5652 15.8206 48.9197 16.0524C49.2742 16.2706 49.5742 16.5911 49.8197 17.0138C50.0788 17.4365 50.2083 17.9888 50.2083 18.6706V18.8751C50.2083 19.6661 50.0242 20.3479 49.6561 20.9206C49.2879 21.4797 48.7765 21.9092 48.122 22.2092C47.4811 22.5092 46.7311 22.6592 45.872 22.6592H38.4265ZM43.0083 20.2047H45.5447C46.1311 20.2047 46.6015 20.0615 46.9561 19.7751C47.3242 19.4888 47.5083 19.0797 47.5083 18.5479V18.3433C47.5083 17.8115 47.3311 17.4024 46.9765 17.1161C46.622 16.8297 46.1447 16.6865 45.5447 16.6865H43.0083V20.2047ZM43.0083 14.232H45.5038C46.0629 14.232 46.5197 14.0888 46.8742 13.8024C47.2424 13.5161 47.4265 13.1206 47.4265 12.6161V12.4115C47.4265 11.8933 47.2492 11.4979 46.8947 11.2251C46.5401 10.9388 46.0765 10.7956 45.5038 10.7956H43.0083V14.232Z" fill="#374151"/>
<path d="M56.3051 22.9456C55.296 22.9456 54.3892 22.7411 53.5846 22.332C52.7801 21.9229 52.146 21.3297 51.6823 20.5524C51.2187 19.7751 50.9869 18.8411 50.9869 17.7501V17.4229C50.9869 16.332 51.2187 15.3979 51.6823 14.6206C52.146 13.8433 52.7801 13.2501 53.5846 12.8411C54.3892 12.432 55.296 12.2274 56.3051 12.2274C57.3142 12.2274 58.221 12.432 59.0255 12.8411C59.8301 13.2501 60.4642 13.8433 60.9278 14.6206C61.3914 15.3979 61.6232 16.332 61.6232 17.4229V17.7501C61.6232 18.8411 61.3914 19.7751 60.9278 20.5524C60.4642 21.3297 59.8301 21.9229 59.0255 22.332C58.221 22.7411 57.3142 22.9456 56.3051 22.9456ZM56.3051 20.6547C57.096 20.6547 57.7505 20.4024 58.2687 19.8979C58.7869 19.3797 59.046 18.6433 59.046 17.6888V17.4842C59.046 16.5297 58.7869 15.8001 58.2687 15.2956C57.7642 14.7774 57.1096 14.5183 56.3051 14.5183C55.5142 14.5183 54.8596 14.7774 54.3414 15.2956C53.8232 15.8001 53.5642 16.5297 53.5642 17.4842V17.6888C53.5642 18.6433 53.8232 19.3797 54.3414 19.8979C54.8596 20.4024 55.5142 20.6547 56.3051 20.6547Z" fill="#374151"/>
<path d="M62.9795 22.6592V8.34105H65.5567V22.6592H62.9795Z" fill="#374151"/>
<path d="M71.2763 22.6592C70.6082 22.6592 70.0627 22.4547 69.64 22.0456C69.2309 21.6229 69.0264 21.0638 69.0264 20.3683V14.6411H66.49V12.5138H69.0264V9.36378H71.6036V12.5138H74.3854V14.6411H71.6036V19.9183C71.6036 20.3274 71.7945 20.532 72.1763 20.532H74.14V22.6592H71.2763Z" fill="#374151"/>
<path d="M79.9093 22.9456C78.5866 22.9456 77.5025 22.6592 76.657 22.0865C75.8116 21.5138 75.3002 20.6956 75.1229 19.632L77.4957 19.0183C77.5911 19.4956 77.7479 19.8706 77.9661 20.1433C78.1979 20.4161 78.4775 20.6138 78.8047 20.7365C79.1456 20.8456 79.5138 20.9001 79.9093 20.9001C80.5093 20.9001 80.9525 20.7979 81.2388 20.5933C81.5252 20.3751 81.6684 20.1092 81.6684 19.7956C81.6684 19.482 81.532 19.2433 81.2593 19.0797C80.9866 18.9024 80.5502 18.7592 79.9502 18.6501L79.3775 18.5479C78.6684 18.4115 78.0207 18.2274 77.4343 17.9956C76.8479 17.7501 76.3775 17.4161 76.0229 16.9933C75.6684 16.5706 75.4911 16.0251 75.4911 15.357C75.4911 14.3479 75.8593 13.5774 76.5957 13.0456C77.332 12.5001 78.3002 12.2274 79.5002 12.2274C80.632 12.2274 81.5729 12.4797 82.3229 12.9842C83.0729 13.4888 83.5638 14.1501 83.7957 14.9683L81.4025 15.7047C81.2934 15.1865 81.0684 14.8183 80.7275 14.6001C80.4002 14.382 79.9911 14.2729 79.5002 14.2729C79.0093 14.2729 78.6343 14.3615 78.3752 14.5388C78.1161 14.7024 77.9866 14.9342 77.9866 15.2342C77.9866 15.5615 78.1229 15.807 78.3957 15.9706C78.6684 16.1206 79.0366 16.2365 79.5002 16.3183L80.0729 16.4206C80.8366 16.557 81.5252 16.7411 82.1388 16.9729C82.7661 17.1911 83.257 17.5115 83.6116 17.9342C83.9797 18.3433 84.1638 18.9024 84.1638 19.6115C84.1638 20.6751 83.7752 21.5001 82.9979 22.0865C82.2343 22.6592 81.2047 22.9456 79.9093 22.9456Z" fill="#374151"/>
<path d="M85.3996 22.6592V8.34105H87.9768V13.7615H88.345C88.4541 13.5433 88.6246 13.3251 88.8564 13.107C89.0882 12.8888 89.395 12.7115 89.7768 12.5751C90.1723 12.4251 90.67 12.3501 91.27 12.3501C92.0609 12.3501 92.7496 12.5342 93.3359 12.9024C93.9359 13.257 94.3996 13.7547 94.7268 14.3956C95.0541 15.0229 95.2178 15.7592 95.2178 16.6047V22.6592H92.6405V16.8092C92.6405 16.0456 92.4496 15.4729 92.0678 15.0911C91.6996 14.7092 91.1678 14.5183 90.4723 14.5183C89.6814 14.5183 89.0678 14.7842 88.6314 15.3161C88.195 15.8342 87.9768 16.5638 87.9768 17.5047V22.6592H85.3996Z" fill="#374151"/>
<path d="M96.9812 22.6592V12.5138H99.5584V22.6592H96.9812ZM98.2698 11.3274C97.8062 11.3274 97.4107 11.1774 97.0834 10.8774C96.7698 10.5774 96.613 10.182 96.613 9.69105C96.613 9.20014 96.7698 8.80469 97.0834 8.50469C97.4107 8.20469 97.8062 8.05469 98.2698 8.05469C98.7471 8.05469 99.1425 8.20469 99.4562 8.50469C99.7698 8.80469 99.9266 9.20014 99.9266 9.69105C99.9266 10.182 99.7698 10.5774 99.4562 10.8774C99.1425 11.1774 98.7471 11.3274 98.2698 11.3274Z" fill="#374151"/>
<path d="M103.069 22.6592V14.6411H100.492V12.5138H103.069V10.632C103.069 9.93651 103.273 9.38423 103.683 8.97514C104.105 8.55242 104.651 8.34105 105.319 8.34105H107.978V10.4683H106.219C105.837 10.4683 105.646 10.6729 105.646 11.082V12.5138H108.305V14.6411H105.646V22.6592H103.069Z" fill="#374151"/>
<path d="M112.964 22.6592C112.296 22.6592 111.751 22.4547 111.328 22.0456C110.919 21.6229 110.714 21.0638 110.714 20.3683V14.6411H108.178V12.5138H110.714V9.36378H113.292V12.5138H116.074V14.6411H113.292V19.9183C113.292 20.3274 113.483 20.532 113.864 20.532H115.828V22.6592H112.964Z" fill="#374151"/>
</svg>
