<svg width="115" height="31" viewBox="0 0 115 31" fill="none" xmlns="http://www.w3.org/2000/svg">
<g clip-path="url(#clip0_1_107053)">
<path d="M17.6684 3.076L15.0304 2.36914L12.8073 10.6658L10.8003 3.17552L8.16221 3.88238L10.3307 11.9751L4.92953 6.57394L2.99836 8.50511L8.92276 14.4295L1.54487 12.4526L0.838013 15.0906L8.89928 17.2506C8.80699 16.8526 8.75816 16.4378 8.75816 16.0116C8.75816 12.9949 11.2036 10.5494 14.2203 10.5494C17.237 10.5494 19.6825 12.9949 19.6825 16.0116C19.6825 16.435 19.6343 16.8473 19.5431 17.243L26.8693 19.206L27.5761 16.568L19.4828 14.3994L26.8612 12.4224L26.1543 9.78439L18.0613 11.9529L23.4625 6.55177L21.5313 4.62061L15.6891 10.4628L17.6684 3.076Z" fill="#FF4405"/>
<path d="M19.5354 17.2737C19.3092 18.2299 18.8317 19.0889 18.1766 19.7772L23.4841 25.0847L25.4152 23.1536L19.5354 17.2737Z" fill="#FF4405"/>
<path d="M18.123 19.8326C17.4599 20.5099 16.622 21.0153 15.6823 21.2757L17.6136 28.4834L20.2516 27.7765L18.123 19.8326Z" fill="#FF4405"/>
<path d="M15.5837 21.3021C15.1478 21.4142 14.6908 21.4737 14.2199 21.4737C13.7153 21.4737 13.2268 21.4053 12.763 21.2773L10.8299 28.4915L13.4679 29.1984L15.5837 21.3021Z" fill="#FF4405"/>
<path d="M12.6697 21.2507C11.7444 20.9773 10.9213 20.4655 10.2718 19.7863L4.9512 25.1069L6.88236 27.038L12.6697 21.2507Z" fill="#FF4405"/>
<path d="M10.2279 19.7392C9.58952 19.0558 9.1245 18.2082 8.90316 17.2668L1.55304 19.2363L2.25989 21.8743L10.2279 19.7392Z" fill="#FF4405"/>
</g>
<path d="M43.45 8.56836V18.0746L37.3562 8.56836H34.9187V21.6934H37.3562V12.2621L43.45 21.6934H45.8875V8.56836H43.45Z" fill="#374151"/>
<path d="M46.9858 11.0246H49.4983V8.56836H46.9858V11.0246ZM47.0233 21.6934V12.3184H49.4608V21.6934H47.0233Z" fill="#374151"/>
<path d="M59.9483 17.0059C59.9483 13.7621 57.6421 12.2246 55.2046 12.2059C52.7483 12.1871 50.4796 13.7621 50.4796 17.0059C50.4796 20.2496 52.7483 21.8246 55.2046 21.8059C57.4358 21.7871 58.9733 20.7559 59.6858 19.0496L57.7921 18.2621C57.2108 19.4246 56.2921 19.8371 55.2046 19.8559C54.2671 19.8746 53.1983 19.4246 52.9733 17.7559H59.8921C59.9296 17.5121 59.9483 17.2684 59.9483 17.0059ZM55.2046 14.1371C56.1421 14.1559 57.0983 14.6621 57.3983 16.0121H53.0108C53.3296 14.6434 54.2858 14.1184 55.2046 14.1371Z" fill="#374151"/>
<path d="M65.5815 14.0621V12.2059H64.044V9.69336L61.6065 10.4434V12.2059H60.069V14.0621H61.6065V18.9184C61.6065 20.7559 61.7565 21.6934 64.6065 21.6934H65.2628V19.5559H64.6065C64.1565 19.5559 64.044 19.4809 64.044 18.9184V14.0621H65.5815Z" fill="#374151"/>
<path d="M69.2035 19.6496L74.3785 14.3621V12.3184H66.616V14.3621H71.641L66.466 19.6496V21.6934H74.4348V19.6496H69.2035Z" fill="#374151"/>
<path d="M75.3087 19.0496L77.7649 18.6746C77.9337 19.6121 79.0399 19.9684 79.7149 19.9684C80.4087 19.9684 81.6087 19.8184 81.6087 18.6934C81.6087 16.4996 75.5899 19.2371 75.5899 15.0371C75.5899 12.3371 78.7212 12.1871 79.7149 12.1871C80.6524 12.1871 83.3712 12.3371 83.9337 14.5121L81.6087 14.9996C81.4024 14.0059 80.3524 13.8184 79.7899 13.8184C79.2274 13.8184 78.0274 13.9496 78.0274 15.0371C78.0274 17.2121 84.0462 14.4371 84.0462 18.6934C84.0462 21.5621 80.7462 21.8059 79.7149 21.8059C78.7774 21.8059 75.7962 21.5621 75.3087 19.0496Z" fill="#374151"/>
<path d="M87.2127 17.0059C87.2127 19.2934 88.4315 19.9871 89.7065 19.9684C90.8502 19.9496 91.6377 19.4809 92.1065 18.1684L94.1127 19.1434C93.3815 21.0559 91.6002 21.7871 89.7065 21.8059C87.2502 21.8246 84.7752 20.2496 84.7752 17.0059C84.7752 13.7621 87.2502 12.1871 89.7065 12.2059C91.6002 12.2246 93.3815 12.9559 94.1127 14.8684L92.1065 15.8434C91.6377 14.5309 90.8502 14.0621 89.7065 14.0434C88.4315 14.0246 87.2127 14.7184 87.2127 17.0059Z" fill="#374151"/>
<path d="M100.656 12.1684C99.4001 12.1684 98.2563 12.8246 97.5251 14.2309V8.56836H95.0876V21.6934H97.5251V18.3746C97.5251 14.0809 99.3063 13.7246 99.9626 13.7246C101.013 13.7246 101.163 14.8121 101.163 16.4059V21.6934H103.6V16.4059C103.6 14.4184 103.281 12.1684 100.656 12.1684Z" fill="#374151"/>
<path d="M113.891 17.0059C113.891 13.7621 111.585 12.2246 109.147 12.2059C106.691 12.1871 104.422 13.7621 104.422 17.0059C104.422 20.2496 106.691 21.8246 109.147 21.8059C111.379 21.7871 112.916 20.7559 113.629 19.0496L111.735 18.2621C111.154 19.4246 110.235 19.8371 109.147 19.8559C108.21 19.8746 107.141 19.4246 106.916 17.7559H113.835C113.872 17.5121 113.891 17.2684 113.891 17.0059ZM109.147 14.1371C110.085 14.1559 111.041 14.6621 111.341 16.0121H106.954C107.272 14.6434 108.229 14.1184 109.147 14.1371Z" fill="#374151"/>
<defs>
<clipPath id="clip0_1_107053">
<rect width="27.5" height="27.5" fill="white" transform="translate(0.625 1.75)"/>
</clipPath>
</defs>
</svg>
