<svg width="113" height="31" viewBox="0 0 113 31" fill="none" xmlns="http://www.w3.org/2000/svg">
<circle cx="15.0366" cy="15.6699" r="13.5" stroke="#6927DA" stroke-width="3"/>
<path d="M20.2435 20.8769C17.471 23.6495 14.3463 25.4416 11.5949 26.1491C8.80585 26.8663 6.69446 26.4197 5.49073 25.216C4.28699 24.0122 3.8404 21.9009 4.55759 19.1118C5.26508 16.3604 7.05723 13.2357 9.82979 10.4632C12.6024 7.6906 15.7271 5.89845 18.4784 5.19096C21.2675 4.47377 23.3789 4.92036 24.5826 6.1241C25.7863 7.32783 26.2329 9.43922 25.5157 12.2283C24.8083 14.9796 23.0161 18.1044 20.2435 20.8769Z" stroke="#6927DA" stroke-width="3"/>
<path d="M20.2434 10.4632C23.0159 13.2358 24.8081 16.3605 25.5156 19.1119C26.2328 21.9009 25.7862 24.0123 24.5824 25.2161C23.3787 26.4198 21.2673 26.8664 18.4782 26.1492C15.7269 25.4417 12.6022 23.6496 9.82962 20.877C7.05705 18.1044 5.2649 14.9797 4.55741 12.2284C3.84022 9.43931 4.28682 7.32791 5.49055 6.12418C6.69428 4.92045 8.80568 4.47385 11.5947 5.19104C14.3461 5.89853 17.4708 7.69068 20.2434 10.4632Z" stroke="#6927DA" stroke-width="3"/>
<path d="M42.8886 22.4816C46.1 22.4816 48.2682 20.8043 48.2682 18.1248C48.2682 12.4588 40.7409 14.8725 40.7409 11.8861C40.7409 11.0475 41.4977 10.4748 42.7045 10.4748C44.075 10.4748 44.9341 11.2111 45.0364 12.3361H47.9614C47.8795 9.61566 45.7932 7.83612 42.7045 7.83612C39.8 7.83612 37.7545 9.51339 37.7545 11.8861C37.7545 17.5111 45.1795 15.3634 45.1795 18.1657C45.1795 19.2498 44.2591 19.8225 42.8886 19.8225C41.375 19.8225 40.4136 18.902 40.2909 17.4498H37.3455C37.4682 20.4975 39.6364 22.4816 42.8886 22.4816Z" fill="#374151"/>
<path d="M48.9638 26.4907H51.807V21.3975C52.3593 22.0929 53.3615 22.4816 54.5274 22.4816C57.4933 22.4816 59.4979 20.3748 59.4979 17.1634C59.4979 13.952 57.657 11.8452 54.7729 11.8452C53.4433 11.8452 52.4206 12.3361 51.807 13.1338V12.0088H48.9638V26.4907ZM54.1797 20.027C52.6456 20.027 51.6433 18.8816 51.6433 17.1634C51.6433 15.4248 52.6456 14.2793 54.1797 14.2793C55.6729 14.2793 56.6956 15.4248 56.6956 17.1634C56.6956 18.8816 55.6729 20.027 54.1797 20.027Z" fill="#374151"/>
<path d="M60.1858 22.3179H63.029V16.6725C63.029 15.3429 63.9086 14.3816 65.1563 14.3816C66.3427 14.3816 67.1608 15.2816 67.1608 16.5293V22.3179H70.004V15.8952C70.004 13.5225 68.4904 11.8452 66.179 11.8452C64.7472 11.8452 63.6222 12.4384 63.029 13.4407V7.5293H60.1858V22.3179Z" fill="#374151"/>
<path d="M77.9576 18.8202C77.7326 19.6998 76.9758 20.1498 75.8304 20.1498C74.3985 20.1498 73.4781 19.2498 73.2735 17.7975H80.6781C80.6985 17.5725 80.719 17.2657 80.719 16.877C80.719 14.5248 79.2667 11.8452 75.6258 11.8452C72.1281 11.8452 70.5326 14.5248 70.5326 17.1429C70.5326 19.7407 72.3326 22.4816 75.8304 22.4816C78.3667 22.4816 80.3304 21.0498 80.7395 18.8202H77.9576ZM75.6258 13.9316C76.9963 13.9316 77.794 14.852 77.8758 15.9975H73.3145C73.5599 14.5657 74.3372 13.9316 75.6258 13.9316Z" fill="#374151"/>
<path d="M88.1756 14.3816V12.0088H86.7087C85.4609 12.0088 84.6837 12.4384 84.1314 13.727V12.0088H81.2678V22.3179H84.1314V17.3066C84.1314 15.5475 84.7655 14.3816 86.1769 14.3816H88.1756Z" fill="#374151"/>
<path d="M97.9938 12.0088H95.1302V17.6543C95.1302 18.9634 94.2506 19.9452 93.0029 19.9452C91.837 19.9452 91.0188 19.0452 91.0188 17.7975V12.0088H88.1756V18.4316C88.1756 20.7838 89.6893 22.4816 92.0006 22.4816C93.412 22.4816 94.5575 21.8679 95.1302 20.8861V22.3179H97.9938V12.0088Z" fill="#374151"/>
<path d="M99.2213 22.3179H102.064V7.5293H99.2213V22.3179Z" fill="#374151"/>
<path d="M110.182 18.8202C109.957 19.6998 109.2 20.1498 108.054 20.1498C106.622 20.1498 105.702 19.2498 105.497 17.7975H112.902C112.922 17.5725 112.943 17.2657 112.943 16.877C112.943 14.5248 111.491 11.8452 107.85 11.8452C104.352 11.8452 102.757 14.5248 102.757 17.1429C102.757 19.7407 104.557 22.4816 108.054 22.4816C110.591 22.4816 112.554 21.0498 112.963 18.8202H110.182ZM107.85 13.9316C109.22 13.9316 110.018 14.852 110.1 15.9975H105.538C105.784 14.5657 106.561 13.9316 107.85 13.9316Z" fill="#374151"/>
</svg>
