<svg width="139" height="31" viewBox="0 0 139 31" fill="none" xmlns="http://www.w3.org/2000/svg">
<path d="M25.907 6.74752C25.6063 6.45282 25.3055 6.15813 25.0048 5.86343C24.1026 4.92041 23.1402 3.97738 21.9372 3.38799C20.5538 2.68072 19.0501 2.85754 17.5464 2.85754C15.2608 2.85754 9.54675 2.85754 6.17847 2.85754L8.46409 5.86343C12.6143 5.86343 19.1103 5.86343 22.1177 5.86343C23.3808 5.86343 24.4635 6.09919 25.486 6.74752C25.6664 6.80646 25.8469 6.80646 25.907 6.74752Z" fill="#66C61C"/>
<path d="M28.4332 11.5805C28.1325 11.2858 27.8317 10.9911 27.531 10.6964C26.6288 9.75341 25.6664 8.81039 24.4634 8.22099C23.08 7.51372 21.5763 7.69055 20.0726 7.69055C18.0878 7.69055 13.3361 7.69055 9.96777 7.69055L12.2534 10.6964C16.3435 10.6964 21.9372 10.6964 24.704 10.6964C25.9671 10.6964 27.0498 10.9322 28.0723 11.5805C28.1926 11.6395 28.3129 11.6395 28.4332 11.5805Z" fill="#4CA30D"/>
<path d="M31.2601 16.2954C30.9593 16.0007 30.6586 15.706 30.3578 15.4113C29.4556 14.4683 28.4933 13.5252 27.2903 12.9358C25.9069 12.2286 24.4032 12.4054 22.8995 12.4054C21.0349 12.4054 16.9449 12.4054 13.6367 12.4054L15.9223 15.4113C19.8921 15.4113 24.9445 15.4113 27.4708 15.4113C28.7339 15.4113 29.8165 15.647 30.839 16.2954C31.0195 16.3543 31.1398 16.4133 31.2601 16.2954Z" fill="#3B7C0F"/>
<path d="M5.93774 24.2522C6.23848 24.5469 6.53922 24.8416 6.83996 25.1363C7.74218 26.0793 8.70455 27.0223 9.90751 27.6117C11.2909 28.319 12.7946 28.1422 14.2983 28.1422H25.6663L23.3807 25.1363C19.2304 25.1363 12.7345 25.1363 9.72707 25.1363C8.46396 25.1363 7.38129 24.9005 6.35878 24.2522C6.17833 24.1933 6.05804 24.1933 5.93774 24.2522Z" fill="#66C61C"/>
<path d="M3.41162 19.4192C3.71236 19.7139 4.0131 20.0086 4.31384 20.3033C5.21606 21.2463 6.17842 22.1893 7.38138 22.7787C8.76479 23.486 10.2685 23.3092 11.7722 23.3092H21.877L19.5914 20.3033C15.5014 20.3033 9.9076 20.3033 7.14079 20.3033C5.87769 20.3033 4.79502 20.0675 3.7725 19.4192C3.65221 19.3603 3.53192 19.3603 3.41162 19.4192Z" fill="#4CA30D"/>
<path d="M0.644775 14.6458C0.945515 14.9405 1.24626 15.2352 1.547 15.5299C2.44921 16.4729 3.41159 17.4159 4.61455 18.0053C5.99795 18.7126 7.50164 18.5358 9.00534 18.5358H18.2681L15.9825 15.5299C12.0127 15.5299 6.96031 15.5299 4.4341 15.5299C3.17099 15.5299 2.08833 15.2941 1.06581 14.6458C0.885365 14.5868 0.765071 14.5868 0.644775 14.6458Z" fill="#3B7C0F"/>
<path d="M38.218 8.56055V22.1915H41.2768V16.5596H47.102V14.2305H41.2768V11.0805H47.9982V8.56055H38.218Z" fill="#374151"/>
<path d="M55.6699 16.1969H51.1694C51.1824 16.006 51.2214 15.7896 51.2863 15.5478C51.3643 15.306 51.4877 15.0769 51.6565 14.8605C51.8383 14.6442 52.0721 14.466 52.3579 14.326C52.6566 14.1733 53.0268 14.0969 53.4684 14.0969C54.1438 14.0969 54.6438 14.2751 54.9685 14.6315C55.3062 14.9878 55.54 15.5096 55.6699 16.1969ZM51.1694 17.9151H58.4364C58.4884 17.1515 58.4234 16.4196 58.2416 15.7196C58.0598 15.0196 57.761 14.396 57.3454 13.8487C56.9428 13.3015 56.4232 12.8687 55.7868 12.5505C55.1504 12.2196 54.4035 12.0542 53.5463 12.0542C52.78 12.0542 52.0786 12.1878 51.4422 12.4551C50.8188 12.7224 50.2797 13.0915 49.8252 13.5624C49.3706 14.0205 49.0199 14.5678 48.7731 15.2042C48.5263 15.8405 48.4029 16.5278 48.4029 17.266C48.4029 18.0296 48.5198 18.7296 48.7536 19.366C49.0004 20.0024 49.3446 20.5496 49.7862 21.0078C50.2278 21.466 50.7668 21.8224 51.4032 22.0769C52.0397 22.3187 52.754 22.4396 53.5463 22.4396C54.6893 22.4396 55.6634 22.1851 56.4687 21.676C57.274 21.1669 57.8714 20.3205 58.2611 19.1369H55.8258C55.7348 19.4424 55.4881 19.7351 55.0854 20.0151C54.6828 20.2824 54.2022 20.416 53.6437 20.416C52.8644 20.416 52.267 20.2187 51.8513 19.8242C51.4357 19.4296 51.2084 18.7933 51.1694 17.9151Z" fill="#374151"/>
<path d="M59.3758 15.3569C59.4148 14.7205 59.5772 14.1924 59.8629 13.7724C60.1486 13.3524 60.5123 13.0151 60.9539 12.7605C61.3955 12.506 61.8891 12.3278 62.4346 12.226C62.9931 12.1115 63.5516 12.0542 64.1101 12.0542C64.6166 12.0542 65.1297 12.0924 65.6492 12.1687C66.1687 12.2324 66.6428 12.366 67.0714 12.5696C67.5 12.7733 67.8507 13.0596 68.1235 13.4287C68.3962 13.7851 68.5326 14.2624 68.5326 14.8605V19.996C68.5326 20.4415 68.5586 20.8678 68.6105 21.2751C68.6625 21.6824 68.7534 21.9878 68.8833 22.1915H66.0778C66.0259 22.0387 65.9804 21.886 65.9414 21.7333C65.9155 21.5678 65.896 21.4024 65.883 21.2369C65.4414 21.6824 64.9218 21.9942 64.3244 22.1724C63.7269 22.3505 63.1165 22.4396 62.493 22.4396C62.0125 22.4396 61.5644 22.3824 61.1487 22.2678C60.7331 22.1533 60.3694 21.9751 60.0577 21.7333C59.746 21.4915 59.4992 21.186 59.3174 20.8169C59.1485 20.4478 59.0641 20.0087 59.0641 19.4996C59.0641 18.9396 59.1615 18.4815 59.3564 18.1251C59.5642 17.756 59.8239 17.4633 60.1357 17.2469C60.4604 17.0305 60.824 16.8715 61.2267 16.7696C61.6423 16.6551 62.0579 16.566 62.4735 16.5024C62.8892 16.4387 63.2983 16.3878 63.7009 16.3496C64.1036 16.3115 64.4608 16.2542 64.7725 16.1778C65.0842 16.1015 65.331 15.9933 65.5128 15.8533C65.6947 15.7005 65.7791 15.4842 65.7661 15.2042C65.7661 14.9115 65.7141 14.6824 65.6102 14.5169C65.5193 14.3387 65.3894 14.2051 65.2206 14.116C65.0647 14.0142 64.8764 13.9505 64.6556 13.9251C64.4478 13.8869 64.2205 13.8678 63.9737 13.8678C63.4282 13.8678 62.9996 13.9824 62.6879 14.2115C62.3761 14.4405 62.1943 14.8224 62.1423 15.3569H59.3758ZM65.7661 17.3615C65.6492 17.4633 65.4998 17.546 65.318 17.6096C65.1491 17.6605 64.9608 17.7051 64.753 17.7433C64.5582 17.7815 64.3504 17.8133 64.1296 17.8387C63.9088 17.8642 63.688 17.896 63.4672 17.9342C63.2593 17.9724 63.0515 18.0233 62.8437 18.0869C62.6489 18.1505 62.4735 18.2396 62.3177 18.3542C62.1748 18.456 62.0579 18.5896 61.967 18.7551C61.8761 18.9205 61.8306 19.1305 61.8306 19.3851C61.8306 19.6269 61.8761 19.8305 61.967 19.996C62.0579 20.1615 62.1813 20.2951 62.3372 20.3969C62.493 20.486 62.6749 20.5496 62.8827 20.5878C63.0905 20.626 63.3048 20.6451 63.5256 20.6451C64.0711 20.6451 64.4932 20.556 64.792 20.3778C65.0907 20.1996 65.3115 19.9896 65.4544 19.7478C65.5972 19.4933 65.6817 19.2387 65.7076 18.9842C65.7466 18.7296 65.7661 18.526 65.7661 18.3733V17.3615Z" fill="#374151"/>
<path d="M73.6023 12.3215V9.36237H70.8358V12.3215H69.1603V14.1351H70.8358V19.9578C70.8358 20.4542 70.9202 20.8551 71.0891 21.1605C71.2579 21.466 71.4852 21.7015 71.771 21.8669C72.0697 22.0324 72.4074 22.1405 72.784 22.1915C73.1737 22.2551 73.5828 22.2869 74.0114 22.2869C74.2842 22.2869 74.5634 22.2805 74.8492 22.2678C75.1349 22.2551 75.3947 22.2296 75.6285 22.1915V20.0915C75.4986 20.1169 75.3622 20.136 75.2193 20.1487C75.0765 20.1615 74.9271 20.1678 74.7713 20.1678C74.3037 20.1678 73.992 20.0915 73.8361 19.9387C73.6802 19.786 73.6023 19.4805 73.6023 19.0224V14.1351H75.6285V12.3215H73.6023Z" fill="#374151"/>
<path d="M76.3603 8.56055V22.1915H79.1268V17.0178C79.1268 16.0124 79.2957 15.2933 79.6333 14.8605C79.971 14.4151 80.5166 14.1924 81.2699 14.1924C81.9323 14.1924 82.3934 14.396 82.6531 14.8033C82.9129 15.1978 83.0428 15.8024 83.0428 16.6169V22.1915H85.8093V16.1205C85.8093 15.5096 85.7508 14.956 85.634 14.4596C85.53 13.9505 85.3417 13.5242 85.069 13.1805C84.7962 12.8242 84.4195 12.5505 83.939 12.3596C83.4714 12.156 82.8674 12.0542 82.1271 12.0542C81.6076 12.0542 81.0751 12.1878 80.5295 12.4551C79.984 12.7096 79.5359 13.1233 79.1852 13.696H79.1268V8.56055H76.3603Z" fill="#374151"/>
<path d="M94.1044 16.1969H89.604C89.617 16.006 89.6559 15.7896 89.7209 15.5478C89.7988 15.306 89.9222 15.0769 90.091 14.8605C90.2729 14.6442 90.5067 14.466 90.7924 14.326C91.0911 14.1733 91.4613 14.0969 91.9029 14.0969C92.5783 14.0969 93.0783 14.2751 93.403 14.6315C93.7407 14.9878 93.9745 15.5096 94.1044 16.1969ZM89.604 17.9151H96.8709C96.9229 17.1515 96.8579 16.4196 96.6761 15.7196C96.4943 15.0196 96.1955 14.396 95.7799 13.8487C95.3773 13.3015 94.8577 12.8687 94.2213 12.5505C93.5849 12.2196 92.8381 12.0542 91.9808 12.0542C91.2145 12.0542 90.5131 12.1878 89.8767 12.4551C89.2533 12.7224 88.7143 13.0915 88.2597 13.5624C87.8051 14.0205 87.4544 14.5678 87.2076 15.2042C86.9608 15.8405 86.8374 16.5278 86.8374 17.266C86.8374 18.0296 86.9543 18.7296 87.1881 19.366C87.4349 20.0024 87.7791 20.5496 88.2207 21.0078C88.6623 21.466 89.2013 21.8224 89.8378 22.0769C90.4742 22.3187 91.1885 22.4396 91.9808 22.4396C93.1238 22.4396 94.0979 22.1851 94.9032 21.676C95.7085 21.1669 96.3059 20.3205 96.6956 19.1369H94.2603C94.1694 19.4424 93.9226 19.7351 93.5199 20.0151C93.1173 20.2824 92.6367 20.416 92.0782 20.416C91.2989 20.416 90.7015 20.2187 90.2858 19.8242C89.8702 19.4296 89.6429 18.7933 89.604 17.9151Z" fill="#374151"/>
<path d="M97.9272 12.3215V22.1915H100.694V17.7433C100.694 17.2978 100.739 16.8842 100.83 16.5024C100.921 16.1205 101.07 15.7896 101.278 15.5096C101.499 15.2169 101.785 14.9878 102.135 14.8224C102.486 14.6569 102.915 14.5742 103.421 14.5742C103.59 14.5742 103.765 14.5869 103.947 14.6124C104.129 14.6251 104.285 14.6442 104.415 14.6696V12.1496C104.194 12.086 103.993 12.0542 103.811 12.0542C103.46 12.0542 103.123 12.1051 102.798 12.2069C102.473 12.3087 102.168 12.4551 101.882 12.646C101.596 12.8242 101.343 13.0469 101.122 13.3142C100.902 13.5687 100.726 13.8487 100.596 14.1542H100.557V12.3215H97.9272Z" fill="#374151"/>
<path d="M108.266 19.6715V11.0805H110.448C111.201 11.0805 111.831 11.1887 112.338 11.4051C112.857 11.6087 113.273 11.9078 113.585 12.3024C113.896 12.6969 114.117 13.1742 114.247 13.7342C114.39 14.2815 114.461 14.8987 114.461 15.586C114.461 16.3369 114.364 16.9733 114.169 17.4951C113.974 18.0169 113.715 18.4433 113.39 18.7742C113.065 19.0924 112.695 19.3215 112.279 19.4615C111.864 19.6015 111.435 19.6715 110.994 19.6715H108.266ZM105.207 8.56055V22.1915H111.208C112.273 22.1915 113.195 22.0196 113.974 21.676C114.767 21.3196 115.423 20.836 115.942 20.2251C116.475 19.6142 116.871 18.8887 117.131 18.0487C117.39 17.2087 117.52 16.2924 117.52 15.2996C117.52 14.1669 117.358 13.1805 117.033 12.3405C116.721 11.5005 116.28 10.8005 115.708 10.2405C115.15 9.68055 114.481 9.26055 113.702 8.98055C112.935 8.70055 112.104 8.56055 111.208 8.56055H105.207Z" fill="#374151"/>
<path d="M125.551 16.1969H121.051C121.064 16.006 121.103 15.7896 121.168 15.5478C121.245 15.306 121.369 15.0769 121.538 14.8605C121.72 14.6442 121.953 14.466 122.239 14.326C122.538 14.1733 122.908 14.0969 123.35 14.0969C124.025 14.0969 124.525 14.2751 124.85 14.6315C125.187 14.9878 125.421 15.5096 125.551 16.1969ZM121.051 17.9151H128.318C128.37 17.1515 128.305 16.4196 128.123 15.7196C127.941 15.0196 127.642 14.396 127.227 13.8487C126.824 13.3015 126.304 12.8687 125.668 12.5505C125.032 12.2196 124.285 12.0542 123.428 12.0542C122.661 12.0542 121.96 12.1878 121.323 12.4551C120.7 12.7224 120.161 13.0915 119.706 13.5624C119.252 14.0205 118.901 14.5678 118.654 15.2042C118.408 15.8405 118.284 16.5278 118.284 17.266C118.284 18.0296 118.401 18.7296 118.635 19.366C118.882 20.0024 119.226 20.5496 119.667 21.0078C120.109 21.466 120.648 21.8224 121.284 22.0769C121.921 22.3187 122.635 22.4396 123.428 22.4396C124.57 22.4396 125.545 22.1851 126.35 21.676C127.155 21.1669 127.753 20.3205 128.142 19.1369H125.707C125.616 19.4424 125.369 19.7351 124.967 20.0151C124.564 20.2824 124.083 20.416 123.525 20.416C122.746 20.416 122.148 20.2187 121.733 19.8242C121.317 19.4296 121.09 18.7933 121.051 17.9151Z" fill="#374151"/>
<path d="M134.946 22.1915L138.355 12.3215H135.608L133.485 19.0605H133.446L131.322 12.3215H128.419L131.868 22.1915H134.946Z" fill="#374151"/>
</svg>
