<svg width="59" height="25" viewBox="0 0 59 25" fill="none" xmlns="http://www.w3.org/2000/svg">
<path d="M15.1903 2.40685L11.2016 3.25433L11.1832 16.372C11.1832 18.7947 13.0071 20.3607 15.4298 20.3607C16.7747 20.3607 17.7604 20.112 18.3039 19.8172V16.7036C17.7788 16.9155 15.1995 17.6708 15.1995 15.2573V9.43547H18.3039V5.9534H15.1995L15.1903 2.40685ZM23.398 7.16015L23.1493 5.9534H19.612V20.0659H23.6928V10.5685C24.66 9.29729 26.2905 9.54601 26.8156 9.71182V5.9534C26.2629 5.75995 24.3561 5.40069 23.398 7.16015ZM31.9005 0.5L27.7921 1.37512V4.7098L31.9005 3.83468V0.5ZM4.1269 10.1079C4.1269 9.47232 4.66118 9.2236 5.51788 9.21439C6.76148 9.21439 8.34591 9.59207 9.58951 10.2645V6.41399C8.23537 5.8797 6.88123 5.66783 5.52709 5.66783C2.21084 5.66783 0 7.39966 0 10.2922C0 14.8244 6.21798 14.0874 6.21798 16.0403C6.21798 16.7957 5.56394 17.0444 4.65197 17.0444C3.29783 17.0444 1.54759 16.4825 0.175025 15.7364V19.4211C1.69498 20.0751 3.23335 20.3515 4.64276 20.3515C8.04192 20.3515 10.3817 18.896 10.3817 15.9482C10.3817 11.0752 4.1269 11.9503 4.1269 10.1079ZM58.9465 13.1755C58.9465 8.98409 56.9199 5.67704 53.0325 5.67704C49.1451 5.67704 46.7776 8.98409 46.7776 13.1478C46.7776 18.0762 49.5688 20.3515 53.5483 20.3515C55.5012 20.3515 56.9659 19.9093 58.0805 19.2921V16.2154C56.9659 16.7773 55.6855 17.1181 54.0642 17.1181C52.4705 17.1181 51.0703 16.5562 50.8861 14.6401H58.8912C58.9096 14.4283 58.9465 13.5716 58.9465 13.1755ZM50.8493 11.6279C50.8493 9.78552 51.9823 9.01172 53.0048 9.01172C54.0089 9.01172 55.0775 9.78552 55.0775 11.6279H50.8493ZM40.4491 5.67704C38.8463 5.67704 37.8145 6.43241 37.2434 6.95749L37.0315 5.94419H33.4297V24.81L37.5198 23.9441L37.529 19.3198C38.1185 19.7527 38.9936 20.3515 40.4215 20.3515C43.3508 20.3515 46.0223 18.2143 46.0223 13.0189C46.0315 8.26557 43.3232 5.67704 40.4491 5.67704ZM39.4727 16.9615C38.5146 16.9615 37.9435 16.6115 37.5474 16.1877L37.5198 10.1079C37.9435 9.63813 38.5331 9.29729 39.4727 9.29729C40.965 9.29729 41.9967 10.9738 41.9967 13.111C42.0059 15.3126 40.9926 16.9615 39.4727 16.9615ZM27.8013 20.0659H31.9098V5.9534H27.8013V20.0659Z" fill="#0F172A"/>
</svg>
