<svg width="34" height="34" viewBox="0 0 34 34" fill="none" xmlns="http://www.w3.org/2000/svg">
<g clip-path="url(#clip0_3991_48858)">
<path d="M33.5837 7.11368C32.8796 6.40951 27.6448 1.17476 26.89 0.420054C26.3299 -0.140018 25.4218 -0.140018 24.8618 0.420054C24.3017 0.980125 24.3017 1.88823 24.8618 2.44824L25.6751 3.26158L21.764 7.17272C20.1085 5.51721 19.7711 5.1798 18.3725 3.78121C17.8125 3.22114 16.9044 3.22114 16.3443 3.78121C15.7842 4.34128 15.7842 5.24932 16.3443 5.8094L17.9083 7.3734L4.72377 20.5581C4.1637 21.1181 4.1637 22.0262 4.72377 22.5862L7.0565 24.919L0.42396 31.5517C-0.136112 32.1118 -0.136112 33.0198 0.42396 33.5799C0.983965 34.14 1.89207 34.1401 2.45214 33.5799L9.08481 26.9472L11.4175 29.28C11.9772 29.8398 12.8858 29.84 13.4457 29.28L26.6304 16.0953L28.1944 17.6593C28.7545 18.2194 29.6626 18.2195 30.2226 17.6593C30.7827 17.0992 30.7827 16.1912 30.2226 15.6311C28.8245 14.233 28.486 13.8944 26.8311 12.2396L30.7423 8.32839L31.5556 9.14174C32.1156 9.70181 33.0237 9.70194 33.5838 9.14174C34.1438 8.5818 34.1438 7.67376 33.5837 7.11368ZM12.4316 26.2377L7.76612 21.5722L14.0881 15.2502C15.2544 16.4164 15.2678 16.382 15.2678 16.5686C15.2678 16.6319 15.2508 16.7243 15.1698 16.8054C13.921 18.0543 13.921 20.0863 15.1698 21.3353L16.2519 22.4174L12.4316 26.2377ZM18.2801 20.3892L17.1981 19.3072C17.0676 19.1765 17.0676 18.9641 17.198 18.8336C18.447 17.5848 18.447 15.5527 17.198 14.3038L16.1164 13.2221L19.9367 9.40172C20.3932 9.85813 24.1371 13.6022 24.6023 14.0672L18.2801 20.3892ZM24.8029 10.2115C24.1827 9.59144 24.4121 9.82067 23.7922 9.20084L27.7034 5.2897C28.3059 5.89214 28.3339 5.92016 28.7141 6.30027L24.8029 10.2115Z" fill="white"/>
</g>
<defs>
<clipPath id="clip0_3991_48858">
<rect width="34" height="34" fill="white" transform="translate(0.00390625)"/>
</clipPath>
</defs>
</svg>
