<svg width="18" height="17" viewBox="0 0 18 17" fill="none" xmlns="http://www.w3.org/2000/svg">
<path d="M9.53125 5.3125C9.53125 5.1716 9.47528 5.03648 9.37565 4.93685C9.27602 4.83722 9.1409 4.78125 9 4.78125C8.8591 4.78125 8.72398 4.83722 8.62435 4.93685C8.52472 5.03648 8.46875 5.1716 8.46875 5.3125V7.96875H6.875C6.7341 7.96875 6.59898 8.02472 6.49935 8.12435C6.39972 8.22398 6.34375 8.3591 6.34375 8.5C6.34375 8.6409 6.39972 8.77602 6.49935 8.87565C6.59898 8.97528 6.7341 9.03125 6.875 9.03125H9C9.1409 9.03125 9.27602 8.97528 9.37565 8.87565C9.47528 8.77602 9.53125 8.6409 9.53125 8.5V5.3125Z" fill="#10B981"/>
<path d="M6.52119 17C5.54369 17 4.75001 16.2074 4.75001 15.2288V13.2526C4.08056 12.6551 3.54512 11.9228 3.17887 11.1037C2.81263 10.2846 2.62387 9.39726 2.62501 8.5C2.62501 6.61194 3.44526 4.91513 4.75001 3.7485V1.77119C4.75001 0.793688 5.54263 0 6.52119 0H11.4788C12.4563 0 13.25 0.792625 13.25 1.77119V3.74744C14.3302 4.71216 15.0491 6.01647 15.2879 7.44494C15.3639 7.43266 15.4417 7.437 15.5159 7.45764C15.59 7.47828 15.6589 7.51474 15.7176 7.56451C15.7764 7.61428 15.8237 7.67618 15.8562 7.74596C15.8888 7.81574 15.9059 7.89175 15.9063 7.96875V9.03125C15.9062 9.10837 15.8894 9.18455 15.857 9.25451C15.8245 9.32447 15.7772 9.38653 15.7184 9.43637C15.6595 9.48621 15.5905 9.52265 15.5162 9.54315C15.4419 9.56364 15.364 9.56771 15.2879 9.55506C15.0491 10.9835 14.3302 12.2878 13.25 13.2526V15.2288C13.25 16.2063 12.4574 17 11.4788 17H6.52119ZM14.3125 8.5C14.3125 7.09104 13.7528 5.73978 12.7565 4.74349C11.7602 3.74721 10.409 3.1875 9.00001 3.1875C7.59104 3.1875 6.23979 3.74721 5.2435 4.74349C4.24721 5.73978 3.68751 7.09104 3.68751 8.5C3.68751 9.90896 4.24721 11.2602 5.2435 12.2565C6.23979 13.2528 7.59104 13.8125 9.00001 13.8125C10.409 13.8125 11.7602 13.2528 12.7565 12.2565C13.7528 11.2602 14.3125 9.90896 14.3125 8.5Z" fill="#10B981"/>
</svg>
