<svg width="149" height="40" viewBox="0 0 149 40" fill="none" xmlns="http://www.w3.org/2000/svg">
<path d="M20.0379 14.942C20.0379 21.4178 15.5573 25.8757 8.56835 25.8757H0.382324V4.0083H8.57975C15.5573 4.0083 20.0379 8.43195 20.0379 14.942ZM8.23771 21.2696C12.2623 21.2696 14.6224 18.9666 14.6224 14.942C14.6224 10.9174 12.2509 8.55736 8.23771 8.55736H5.70666V21.2696H8.23771Z" fill="#4F46E5"/>
<path d="M32.9285 26.1044C26.7263 26.1044 21.687 21.4642 21.687 14.8857C21.687 8.30724 26.7377 3.70117 32.9285 3.70117C39.165 3.70117 44.1131 8.30724 44.1131 14.8857C44.1131 21.4528 39.1194 26.1044 32.9285 26.1044ZM32.9285 21.2361C36.4173 21.2361 38.6975 18.7165 38.6975 14.8857C38.6975 10.9865 36.4287 8.53526 32.9285 8.53526C29.3714 8.53526 27.1368 10.9979 27.1368 14.8857C27.1254 18.7165 29.3714 21.2361 32.9285 21.2361Z" fill="#4F46E5"/>
<path d="M57.1618 3.75928C62.3607 3.75928 66.2941 6.68937 67.5368 11.4208H61.6766C60.7759 9.55106 59.1228 8.61617 57.0934 8.61617C53.8212 8.61617 51.5752 11.0446 51.5752 14.9096C51.5752 18.7746 53.8212 21.203 57.0934 21.203C59.1228 21.203 60.7645 20.2681 61.6766 18.3983H67.5368C66.2941 23.1298 62.3607 26.0257 57.1618 26.0257C50.7087 26.0257 46.1597 21.4425 46.1597 14.8982C46.1711 8.37674 50.7201 3.75928 57.1618 3.75928Z" fill="#4F46E5"/>
<path d="M80.0055 3.75928C85.2044 3.75928 89.1378 6.68937 90.3806 11.4208H84.5204C83.6197 9.55106 81.9665 8.61617 79.9371 8.61617C76.665 8.61617 74.419 11.0446 74.419 14.9096C74.419 18.7746 76.665 21.203 79.9371 21.203C81.9665 21.203 83.6083 20.2681 84.5204 18.3983H90.3806C89.1378 23.1298 85.2044 26.0257 80.0055 26.0257C73.5525 26.0257 69.0034 21.4425 69.0034 14.8982C69.0148 8.37674 73.5639 3.75928 80.0055 3.75928Z" fill="#4F46E5"/>
<path d="M146.658 8.28373H138.586V12.7074H145.723V16.8232H138.586V21.6231H146.658V25.8871H133.261V4.0083H146.658V8.28373Z" fill="#4F46E5"/>
<path d="M125.487 25.8768H131.666L125.51 17.212C128.873 16.2201 130.366 13.632 130.366 10.8843C130.366 7.08776 127.687 3.99805 122.329 3.99805H113.39V25.8654H118.714V18.5573H120.516L125.487 25.8768ZM118.714 8.43309H122.021C124.016 8.43309 124.951 9.4934 124.951 11.1124C124.951 12.8225 124.016 13.8486 122.021 13.8486H118.714V8.43309Z" fill="#4F46E5"/>
<path d="M143.155 36.2186C144.332 36.2186 145.287 35.2641 145.287 34.0866C145.287 32.9091 144.332 31.9546 143.155 31.9546C141.977 31.9546 141.023 32.9091 141.023 34.0866C141.023 35.2641 141.977 36.2186 143.155 36.2186Z" fill="#4F46E5"/>
<path d="M143.137 28.9328C141.541 28.9328 140.127 29.6739 139.203 30.8368L132.602 30.7342V32.6838H107.839C107.497 32.6838 107.155 32.5698 107.155 32.5698V32.5584C104.362 31.6121 103.506 29.7195 103.244 28.6934C104.704 28.2259 105.98 26.9376 106.015 25.102C108.557 23.7795 110.313 21.1002 110.313 17.0528V11.0444H110.302L109.401 10.1893L109.196 5.11581L107.964 3.78188C107.976 3.69067 107.987 3.58806 107.987 3.49685C107.987 2.11731 106.858 1 105.467 1C104.077 1 102.948 2.11731 102.948 3.49685C102.948 4.87639 104.077 5.9937 105.467 5.9937C105.57 5.9937 105.673 5.9823 105.764 5.9709L106.174 6.74618V10.2007L105.467 11.0444H105.433V17.0984C105.433 19.6865 104.202 21.18 101.887 21.18C99.5731 21.18 98.3987 19.6865 98.3987 17.0984V11.0444H98.3759L97.6805 10.2007V6.74618L98.0795 5.9709C98.1821 5.9823 98.2733 5.9937 98.3759 5.9937C99.7555 5.9937 100.873 4.87639 100.873 3.49685C100.873 2.11731 99.7555 1 98.3759 1C96.9964 1 95.8791 2.11731 95.8791 3.49685C95.8791 3.59946 95.8905 3.69067 95.9019 3.78188L94.682 5.11581L94.4767 10.1893L93.5874 11.0444H93.519V17.0642C93.519 21.3624 95.3546 24.1215 98.1023 25.3528C98.2961 27.1542 99.4932 28.3285 100.896 28.739C101.386 32.7864 105.274 34.8386 106.608 35.0894C106.608 35.0894 106.893 35.1806 107.326 35.2148H132.636V37.1986H139.317C140.241 38.2931 141.62 39 143.171 39C145.953 39 148.199 36.754 148.199 33.9721C148.165 31.1902 145.919 28.9328 143.137 28.9328ZM102.013 27.6559C100.69 27.6559 99.7099 26.9376 99.2538 25.7747C100.052 25.9913 100.896 26.1053 101.785 26.1053C102.857 26.1053 103.883 25.9457 104.829 25.6265H104.818C104.373 26.8578 103.381 27.6559 102.013 27.6559ZM143.137 37.5977C141.13 37.5977 139.5 35.9673 139.5 33.9607C139.5 31.9541 141.13 30.3237 143.137 30.3237C145.143 30.3237 146.774 31.9541 146.774 33.9607C146.774 35.9673 145.143 37.5977 143.137 37.5977Z" fill="#4F46E5"/>
</svg>
